<svg width="24" height="25" viewBox="0 0 24 25" fill="none" xmlns="http://www.w3.org/2000/svg">
<path d="M14.4301 19.6111C14.2401 19.6111 14.0501 19.5411 13.9001 19.3911C13.6101 19.1011 13.6101 18.6211 13.9001 18.3311L19.4401 12.7911L13.9001 7.25113C13.6101 6.96113 13.6101 6.48113 13.9001 6.19113C14.1901 5.90113 14.6701 5.90113 14.9601 6.19113L21.0301 12.2611C21.3201 12.5511 21.3201 13.0311 21.0301 13.3211L14.9601 19.3911C14.8101 19.5411 14.6201 19.6111 14.4301 19.6111Z" fill="#FEFFFF"/>
<path d="M20.33 13.541H3.5C3.09 13.541 2.75 13.201 2.75 12.791C2.75 12.381 3.09 12.041 3.5 12.041H20.33C20.74 12.041 21.08 12.381 21.08 12.791C21.08 13.201 20.74 13.541 20.33 13.541Z" fill="#FEFFFF"/>
</svg>
