<svg width="28" height="29" viewBox="0 0 28 29" fill="none" xmlns="http://www.w3.org/2000/svg">
<path d="M23.6567 19.0699V21.9951C23.6567 24.2534 21.8841 26.0905 19.7051 26.0905H8.41488C6.23586 26.0905 4.4633 24.2534 4.4633 21.9951V21.2346C4.4633 19.3975 5.90845 17.8998 7.68101 17.8998H22.5277C23.1486 17.8998 23.6567 18.4263 23.6567 19.0699Z" fill="white"/>
<path d="M18.0116 2.68835H10.1084C5.59232 2.68835 4.4633 3.85846 4.4633 8.53889V17.4083C5.32136 16.6243 6.45038 16.1446 7.68101 16.1446H22.5277C23.1486 16.1446 23.6567 15.618 23.6567 14.9745V8.53889C23.6567 3.85846 22.5277 2.68835 18.0116 2.68835ZM15.189 12.9268H9.5439C9.081 12.9268 8.69713 12.529 8.69713 12.0492C8.69713 11.5695 9.081 11.1716 9.5439 11.1716H15.189C15.6519 11.1716 16.0358 11.5695 16.0358 12.0492C16.0358 12.529 15.6519 12.9268 15.189 12.9268ZM18.5761 8.83142H9.5439C9.081 8.83142 8.69713 8.43358 8.69713 7.95384C8.69713 7.4741 9.081 7.07626 9.5439 7.07626H18.5761C19.039 7.07626 19.4228 7.4741 19.4228 7.95384C19.4228 8.43358 19.039 8.83142 18.5761 8.83142Z" fill="white"/>
</svg>
