<svg width="40" height="41" viewBox="0 0 40 41" fill="none" xmlns="http://www.w3.org/2000/svg">
<path d="M20.6908 13.2941L20.6453 13.3694C20.5959 13.436 20.5375 13.4945 20.472 13.543C20.3853 13.6072 20.2877 13.6528 20.1851 13.6777C20.0825 13.7026 19.9762 13.7066 19.8723 13.6894C19.7683 13.6722 19.668 13.6341 19.5773 13.5767C19.4865 13.5193 19.4068 13.4437 19.3433 13.3535C19.2797 13.2633 19.2337 13.1605 19.2083 13.0509C19.183 12.9412 19.1789 12.8274 19.1964 12.716L18.7025 12.6383L19.1964 12.716C19.214 12.6046 19.2526 12.4984 19.3098 12.4034L19.3548 12.3286C19.404 12.2618 19.4625 12.2031 19.528 12.1543C19.6146 12.09 19.712 12.0443 19.8146 12.0192C19.9171 11.9941 20.0233 11.9899 20.1273 12.007C20.2313 12.024 20.3316 12.0619 20.4223 12.1191L20.4479 12.1352C20.5288 12.1904 20.6001 12.2604 20.658 12.3425C20.7218 12.4329 20.7679 12.5359 20.7933 12.6457C20.8186 12.7556 20.8226 12.8696 20.8049 12.9812L21.2987 13.0596L20.8049 12.9812C20.7872 13.0928 20.7482 13.1991 20.6908 13.2941ZM15.4224 20.1699V20.1272C15.4224 19.8988 15.511 19.6821 15.6651 19.5242C15.8187 19.3668 16.0244 19.2806 16.2361 19.2806H20C20.2118 19.2806 20.4175 19.3668 20.5711 19.5242C20.7251 19.6821 20.8137 19.8988 20.8137 20.1272V28.1664C20.8137 28.395 20.725 28.6118 20.5709 28.7698C20.4172 28.9273 20.2114 29.0135 19.9995 29.0135C19.7876 29.0135 19.5818 28.9273 19.4281 28.7698C19.274 28.6118 19.1853 28.395 19.1853 28.1664V21.4748V20.9748H18.6853H16.2351C16.0234 20.9748 15.8177 20.8887 15.6641 20.7313C15.5195 20.583 15.4325 20.3829 15.4224 20.1699ZM20 2.1932C16.4626 2.1932 13.0056 3.26846 10.0664 5.2815C7.12729 7.29442 4.83839 10.1542 3.48724 13.4977C2.13613 16.8411 1.7828 20.5194 2.47144 24.068C3.16009 27.6166 4.86019 30.8779 7.3586 33.4388C9.85714 35.9998 13.042 37.7453 16.5111 38.4526C19.9803 39.1599 23.5761 38.7968 26.8432 37.4096C30.1101 36.0226 32.9005 33.6746 34.8627 30.6644C36.8249 27.6544 37.8715 24.1168 37.8715 20.499C37.8715 15.6479 35.9915 10.9931 32.6414 7.55924C29.2908 4.12492 24.7439 2.1932 20 2.1932ZM0.5 20.499C0.50019 16.5407 1.64556 12.6724 3.78994 9.38315C5.93422 6.09407 8.9806 3.5325 12.5424 2.02043C16.104 0.508424 20.0224 0.113121 23.8025 0.883952C27.5827 1.6548 31.0567 3.55763 33.7846 6.35383C36.5126 9.15016 38.3717 12.7143 39.1249 16.5963C39.8782 20.4783 39.4914 24.5019 38.0139 28.1579C36.5365 31.8138 34.0354 34.9366 30.8288 37.1327C27.6223 39.3287 23.8539 40.5 20 40.5C17.4409 40.5 14.9065 39.9833 12.5415 38.9792C10.1765 37.975 8.02675 36.5029 6.21541 34.6462C4.40405 32.7894 2.9666 30.5845 1.98571 28.157C1.00482 25.7295 0.499874 23.1272 0.5 20.499Z" fill="white" stroke="white"/>
</svg>
