<svg width="28" height="28" viewBox="0 0 28 28" fill="none" xmlns="http://www.w3.org/2000/svg">
<path d="M25.2689 12.1796L24.1256 17.0563C23.1456 21.2679 21.2089 22.9713 17.5689 22.6213C16.9856 22.5746 16.3556 22.4696 15.6789 22.3063L13.7189 21.8396C8.85391 20.6846 7.34891 18.2813 8.49224 13.4046L9.63557 8.51627C9.86891 7.5246 10.1489 6.66127 10.4989 5.9496C11.8639 3.12627 14.1856 2.36794 18.0822 3.2896L20.0306 3.7446C24.9189 4.88794 26.4122 7.30294 25.2689 12.1796Z" stroke="#225AEA" stroke-width="3" stroke-linecap="round" stroke-linejoin="round"/>
<path d="M17.5694 22.6209C16.8461 23.1109 15.9361 23.5192 14.8278 23.8809L12.9844 24.4876C8.35276 25.9809 5.91442 24.7326 4.40942 20.1009L2.91609 15.4926C1.42275 10.8609 2.65942 8.41089 7.29109 6.91755L9.13442 6.31089C9.61275 6.15922 10.0678 6.03089 10.4994 5.94922C10.1494 6.66089 9.86942 7.52422 9.63609 8.51589L8.49276 13.4042C7.34942 18.2809 8.85442 20.6842 13.7194 21.8392L15.6794 22.3059C16.3561 22.4692 16.9861 22.5742 17.5694 22.6209Z" stroke="#225AEA" stroke-width="3" stroke-linecap="round" stroke-linejoin="round"/>
<path d="M14.7461 9.95312L20.4044 11.3881" stroke="#225AEA" stroke-width="2" stroke-linecap="round" stroke-linejoin="round"/>
<path d="M13.6016 14.4648L16.9849 15.3282" stroke="#225AEA" stroke-width="2" stroke-linecap="round" stroke-linejoin="round"/>
</svg>
