<svg width="12" height="14" viewBox="0 0 12 14" fill="none" xmlns="http://www.w3.org/2000/svg">
<path d="M10.5056 2.9941C10.4122 2.94526 10.3212 2.89173 10.2331 2.83369C9.97672 2.66233 9.74169 2.46042 9.53303 2.23231C9.01097 1.62829 8.81599 1.01553 8.74417 0.586512H8.74705C8.68706 0.230405 8.71186 0 8.71561 0H6.33777V9.29729C6.33777 9.42211 6.33777 9.54548 6.33258 9.66739C6.33258 9.68256 6.33114 9.69656 6.33027 9.71289C6.33027 9.7196 6.33027 9.7266 6.32883 9.7336V9.73885C6.30377 10.0724 6.19801 10.3947 6.02087 10.6772C5.84373 10.9598 5.60064 11.194 5.31297 11.3593C5.01316 11.5317 4.67406 11.6222 4.32912 11.6218C3.22125 11.6218 2.32336 10.7083 2.32336 9.58019C2.32336 8.45208 3.22125 7.53862 4.32912 7.53862C4.53884 7.53843 4.74726 7.5718 4.94666 7.63749L4.94954 5.18937C4.34423 5.1103 3.72928 5.15895 3.14348 5.33223C2.55769 5.50551 2.01377 5.79967 1.54603 6.19615C1.13619 6.55622 0.791631 6.98586 0.527865 7.46571C0.42749 7.6407 0.0487774 8.34387 0.0029166 9.48511C-0.0259267 10.1329 0.166458 10.804 0.25818 11.0813V11.0872C0.315866 11.2505 0.539402 11.8078 0.903693 12.2777C1.19744 12.6546 1.5445 12.9857 1.93369 13.2603V13.2544L1.93946 13.2603C3.09059 14.0512 4.36691 13.9993 4.36691 13.9993C4.58785 13.9903 5.32797 13.9993 6.16846 13.5965C7.10068 13.15 7.63139 12.4848 7.63139 12.4848C7.97044 12.0873 8.24004 11.6343 8.42862 11.1452C8.64379 10.5733 8.71561 9.8873 8.71561 9.61314V4.68072C8.74446 4.69822 9.12865 4.95517 9.12865 4.95517C9.12865 4.95517 9.68215 5.3139 10.5457 5.54751C11.1653 5.71376 12 5.74875 12 5.74875V3.36187C11.7075 3.39396 11.1136 3.30063 10.5056 2.9941Z" fill="#225AEA"/>
</svg>
