<svg width="17" height="13" viewBox="0 0 17 13" fill="none" xmlns="http://www.w3.org/2000/svg">
<path d="M13.6758 1.02371C12.6522 0.54651 11.5438 0.200153 10.3893 3.5404e-05C10.3792 -0.000288327 10.3691 0.00161131 10.3598 0.00560079C10.3505 0.00959027 10.3422 0.0155727 10.3354 0.023126C10.1969 0.277121 10.0352 0.608084 9.92748 0.862079C8.70292 0.677356 7.45758 0.677356 6.23301 0.862079C6.12526 0.600387 5.96362 0.277121 5.81738 0.023126C5.80969 0.00773239 5.7866 3.5404e-05 5.7635 3.5404e-05C4.60898 0.200153 3.50834 0.54651 2.47696 1.02371C2.46927 1.02371 2.46157 1.03141 2.45387 1.03911C0.360338 4.17171 -0.216924 7.21965 0.0678583 10.2368C0.0678583 10.2522 0.0755551 10.2676 0.0909488 10.2753C1.47638 11.2913 2.80793 11.907 4.12408 12.3149C4.14717 12.3226 4.17026 12.3149 4.17796 12.2996C4.48583 11.8762 4.76292 11.4298 5.00152 10.9603C5.01691 10.9295 5.00152 10.8987 4.97073 10.891C4.53201 10.7217 4.11639 10.5216 3.70845 10.2907C3.67767 10.2753 3.67767 10.2291 3.70076 10.206C3.78542 10.1444 3.87009 10.0752 3.95475 10.0136C3.97015 9.99821 3.99324 9.99821 4.00863 10.0059C6.65634 11.2143 9.51186 11.2143 12.1288 10.0059C12.1442 9.99821 12.1673 9.99821 12.1827 10.0136C12.2673 10.0829 12.352 10.1444 12.4366 10.2137C12.4674 10.2368 12.4674 10.283 12.429 10.2984C12.0287 10.537 11.6054 10.7294 11.1667 10.8987C11.1359 10.9064 11.1282 10.9449 11.1359 10.968C11.3822 11.4375 11.6593 11.8839 11.9594 12.3073C11.9825 12.3149 12.0056 12.3226 12.0287 12.3149C13.3526 11.907 14.6841 11.2913 16.0695 10.2753C16.0849 10.2676 16.0926 10.2522 16.0926 10.2368C16.4313 6.75015 15.5308 3.7253 13.7066 1.03911C13.6989 1.03141 13.6912 1.02371 13.6758 1.02371ZM5.40175 8.39727C4.60898 8.39727 3.94706 7.66607 3.94706 6.76554C3.94706 5.86501 4.59359 5.13381 5.40175 5.13381C6.21762 5.13381 6.86415 5.87271 6.85645 6.76554C6.85645 7.66607 6.20992 8.39727 5.40175 8.39727ZM10.7664 8.39727C9.97367 8.39727 9.31174 7.66607 9.31174 6.76554C9.31174 5.86501 9.95827 5.13381 10.7664 5.13381C11.5823 5.13381 12.2288 5.87271 12.2211 6.76554C12.2211 7.66607 11.5823 8.39727 10.7664 8.39727Z" fill="#225AEA"/>
</svg>
