<svg width="14" height="14" viewBox="0 0 14 14" fill="none" xmlns="http://www.w3.org/2000/svg">
<path fill-rule="evenodd" clip-rule="evenodd" d="M5.96375 0.0681334C3.19025 0.489587 0.914937 2.55647 0.221289 5.28455C-0.395579 7.71062 0.297378 10.2669 2.04861 12.0253C2.81993 12.7997 3.77101 13.3941 4.77411 13.7284C5.17415 13.8617 5.72513 14 5.85636 14C5.92202 14 5.92248 13.9823 5.92248 11.5403V9.08057H5.03467H4.14685V8.05706V7.03356H5.03197H5.91709L5.9314 5.93576C5.94429 4.94286 5.95234 4.81407 6.01561 4.58771C6.28573 3.62132 6.88425 3.04307 7.84609 2.81919C8.18027 2.7414 9.06752 2.7418 9.6764 2.82001C9.90543 2.84943 10.1015 2.8735 10.1121 2.8735C10.1227 2.8735 10.1314 3.26586 10.1314 3.74539V4.61729L9.49841 4.62868C8.899 4.63947 8.85583 4.64459 8.68438 4.72525C8.36529 4.87538 8.19539 5.10124 8.12858 5.46412C8.10885 5.57129 8.0927 5.96828 8.0927 6.34629V7.03356H9.06273C10.0301 7.03356 10.0327 7.03375 10.0327 7.10378C10.0327 7.16962 9.78932 8.79194 9.74973 8.98977L9.73158 9.08057H8.91216H8.0927V11.5403V14L8.16669 13.9993C8.47683 13.9963 9.54231 13.6546 10.0932 13.3816C12.1341 12.3699 13.5246 10.4897 13.9334 8.18913C14.0269 7.66334 14.0209 6.40796 13.9223 5.86148C13.4145 3.04677 11.3716 0.851512 8.63526 0.180257C7.86608 -0.00843153 6.77022 -0.0544233 5.96375 0.0681334Z" fill="#225AEA"/>
</svg>
