<svg width="180" height="26" viewBox="0 0 180 26" fill="none" xmlns="http://www.w3.org/2000/svg">
<rect x="152" width="28" height="26" rx="7" fill="white"/>
<rect x="114" width="28" height="26" rx="7" fill="white"/>
<rect x="76" width="28" height="26" rx="7" fill="white"/>
<rect x="38" width="28" height="26" rx="7" fill="white"/>
<rect width="28" height="26" rx="7" fill="white"/>
<path fill-rule="evenodd" clip-rule="evenodd" d="M12.9638 6.06813C10.1902 6.48959 7.91494 8.55647 7.22129 11.2845C6.60442 13.7106 7.29738 16.2669 9.04861 18.0253C9.81993 18.7997 10.771 19.3941 11.7741 19.7284C12.1742 19.8617 12.7251 20 12.8564 20C12.922 20 12.9225 19.9823 12.9225 17.5403V15.0806H12.0347H11.1469V14.0571V13.0336H12.032H12.9171L12.9314 11.9358C12.9443 10.9429 12.9523 10.8141 13.0156 10.5877C13.2857 9.62132 13.8843 9.04307 14.8461 8.81919C15.1803 8.7414 16.0675 8.7418 16.6764 8.82001C16.9054 8.84943 17.1015 8.8735 17.1121 8.8735C17.1227 8.8735 17.1314 9.26586 17.1314 9.74539V10.6173L16.4984 10.6287C15.899 10.6395 15.8558 10.6446 15.6844 10.7253C15.3653 10.8754 15.1954 11.1012 15.1286 11.4641C15.1088 11.5713 15.0927 11.9683 15.0927 12.3463V13.0336H16.0627C17.0301 13.0336 17.0327 13.0338 17.0327 13.1038C17.0327 13.1696 16.7893 14.7919 16.7497 14.9898L16.7316 15.0806H15.9122H15.0927V17.5403V20L15.1667 19.9993C15.4768 19.9963 16.5423 19.6546 17.0932 19.3816C19.1341 18.3699 20.5246 16.4897 20.9334 14.1891C21.0269 13.6633 21.0209 12.408 20.9223 11.8615C20.4145 9.04677 18.3716 6.85151 15.6353 6.18026C14.8661 5.99157 13.7702 5.94558 12.9638 6.06813Z" fill="#225AEA"/>
<path d="M58.6563 7.96422C58.5194 7.59347 58.3012 7.2579 58.0176 6.98245C57.7421 6.69883 57.4068 6.48056 57.0358 6.34374C56.7349 6.22689 56.283 6.08781 55.4505 6.04992C54.5499 6.00885 54.2799 6 52.0001 6C49.7201 6 49.4501 6.00862 48.5497 6.04969C47.7173 6.08781 47.2651 6.22689 46.9644 6.34374C46.5935 6.48056 46.2579 6.69883 45.9827 6.98245C45.6991 7.2579 45.4808 7.59325 45.3437 7.96422C45.2269 8.26508 45.0878 8.71727 45.0499 9.54975C45.0088 10.4501 45 10.7201 45 13.0001C45 15.2799 45.0088 15.5499 45.0499 16.4505C45.0878 17.283 45.2269 17.7349 45.3437 18.0358C45.4808 18.4068 45.6988 18.7421 45.9824 19.0176C46.2579 19.3012 46.5932 19.5194 46.9642 19.6563C47.2651 19.7733 47.7173 19.9124 48.5497 19.9503C49.4501 19.9914 49.7198 20 51.9999 20C54.2802 20 54.5502 19.9914 55.4503 19.9503C56.2827 19.9124 56.7349 19.7733 57.0358 19.6563C57.7804 19.369 58.369 18.7804 58.6563 18.0358C58.7731 17.7349 58.9122 17.283 58.9503 16.4505C58.9914 15.5499 59 15.2799 59 13.0001C59 10.7201 58.9914 10.4501 58.9503 9.54975C58.9124 8.71727 58.7733 8.26508 58.6563 7.96422ZM52.0001 17.3844C49.5785 17.3844 47.6154 15.4215 47.6154 12.9999C47.6154 10.5783 49.5785 8.6154 52.0001 8.6154C54.4215 8.6154 56.3846 10.5783 56.3846 12.9999C56.3846 15.4215 54.4215 17.3844 52.0001 17.3844ZM56.5579 9.4667C55.9921 9.4667 55.5333 9.00793 55.5333 8.44205C55.5333 7.87618 55.9921 7.4174 56.5579 7.4174C57.1238 7.4174 57.5826 7.87618 57.5826 8.44205C57.5824 9.00793 57.1238 9.4667 56.5579 9.4667Z" fill="#225AEA"/>
<path d="M55 13C55 14.6569 53.6569 16 52 16C50.3431 16 49 14.6569 49 13C49 11.3431 50.3431 10 52 10C53.6569 10 55 11.3431 55 13Z" fill="#225AEA"/>
<path d="M132.506 8.9941C132.412 8.94526 132.321 8.89173 132.233 8.83369C131.977 8.66233 131.742 8.46042 131.533 8.23231C131.011 7.62829 130.816 7.01553 130.744 6.58651H130.747C130.687 6.23041 130.712 6 130.716 6H128.338V15.2973C128.338 15.4221 128.338 15.5455 128.333 15.6674C128.333 15.6826 128.331 15.6966 128.33 15.7129C128.33 15.7196 128.33 15.7266 128.329 15.7336V15.7388C128.304 16.0724 128.198 16.3947 128.021 16.6772C127.844 16.9598 127.601 17.194 127.313 17.3593C127.013 17.5317 126.674 17.6222 126.329 17.6218C125.221 17.6218 124.323 16.7083 124.323 15.5802C124.323 14.4521 125.221 13.5386 126.329 13.5386C126.539 13.5384 126.747 13.5718 126.947 13.6375L126.95 11.1894C126.344 11.1103 125.729 11.1589 125.143 11.3322C124.558 11.5055 124.014 11.7997 123.546 12.1961C123.136 12.5562 122.792 12.9859 122.528 13.4657C122.427 13.6407 122.049 14.3439 122.003 15.4851C121.974 16.1329 122.166 16.804 122.258 17.0813V17.0872C122.316 17.2505 122.539 17.8078 122.904 18.2777C123.197 18.6546 123.545 18.9857 123.934 19.2603V19.2544L123.939 19.2603C125.091 20.0512 126.367 19.9993 126.367 19.9993C126.588 19.9903 127.328 19.9993 128.168 19.5965C129.101 19.15 129.631 18.4848 129.631 18.4848C129.97 18.0873 130.24 17.6343 130.429 17.1452C130.644 16.5733 130.716 15.8873 130.716 15.6131V10.6807C130.744 10.6982 131.129 10.9552 131.129 10.9552C131.129 10.9552 131.682 11.3139 132.546 11.5475C133.165 11.7138 134 11.7488 134 11.7488V9.36187C133.708 9.39396 133.114 9.30063 132.506 8.9941Z" fill="#225AEA"/>
<path d="M171.676 8.02371C170.652 7.54651 169.544 7.20015 168.389 7.00004C168.379 6.99971 168.369 7.00161 168.36 7.0056C168.35 7.00959 168.342 7.01557 168.335 7.02313C168.197 7.27712 168.035 7.60808 167.927 7.86208C166.703 7.67736 165.458 7.67736 164.233 7.86208C164.125 7.60039 163.964 7.27712 163.817 7.02313C163.81 7.00773 163.787 7.00004 163.764 7.00004C162.609 7.20015 161.508 7.54651 160.477 8.02371C160.469 8.02371 160.462 8.03141 160.454 8.03911C158.36 11.1717 157.783 14.2197 158.068 17.2368C158.068 17.2522 158.076 17.2676 158.091 17.2753C159.476 18.2913 160.808 18.907 162.124 19.3149C162.147 19.3226 162.17 19.3149 162.178 19.2996C162.486 18.8762 162.763 18.4298 163.002 17.9603C163.017 17.9295 163.002 17.8987 162.971 17.891C162.532 17.7217 162.116 17.5216 161.708 17.2907C161.678 17.2753 161.678 17.2291 161.701 17.206C161.785 17.1444 161.87 17.0752 161.955 17.0136C161.97 16.9982 161.993 16.9982 162.009 17.0059C164.656 18.2143 167.512 18.2143 170.129 17.0059C170.144 16.9982 170.167 16.9982 170.183 17.0136C170.267 17.0829 170.352 17.1444 170.437 17.2137C170.467 17.2368 170.467 17.283 170.429 17.2984C170.029 17.537 169.605 17.7294 169.167 17.8987C169.136 17.9064 169.128 17.9449 169.136 17.968C169.382 18.4375 169.659 18.8839 169.959 19.3073C169.983 19.3149 170.006 19.3226 170.029 19.3149C171.353 18.907 172.684 18.2913 174.07 17.2753C174.085 17.2676 174.093 17.2522 174.093 17.2368C174.431 13.7501 173.531 10.7253 171.707 8.03911C171.699 8.03141 171.691 8.02371 171.676 8.02371ZM163.402 15.3973C162.609 15.3973 161.947 14.6661 161.947 13.7655C161.947 12.865 162.594 12.1338 163.402 12.1338C164.218 12.1338 164.864 12.8727 164.856 13.7655C164.856 14.6661 164.21 15.3973 163.402 15.3973ZM168.766 15.3973C167.974 15.3973 167.312 14.6661 167.312 13.7655C167.312 12.865 167.958 12.1338 168.766 12.1338C169.582 12.1338 170.229 12.8727 170.221 13.7655C170.221 14.6661 169.582 15.3973 168.766 15.3973Z" fill="#225AEA"/>
<path d="M90.738 11.5052L95.5784 6H94.4318L90.2271 10.7792L86.8714 6H83L88.0756 13.2276L83 19H84.1466L88.5839 13.952L92.1286 19H96M84.5604 6.84603H86.3219L94.4309 18.1955H92.669" fill="#225AEA"/>
</svg>
