<svg width="28" height="28" viewBox="0 0 28 28" fill="none" xmlns="http://www.w3.org/2000/svg">
<path d="M19.6369 18.2468C20.4186 17.7335 21.4453 18.2935 21.4453 19.2268V20.7318C21.4453 22.2135 20.2903 23.8002 18.9019 24.2668L15.1803 25.5035C14.5269 25.7252 13.4653 25.7252 12.8236 25.5035L9.10193 24.2668C7.70193 23.8002 6.55859 22.2135 6.55859 20.7318V19.2152C6.55859 18.2935 7.58526 17.7335 8.35526 18.2352L10.7586 19.7985C11.6803 20.4168 12.8469 20.7202 14.0136 20.7202C15.1803 20.7202 16.3469 20.4168 17.2686 19.7985L19.6369 18.2468Z" fill="#225AEA"/>
<path d="M23.3088 7.53828L16.3205 2.95328C15.0605 2.12495 12.9838 2.12495 11.7238 2.95328L4.70047 7.53828C2.4488 8.99661 2.4488 12.2983 4.70047 13.7683L6.56714 14.9816L11.7238 18.3416C12.9838 19.1699 15.0605 19.1699 16.3205 18.3416L21.4421 14.9816L23.0405 13.9316V17.5016C23.0405 17.9799 23.4371 18.3766 23.9155 18.3766C24.3938 18.3766 24.7905 17.9799 24.7905 17.5016V11.7616C25.2571 10.2566 24.7788 8.50661 23.3088 7.53828Z" fill="#225AEA"/>
</svg>
