<svg width="14" height="14" viewBox="0 0 14 14" fill="none" xmlns="http://www.w3.org/2000/svg">
<path d="M13.6563 1.96422C13.5194 1.59347 13.3012 1.2579 13.0176 0.982448C12.7421 0.698831 12.4068 0.48056 12.0358 0.343743C11.7349 0.226893 11.283 0.0878077 10.4505 0.0499165C9.54994 0.00884886 9.27994 0 7.00011 0C4.72006 0 4.45006 0.00862196 3.54975 0.0496896C2.71727 0.0878077 2.26508 0.226893 1.96444 0.343743C1.59347 0.48056 1.2579 0.698831 0.982675 0.982448C0.699058 1.2579 0.480787 1.59325 0.343743 1.96422C0.226893 2.26508 0.0878077 2.71727 0.0499165 3.54975C0.00884885 4.45006 0 4.72006 0 7.00011C0 9.27994 0.00884885 9.54994 0.0499165 10.4505C0.0878077 11.283 0.226893 11.7349 0.343743 12.0358C0.480787 12.4068 0.698831 12.7421 0.982448 13.0176C1.2579 13.3012 1.59325 13.5194 1.96422 13.6563C2.26508 13.7733 2.71727 13.9124 3.54975 13.9503C4.45006 13.9914 4.71984 14 6.99989 14C9.28016 14 9.55017 13.9914 10.4503 13.9503C11.2827 13.9124 11.7349 13.7733 12.0358 13.6563C12.7804 13.369 13.369 12.7804 13.6563 12.0358C13.7731 11.7349 13.9122 11.283 13.9503 10.4505C13.9914 9.54994 14 9.27994 14 7.00011C14 4.72006 13.9914 4.45006 13.9503 3.54975C13.9124 2.71727 13.7733 2.26508 13.6563 1.96422ZM7.00011 11.3844C4.57848 11.3844 2.6154 9.42152 2.6154 6.99989C2.6154 4.57825 4.57848 2.6154 7.00011 2.6154C9.42152 2.6154 11.3846 4.57825 11.3846 6.99989C11.3846 9.42152 9.42152 11.3844 7.00011 11.3844ZM11.5579 3.4667C10.9921 3.4667 10.5333 3.00793 10.5333 2.44205C10.5333 1.87618 10.9921 1.4174 11.5579 1.4174C12.1238 1.4174 12.5826 1.87618 12.5826 2.44205C12.5824 3.00793 12.1238 3.4667 11.5579 3.4667Z" fill="#225AEA"/>
</svg>
