<svg width="30" height="30" viewBox="0 0 30 30" fill="none" xmlns="http://www.w3.org/2000/svg">
<path d="M17.3625 3.60066L11.5 2.67566C6.6125 1.91316 4.35 3.56316 3.575 8.45066L2.65 14.3132C2.15 17.5132 2.675 19.5882 4.4875 20.8507C5.4375 21.5257 6.7375 21.9757 8.425 22.2382L14.2875 23.1632C19.175 23.9257 21.4375 22.2757 22.2125 17.3882L23.125 11.5257C23.275 10.5632 23.3375 9.70066 23.2875 8.93816C23.125 5.81316 21.2875 4.21316 17.3625 3.60066ZM10.3 11.6882C8.8375 11.6882 7.65 10.5007 7.65 9.05066C7.65 7.58816 8.8375 6.40066 10.3 6.40066C11.75 6.40066 12.9375 7.58816 12.9375 9.05066C12.9375 10.5007 11.75 11.6882 10.3 11.6882Z" fill="#225AEA"/>
<path d="M25.625 16.8367L23.75 22.4742C22.1875 27.1742 19.6875 28.4242 14.9875 26.8617L9.35 24.9867C7.5875 24.3992 6.3125 23.6742 5.4875 22.7617C6.275 23.0742 7.1875 23.3117 8.225 23.4742L14.1 24.3992C14.9 24.5242 15.65 24.5867 16.35 24.5867C20.475 24.5867 22.6875 22.3617 23.45 17.5742L24.3625 11.7117C24.4875 10.9867 24.5375 10.3492 24.5375 9.76172C26.4375 11.3242 26.7125 13.5492 25.625 16.8367Z" fill="#225AEA"/>
</svg>
