<svg width="27" height="27" viewBox="0 0 27 27" fill="none" xmlns="http://www.w3.org/2000/svg">
<g clip-path="url(#clip0_4558_11653)">
<path d="M20.8684 14.3443C20.9064 18.4303 24.4529 19.79 24.4922 19.8073C24.4622 19.9031 23.9255 21.7449 22.6237 23.6474C21.4983 25.2922 20.3304 26.9309 18.4905 26.9649C16.6826 26.9982 16.1013 25.8928 14.0344 25.8928C11.9681 25.8928 11.3222 26.931 9.61084 26.9982C7.83488 27.0655 6.48246 25.2197 5.3478 23.5809C3.02918 20.2287 1.25727 14.1085 3.6365 9.97732C4.81844 7.92574 6.93068 6.62659 9.22331 6.59328C10.9673 6.56001 12.6133 7.76655 13.6794 7.76655C14.7449 7.76655 16.7452 6.31558 18.8481 6.52867C19.7284 6.56532 22.1996 6.88428 23.7863 9.20691C23.6584 9.28617 20.8377 10.9282 20.8684 14.3443ZM17.4707 4.31096C18.4136 3.16965 19.0482 1.58085 18.8751 0C17.516 0.0546234 15.8726 0.905649 14.8977 2.04633C14.0241 3.05645 13.259 4.67322 13.4654 6.22277C14.9803 6.33998 16.5278 5.45298 17.4707 4.31096Z" fill="black"/>
</g>
<defs>
<clipPath id="clip0_4558_11653">
<rect width="27" height="27" fill="white"/>
</clipPath>
</defs>
</svg>
