<svg width="81" height="80" viewBox="0 0 81 80" fill="none" xmlns="http://www.w3.org/2000/svg">
<path d="M10.5 18.0007H36.5C37.6046 18.0007 38.5 17.1053 38.5 16.0007V11.7377C38.5 10.1403 40.2803 9.18758 41.6094 10.0736L60.0039 22.3366C61.1913 23.1282 61.1913 24.8732 60.0038 25.6648L38.5 40.0007" stroke="white" stroke-width="2" stroke-linecap="round"/>
<path d="M4.5 36H32.5" stroke="white" stroke-width="2" stroke-linecap="round"/>
<path d="M8.5 24H36.5" stroke="white" stroke-width="2" stroke-linecap="round"/>
<path d="M6.5 30H34.5" stroke="white" stroke-width="2" stroke-linecap="round"/>
<path d="M38.4999 40L16.996 54.3359C15.8086 55.1275 15.8086 56.8725 16.9961 57.6641L35.3905 69.9271C36.7196 70.8131 38.4999 69.8604 38.4999 68.263V64C38.4999 62.8954 39.3953 62 40.4999 62H66.4999" stroke="white" stroke-width="2" stroke-linecap="round"/>
<path d="M44.5 44H72.5" stroke="white" stroke-width="2" stroke-linecap="round"/>
<path d="M40.5 56H68.5" stroke="white" stroke-width="2" stroke-linecap="round"/>
<path d="M42.5 50H70.5" stroke="white" stroke-width="2" stroke-linecap="round"/>
</svg>
