<svg width="33" height="32" viewBox="0 0 33 32" fill="none" xmlns="http://www.w3.org/2000/svg">
<g clip-path="url(#clip0_4558_11636)">
<path fill-rule="evenodd" clip-rule="evenodd" d="M3.5 16.5754C3.5 23.2871 8.37463 28.8682 14.75 30V20.2496H11.375V16.5H14.75V13.4996C14.75 10.1246 16.9246 8.25037 20.0004 8.25037C20.9746 8.25037 22.0254 8.4 22.9996 8.54962V12H21.275C19.6246 12 19.25 12.8246 19.25 13.8754V16.5H22.85L22.2504 20.2496H19.25V30C25.6254 28.8682 30.5 23.2882 30.5 16.5754C30.5 9.10875 24.425 3 17 3C9.575 3 3.5 9.10875 3.5 16.5754Z" fill="#0083FF"/>
</g>
<defs>
<clipPath id="clip0_4558_11636">
<rect width="27" height="27" fill="white" transform="translate(3.5 3)"/>
</clipPath>
</defs>
</svg>
