<svg width="81" height="80" viewBox="0 0 81 80" fill="none" xmlns="http://www.w3.org/2000/svg">
<path d="M40.5 52C47.1274 52 52.5 46.6274 52.5 40C52.5 33.3726 47.1274 28 40.5 28C33.8726 28 28.5 33.3726 28.5 40C28.5 46.6274 33.8726 52 40.5 52Z" stroke="white" stroke-width="2"/>
<path d="M58.2741 37.146C58.3514 37.6311 58.7495 38.0055 59.2386 38.0512C61.1273 38.2278 62.9824 38.6865 64.7411 39.415C66.7379 40.2422 68.5767 41.403 70.1797 42.8455C70.5903 43.215 71.2217 43.217 71.6122 42.8265L77.2691 37.1698C77.6596 36.7792 77.6608 36.1446 77.257 35.7678C74.7207 33.4006 71.7781 31.506 68.5679 30.1762C65.0495 28.7189 61.2784 27.9688 57.4701 27.9688C56.9641 27.9688 56.4588 27.982 55.9546 28.0084C55.1516 28.0504 54.7732 29.0021 55.2355 29.6599C56.773 31.8474 57.8357 34.3926 58.2741 37.146Z" stroke="white" stroke-width="2"/>
<path d="M43.6121 22.2677C42.8197 22.1296 42.4138 21.1888 42.9521 20.5912C43.2895 20.2165 43.6371 19.8502 43.9945 19.4929C46.6874 16.8 49.8843 14.6638 53.4027 13.2065C56.613 11.8767 60.0335 11.1358 63.5007 11.0162C64.0527 10.9972 64.5006 11.4467 64.5006 11.999V19.999C64.5006 20.5513 64.0525 20.9962 63.501 21.0253C61.3475 21.1387 59.2264 21.6181 57.2296 22.4453C55.4704 23.1739 53.8339 24.1616 52.3732 25.3727C51.9952 25.6861 51.4494 25.7032 51.0518 25.415C48.8854 23.845 46.3554 22.7458 43.6121 22.2677Z" stroke="white" stroke-width="2"/>
<path d="M37.6459 22.2246C38.131 22.1474 38.5055 21.7493 38.5512 21.2602C38.7277 19.3713 39.1865 17.5162 39.915 15.7573C40.7422 13.7605 41.903 11.9217 43.3455 10.3187C43.715 9.90817 43.717 9.27672 43.3265 8.88619L37.6698 3.22934C37.2792 2.83881 36.6446 2.83765 36.2678 3.2414C33.9006 5.7777 32.006 8.72028 30.6762 11.9305C29.2189 15.4489 28.4688 19.22 28.4688 23.0283C28.4688 23.5343 28.482 24.0395 28.5084 24.5436C28.5504 25.3466 29.502 25.725 30.1599 25.2627C32.3473 23.7255 34.8926 22.6629 37.6459 22.2246Z" stroke="white" stroke-width="2"/>
<path d="M25.9146 29.4484C26.2028 29.0508 26.1858 28.505 25.8724 28.127C24.6614 26.6664 23.6739 25.03 22.9453 23.271C22.1181 21.2741 21.6387 19.1531 21.5253 16.9996C21.4962 16.448 21.0513 16 20.499 16H12.499C11.9467 16 11.4972 16.4479 11.5162 16.9998C11.6358 20.4671 12.3767 23.8876 13.7065 27.0978C15.1638 30.6163 17.3 33.8132 19.9929 36.5061C20.35 36.8632 20.7159 37.2105 21.0904 37.5478C21.688 38.0861 22.6288 37.6802 22.7669 36.8878C23.2452 34.1446 24.3445 31.6147 25.9146 29.4484Z" stroke="white" stroke-width="2"/>
<path d="M22.7236 42.8501C22.6464 42.365 22.2483 41.9905 21.7592 41.9448C19.8707 41.7682 18.0159 41.3095 16.2573 40.5811C14.2605 39.7539 12.4217 38.5931 10.8187 37.1506C10.4082 36.7811 9.77672 36.779 9.38619 37.1695L3.72934 42.8263C3.33881 43.2169 3.33765 43.8514 3.7414 44.2282C6.2777 46.5954 9.22028 48.4901 12.4305 49.8199C15.9489 51.2772 19.72 52.0273 23.5283 52.0273C24.0338 52.0273 24.5386 52.0141 25.0423 51.9878C25.8453 51.9458 26.2238 50.9942 25.7615 50.3363C24.2243 48.1488 23.1617 45.6035 22.7236 42.8501Z" stroke="white" stroke-width="2"/>
<path d="M29.9476 54.5839C29.5501 54.2958 29.0042 54.3128 28.6263 54.6261C27.1658 55.8368 25.5297 56.8242 23.771 57.5527C21.7741 58.3798 19.6531 58.8592 17.4996 58.9727C16.948 59.0017 16.5 59.4467 16.5 59.999V67.999C16.5 68.5513 16.9479 69.0008 17.4998 68.9817C20.9671 68.8621 24.3876 68.1212 27.5978 66.7915C31.1163 65.3341 34.3132 63.198 37.0061 60.5051C37.363 60.1481 37.7101 59.7824 38.0472 59.4082C38.5856 58.8105 38.1797 57.8697 37.3873 57.7316C34.644 57.2534 32.114 56.1541 29.9476 54.5839Z" stroke="white" stroke-width="2"/>
<path d="M43.35 57.7739C42.8649 57.8512 42.4905 58.2492 42.4448 58.7383C42.2681 60.6267 41.8094 62.4814 41.0811 64.2398C40.2539 66.2367 39.0931 68.0755 37.6506 69.6785C37.2811 70.089 37.279 70.7204 37.6695 71.111L43.3263 76.7678C43.7169 77.1583 44.3514 77.1595 44.7282 76.7558C47.0954 74.2195 48.9901 71.2769 50.3199 68.0666C51.7772 64.5482 52.5273 60.7772 52.5273 56.9688C52.5273 56.4633 52.5141 55.9584 52.4878 55.4546C52.4458 54.6517 51.4941 54.2732 50.8363 54.7355C48.6488 56.2729 46.1035 57.3356 43.35 57.7739Z" stroke="white" stroke-width="2"/>
<path d="M55.0839 50.5521C54.7958 50.9496 54.8128 51.4954 55.1261 51.8734C56.337 53.3339 57.3245 54.9702 58.053 56.7291C58.8801 58.7259 59.3595 60.847 59.473 63.0005C59.502 63.552 59.947 64 60.4993 64H68.4993C69.0516 64 69.5011 63.5522 69.4821 63.0002C69.3625 59.533 68.6215 56.1124 67.2918 52.9022C65.8344 49.3838 63.6983 46.1868 61.0054 43.4939C60.6482 43.1368 60.2822 42.7894 59.9077 42.4521C59.31 41.9138 58.3692 42.3197 58.2311 43.1121C57.7531 45.8555 56.6539 48.3856 55.0839 50.5521Z" stroke="white" stroke-width="2"/>
</svg>
