<svg width="20" height="17" viewBox="0 0 20 17" fill="none" xmlns="http://www.w3.org/2000/svg">
<path d="M9.67917 16.5C9.40764 16.5 9.18003 16.4122 8.99635 16.2365C8.81267 16.0608 8.72083 15.8431 8.72083 15.5833C8.72083 15.4764 8.74479 15.3656 8.79271 15.251C8.84062 15.1365 8.9125 15.0333 9.00833 14.9417L13.4406 10.7021L12.7458 10.0375L8.3375 14.2771C8.24167 14.3688 8.13785 14.4375 8.02604 14.4833C7.91424 14.5292 7.79444 14.5521 7.66667 14.5521C7.39514 14.5521 7.16753 14.4642 6.98385 14.2885C6.80017 14.1128 6.70833 13.8951 6.70833 13.6354C6.70833 13.4826 6.73229 13.3566 6.78021 13.2573C6.82812 13.158 6.89201 13.0701 6.97187 12.9938L11.4042 8.75417L10.7333 8.1125L6.30104 12.3292C6.20521 12.4208 6.10139 12.4896 5.98958 12.5354C5.87778 12.5813 5.75 12.6042 5.60625 12.6042C5.35069 12.6042 5.12708 12.5125 4.93542 12.3292C4.74375 12.1458 4.64792 11.9319 4.64792 11.6875C4.64792 11.5653 4.67188 11.4507 4.71979 11.3438C4.76771 11.2368 4.83958 11.1375 4.93542 11.0458L9.36771 6.80625L8.67292 6.16458L4.26458 10.4042C4.18472 10.4806 4.08889 10.5417 3.97708 10.5875C3.86528 10.6333 3.72951 10.6562 3.56979 10.6562C3.29826 10.6562 3.07066 10.5684 2.88698 10.3927C2.7033 10.217 2.61146 9.99931 2.61146 9.73958C2.61146 9.61736 2.63542 9.50278 2.68333 9.39583C2.73125 9.28889 2.80312 9.18958 2.89896 9.09792L8.24167 3.9875L11.8354 7.44792C12.0111 7.61597 12.2188 7.74965 12.4583 7.84896C12.6979 7.94826 12.9375 7.99792 13.1771 7.99792C13.6882 7.99792 14.1354 7.82604 14.5187 7.48229C14.9021 7.13854 15.0938 6.69931 15.0938 6.16458C15.0938 5.95069 15.0538 5.72917 14.974 5.5C14.8941 5.27083 14.7503 5.05694 14.5427 4.85833L10.2542 0.75625C10.5257 0.511806 10.8292 0.324653 11.1646 0.194792C11.5 0.0649306 11.8354 0 12.1708 0C12.5861 0 12.9694 0.0649306 13.3208 0.194792C13.6722 0.324653 13.9917 0.527083 14.2792 0.802083L18.3281 4.69792C18.6156 4.97292 18.8273 5.27847 18.963 5.61458C19.0988 5.95069 19.1667 6.34028 19.1667 6.78333C19.1667 7.08889 19.0948 7.39826 18.951 7.71146C18.8073 8.02465 18.5997 8.31111 18.3281 8.57083L10.35 16.225C10.2222 16.3472 10.1104 16.4236 10.0146 16.4542C9.91875 16.4847 9.80694 16.5 9.67917 16.5ZM1.46146 9.16667L0.838542 8.57083C0.567014 8.32639 0.359375 8.03611 0.215625 7.7C0.071875 7.36389 0 7.0125 0 6.64583C0 6.24861 0.0798611 5.88194 0.239583 5.54583C0.399306 5.20972 0.598958 4.92708 0.838542 4.69792L4.8875 0.802083C5.14306 0.557639 5.44653 0.362847 5.79792 0.217708C6.14931 0.0725694 6.49271 0 6.82812 0C7.25937 0 7.64271 0.0572917 7.97812 0.171875C8.31354 0.286458 8.64097 0.496528 8.96042 0.802083L13.8719 5.5C13.9677 5.59167 14.0396 5.69097 14.0875 5.79792C14.1354 5.90486 14.1594 6.01944 14.1594 6.14167C14.1594 6.38611 14.0635 6.6 13.8719 6.78333C13.6802 6.96667 13.4566 7.05833 13.201 7.05833C13.0573 7.05833 12.9375 7.03924 12.8417 7.00104C12.7458 6.96285 12.642 6.89028 12.5302 6.78333L8.21771 2.70417L1.46146 9.16667Z" fill="white"/>
</svg>
