<svg width="19" height="21" viewBox="0 0 19 21" fill="none" xmlns="http://www.w3.org/2000/svg">
<path d="M10.6333 20.1667C9.38056 20.1667 8.20417 19.8802 7.10417 19.3073C6.00417 18.7344 5.10278 17.9361 4.4 16.9125L0 10.45L0.435417 10.0146C0.740972 9.69375 1.1191 9.51042 1.56979 9.46458C2.02049 9.41875 2.42917 9.52569 2.79583 9.78542L5.31667 11.5271V2.75C5.31667 2.49028 5.40451 2.27257 5.58021 2.09687C5.7559 1.92118 5.97361 1.83333 6.23333 1.83333C6.49306 1.83333 6.71076 1.92118 6.88646 2.09687C7.06215 2.27257 7.15 2.49028 7.15 2.75V10.0833H8.98333V0.916667C8.98333 0.656944 9.07118 0.439236 9.24688 0.263542C9.42257 0.0878472 9.64028 0 9.9 0C10.1597 0 10.3774 0.0878472 10.5531 0.263542C10.7288 0.439236 10.8167 0.656944 10.8167 0.916667V10.0833H12.65V1.83333C12.65 1.57361 12.7378 1.3559 12.9135 1.18021C13.0892 1.00451 13.3069 0.916667 13.5667 0.916667C13.8264 0.916667 14.0441 1.00451 14.2198 1.18021C14.3955 1.3559 14.4833 1.57361 14.4833 1.83333V10.0833H16.3167V3.66667C16.3167 3.40694 16.4045 3.18924 16.5802 3.01354C16.7559 2.83785 16.9736 2.75 17.2333 2.75C17.4931 2.75 17.7108 2.83785 17.8865 3.01354C18.0622 3.18924 18.15 3.40694 18.15 3.66667V12.65C18.15 14.7431 17.4205 16.5191 15.9615 17.9781C14.5024 19.4372 12.7264 20.1667 10.6333 20.1667Z" fill="white"/>
</svg>
