<svg width="28" height="28" viewBox="0 0 28 28" fill="none" xmlns="http://www.w3.org/2000/svg">
<path d="M4.66669 14.5C4.66669 12.6144 4.66669 11.6716 5.25247 11.0858C5.83826 10.5 6.78107 10.5 8.66669 10.5H19.3334C21.219 10.5 22.1618 10.5 22.7476 11.0858C23.3334 11.6716 23.3334 12.6144 23.3334 14.5V18.5C23.3334 21.3284 23.3334 22.7426 22.4547 23.6213C21.576 24.5 20.1618 24.5 17.3334 24.5H10.6667C7.83826 24.5 6.42405 24.5 5.54537 23.6213C4.66669 22.7426 4.66669 21.3284 4.66669 18.5V14.5Z" stroke="#707BA0" stroke-width="2"/>
<path d="M18.6667 9.33333V8.16667C18.6667 5.58934 16.5774 3.5 14 3.5V3.5C11.4227 3.5 9.33337 5.58934 9.33337 8.16667V9.33333" stroke="#707BA0" stroke-width="2" strokeLinecap="round"/>
<circle cx="14" cy="17.5001" r="2.33333" fill="#707BA0"/>
</svg>
