<svg width="81" height="80" viewBox="0 0 81 80" fill="none" xmlns="http://www.w3.org/2000/svg">
<path d="M40.5 74C59.2777 74 74.5 58.7777 74.5 40C74.5 21.2223 59.2777 6 40.5 6C21.7223 6 6.5 21.2223 6.5 40C6.5 58.7777 21.7223 74 40.5 74Z" stroke="white" stroke-width="2"/>
<path d="M33.5 63C47.8594 63 59.5 51.3594 59.5 37C59.5 22.6406 47.8594 11 33.5 11C19.1406 11 7.5 22.6406 7.5 37C7.5 51.3594 19.1406 63 33.5 63Z" stroke="white" stroke-width="2"/>
<path d="M36.5 48C46.4411 48 54.5 39.9411 54.5 30C54.5 20.0589 46.4411 12 36.5 12C26.5589 12 18.5 20.0589 18.5 30C18.5 39.9411 26.5589 48 36.5 48Z" stroke="white" stroke-width="2"/>
<path d="M43.5 43C49.0228 43 53.5 38.5228 53.5 33C53.5 27.4772 49.0228 23 43.5 23C37.9772 23 33.5 27.4772 33.5 33C33.5 38.5228 37.9772 43 43.5 43Z" stroke="white" stroke-width="2"/>
</svg>
