<svg width="81" height="80" viewBox="0 0 81 80" fill="none" xmlns="http://www.w3.org/2000/svg">
<path d="M37.4246 47.2796C39.3938 46.459 41.6092 46.4589 43.5785 47.2793L74.2862 60.073C75.1067 60.4149 75.1067 61.5773 74.2862 61.9192L43.5784 74.7153C41.6092 75.5358 39.3938 75.5359 37.4245 74.7154L6.71698 61.9218C5.89646 61.5799 5.89641 60.4175 6.71691 60.0756L37.4246 47.2796Z" stroke="white" stroke-width="2"/>
<path d="M37.4246 33.2796C39.3938 32.459 41.6092 32.4589 43.5785 33.2793L74.2862 46.073C75.1067 46.4149 75.1067 47.5773 74.2862 47.9192L43.5784 60.7153C41.6092 61.5358 39.3938 61.5359 37.4245 60.7154L6.71698 47.9218C5.89646 47.5799 5.89641 46.4175 6.71691 46.0756L37.4246 33.2796Z" stroke="white" stroke-width="2"/>
<path d="M37.4246 19.2796C39.3938 18.459 41.6092 18.4589 43.5785 19.2793L74.2862 32.073C75.1067 32.4149 75.1067 33.5773 74.2862 33.9192L43.5784 46.7153C41.6092 47.5358 39.3938 47.5359 37.4245 46.7154L6.71698 33.9218C5.89646 33.5799 5.89641 32.4175 6.71691 32.0756L37.4246 19.2796Z" stroke="white" stroke-width="2"/>
<path d="M37.4246 5.27954C39.3938 4.45897 41.6092 4.4589 43.5785 5.27935L74.2862 18.073C75.1067 18.4149 75.1067 19.5773 74.2862 19.9192L43.5784 32.7153C41.6092 33.5358 39.3938 33.5359 37.4245 32.7154L6.71698 19.9218C5.89646 19.5799 5.89641 18.4175 6.71691 18.0756L37.4246 5.27954Z" stroke="white" stroke-width="2"/>
</svg>
