<svg width="578" height="33" viewBox="0 0 578 33" fill="none" xmlns="http://www.w3.org/2000/svg">
<g clip-path="url(#clip0_9020_4822)">
<mask id="mask0_9020_4822" style="mask-type:luminance" maskUnits="userSpaceOnUse" x="365" y="7" width="27" height="20">
<path d="M386.61 7.68945H370.334C367.883 7.68945 365.895 9.74135 365.895 12.2725V21.4386C365.895 23.9697 367.883 26.0216 370.334 26.0216H386.61C389.062 26.0216 391.049 23.9697 391.049 21.4386V12.2725C391.049 9.74135 389.062 7.68945 386.61 7.68945Z" fill="white"/>
</mask>
<g mask="url(#mask0_9020_4822)">
<path d="M376.253 25.2573L390.31 20.8652V22.9658C390.31 24.2314 389.316 25.2573 388.09 25.2573H376.253Z" fill="#FD6020"/>
<path fill-rule="evenodd" clip-rule="evenodd" d="M387.641 14.6491C388.415 14.6491 388.84 15.0185 388.84 15.7161C388.879 16.2496 388.531 16.7011 388.067 16.7831L389.111 18.3015H388.299L387.41 16.8242H387.332V18.3015H386.675V14.6491H387.641ZM387.332 16.3318H387.526C387.951 16.3318 388.144 16.1265 388.144 15.7572C388.144 15.4289 387.951 15.2237 387.526 15.2237H387.332V16.3318ZM384.393 18.3015H386.249V17.686H385.051V16.7011H386.211V16.0855H385.051V15.2647H386.249V14.6491H384.393V18.3015ZM382.46 17.1115L381.571 14.6491H380.875L382.305 18.3837H382.654L384.084 14.6491H383.388L382.46 17.1115ZM374.611 16.4959C374.611 17.5218 375.384 18.3837 376.351 18.3837C376.66 18.3837 376.931 18.3015 377.202 18.1785V17.3577C377.008 17.6039 376.738 17.7681 376.428 17.7681C375.81 17.7681 375.307 17.2756 375.307 16.619V16.5369C375.268 15.8803 375.771 15.3057 376.39 15.2647C376.699 15.2647 377.008 15.4289 377.202 15.6751V14.8543C376.97 14.6902 376.66 14.6491 376.39 14.6491C375.384 14.5671 374.611 15.4289 374.611 16.4959ZM373.412 16.0445C373.026 15.8803 372.91 15.7982 372.91 15.593C372.948 15.3468 373.142 15.1416 373.374 15.1826C373.567 15.1826 373.76 15.3057 373.915 15.4699L374.263 14.9774C373.992 14.7312 373.644 14.567 373.296 14.567C372.755 14.526 372.291 14.9774 372.252 15.5519V15.593C372.252 16.0855 372.446 16.3728 373.064 16.5779C373.219 16.619 373.374 16.7011 373.528 16.7831C373.644 16.8652 373.722 16.9883 373.722 17.1525C373.722 17.4398 373.49 17.686 373.258 17.686H373.219C372.91 17.686 372.639 17.4808 372.523 17.1935L372.098 17.6449C372.33 18.0964 372.794 18.3426 373.258 18.3426C373.876 18.3837 374.379 17.8912 374.418 17.2345V17.1115C374.379 16.619 374.186 16.3728 373.412 16.0445ZM371.17 18.3015H371.827V14.6491H371.17V18.3015ZM368.115 14.6491H369.082H369.275C370.203 14.6902 370.938 15.5109 370.899 16.4959C370.899 17.0294 370.667 17.5218 370.28 17.8912C369.932 18.1785 369.507 18.3426 369.082 18.3016H368.115V14.6491ZM368.966 17.686C369.275 17.7271 369.623 17.6039 369.855 17.3987C370.087 17.1525 370.203 16.8242 370.203 16.4548C370.203 16.1265 370.087 15.7982 369.855 15.5519C369.623 15.3468 369.275 15.2237 368.966 15.2647H368.772V17.686H368.966Z" fill="black"/>
<path fill-rule="evenodd" clip-rule="evenodd" d="M379.173 14.5645C378.207 14.5645 377.395 15.3852 377.395 16.4522C377.395 17.4782 378.168 18.34 379.173 18.3811C380.179 18.4221 380.952 17.5603 380.991 16.4933C380.952 15.4263 380.179 14.5645 379.173 14.5645Z" fill="#FD6020"/>
</g>
<path d="M386.61 8.07227H370.334C368.087 8.07227 366.265 9.95317 366.265 12.2734V21.4395C366.265 23.7597 368.087 25.6406 370.334 25.6406H386.61C388.858 25.6406 390.679 23.7597 390.679 21.4395V12.2734C390.679 9.95317 388.858 8.07227 386.61 8.07227Z" stroke="#E2E6F3"/>
</g>
<g clip-path="url(#clip1_9020_4822)">
<mask id="mask1_9020_4822" style="mask-type:luminance" maskUnits="userSpaceOnUse" x="396" y="7" width="27" height="20">
<path d="M417.683 7.68945H401.407C398.955 7.68945 396.968 9.74135 396.968 12.2725V21.4386C396.968 23.9697 398.955 26.0216 401.407 26.0216H417.683C420.134 26.0216 422.122 23.9697 422.122 21.4386V12.2725C422.122 9.74135 420.134 7.68945 417.683 7.68945Z" fill="white"/>
</mask>
<g mask="url(#mask1_9020_4822)">
<path fill-rule="evenodd" clip-rule="evenodd" d="M409.677 20.5442C408.801 21.3065 407.665 21.7667 406.423 21.7667C403.653 21.7667 401.407 19.4754 401.407 16.649C401.407 13.8225 403.653 11.5312 406.423 11.5312C407.665 11.5312 408.801 11.9915 409.677 12.7538C410.553 11.9915 411.69 11.5312 412.931 11.5312C415.702 11.5312 417.948 13.8225 417.948 16.649C417.948 19.4754 415.702 21.7667 412.931 21.7667C411.69 21.7667 410.553 21.3065 409.677 20.5442Z" fill="#ED0006"/>
<path fill-rule="evenodd" clip-rule="evenodd" d="M409.677 20.5442C410.756 19.6055 411.44 18.2087 411.44 16.649C411.44 15.0892 410.756 13.6925 409.677 12.7538C410.553 11.9915 411.69 11.5312 412.931 11.5312C415.702 11.5312 417.948 13.8225 417.948 16.649C417.948 19.4754 415.702 21.7667 412.931 21.7667C411.69 21.7667 410.553 21.3065 409.677 20.5442Z" fill="#F9A000"/>
<path fill-rule="evenodd" clip-rule="evenodd" d="M409.677 20.5442C410.756 19.6055 411.44 18.2088 411.44 16.6491C411.44 15.0893 410.756 13.6926 409.677 12.7539C408.599 13.6926 407.915 15.0893 407.915 16.6491C407.915 18.2088 408.599 19.6055 409.677 20.5442Z" fill="#FF5E00"/>
</g>
<path d="M417.683 8.07227H401.407C399.16 8.07227 397.338 9.95317 397.338 12.2734V21.4395C397.338 23.7597 399.16 25.6406 401.407 25.6406H417.683C419.93 25.6406 421.752 23.7597 421.752 21.4395V12.2734C421.752 9.95317 419.93 8.07227 417.683 8.07227Z" stroke="#E2E6F3"/>
</g>
<g clip-path="url(#clip2_9020_4822)">
<mask id="mask2_9020_4822" style="mask-type:luminance" maskUnits="userSpaceOnUse" x="334" y="7" width="26" height="20">
<path d="M355.538 7.68945H339.262C336.81 7.68945 334.823 9.74135 334.823 12.2725V21.4386C334.823 23.9697 336.81 26.0216 339.262 26.0216H355.538C357.989 26.0216 359.977 23.9697 359.977 21.4386V12.2725C359.977 9.74135 357.989 7.68945 355.538 7.68945Z" fill="white"/>
</mask>
<g mask="url(#mask2_9020_4822)">
<path d="M357.018 8.07227H337.782C336.352 8.07227 335.193 9.26921 335.193 10.7457V22.9671C335.193 24.4436 336.352 25.6406 337.782 25.6406H357.018C358.448 25.6406 359.607 24.4436 359.607 22.9671V10.7457C359.607 9.26921 358.448 8.07227 357.018 8.07227Z" fill="#1F72CD" stroke="#E2E6F3"/>
<path fill-rule="evenodd" clip-rule="evenodd" d="M339.332 14.1836L336.979 19.7189H339.796L340.146 18.8364H340.944L341.293 19.7189H344.394V19.0454L344.671 19.7189H346.275L346.551 19.0311V19.7189H353.001L353.785 18.8593L354.519 19.7189L357.832 19.7261L355.471 16.9667L357.832 14.1836H354.571L353.807 15.0274L353.096 14.1836H346.08L345.477 15.6123L344.861 14.1836H342.049V14.8343L341.736 14.1836H339.332ZM339.877 14.9696H341.251L342.812 18.7232V14.9696H344.316L345.522 17.6609L346.633 14.9696H348.13V18.9416H347.219L347.212 15.8292L345.884 18.9416H345.069L343.734 15.8292V18.9416H341.86L341.505 18.0511H339.586L339.231 18.9408H338.227L339.877 14.9696ZM352.667 14.9696H348.963V18.9393H352.61L353.785 17.6236L354.918 18.9393H356.102L354.381 16.966L356.102 14.9696H354.969L353.8 16.2701L352.667 14.9696ZM340.546 15.6417L339.913 17.228H341.177L340.546 15.6417ZM349.878 16.5171V15.792L352.189 15.7913L353.197 16.9509L352.144 18.1168H349.878V17.3253H351.899V16.5171H349.878Z" fill="white"/>
</g>
<path d="M355.538 8.07227H339.262C337.015 8.07227 335.193 9.95317 335.193 12.2734V21.4395C335.193 23.7597 337.015 25.6406 339.262 25.6406H355.538C357.785 25.6406 359.607 23.7597 359.607 21.4395V12.2734C359.607 9.95317 357.785 8.07227 355.538 8.07227Z" stroke="#E2E6F3"/>
</g>
<g clip-path="url(#clip3_9020_4822)">
<mask id="mask3_9020_4822" style="mask-type:luminance" maskUnits="userSpaceOnUse" x="303" y="7" width="26" height="20">
<path d="M324.465 7.68945H308.189C305.738 7.68945 303.75 9.74135 303.75 12.2725V21.4386C303.75 23.9697 305.738 26.0216 308.189 26.0216H324.465C326.917 26.0216 328.904 23.9697 328.904 21.4386V12.2725C328.904 9.74135 326.917 7.68945 324.465 7.68945Z" fill="white"/>
</mask>
<g mask="url(#mask3_9020_4822)">
<path fill-rule="evenodd" clip-rule="evenodd" d="M311.704 19.803H310.18L309.037 15.1697C308.983 14.9565 308.868 14.7681 308.698 14.6793C308.276 14.4561 307.81 14.2785 307.302 14.1889V14.0105H309.756C310.095 14.0105 310.349 14.2785 310.392 14.5897L310.984 17.9319L312.508 14.0105H313.989L311.704 19.803ZM314.836 19.803H313.397L314.582 14.0105H316.021L314.836 19.803ZM317.883 15.6152C317.925 15.3033 318.179 15.1249 318.476 15.1249C318.942 15.0801 319.449 15.1697 319.873 15.392L320.127 14.1449C319.703 13.9665 319.237 13.877 318.815 13.877C317.418 13.877 316.401 14.6793 316.401 15.7928C316.401 16.64 317.121 17.0848 317.63 17.3527C318.179 17.6199 318.391 17.7983 318.349 18.0655C318.349 18.4663 317.925 18.6447 317.503 18.6447C316.994 18.6447 316.486 18.5111 316.021 18.2879L315.767 19.5359C316.275 19.7582 316.825 19.8478 317.333 19.8478C318.899 19.8918 319.873 19.0902 319.873 17.8871C319.873 16.372 317.883 16.2832 317.883 15.6152ZM324.909 19.803L323.767 14.0105H322.539C322.285 14.0105 322.031 14.1889 321.946 14.4561L319.83 19.803H321.312L321.608 18.9566H323.428L323.597 19.803H324.909ZM322.751 15.5705L323.174 17.7535H321.989L322.751 15.5705Z" fill="#172B85"/>
</g>
<path d="M324.465 8.07227H308.189C305.942 8.07227 304.12 9.95317 304.12 12.2734V21.4395C304.12 23.7597 305.942 25.6406 308.189 25.6406H324.465C326.713 25.6406 328.534 23.7597 328.534 21.4395V12.2734C328.534 9.95317 326.713 8.07227 324.465 8.07227Z" stroke="#E2E6F3"/>
</g>
<g clip-path="url(#clip4_9020_4822)">
<path d="M448.755 8.07227H432.479C430.232 8.07227 428.41 9.95317 428.41 12.2734V21.4395C428.41 23.7597 430.232 25.6406 432.479 25.6406H448.755C451.003 25.6406 452.824 23.7597 452.824 21.4395V12.2734C452.824 9.95317 451.003 8.07227 448.755 8.07227Z" stroke="#E2E6F3"/>
<g clip-path="url(#clip5_9020_4822)">
<path d="M435.748 14.4416C435.92 14.2131 436.043 13.9083 436.006 13.6035C435.748 13.6162 435.44 13.7813 435.256 13.9972C435.096 14.1877 434.948 14.5051 434.985 14.7972C435.28 14.8353 435.563 14.6702 435.748 14.4416ZM436.006 14.8734C435.588 14.848 435.231 15.1147 435.034 15.1147C434.838 15.1147 434.53 14.8861 434.198 14.8861C433.768 14.8988 433.374 15.1401 433.153 15.5465C432.71 16.3465 433.03 17.5275 433.472 18.1751C433.682 18.4926 433.94 18.8482 434.272 18.8355C434.592 18.8228 434.715 18.6196 435.096 18.6196C435.477 18.6196 435.588 18.8355 435.932 18.8228C436.277 18.8101 436.498 18.5053 436.707 18.1751C436.953 17.8069 437.052 17.4513 437.052 17.4386C437.039 17.4259 436.375 17.1719 436.375 16.3846C436.363 15.7242 436.892 15.4068 436.916 15.3941C436.633 14.9369 436.166 14.8861 436.006 14.8734Z" fill="black"/>
<path d="M439.623 13.9727C440.533 13.9727 441.16 14.6203 441.16 15.5473C441.16 16.487 440.52 17.1347 439.598 17.1347H438.602V18.7728H437.876V13.9727H439.623ZM438.602 16.5124H439.426C440.053 16.5124 440.41 16.1569 440.41 15.56C440.41 14.9505 440.053 14.6076 439.426 14.6076H438.589V16.5124H438.602ZM441.344 17.795C441.344 17.1855 441.8 16.8045 442.611 16.7537L443.546 16.7029V16.4362C443.546 16.0426 443.288 15.814 442.87 15.814C442.464 15.814 442.218 16.0172 442.156 16.322H441.492C441.529 15.687 442.058 15.2171 442.894 15.2171C443.718 15.2171 444.247 15.6616 444.247 16.3728V18.7855H443.583V18.2141H443.571C443.374 18.6078 442.943 18.849 442.501 18.849C441.812 18.849 441.344 18.4173 441.344 17.795ZM443.546 17.4776V17.1982L442.71 17.249C442.292 17.2744 442.058 17.4649 442.058 17.7696C442.058 18.0744 442.304 18.2776 442.673 18.2776C443.165 18.2776 443.546 17.9347 443.546 17.4776ZM444.862 20.0808V19.4967C444.911 19.5094 445.034 19.5094 445.084 19.5094C445.403 19.5094 445.576 19.3697 445.686 19.0141C445.686 19.0014 445.748 18.7982 445.748 18.7982L444.518 15.2933H445.268L446.129 18.1506H446.141L447.002 15.2933H447.74L446.473 18.9887C446.178 19.8396 445.846 20.1062 445.145 20.1062C445.096 20.0935 444.924 20.0935 444.862 20.0808Z" fill="black"/>
</g>
</g>
<path d="M294.194 25.4238V9.5411" stroke="#E3E6F2" stroke-width="0.5" stroke-linecap="square"/>
<g clip-path="url(#clip6_9020_4822)">
<path d="M280.991 7.64258H230.366C228.035 7.64258 226.146 9.66079 226.146 12.1504V21.166C226.146 23.6556 228.035 25.6738 230.366 25.6738H280.991C283.322 25.6738 285.211 23.6556 285.211 21.166V12.1504C285.211 9.66079 283.322 7.64258 280.991 7.64258Z" fill="#030625"/>
<path d="M258.462 19.459C258.363 19.459 258.272 19.4504 258.188 19.4334C258.105 19.4177 258.039 19.3992 257.99 19.3779L258.158 18.776C258.263 18.8087 258.357 18.8244 258.44 18.8229C258.522 18.8215 258.595 18.7938 258.657 18.7397C258.721 18.687 258.775 18.5988 258.819 18.475L258.881 18.2979L257.768 14.9512H258.536L259.243 17.427H259.275L259.984 14.9512H260.754L259.525 18.6265C259.467 18.8002 259.391 18.9489 259.297 19.0727C259.202 19.1979 259.086 19.2933 258.949 19.3587C258.813 19.4256 258.651 19.459 258.462 19.459Z" fill="#F9F9FC"/>
<path d="M254.716 18.2286V13.8574H255.44V15.4923H255.47C255.507 15.4127 255.56 15.328 255.628 15.2384C255.696 15.1473 255.787 15.0697 255.903 15.0057C256.019 14.9403 256.167 14.9075 256.347 14.9075C256.584 14.9075 256.798 14.9723 256.988 15.1018C257.18 15.2298 257.332 15.4198 257.444 15.6717C257.557 15.9221 257.614 16.2294 257.614 16.5937C257.614 16.9537 257.559 17.2596 257.448 17.5114C257.337 17.7634 257.187 17.9555 256.996 18.0878C256.806 18.2201 256.59 18.2863 256.349 18.2863C256.173 18.2863 256.027 18.2549 255.911 18.1924C255.795 18.1298 255.702 18.0543 255.632 17.9661C255.562 17.8764 255.508 17.7918 255.47 17.7121H255.428V18.2286H254.716ZM255.426 16.5894C255.426 16.8015 255.454 16.9871 255.51 17.1465C255.567 17.3059 255.649 17.4304 255.756 17.52C255.863 17.6082 255.994 17.6523 256.147 17.6523C256.307 17.6523 256.441 17.6068 256.549 17.5157C256.657 17.4232 256.738 17.2973 256.793 17.138C256.849 16.9772 256.877 16.7943 256.877 16.5894C256.877 16.3859 256.849 16.2052 256.795 16.0473C256.74 15.8894 256.659 15.7656 256.551 15.6759C256.443 15.5862 256.308 15.5415 256.147 15.5415C255.993 15.5415 255.861 15.5848 255.754 15.6717C255.646 15.7584 255.564 15.8801 255.508 16.0366C255.453 16.1931 255.426 16.3774 255.426 16.5894Z" fill="#F9F9FC"/>
<path d="M251.109 18.2863C250.867 18.2863 250.652 18.2201 250.461 18.0878C250.271 17.9555 250.12 17.7634 250.009 17.5114C249.899 17.2596 249.844 16.9537 249.844 16.5937C249.844 16.2294 249.9 15.9221 250.011 15.6717C250.125 15.4198 250.277 15.2298 250.469 15.1018C250.661 14.9723 250.875 14.9075 251.11 14.9075C251.29 14.9075 251.438 14.9403 251.554 15.0057C251.67 15.0697 251.762 15.1473 251.83 15.2384C251.898 15.328 251.95 15.4127 251.988 15.4923H252.018V13.8574H252.743V18.2286H252.032V17.7121H251.988C251.95 17.7918 251.896 17.8764 251.826 17.9661C251.755 18.0543 251.662 18.1298 251.546 18.1924C251.43 18.2549 251.284 18.2863 251.109 18.2863ZM251.31 17.6523C251.464 17.6523 251.594 17.6082 251.702 17.52C251.81 17.4304 251.892 17.3059 251.948 17.1465C252.004 16.9871 252.032 16.8015 252.032 16.5894C252.032 16.3774 252.004 16.1931 251.948 16.0366C251.893 15.8801 251.812 15.7584 251.704 15.6717C251.597 15.5848 251.466 15.5415 251.31 15.5415C251.149 15.5415 251.015 15.5862 250.907 15.6759C250.799 15.7656 250.718 15.8894 250.663 16.0473C250.608 16.2052 250.581 16.3859 250.581 16.5894C250.581 16.7943 250.608 16.9772 250.663 17.138C250.719 17.2973 250.801 17.4232 250.909 17.5157C251.018 17.6068 251.152 17.6523 251.31 17.6523Z" fill="#F9F9FC"/>
<path d="M248.105 18.2933C247.797 18.2933 247.532 18.225 247.308 18.0885C247.085 17.9504 246.914 17.7555 246.794 17.5036C246.674 17.2503 246.615 16.9523 246.615 16.6093C246.615 16.2721 246.674 15.9761 246.794 15.7214C246.916 15.4653 247.085 15.266 247.302 15.1238C247.519 14.9801 247.774 14.9082 248.067 14.9082C248.256 14.9082 248.435 14.9409 248.603 15.0064C248.772 15.0704 248.921 15.17 249.05 15.3052C249.181 15.4403 249.283 15.6125 249.358 15.8217C249.433 16.0294 249.47 16.2771 249.47 16.5645V16.8014H246.954V16.2806H248.777C248.775 16.1326 248.745 16.001 248.687 15.8857C248.628 15.769 248.546 15.6773 248.441 15.6104C248.337 15.5436 248.216 15.5101 248.077 15.5101C247.929 15.5101 247.799 15.5485 247.688 15.6254C247.576 15.7007 247.488 15.8004 247.426 15.9242C247.365 16.0466 247.333 16.181 247.332 16.3276V16.7822C247.332 16.9728 247.365 17.1365 247.43 17.2731C247.495 17.4083 247.586 17.5121 247.704 17.5847C247.821 17.6559 247.958 17.6915 248.115 17.6915C248.22 17.6915 248.316 17.6758 248.401 17.6445C248.486 17.6118 248.56 17.564 248.623 17.5015C248.685 17.4389 248.733 17.3613 248.765 17.2689L249.44 17.3499C249.397 17.5406 249.316 17.7071 249.196 17.8494C249.078 17.9903 248.926 18.0998 248.741 18.1781C248.555 18.2549 248.344 18.2933 248.105 18.2933Z" fill="#F9F9FC"/>
<path d="M244.754 18.2296V14.9513H245.456V15.4977H245.488C245.543 15.3084 245.639 15.1625 245.775 15.0601C245.912 14.9562 246.069 14.9043 246.245 14.9043C246.285 14.9043 246.329 14.9064 246.379 14.9107C246.429 14.9136 246.471 14.9185 246.505 14.9256V15.6364C246.474 15.625 246.425 15.615 246.359 15.6065C246.293 15.5966 246.23 15.5916 246.169 15.5916C246.037 15.5916 245.918 15.6222 245.813 15.6833C245.709 15.7431 245.627 15.8264 245.567 15.9331C245.507 16.0398 245.478 16.1629 245.478 16.3023V18.2296H244.754Z" fill="#F9F9FC"/>
<path d="M242.89 18.2933C242.582 18.2933 242.317 18.225 242.093 18.0885C241.87 17.9504 241.699 17.7555 241.579 17.5036C241.459 17.2503 241.399 16.9523 241.399 16.6093C241.399 16.2721 241.459 15.9761 241.579 15.7214C241.7 15.4653 241.87 15.266 242.087 15.1238C242.304 14.9801 242.559 14.9082 242.852 14.9082C243.041 14.9082 243.22 14.9409 243.388 15.0064C243.557 15.0704 243.706 15.17 243.835 15.3052C243.966 15.4403 244.068 15.6125 244.143 15.8217C244.218 16.0294 244.255 16.2771 244.255 16.5645V16.8014H241.739V16.2806H243.561C243.56 16.1326 243.53 16.001 243.472 15.8857C243.413 15.769 243.331 15.6773 243.226 15.6104C243.122 15.5436 243.001 15.5101 242.862 15.5101C242.714 15.5101 242.584 15.5485 242.472 15.6254C242.361 15.7007 242.273 15.8004 242.211 15.9242C242.149 16.0466 242.118 16.181 242.117 16.3276V16.7822C242.117 16.9728 242.149 17.1365 242.215 17.2731C242.28 17.4083 242.371 17.5121 242.488 17.5847C242.606 17.6559 242.743 17.6915 242.9 17.6915C243.005 17.6915 243.101 17.6758 243.186 17.6445C243.271 17.6118 243.345 17.564 243.408 17.5015C243.47 17.4389 243.518 17.3613 243.55 17.2689L244.225 17.3499C244.182 17.5406 244.101 17.7071 243.981 17.8494C243.863 17.9903 243.711 18.0998 243.526 18.1781C243.34 18.2549 243.129 18.2933 242.89 18.2933Z" fill="#F9F9FC"/>
<path d="M237.656 18.2296L236.789 14.9512H237.526L238.065 17.2563H238.093L238.645 14.9512H239.374L239.926 17.2435H239.956L240.487 14.9512H241.227L240.357 18.2296H239.604L239.029 16.0141H238.987L238.411 18.2296H237.656Z" fill="#F9F9FC"/>
<path d="M235.138 18.2933C234.838 18.2933 234.578 18.2229 234.359 18.082C234.139 17.9411 233.968 17.7441 233.847 17.4908C233.727 17.2375 233.667 16.9415 233.667 16.6029C233.667 16.2642 233.727 15.9675 233.847 15.7128C233.968 15.4581 234.139 15.2604 234.359 15.1195C234.578 14.9786 234.838 14.9082 235.138 14.9082C235.438 14.9082 235.697 14.9786 235.917 15.1195C236.137 15.2604 236.307 15.4581 236.427 15.7128C236.548 15.9675 236.609 16.2642 236.609 16.6029C236.609 16.9415 236.548 17.2375 236.427 17.4908C236.307 17.7441 236.137 17.9411 235.917 18.082C235.697 18.2229 235.438 18.2933 235.138 18.2933ZM235.142 17.6743C235.304 17.6743 235.44 17.6267 235.55 17.5314C235.659 17.4346 235.74 17.3052 235.793 17.1429C235.848 16.9807 235.875 16.8 235.875 16.6008C235.875 16.4001 235.848 16.2187 235.793 16.0565C235.74 15.8929 235.659 15.7627 235.55 15.6659C235.44 15.5691 235.304 15.5208 235.142 15.5208C234.975 15.5208 234.837 15.5691 234.726 15.6659C234.617 15.7627 234.535 15.8929 234.48 16.0565C234.427 16.2187 234.401 16.4001 234.401 16.6008C234.401 16.8 234.427 16.9807 234.48 17.1429C234.535 17.3052 234.617 17.4346 234.726 17.5314C234.837 17.6267 234.975 17.6743 235.142 17.6743Z" fill="#F9F9FC"/>
<path d="M230.366 18.2286V13.8574H231.901C232.215 13.8574 232.479 13.92 232.692 14.0452C232.907 14.1705 233.069 14.3426 233.178 14.5618C233.288 14.7795 233.344 15.0271 233.344 15.3045C233.344 15.5848 233.288 15.8339 233.178 16.0516C233.067 16.2692 232.904 16.4408 232.688 16.5659C232.472 16.6897 232.207 16.7517 231.891 16.7517H230.874V16.1007H231.791C231.975 16.1007 232.125 16.0665 232.243 15.9982C232.36 15.9299 232.447 15.836 232.502 15.7164C232.56 15.5969 232.588 15.4596 232.588 15.3045C232.588 15.1494 232.56 15.0128 232.502 14.8947C232.447 14.7766 232.359 14.6848 232.241 14.6194C232.123 14.5525 231.972 14.5191 231.787 14.5191H231.108V18.2286H230.366Z" fill="#F9F9FC"/>
<path fill-rule="evenodd" clip-rule="evenodd" d="M273 13.7593L271.785 14.046V12.963L273 12.6816V13.7593ZM275.527 14.3592C275.052 14.3592 274.747 14.6034 274.578 14.7733L274.515 14.4441H273.45V20.6341L274.66 20.3527L274.665 18.8504C274.839 18.9884 275.096 19.1848 275.522 19.1848C276.388 19.1848 277.177 18.4204 277.177 16.7375C277.172 15.198 276.374 14.3592 275.527 14.3592ZM275.236 18.0169C274.951 18.0169 274.781 17.9054 274.665 17.7674L274.66 15.7979C274.786 15.6439 274.96 15.5377 275.236 15.5377C275.677 15.5377 275.982 16.0792 275.982 16.7746C275.982 17.4861 275.682 18.0169 275.236 18.0169ZM280.991 16.7906C280.991 15.4315 280.391 14.3592 279.244 14.3592C278.092 14.3592 277.395 15.4315 277.395 16.78C277.395 18.3779 278.218 19.1848 279.399 19.1848C279.975 19.1848 280.41 19.0415 280.739 18.8397V17.778C280.41 17.9585 280.033 18.07 279.554 18.07C279.084 18.07 278.668 17.8895 278.615 17.2631H280.981C280.981 17.2338 280.983 17.1674 280.985 17.0909C280.988 16.9869 280.991 16.864 280.991 16.7906ZM278.6 16.2863C278.6 15.6864 278.934 15.4369 279.239 15.4369C279.534 15.4369 279.849 15.6864 279.849 16.2863H278.6ZM271.785 14.4495H273V19.0946H271.785V14.4495ZM270.406 14.4494L270.484 14.8423C270.769 14.2689 271.335 14.3857 271.49 14.4494V15.6705C271.34 15.6121 270.856 15.5377 270.571 15.9465V19.0946H269.361V14.4494H270.406ZM268.063 13.2974L266.882 13.5735L266.878 17.8258C266.878 18.6115 267.415 19.1902 268.131 19.1902C268.528 19.1902 268.818 19.1105 268.978 19.015V17.9373C268.823 18.0063 268.059 18.2505 268.059 17.4648V15.5802H268.978V14.4494H268.059L268.063 13.2974ZM265.203 15.5112C264.947 15.5112 264.792 15.5908 264.792 15.7979C264.792 16.0239 265.058 16.1233 265.389 16.2467C265.928 16.4478 266.638 16.7126 266.641 17.6931C266.641 18.6434 265.948 19.1902 264.942 19.1902C264.526 19.1902 264.071 19.0999 263.62 18.8875V17.6241C264.027 17.8682 264.54 18.0488 264.942 18.0488C265.213 18.0488 265.406 17.9691 265.406 17.725C265.406 17.4746 265.117 17.3601 264.769 17.2219C264.237 17.0115 263.567 16.746 263.567 15.8616C263.567 14.9219 264.221 14.3592 265.203 14.3592C265.605 14.3592 266.002 14.4282 266.403 14.6034V15.851C266.036 15.6333 265.571 15.5112 265.203 15.5112Z" fill="white"/>
</g>
<path d="M462.169 24.4746V8.59189" stroke="#E3E6F2" stroke-width="0.5" stroke-linecap="square"/>
<mask id="mask4_9020_4822" style="mask-type:luminance" maskUnits="userSpaceOnUse" x="468" y="9" width="12" height="13">
<path d="M479.883 9.66016H468.201V21.7601H479.883V9.66016Z" fill="white"/>
</mask>
<g mask="url(#mask4_9020_4822)">
<path d="M477.848 12.0121C477.839 11.9538 477.792 11.9149 477.745 11.9149C477.698 11.9149 476.807 11.8469 476.807 11.8469C476.807 11.8469 476.187 11.2054 476.112 11.1374C476.047 11.0694 475.906 11.0888 475.859 11.1083C475.85 11.1083 475.718 11.1471 475.512 11.2152C475.305 10.5932 474.939 10.0198 474.292 10.0198C474.273 10.0198 474.255 10.0198 474.236 10.0198C474.048 9.76707 473.823 9.66016 473.626 9.66016C472.115 9.66016 471.393 11.6136 471.168 12.605C470.586 12.7896 470.164 12.9257 470.117 12.9451C469.788 13.052 469.779 13.0617 469.742 13.3825C469.704 13.6157 468.85 20.4675 468.85 20.4675L475.512 21.7601L479.124 20.9534C479.124 20.9534 477.857 12.0801 477.848 12.0121ZM475.137 11.3318C474.968 11.3901 474.78 11.4484 474.574 11.5165C474.574 11.4776 474.574 11.4387 474.574 11.3901C474.574 11.0014 474.517 10.6904 474.442 10.4474C474.78 10.4863 474.996 10.875 475.137 11.3318ZM474.029 10.5154C474.123 10.7584 474.18 11.0985 474.18 11.565C474.18 11.5845 474.18 11.6136 474.18 11.6331C473.814 11.7497 473.41 11.876 473.016 12.0024C473.241 11.118 473.663 10.6806 474.029 10.5154ZM473.579 10.0781C473.645 10.0781 473.71 10.0975 473.776 10.1461C473.298 10.3793 472.772 10.9722 472.556 12.1579C472.237 12.2648 471.928 12.362 471.637 12.4495C471.89 11.5456 472.5 10.0781 473.579 10.0781Z" fill="#95BF47"/>
<path d="M477.745 11.914C477.698 11.914 476.807 11.846 476.807 11.846C476.807 11.846 476.187 11.2045 476.112 11.1365C476.084 11.1073 476.056 11.0976 476.019 11.0879L475.512 21.7591L479.124 20.9525C479.124 20.9525 477.857 12.0792 477.848 12.0209C477.839 11.9529 477.782 11.9237 477.745 11.914Z" fill="#5E8E3E"/>
<path d="M474.283 13.9854L473.842 15.3558C473.842 15.3558 473.448 15.142 472.979 15.142C472.275 15.142 472.247 15.5988 472.247 15.7154C472.247 16.3374 473.823 16.5803 473.823 18.0479C473.823 19.2044 473.119 19.943 472.162 19.943C471.018 19.943 470.436 19.2044 470.436 19.2044L470.746 18.1548C470.746 18.1548 471.346 18.6894 471.853 18.6894C472.181 18.6894 472.322 18.4172 472.322 18.2228C472.322 17.4064 471.027 17.3676 471.027 16.0264C471.027 14.899 471.806 13.8008 473.391 13.8008C473.982 13.8008 474.283 13.9854 474.283 13.9854Z" fill="white"/>
</g>
<path d="M512.684 20.8395C512.508 20.8395 512.346 20.825 512.2 20.7961C512.054 20.7694 511.933 20.7348 511.839 20.6925L512.323 19.6298C512.475 19.681 512.614 19.7077 512.739 19.71C512.866 19.7122 512.982 19.6788 513.087 19.6097C513.193 19.5406 513.289 19.427 513.378 19.2688L513.5 19.0516L512.571 13.7812H513.965L514.384 17.5577H514.436L516.078 13.7812H517.585L514.749 19.4693C514.609 19.7478 514.443 19.9895 514.252 20.1946C514.063 20.3995 513.838 20.5577 513.578 20.6691C513.32 20.7827 513.022 20.8395 512.684 20.8395Z" fill="#151E3A"/>
<path d="M512.31 13.7819L512.139 14.8514H509.08L509.251 13.7819H512.31ZM509.122 18.9152L510.01 13.411C510.068 13.0389 510.186 12.7303 510.364 12.4852C510.545 12.2402 510.768 12.0563 511.032 11.9338C511.299 11.8113 511.587 11.75 511.897 11.75C512.108 11.75 512.298 11.7667 512.468 11.8001C512.64 11.8336 512.765 11.8636 512.842 11.8904L512.433 12.9598C512.381 12.942 512.318 12.9253 512.242 12.9097C512.167 12.8941 512.087 12.8863 512.003 12.8863C511.803 12.8863 511.656 12.9353 511.561 13.0333C511.469 13.1291 511.407 13.2639 511.374 13.4377L510.494 18.9152H509.122Z" fill="#151E3A"/>
<path d="M506.522 18.9146L507.348 13.7812H508.722L507.897 18.9146H506.522ZM508.177 13.1128C507.973 13.1128 507.804 13.0427 507.671 12.9023C507.539 12.7597 507.486 12.5904 507.509 12.3943C507.533 12.1938 507.626 12.0245 507.787 11.8863C507.948 11.746 508.131 11.6758 508.335 11.6758C508.54 11.6758 508.706 11.746 508.835 11.8863C508.964 12.0245 509.018 12.1938 508.997 12.3943C508.975 12.5904 508.884 12.7597 508.722 12.9023C508.563 13.0427 508.382 13.1128 508.177 13.1128Z" fill="#151E3A"/>
<path d="M500.646 20.8399L501.788 13.7817H503.143L503.004 14.6439H503.065C503.147 14.5058 503.256 14.3654 503.391 14.2228C503.529 14.078 503.7 13.9577 503.904 13.8619C504.108 13.7639 504.348 13.7148 504.624 13.7148C504.987 13.7148 505.304 13.8129 505.575 14.0089C505.846 14.2028 506.042 14.4958 506.163 14.8879C506.285 15.2778 506.299 15.7668 506.204 16.355C506.114 16.9276 505.947 17.4111 505.704 17.8054C505.463 18.1976 505.174 18.495 504.837 18.6978C504.501 18.8983 504.145 18.9985 503.769 18.9985C503.502 18.9985 503.282 18.9529 503.11 18.8615C502.941 18.7702 502.808 18.6554 502.714 18.5173C502.619 18.3769 502.552 18.2354 502.514 18.0929H502.462L502.023 20.8399H500.646ZM502.72 16.3483C502.673 16.6536 502.671 16.9198 502.714 17.147C502.759 17.3743 502.849 17.5515 502.985 17.6784C503.12 17.8032 503.299 17.8656 503.52 17.8656C503.744 17.8656 503.943 17.8021 504.117 17.6751C504.291 17.5459 504.436 17.3677 504.553 17.1404C504.669 16.9109 504.752 16.6469 504.801 16.3483C504.846 16.052 504.847 15.7913 504.804 15.5663C504.761 15.3413 504.673 15.1653 504.54 15.0383C504.406 14.9113 504.226 14.8478 503.998 14.8478C503.776 14.8478 503.577 14.909 503.401 15.0316C503.227 15.1541 503.081 15.3279 502.965 15.5529C502.849 15.7779 502.767 16.0431 502.72 16.3483Z" fill="#151E3A"/>
<path d="M497.801 19.0153C497.295 19.0153 496.877 18.9038 496.546 18.681C496.215 18.456 495.981 18.1441 495.846 17.7453C495.712 17.3443 495.688 16.8775 495.771 16.345C495.853 15.8192 496.023 15.3591 496.281 14.9648C496.539 14.5704 496.867 14.264 497.265 14.0457C497.663 13.8251 498.112 13.7148 498.611 13.7148C499.114 13.7148 499.531 13.8274 499.862 14.0524C500.194 14.2752 500.427 14.5871 500.563 14.9882C500.698 15.3892 500.724 15.8559 500.64 16.3884C500.556 16.912 500.384 17.371 500.124 17.7654C499.864 18.1597 499.536 18.4671 499.14 18.6877C498.744 18.9061 498.298 19.0153 497.801 19.0153ZM497.936 17.9124C498.169 17.9124 498.374 17.8444 498.553 17.7085C498.733 17.5704 498.883 17.3833 499.001 17.147C499.122 16.9087 499.205 16.6391 499.253 16.3383C499.3 16.042 499.303 15.7791 499.262 15.5496C499.222 15.3179 499.135 15.1352 499.004 15.0015C498.875 14.8678 498.698 14.801 498.472 14.801C498.24 14.801 498.033 14.87 497.852 15.0082C497.672 15.1441 497.522 15.3313 497.404 15.5696C497.286 15.8081 497.203 16.0788 497.156 16.3817C497.11 16.6758 497.107 16.9387 497.146 17.1704C497.185 17.3999 497.27 17.5815 497.401 17.7152C497.532 17.8467 497.71 17.9124 497.936 17.9124Z" fill="#151E3A"/>
<path d="M491.926 15.947L491.449 18.9147H490.077L491.174 12.0703H492.507L492.094 14.6871H492.149C492.308 14.3841 492.526 14.1468 492.804 13.9752C493.081 13.8015 493.409 13.7146 493.788 13.7146C494.132 13.7146 494.419 13.7926 494.649 13.9485C494.881 14.1022 495.046 14.3239 495.143 14.6136C495.24 14.901 495.256 15.2452 495.191 15.6463L494.662 18.9147H493.291L493.775 15.9002C493.824 15.5839 493.784 15.3376 493.655 15.1617C493.528 14.9857 493.326 14.8976 493.049 14.8976C492.862 14.8976 492.69 14.9389 492.533 15.0213C492.376 15.1037 492.243 15.224 492.136 15.3822C492.03 15.5382 491.96 15.7265 491.926 15.947Z" fill="#151E3A"/>
<path d="M488.68 14.0586C488.691 13.7801 488.613 13.5651 488.445 13.4136C488.279 13.2621 488.029 13.1864 487.693 13.1864C487.465 13.1864 487.267 13.2198 487.1 13.2866C486.932 13.3512 486.797 13.4415 486.696 13.5573C486.597 13.671 486.536 13.8024 486.512 13.9517C486.489 14.0742 486.496 14.1812 486.535 14.2725C486.576 14.3639 486.639 14.4429 486.725 14.5098C486.814 14.5744 486.918 14.6312 487.038 14.6802C487.159 14.727 487.287 14.7671 487.422 14.8005L487.99 14.9476C488.268 15.0144 488.517 15.1036 488.739 15.215C488.962 15.3264 489.149 15.4633 489.3 15.626C489.453 15.7886 489.56 15.9803 489.623 16.2008C489.685 16.4214 489.694 16.6743 489.648 16.9595C489.58 17.3784 489.419 17.7415 489.168 18.049C488.916 18.3542 488.586 18.5914 488.177 18.7608C487.769 18.9279 487.295 19.0114 486.758 19.0114C486.224 19.0114 485.774 18.9268 485.406 18.7575C485.038 18.5882 484.77 18.3375 484.602 18.0055C484.437 17.6713 484.387 17.258 484.454 16.7656H485.806C485.782 16.9951 485.814 17.1867 485.903 17.3404C485.993 17.492 486.127 17.6067 486.306 17.6847C486.484 17.7605 486.694 17.7983 486.935 17.7983C487.174 17.7983 487.386 17.7627 487.571 17.6913C487.758 17.6201 487.909 17.5209 488.026 17.394C488.142 17.2669 488.213 17.121 488.238 16.9561C488.264 16.8024 488.242 16.6732 488.171 16.5685C488.1 16.4637 487.986 16.3746 487.829 16.3011C487.674 16.2254 487.481 16.1585 487.251 16.1006L486.561 15.9134C486.027 15.773 485.624 15.5536 485.351 15.255C485.078 14.9565 484.98 14.5544 485.057 14.0486C485.126 13.6342 485.293 13.2721 485.557 12.9625C485.824 12.6505 486.16 12.4088 486.564 12.2372C486.971 12.0635 487.415 11.9766 487.896 11.9766C488.387 11.9766 488.801 12.0646 489.139 12.2406C489.476 12.4144 489.723 12.6572 489.877 12.9691C490.032 13.2811 490.08 13.6442 490.019 14.0586H488.68Z" fill="#151E3A"/>
<path d="M553.769 14.4939L553.046 14.6943C553.02 14.5741 552.975 14.4582 552.91 14.3468C552.848 14.2332 552.751 14.1407 552.62 14.0694C552.491 13.9959 552.314 13.9591 552.091 13.9591C551.788 13.9591 551.524 14.0315 551.3 14.1763C551.077 14.3189 550.948 14.5005 550.917 14.7211C550.884 14.9149 550.927 15.0698 551.046 15.1856C551.164 15.3015 551.362 15.3962 551.639 15.4697L552.349 15.6569C552.775 15.7705 553.078 15.9409 553.259 16.1682C553.442 16.3932 553.504 16.6862 553.446 17.0471C553.399 17.3412 553.275 17.6041 553.075 17.8358C552.875 18.0675 552.619 18.2502 552.307 18.3839C551.995 18.5176 551.648 18.5844 551.265 18.5844C550.755 18.5844 550.353 18.4708 550.058 18.2436C549.763 18.0141 549.606 17.6821 549.587 17.2476L550.349 17.0605C550.368 17.3345 550.462 17.5417 550.632 17.6821C550.804 17.8202 551.046 17.8893 551.355 17.8893C551.71 17.8893 552.006 17.8113 552.242 17.6554C552.479 17.4972 552.614 17.3078 552.646 17.0872C552.678 16.9067 552.644 16.7563 552.542 16.636C552.444 16.5158 552.272 16.4255 552.026 16.3653L551.239 16.1648C550.8 16.0512 550.493 15.8774 550.316 15.6435C550.142 15.4096 550.084 15.1155 550.142 14.7612C550.189 14.4715 550.31 14.2153 550.503 13.9925C550.699 13.7697 550.945 13.5948 551.239 13.4678C551.536 13.3408 551.858 13.2773 552.207 13.2773C552.697 13.2773 553.064 13.3887 553.307 13.6115C553.55 13.8321 553.704 14.1262 553.769 14.4939Z" fill="#151E3A"/>
<path d="M546.396 18.4772L547.223 13.3439H547.958L547.829 14.1192H547.881C548.01 13.8652 548.206 13.6591 548.471 13.501C548.735 13.3428 549.016 13.2637 549.313 13.2637C549.371 13.2637 549.441 13.2648 549.523 13.267C549.604 13.267 549.668 13.2704 549.713 13.277L549.584 14.0791C549.558 14.0724 549.5 14.0624 549.41 14.049C549.319 14.0334 549.223 14.0257 549.12 14.0257C548.879 14.0257 548.656 14.078 548.452 14.1827C548.247 14.2852 548.077 14.4278 547.938 14.6105C547.801 14.791 547.713 14.9971 547.674 15.2288L547.158 18.4772H546.396Z" fill="#151E3A"/>
<path d="M543.337 18.5844C542.862 18.5844 542.469 18.4753 542.16 18.2569C541.85 18.0363 541.634 17.7289 541.511 17.3345C541.389 16.9379 541.369 16.4768 541.453 15.951C541.537 15.4252 541.704 14.9617 541.953 14.5607C542.203 14.1574 542.513 13.8433 542.886 13.6182C543.258 13.391 543.666 13.2773 544.112 13.2773C544.37 13.2773 544.618 13.3219 544.857 13.411C545.095 13.5001 545.302 13.645 545.476 13.8455C545.65 14.0438 545.772 14.3067 545.841 14.6342C545.91 14.9617 545.905 15.365 545.828 15.844L545.776 16.1782H541.956L542.06 15.4964H545.105C545.155 15.2068 545.142 14.9483 545.067 14.7211C544.994 14.4939 544.866 14.3145 544.683 14.183C544.502 14.0516 544.273 13.9858 543.995 13.9858C543.709 13.9858 543.442 14.0661 543.195 14.2265C542.948 14.3846 542.742 14.5852 542.576 14.828C542.41 15.0687 542.307 15.3137 542.266 15.5633L542.176 16.1515C542.111 16.577 542.121 16.9157 542.205 17.1674C542.291 17.4192 542.441 17.6008 542.653 17.7122C542.866 17.8213 543.133 17.8759 543.454 17.8759C543.658 17.8759 543.846 17.847 544.018 17.789C544.19 17.7289 544.344 17.6398 544.48 17.5217C544.615 17.4013 544.729 17.2521 544.822 17.0738L545.519 17.2877C545.4 17.5462 545.233 17.7734 545.018 17.9695C544.805 18.1634 544.555 18.3148 544.27 18.424C543.986 18.5309 543.675 18.5844 543.337 18.5844Z" fill="#151E3A"/>
<path d="M537.392 15.3895L536.901 18.4775H536.14L536.965 13.3442H537.701L537.572 14.1463H537.636C537.791 13.8856 538.001 13.6762 538.266 13.518C538.53 13.3576 538.85 13.2773 539.224 13.2773C539.555 13.2773 539.835 13.3486 540.063 13.4912C540.293 13.6316 540.455 13.8455 540.55 14.1329C540.647 14.4181 540.661 14.779 540.592 15.2157L540.063 18.4775H539.302L539.818 15.2692C539.882 14.8682 539.832 14.554 539.666 14.3267C539.503 14.0995 539.243 13.9858 538.888 13.9858C538.643 13.9858 538.416 14.0404 538.207 14.1496C538.001 14.2588 537.826 14.4181 537.682 14.6275C537.54 14.837 537.443 15.0909 537.392 15.3895Z" fill="#151E3A"/>
<path d="M536.002 13.3431L535.898 14.0115H533.331L533.434 13.3431H536.002ZM534.376 12.1133H535.137L534.35 17.006C534.316 17.2287 534.321 17.3959 534.366 17.5072C534.414 17.6164 534.484 17.69 534.579 17.7278C534.676 17.7635 534.78 17.7813 534.892 17.7813C534.976 17.7813 535.045 17.7769 535.098 17.7679C535.152 17.7568 535.196 17.7479 535.227 17.7412L535.279 18.4497C535.221 18.4697 535.142 18.4898 535.044 18.5099C534.947 18.5321 534.828 18.5433 534.686 18.5433C534.471 18.5433 534.268 18.4953 534.079 18.3995C533.89 18.3038 533.745 18.1578 533.643 17.9618C533.542 17.7657 533.516 17.5184 533.563 17.2199L534.376 12.1133Z" fill="#151E3A"/>
<path d="M529.494 18.4772L530.32 13.3439H531.055L530.926 14.1192H530.978C531.107 13.8652 531.304 13.6591 531.568 13.501C531.833 13.3428 532.114 13.2637 532.41 13.2637C532.469 13.2637 532.538 13.2648 532.62 13.267C532.702 13.267 532.765 13.2704 532.811 13.277L532.681 14.0791C532.656 14.0724 532.597 14.0624 532.507 14.049C532.417 14.0334 532.32 14.0257 532.217 14.0257C531.976 14.0257 531.753 14.078 531.549 14.1827C531.345 14.2852 531.173 14.4278 531.036 14.6105C530.898 14.791 530.81 14.9971 530.771 15.2288L530.255 18.4772H529.494Z" fill="#151E3A"/>
<path d="M526.001 18.5978C525.687 18.5978 525.412 18.5365 525.176 18.414C524.939 18.2892 524.764 18.1099 524.65 17.8759C524.536 17.6398 524.504 17.3546 524.556 17.0204C524.606 16.7263 524.701 16.4879 524.843 16.3052C524.985 16.1203 525.157 15.9754 525.359 15.8707C525.564 15.7638 525.783 15.6847 526.018 15.6335C526.254 15.58 526.49 15.5388 526.724 15.5098C527.03 15.4697 527.278 15.4385 527.469 15.4162C527.661 15.394 527.805 15.3572 527.902 15.3059C527.999 15.2547 528.058 15.1667 528.079 15.0419V15.0152C528.131 14.6877 528.089 14.4326 527.953 14.2499C527.818 14.0649 527.576 13.9725 527.228 13.9725C526.866 13.9725 526.564 14.0549 526.321 14.2198C526.078 14.3846 525.898 14.5607 525.782 14.7478L525.111 14.4805C525.287 14.1685 525.498 13.9257 525.743 13.7519C525.989 13.5759 526.246 13.4534 526.514 13.3843C526.783 13.313 527.043 13.2773 527.292 13.2773C527.451 13.2773 527.631 13.2974 527.831 13.3375C528.031 13.3754 528.218 13.4545 528.392 13.5748C528.569 13.6951 528.701 13.8767 528.789 14.1195C528.879 14.3624 528.892 14.6877 528.828 15.0954L528.286 18.4775H527.524L527.641 17.7824H527.602C527.533 17.8937 527.428 18.0129 527.286 18.14C527.146 18.267 526.968 18.375 526.753 18.4641C526.54 18.5533 526.29 18.5978 526.001 18.5978ZM526.221 17.8893C526.522 17.8893 526.785 17.828 527.011 17.7054C527.239 17.583 527.422 17.4247 527.56 17.2309C527.7 17.0371 527.787 16.8332 527.821 16.6193L527.937 15.8975C527.899 15.9376 527.822 15.9744 527.708 16.0078C527.594 16.039 527.465 16.0668 527.321 16.0913C527.179 16.1136 527.04 16.1336 526.905 16.1515C526.772 16.1671 526.664 16.1804 526.582 16.1915C526.38 16.2183 526.188 16.2617 526.005 16.3219C525.824 16.3798 525.671 16.4678 525.547 16.5859C525.424 16.7018 525.348 16.8599 525.318 17.0605C525.272 17.3345 525.336 17.5417 525.508 17.6821C525.68 17.8202 525.918 17.8893 526.221 17.8893Z" fill="#151E3A"/>
<path d="M518.883 20.4025L520.025 13.3442H520.761L520.631 14.1596H520.722C520.791 14.0705 520.885 13.9569 521.006 13.8187C521.128 13.6784 521.293 13.5536 521.499 13.4444C521.708 13.333 521.974 13.2773 522.296 13.2773C522.714 13.2773 523.063 13.3854 523.345 13.6015C523.627 13.8176 523.826 14.124 523.942 14.5205C524.058 14.9172 524.073 15.385 523.987 15.9242C523.901 16.4678 523.736 16.9391 523.493 17.3379C523.25 17.7344 522.953 18.0419 522.603 18.2602C522.252 18.4763 521.87 18.5844 521.457 18.5844C521.139 18.5844 520.893 18.5299 520.719 18.4207C520.544 18.3093 520.417 18.1834 520.338 18.043C520.258 17.9005 520.197 17.7824 520.154 17.6888H520.089L519.651 20.4025H518.883ZM520.36 15.9108C520.3 16.2985 520.3 16.6405 520.36 16.9368C520.423 17.2309 520.547 17.4615 520.731 17.6286C520.919 17.7935 521.165 17.8759 521.47 17.8759C521.789 17.8759 522.067 17.789 522.306 17.6152C522.547 17.4393 522.745 17.2031 522.9 16.9067C523.057 16.6082 523.165 16.2762 523.226 15.9108C523.281 15.5499 523.279 15.2246 523.219 14.935C523.159 14.6431 523.036 14.4125 522.851 14.2432C522.666 14.0716 522.412 13.9858 522.09 13.9858C521.78 13.9858 521.506 14.0672 521.267 14.2298C521.03 14.3902 520.835 14.6153 520.68 14.9049C520.527 15.1923 520.421 15.5276 520.36 15.9108Z" fill="#151E3A"/>
<path d="M34.7522 20.2782C34.2255 20.2782 33.7355 20.1815 33.2822 19.9882C32.8355 19.7949 32.4422 19.5282 32.1022 19.1882C31.7689 18.8415 31.5089 18.4349 31.3222 17.9682C31.1355 17.5015 31.0422 16.9882 31.0422 16.4282C31.0422 15.8749 31.1322 15.3649 31.3122 14.8982C31.4989 14.4249 31.7589 14.0182 32.0922 13.6782C32.4255 13.3315 32.8155 13.0649 33.2622 12.8782C33.7089 12.6849 34.1989 12.5882 34.7322 12.5882C35.2589 12.5882 35.7289 12.6782 36.1422 12.8582C36.5622 13.0382 36.9155 13.2749 37.2022 13.5682C37.4889 13.8549 37.6955 14.1682 37.8222 14.5082L36.7722 15.0182C36.6189 14.6115 36.3655 14.2849 36.0122 14.0382C35.6589 13.7849 35.2322 13.6582 34.7322 13.6582C34.2389 13.6582 33.8022 13.7749 33.4222 14.0082C33.0422 14.2415 32.7455 14.5649 32.5322 14.9782C32.3255 15.3915 32.2222 15.8749 32.2222 16.4282C32.2222 16.9815 32.3289 17.4682 32.5422 17.8882C32.7622 18.3015 33.0622 18.6249 33.4422 18.8582C33.8222 19.0849 34.2589 19.1982 34.7522 19.1982C35.1655 19.1982 35.5422 19.1149 35.8822 18.9482C36.2289 18.7749 36.5055 18.5349 36.7122 18.2282C36.9189 17.9149 37.0222 17.5515 37.0222 17.1382V16.6282L37.5522 17.1082H34.7322V16.1082H38.1922V16.8082C38.1922 17.3549 38.0989 17.8449 37.9122 18.2782C37.7255 18.7049 37.4722 19.0682 37.1522 19.3682C36.8322 19.6682 36.4655 19.8949 36.0522 20.0482C35.6389 20.2015 35.2055 20.2782 34.7522 20.2782ZM40.907 20.2782C40.5403 20.2782 40.217 20.2149 39.937 20.0882C39.6636 19.9549 39.4503 19.7749 39.297 19.5482C39.1436 19.3149 39.067 19.0415 39.067 18.7282C39.067 18.4349 39.1303 18.1715 39.257 17.9382C39.3903 17.7049 39.5936 17.5082 39.867 17.3482C40.1403 17.1882 40.4836 17.0749 40.897 17.0082L42.777 16.6982V17.5882L41.117 17.8782C40.817 17.9315 40.597 18.0282 40.457 18.1682C40.317 18.3015 40.247 18.4749 40.247 18.6882C40.247 18.8949 40.3236 19.0649 40.477 19.1982C40.637 19.3249 40.8403 19.3882 41.087 19.3882C41.3936 19.3882 41.6603 19.3215 41.887 19.1882C42.1203 19.0549 42.3003 18.8782 42.427 18.6582C42.5536 18.4315 42.617 18.1815 42.617 17.9082V16.5182C42.617 16.2515 42.517 16.0349 42.317 15.8682C42.1236 15.6949 41.8636 15.6082 41.537 15.6082C41.237 15.6082 40.9736 15.6882 40.747 15.8482C40.527 16.0015 40.3636 16.2015 40.257 16.4482L39.317 15.9782C39.417 15.7115 39.5803 15.4782 39.807 15.2782C40.0336 15.0715 40.297 14.9115 40.597 14.7982C40.9036 14.6849 41.227 14.6282 41.567 14.6282C41.9936 14.6282 42.3703 14.7082 42.697 14.8682C43.0303 15.0282 43.287 15.2515 43.467 15.5382C43.6536 15.8182 43.747 16.1449 43.747 16.5182V20.1582H42.667V19.1782L42.897 19.2082C42.7703 19.4282 42.607 19.6182 42.407 19.7782C42.2136 19.9382 41.9903 20.0615 41.737 20.1482C41.4903 20.2349 41.2136 20.2782 40.907 20.2782ZM45.0682 20.1582V14.7482H46.1482V15.8382L46.0482 15.6782C46.1682 15.3249 46.3615 15.0715 46.6282 14.9182C46.8949 14.7582 47.2149 14.6782 47.5882 14.6782H47.9182V15.7082H47.4482C47.0749 15.7082 46.7715 15.8249 46.5382 16.0582C46.3115 16.2849 46.1982 16.6115 46.1982 17.0382V20.1582H45.0682ZM50.3113 20.2782C49.9446 20.2782 49.6213 20.2149 49.3413 20.0882C49.0679 19.9549 48.8546 19.7749 48.7013 19.5482C48.5479 19.3149 48.4713 19.0415 48.4713 18.7282C48.4713 18.4349 48.5346 18.1715 48.6613 17.9382C48.7946 17.7049 48.9979 17.5082 49.2713 17.3482C49.5446 17.1882 49.8879 17.0749 50.3013 17.0082L52.1813 16.6982V17.5882L50.5213 17.8782C50.2213 17.9315 50.0013 18.0282 49.8613 18.1682C49.7213 18.3015 49.6513 18.4749 49.6513 18.6882C49.6513 18.8949 49.7279 19.0649 49.8813 19.1982C50.0413 19.3249 50.2446 19.3882 50.4913 19.3882C50.7979 19.3882 51.0646 19.3215 51.2913 19.1882C51.5246 19.0549 51.7046 18.8782 51.8313 18.6582C51.9579 18.4315 52.0213 18.1815 52.0213 17.9082V16.5182C52.0213 16.2515 51.9213 16.0349 51.7213 15.8682C51.5279 15.6949 51.2679 15.6082 50.9413 15.6082C50.6413 15.6082 50.3779 15.6882 50.1513 15.8482C49.9313 16.0015 49.7679 16.2015 49.6613 16.4482L48.7213 15.9782C48.8213 15.7115 48.9846 15.4782 49.2113 15.2782C49.4379 15.0715 49.7013 14.9115 50.0013 14.7982C50.3079 14.6849 50.6313 14.6282 50.9712 14.6282C51.3979 14.6282 51.7746 14.7082 52.1013 14.8682C52.4346 15.0282 52.6913 15.2515 52.8713 15.5382C53.0579 15.8182 53.1513 16.1449 53.1513 16.5182V20.1582H52.0713V19.1782L52.3013 19.2082C52.1746 19.4282 52.0113 19.6182 51.8113 19.7782C51.6179 19.9382 51.3946 20.0615 51.1413 20.1482C50.8946 20.2349 50.6179 20.2782 50.3113 20.2782ZM54.4725 20.1582V14.7482H55.5525V15.8082L55.4225 15.6682C55.5558 15.3282 55.7692 15.0715 56.0625 14.8982C56.3558 14.7182 56.6958 14.6282 57.0825 14.6282C57.4825 14.6282 57.8358 14.7149 58.1425 14.8882C58.4492 15.0615 58.6892 15.3015 58.8625 15.6082C59.0358 15.9149 59.1225 16.2682 59.1225 16.6682V20.1582H58.0025V16.9682C58.0025 16.6949 57.9525 16.4649 57.8525 16.2782C57.7525 16.0849 57.6092 15.9382 57.4225 15.8382C57.2425 15.7315 57.0358 15.6782 56.8025 15.6782C56.5692 15.6782 56.3592 15.7315 56.1725 15.8382C55.9925 15.9382 55.8525 16.0849 55.7525 16.2782C55.6525 16.4715 55.6025 16.7015 55.6025 16.9682V20.1582H54.4725ZM62.6719 20.2182C62.1052 20.2182 61.6652 20.0582 61.3519 19.7382C61.0385 19.4182 60.8819 18.9682 60.8819 18.3882V15.7682H59.9319V14.7482H60.0819C60.3352 14.7482 60.5319 14.6749 60.6719 14.5282C60.8119 14.3815 60.8819 14.1815 60.8819 13.9282V13.5082H62.0119V14.7482H63.2419V15.7682H62.0119V18.3382C62.0119 18.5249 62.0419 18.6849 62.1019 18.8182C62.1619 18.9449 62.2585 19.0449 62.3919 19.1182C62.5252 19.1849 62.6985 19.2182 62.9119 19.2182C62.9652 19.2182 63.0252 19.2149 63.0919 19.2082C63.1585 19.2015 63.2219 19.1949 63.2819 19.1882V20.1582C63.1885 20.1715 63.0852 20.1849 62.9719 20.1982C62.8585 20.2115 62.7585 20.2182 62.6719 20.2182ZM66.827 20.2782C66.287 20.2782 65.807 20.1549 65.387 19.9082C64.9736 19.6549 64.6503 19.3149 64.417 18.8882C64.1836 18.4549 64.067 17.9715 64.067 17.4382C64.067 16.8915 64.1836 16.4082 64.417 15.9882C64.657 15.5682 64.977 15.2382 65.377 14.9982C65.777 14.7515 66.2303 14.6282 66.737 14.6282C67.1436 14.6282 67.507 14.6982 67.827 14.8382C68.147 14.9782 68.417 15.1715 68.637 15.4182C68.857 15.6582 69.0236 15.9349 69.137 16.2482C69.257 16.5615 69.317 16.8949 69.317 17.2482C69.317 17.3349 69.3136 17.4249 69.307 17.5182C69.3003 17.6115 69.287 17.6982 69.267 17.7782H64.957V16.8782H68.627L68.087 17.2882C68.1536 16.9615 68.1303 16.6715 68.017 16.4182C67.9103 16.1582 67.7436 15.9549 67.517 15.8082C67.297 15.6549 67.037 15.5782 66.737 15.5782C66.437 15.5782 66.1703 15.6549 65.937 15.8082C65.7036 15.9549 65.5236 16.1682 65.397 16.4482C65.2703 16.7215 65.2203 17.0549 65.247 17.4482C65.2136 17.8149 65.2636 18.1349 65.397 18.4082C65.537 18.6815 65.7303 18.8949 65.977 19.0482C66.2303 19.2015 66.517 19.2782 66.837 19.2782C67.1636 19.2782 67.4403 19.2049 67.667 19.0582C67.9003 18.9115 68.0836 18.7215 68.217 18.4882L69.137 18.9382C69.0303 19.1915 68.8636 19.4215 68.637 19.6282C68.417 19.8282 68.1503 19.9882 67.837 20.1082C67.5303 20.2215 67.1936 20.2782 66.827 20.2782ZM70.4198 20.1582V14.7482H71.4998V15.8382L71.3998 15.6782C71.5198 15.3249 71.7131 15.0715 71.9798 14.9182C72.2464 14.7582 72.5664 14.6782 72.9398 14.6782H73.2698V15.7082H72.7998C72.4264 15.7082 72.1231 15.8249 71.8898 16.0582C71.6631 16.2849 71.5498 16.6115 71.5498 17.0382V20.1582H70.4198ZM75.6628 20.2782C75.2961 20.2782 74.9728 20.2149 74.6928 20.0882C74.4195 19.9549 74.2061 19.7749 74.0528 19.5482C73.8995 19.3149 73.8228 19.0415 73.8228 18.7282C73.8228 18.4349 73.8861 18.1715 74.0128 17.9382C74.1461 17.7049 74.3495 17.5082 74.6228 17.3482C74.8961 17.1882 75.2395 17.0749 75.6528 17.0082L77.5328 16.6982V17.5882L75.8728 17.8782C75.5728 17.9315 75.3528 18.0282 75.2128 18.1682C75.0728 18.3015 75.0028 18.4749 75.0028 18.6882C75.0028 18.8949 75.0795 19.0649 75.2328 19.1982C75.3928 19.3249 75.5961 19.3882 75.8428 19.3882C76.1495 19.3882 76.4161 19.3215 76.6428 19.1882C76.8761 19.0549 77.0561 18.8782 77.1828 18.6582C77.3095 18.4315 77.3728 18.1815 77.3728 17.9082V16.5182C77.3728 16.2515 77.2728 16.0349 77.0728 15.8682C76.8795 15.6949 76.6195 15.6082 76.2928 15.6082C75.9928 15.6082 75.7295 15.6882 75.5028 15.8482C75.2828 16.0015 75.1195 16.2015 75.0128 16.4482L74.0728 15.9782C74.1728 15.7115 74.3361 15.4782 74.5628 15.2782C74.7895 15.0715 75.0528 14.9115 75.3528 14.7982C75.6595 14.6849 75.9828 14.6282 76.3228 14.6282C76.7495 14.6282 77.1261 14.7082 77.4528 14.8682C77.7861 15.0282 78.0428 15.2515 78.2228 15.5382C78.4095 15.8182 78.5028 16.1449 78.5028 16.5182V20.1582H77.4228V19.1782L77.6528 19.2082C77.5261 19.4282 77.3628 19.6182 77.1628 19.7782C76.9695 19.9382 76.7461 20.0615 76.4928 20.1482C76.2461 20.2349 75.9695 20.2782 75.6628 20.2782ZM82.0664 20.2182C81.4997 20.2182 81.0597 20.0582 80.7464 19.7382C80.4331 19.4182 80.2764 18.9682 80.2764 18.3882V15.7682H79.3264V14.7482H79.4764C79.7297 14.7482 79.9264 14.6749 80.0664 14.5282C80.2064 14.3815 80.2764 14.1815 80.2764 13.9282V13.5082H81.4064V14.7482H82.6364V15.7682H81.4064V18.3382C81.4064 18.5249 81.4364 18.6849 81.4964 18.8182C81.5564 18.9449 81.6531 19.0449 81.7864 19.1182C81.9197 19.1849 82.0931 19.2182 82.3064 19.2182C82.3597 19.2182 82.4197 19.2149 82.4864 19.2082C82.5531 19.2015 82.6164 19.1949 82.6764 19.1882V20.1582C82.5831 20.1715 82.4797 20.1849 82.3664 20.1982C82.2531 20.2115 82.1531 20.2182 82.0664 20.2182ZM87.5272 20.2782C86.9739 20.2782 86.4872 20.1415 86.0672 19.8682C85.6539 19.5949 85.3639 19.2282 85.1972 18.7682L86.0672 18.3582C86.2139 18.6649 86.4139 18.9082 86.6672 19.0882C86.9272 19.2682 87.2139 19.3582 87.5272 19.3582C87.7939 19.3582 88.0105 19.2982 88.1772 19.1782C88.3439 19.0582 88.4272 18.8949 88.4272 18.6882C88.4272 18.5549 88.3905 18.4482 88.3172 18.3682C88.2439 18.2815 88.1505 18.2115 88.0372 18.1582C87.9305 18.1049 87.8205 18.0649 87.7072 18.0382L86.8572 17.7982C86.3905 17.6649 86.0405 17.4649 85.8072 17.1982C85.5805 16.9249 85.4672 16.6082 85.4672 16.2482C85.4672 15.9215 85.5505 15.6382 85.7172 15.3982C85.8839 15.1515 86.1139 14.9615 86.4072 14.8282C86.7005 14.6949 87.0305 14.6282 87.3972 14.6282C87.8905 14.6282 88.3305 14.7515 88.7172 14.9982C89.1039 15.2382 89.3772 15.5749 89.5372 16.0082L88.6672 16.4182C88.5605 16.1582 88.3905 15.9515 88.1572 15.7982C87.9305 15.6449 87.6739 15.5682 87.3872 15.5682C87.1405 15.5682 86.9439 15.6282 86.7972 15.7482C86.6505 15.8615 86.5772 16.0115 86.5772 16.1982C86.5772 16.3249 86.6105 16.4315 86.6772 16.5182C86.7439 16.5982 86.8305 16.6649 86.9372 16.7182C87.0439 16.7649 87.1539 16.8049 87.2672 16.8382L88.1472 17.0982C88.5939 17.2249 88.9372 17.4249 89.1772 17.6982C89.4172 17.9649 89.5372 18.2849 89.5372 18.6582C89.5372 18.9782 89.4505 19.2615 89.2772 19.5082C89.1105 19.7482 88.8772 19.9382 88.5772 20.0782C88.2772 20.2115 87.9272 20.2782 87.5272 20.2782ZM92.2644 20.2782C91.8977 20.2782 91.5744 20.2149 91.2944 20.0882C91.021 19.9549 90.8077 19.7749 90.6544 19.5482C90.501 19.3149 90.4244 19.0415 90.4244 18.7282C90.4244 18.4349 90.4877 18.1715 90.6144 17.9382C90.7477 17.7049 90.951 17.5082 91.2244 17.3482C91.4977 17.1882 91.841 17.0749 92.2544 17.0082L94.1344 16.6982V17.5882L92.4744 17.8782C92.1744 17.9315 91.9544 18.0282 91.8144 18.1682C91.6744 18.3015 91.6044 18.4749 91.6044 18.6882C91.6044 18.8949 91.681 19.0649 91.8344 19.1982C91.9944 19.3249 92.1977 19.3882 92.4444 19.3882C92.751 19.3882 93.0177 19.3215 93.2444 19.1882C93.4777 19.0549 93.6577 18.8782 93.7844 18.6582C93.911 18.4315 93.9744 18.1815 93.9744 17.9082V16.5182C93.9744 16.2515 93.8744 16.0349 93.6744 15.8682C93.481 15.6949 93.221 15.6082 92.8944 15.6082C92.5944 15.6082 92.331 15.6882 92.1044 15.8482C91.8844 16.0015 91.721 16.2015 91.6144 16.4482L90.6744 15.9782C90.7744 15.7115 90.9377 15.4782 91.1644 15.2782C91.391 15.0715 91.6544 14.9115 91.9544 14.7982C92.261 14.6849 92.5844 14.6282 92.9244 14.6282C93.351 14.6282 93.7277 14.7082 94.0544 14.8682C94.3877 15.0282 94.6444 15.2515 94.8244 15.5382C95.011 15.8182 95.1044 16.1449 95.1044 16.5182V20.1582H94.0244V19.1782L94.2544 19.2082C94.1277 19.4282 93.9644 19.6182 93.7644 19.7782C93.571 19.9382 93.3477 20.0615 93.0944 20.1482C92.8477 20.2349 92.571 20.2782 92.2644 20.2782ZM91.2844 13.7582V12.5082H92.5344V13.7582H91.2844ZM93.3344 13.7582V12.5082H94.5844V13.7582H93.3344ZM96.4256 20.1582V12.5882H97.5556V17.6582L97.1156 17.5482L99.8256 14.7482H101.236L99.1956 16.9182L101.326 20.1582H100.026L98.1256 17.2882L98.7956 17.1982L97.1956 18.8982L97.5556 18.1482V20.1582H96.4256ZM104.542 20.2782C104.002 20.2782 103.522 20.1549 103.102 19.9082C102.688 19.6549 102.365 19.3149 102.132 18.8882C101.898 18.4549 101.782 17.9715 101.782 17.4382C101.782 16.8915 101.898 16.4082 102.132 15.9882C102.372 15.5682 102.692 15.2382 103.092 14.9982C103.492 14.7515 103.945 14.6282 104.452 14.6282C104.858 14.6282 105.222 14.6982 105.542 14.8382C105.862 14.9782 106.132 15.1715 106.352 15.4182C106.572 15.6582 106.738 15.9349 106.852 16.2482C106.972 16.5615 107.032 16.8949 107.032 17.2482C107.032 17.3349 107.028 17.4249 107.022 17.5182C107.015 17.6115 107.002 17.6982 106.982 17.7782H102.672V16.8782H106.342L105.802 17.2882C105.868 16.9615 105.845 16.6715 105.732 16.4182C105.625 16.1582 105.458 15.9549 105.232 15.8082C105.012 15.6549 104.752 15.5782 104.452 15.5782C104.152 15.5782 103.885 15.6549 103.652 15.8082C103.418 15.9549 103.238 16.1682 103.112 16.4482C102.985 16.7215 102.935 17.0549 102.962 17.4482C102.928 17.8149 102.978 18.1349 103.112 18.4082C103.252 18.6815 103.445 18.8949 103.692 19.0482C103.945 19.2015 104.232 19.2782 104.552 19.2782C104.878 19.2782 105.155 19.2049 105.382 19.0582C105.615 18.9115 105.798 18.7215 105.932 18.4882L106.852 18.9382C106.745 19.1915 106.578 19.4215 106.352 19.6282C106.132 19.8282 105.865 19.9882 105.552 20.1082C105.245 20.2215 104.908 20.2782 104.542 20.2782ZM108.135 20.1582V14.7482H109.215V15.8382L109.115 15.6782C109.235 15.3249 109.428 15.0715 109.695 14.9182C109.961 14.7582 110.281 14.6782 110.655 14.6782H110.985V15.7082H110.515C110.141 15.7082 109.838 15.8249 109.605 16.0582C109.378 16.2849 109.265 16.6115 109.265 17.0382V20.1582H108.135ZM116.116 20.2782C115.596 20.2782 115.119 20.1549 114.686 19.9082C114.259 19.6615 113.919 19.3249 113.666 18.8982C113.412 18.4715 113.286 17.9882 113.286 17.4482C113.286 16.9015 113.412 16.4182 113.666 15.9982C113.919 15.5715 114.259 15.2382 114.686 14.9982C115.112 14.7515 115.589 14.6282 116.116 14.6282C116.649 14.6282 117.126 14.7515 117.546 14.9982C117.972 15.2382 118.309 15.5715 118.556 15.9982C118.809 16.4182 118.936 16.9015 118.936 17.4482C118.936 17.9949 118.809 18.4815 118.556 18.9082C118.302 19.3349 117.962 19.6715 117.536 19.9182C117.109 20.1582 116.636 20.2782 116.116 20.2782ZM116.116 19.2282C116.436 19.2282 116.719 19.1515 116.966 18.9982C117.212 18.8449 117.406 18.6349 117.546 18.3682C117.692 18.0949 117.766 17.7882 117.766 17.4482C117.766 17.1082 117.692 16.8049 117.546 16.5382C117.406 16.2715 117.212 16.0615 116.966 15.9082C116.719 15.7549 116.436 15.6782 116.116 15.6782C115.802 15.6782 115.519 15.7549 115.266 15.9082C115.019 16.0615 114.822 16.2715 114.676 16.5382C114.536 16.8049 114.466 17.1082 114.466 17.4482C114.466 17.7882 114.536 18.0949 114.676 18.3682C114.822 18.6349 115.019 18.8449 115.266 18.9982C115.519 19.1515 115.802 19.2282 116.116 19.2282ZM122.609 20.2782C122.069 20.2782 121.589 20.1549 121.169 19.9082C120.756 19.6549 120.426 19.3149 120.179 18.8882C119.939 18.4615 119.819 17.9782 119.819 17.4382C119.819 16.9049 119.939 16.4249 120.179 15.9982C120.419 15.5715 120.749 15.2382 121.169 14.9982C121.589 14.7515 122.069 14.6282 122.609 14.6282C122.976 14.6282 123.319 14.6949 123.639 14.8282C123.959 14.9549 124.236 15.1315 124.469 15.3582C124.709 15.5849 124.886 15.8482 124.999 16.1482L124.009 16.6082C123.896 16.3282 123.712 16.1049 123.459 15.9382C123.212 15.7649 122.929 15.6782 122.609 15.6782C122.302 15.6782 122.026 15.7549 121.779 15.9082C121.539 16.0549 121.349 16.2649 121.209 16.5382C121.069 16.8049 120.999 17.1082 120.999 17.4482C120.999 17.7882 121.069 18.0949 121.209 18.3682C121.349 18.6349 121.539 18.8449 121.779 18.9982C122.026 19.1515 122.302 19.2282 122.609 19.2282C122.936 19.2282 123.219 19.1449 123.459 18.9782C123.706 18.8049 123.889 18.5749 124.009 18.2882L124.999 18.7582C124.892 19.0449 124.719 19.3049 124.479 19.5382C124.246 19.7649 123.969 19.9449 123.649 20.0782C123.329 20.2115 122.982 20.2782 122.609 20.2782ZM126.103 20.1582V12.5882H127.233V15.8082L127.053 15.6682C127.187 15.3282 127.4 15.0715 127.693 14.8982C127.987 14.7182 128.327 14.6282 128.713 14.6282C129.113 14.6282 129.467 14.7149 129.773 14.8882C130.08 15.0615 130.32 15.3015 130.493 15.6082C130.667 15.9149 130.753 16.2649 130.753 16.6582V20.1582H129.633V16.9682C129.633 16.6949 129.58 16.4649 129.473 16.2782C129.373 16.0849 129.233 15.9382 129.053 15.8382C128.873 15.7315 128.667 15.6782 128.433 15.6782C128.207 15.6782 128 15.7315 127.813 15.8382C127.633 15.9382 127.49 16.0849 127.383 16.2782C127.283 16.4715 127.233 16.7015 127.233 16.9682V20.1582H126.103ZM136.051 20.2182C135.484 20.2182 135.044 20.0582 134.731 19.7382C134.417 19.4182 134.261 18.9682 134.261 18.3882V15.7682H133.311V14.7482H133.461C133.714 14.7482 133.911 14.6749 134.051 14.5282C134.191 14.3815 134.261 14.1815 134.261 13.9282V13.5082H135.391V14.7482H136.621V15.7682H135.391V18.3382C135.391 18.5249 135.421 18.6849 135.481 18.8182C135.541 18.9449 135.637 19.0449 135.771 19.1182C135.904 19.1849 136.077 19.2182 136.291 19.2182C136.344 19.2182 136.404 19.2149 136.471 19.2082C136.537 19.2015 136.601 19.1949 136.661 19.1882V20.1582C136.567 20.1715 136.464 20.1849 136.351 20.1982C136.237 20.2115 136.137 20.2182 136.051 20.2182ZM137.764 20.1582V14.7482H138.844V15.8382L138.744 15.6782C138.864 15.3249 139.057 15.0715 139.324 14.9182C139.59 14.7582 139.91 14.6782 140.284 14.6782H140.614V15.7082H140.144C139.77 15.7082 139.467 15.8249 139.234 16.0582C139.007 16.2849 138.894 16.6115 138.894 17.0382V20.1582H137.764ZM141.867 22.3682C141.733 22.3682 141.6 22.3549 141.467 22.3282C141.34 22.3082 141.223 22.2749 141.117 22.2282V21.2582C141.197 21.2782 141.293 21.2949 141.407 21.3082C141.52 21.3282 141.63 21.3382 141.737 21.3382C142.05 21.3382 142.28 21.2682 142.427 21.1282C142.58 20.9949 142.717 20.7849 142.837 20.4982L143.197 19.6782L143.177 20.6282L140.837 14.7482H142.047L143.777 19.2582H143.367L145.087 14.7482H146.307L143.917 20.7482C143.79 21.0682 143.63 21.3482 143.437 21.5882C143.25 21.8349 143.027 22.0249 142.767 22.1582C142.513 22.2982 142.213 22.3682 141.867 22.3682ZM149.592 22.3582C149.199 22.3582 148.836 22.2949 148.502 22.1682C148.169 22.0415 147.882 21.8649 147.642 21.6382C147.402 21.4182 147.222 21.1582 147.102 20.8582L148.142 20.4282C148.236 20.6815 148.406 20.8915 148.652 21.0582C148.906 21.2249 149.216 21.3082 149.582 21.3082C149.869 21.3082 150.126 21.2515 150.352 21.1382C150.579 21.0315 150.759 20.8715 150.892 20.6582C151.026 20.4515 151.092 20.2015 151.092 19.9082V18.6882L151.292 18.9182C151.106 19.2649 150.846 19.5282 150.512 19.7082C150.186 19.8882 149.816 19.9782 149.402 19.9782C148.902 19.9782 148.452 19.8615 148.052 19.6282C147.652 19.3949 147.336 19.0749 147.102 18.6682C146.876 18.2615 146.762 17.8049 146.762 17.2982C146.762 16.7849 146.876 16.3282 147.102 15.9282C147.336 15.5282 147.649 15.2115 148.042 14.9782C148.436 14.7449 148.886 14.6282 149.392 14.6282C149.806 14.6282 150.172 14.7182 150.492 14.8982C150.819 15.0715 151.086 15.3249 151.292 15.6582L151.142 15.9382V14.7482H152.212V19.9082C152.212 20.3749 152.099 20.7915 151.872 21.1582C151.652 21.5315 151.346 21.8249 150.952 22.0382C150.559 22.2515 150.106 22.3582 149.592 22.3582ZM149.532 18.9282C149.832 18.9282 150.099 18.8582 150.332 18.7182C150.566 18.5715 150.749 18.3782 150.882 18.1382C151.022 17.8915 151.092 17.6149 151.092 17.3082C151.092 17.0015 151.022 16.7249 150.882 16.4782C150.742 16.2315 150.556 16.0382 150.322 15.8982C150.089 15.7515 149.826 15.6782 149.532 15.6782C149.226 15.6782 148.952 15.7515 148.712 15.8982C148.472 16.0382 148.282 16.2315 148.142 16.4782C148.009 16.7182 147.942 16.9949 147.942 17.3082C147.942 17.6082 148.009 17.8815 148.142 18.1282C148.282 18.3749 148.472 18.5715 148.712 18.7182C148.952 18.8582 149.226 18.9282 149.532 18.9282ZM156.145 22.3582C155.752 22.3582 155.388 22.2949 155.055 22.1682C154.722 22.0415 154.435 21.8649 154.195 21.6382C153.955 21.4182 153.775 21.1582 153.655 20.8582L154.695 20.4282C154.788 20.6815 154.958 20.8915 155.205 21.0582C155.458 21.2249 155.768 21.3082 156.135 21.3082C156.422 21.3082 156.678 21.2515 156.905 21.1382C157.132 21.0315 157.312 20.8715 157.445 20.6582C157.578 20.4515 157.645 20.2015 157.645 19.9082V18.6882L157.845 18.9182C157.658 19.2649 157.398 19.5282 157.065 19.7082C156.738 19.8882 156.368 19.9782 155.955 19.9782C155.455 19.9782 155.005 19.8615 154.605 19.6282C154.205 19.3949 153.888 19.0749 153.655 18.6682C153.428 18.2615 153.315 17.8049 153.315 17.2982C153.315 16.7849 153.428 16.3282 153.655 15.9282C153.888 15.5282 154.202 15.2115 154.595 14.9782C154.988 14.7449 155.438 14.6282 155.945 14.6282C156.358 14.6282 156.725 14.7182 157.045 14.8982C157.372 15.0715 157.638 15.3249 157.845 15.6582L157.695 15.9382V14.7482H158.765V19.9082C158.765 20.3749 158.652 20.7915 158.425 21.1582C158.205 21.5315 157.898 21.8249 157.505 22.0382C157.112 22.2515 156.658 22.3582 156.145 22.3582ZM156.085 18.9282C156.385 18.9282 156.652 18.8582 156.885 18.7182C157.118 18.5715 157.302 18.3782 157.435 18.1382C157.575 17.8915 157.645 17.6149 157.645 17.3082C157.645 17.0015 157.575 16.7249 157.435 16.4782C157.295 16.2315 157.108 16.0382 156.875 15.8982C156.642 15.7515 156.378 15.6782 156.085 15.6782C155.778 15.6782 155.505 15.7515 155.265 15.8982C155.025 16.0382 154.835 16.2315 154.695 16.4782C154.562 16.7182 154.495 16.9949 154.495 17.3082C154.495 17.6082 154.562 17.8815 154.695 18.1282C154.835 18.3749 155.025 18.5715 155.265 18.7182C155.505 18.8582 155.778 18.9282 156.085 18.9282ZM163.766 20.2782C163.359 20.2782 163.002 20.1882 162.696 20.0082C162.389 19.8215 162.149 19.5649 161.976 19.2382C161.809 18.9049 161.726 18.5215 161.726 18.0882V14.7482H162.856V17.9882C162.856 18.2349 162.906 18.4515 163.006 18.6382C163.106 18.8249 163.246 18.9715 163.426 19.0782C163.606 19.1782 163.812 19.2282 164.046 19.2282C164.286 19.2282 164.496 19.1749 164.676 19.0682C164.856 18.9615 164.996 18.8115 165.096 18.6182C165.202 18.4249 165.256 18.1982 165.256 17.9382V14.7482H166.376V20.1582H165.306V19.0982L165.426 19.2382C165.299 19.5715 165.089 19.8282 164.796 20.0082C164.502 20.1882 164.159 20.2782 163.766 20.2782ZM170.035 20.2182C169.468 20.2182 169.028 20.0582 168.715 19.7382C168.402 19.4182 168.245 18.9682 168.245 18.3882V15.7682H167.295V14.7482H167.445C167.698 14.7482 167.895 14.6749 168.035 14.5282C168.175 14.3815 168.245 14.1815 168.245 13.9282V13.5082H169.375V14.7482H170.605V15.7682H169.375V18.3382C169.375 18.5249 169.405 18.6849 169.465 18.8182C169.525 18.9449 169.622 19.0449 169.755 19.1182C169.888 19.1849 170.062 19.2182 170.275 19.2182C170.328 19.2182 170.388 19.2149 170.455 19.2082C170.522 19.2015 170.585 19.1949 170.645 19.1882V20.1582C170.552 20.1715 170.448 20.1849 170.335 20.1982C170.222 20.2115 170.122 20.2182 170.035 20.2182ZM174.22 20.2782C173.68 20.2782 173.2 20.1549 172.78 19.9082C172.367 19.6549 172.037 19.3149 171.79 18.8882C171.55 18.4615 171.43 17.9782 171.43 17.4382C171.43 16.9049 171.55 16.4249 171.79 15.9982C172.03 15.5715 172.36 15.2382 172.78 14.9982C173.2 14.7515 173.68 14.6282 174.22 14.6282C174.587 14.6282 174.93 14.6949 175.25 14.8282C175.57 14.9549 175.847 15.1315 176.08 15.3582C176.32 15.5849 176.497 15.8482 176.61 16.1482L175.62 16.6082C175.507 16.3282 175.324 16.1049 175.07 15.9382C174.824 15.7649 174.54 15.6782 174.22 15.6782C173.914 15.6782 173.637 15.7549 173.39 15.9082C173.15 16.0549 172.96 16.2649 172.82 16.5382C172.68 16.8049 172.61 17.1082 172.61 17.4482C172.61 17.7882 172.68 18.0949 172.82 18.3682C172.96 18.6349 173.15 18.8449 173.39 18.9982C173.637 19.1515 173.914 19.2282 174.22 19.2282C174.547 19.2282 174.83 19.1449 175.07 18.9782C175.317 18.8049 175.5 18.5749 175.62 18.2882L176.61 18.7582C176.504 19.0449 176.33 19.3049 176.09 19.5382C175.857 19.7649 175.58 19.9449 175.26 20.0782C174.94 20.2115 174.594 20.2782 174.22 20.2782ZM177.715 20.1582V12.5882H178.845V15.8082L178.665 15.6682C178.798 15.3282 179.011 15.0715 179.305 14.8982C179.598 14.7182 179.938 14.6282 180.325 14.6282C180.725 14.6282 181.078 14.7149 181.385 14.8882C181.691 15.0615 181.931 15.3015 182.105 15.6082C182.278 15.9149 182.365 16.2649 182.365 16.6582V20.1582H181.245V16.9682C181.245 16.6949 181.191 16.4649 181.085 16.2782C180.985 16.0849 180.845 15.9382 180.665 15.8382C180.485 15.7315 180.278 15.6782 180.045 15.6782C179.818 15.6782 179.611 15.7315 179.425 15.8382C179.245 15.9382 179.101 16.0849 178.995 16.2782C178.895 16.4715 178.845 16.7015 178.845 16.9682V20.1582H177.715ZM186.114 20.2782C185.574 20.2782 185.094 20.1549 184.674 19.9082C184.261 19.6549 183.937 19.3149 183.704 18.8882C183.471 18.4549 183.354 17.9715 183.354 17.4382C183.354 16.8915 183.471 16.4082 183.704 15.9882C183.944 15.5682 184.264 15.2382 184.664 14.9982C185.064 14.7515 185.517 14.6282 186.024 14.6282C186.431 14.6282 186.794 14.6982 187.114 14.8382C187.434 14.9782 187.704 15.1715 187.924 15.4182C188.144 15.6582 188.311 15.9349 188.424 16.2482C188.544 16.5615 188.604 16.8949 188.604 17.2482C188.604 17.3349 188.601 17.4249 188.594 17.5182C188.587 17.6115 188.574 17.6982 188.554 17.7782H184.244V16.8782H187.914L187.374 17.2882C187.441 16.9615 187.417 16.6715 187.304 16.4182C187.197 16.1582 187.031 15.9549 186.804 15.8082C186.584 15.6549 186.324 15.5782 186.024 15.5782C185.724 15.5782 185.457 15.6549 185.224 15.8082C184.991 15.9549 184.811 16.1682 184.684 16.4482C184.557 16.7215 184.507 17.0549 184.534 17.4482C184.501 17.8149 184.551 18.1349 184.684 18.4082C184.824 18.6815 185.017 18.8949 185.264 19.0482C185.517 19.2015 185.804 19.2782 186.124 19.2782C186.451 19.2782 186.727 19.2049 186.954 19.0582C187.187 18.9115 187.371 18.7215 187.504 18.4882L188.424 18.9382C188.317 19.1915 188.151 19.4215 187.924 19.6282C187.704 19.8282 187.437 19.9882 187.124 20.1082C186.817 20.2215 186.481 20.2782 186.114 20.2782ZM192.277 20.2782C191.737 20.2782 191.257 20.1549 190.837 19.9082C190.424 19.6549 190.094 19.3149 189.847 18.8882C189.607 18.4615 189.487 17.9782 189.487 17.4382C189.487 16.9049 189.607 16.4249 189.847 15.9982C190.087 15.5715 190.417 15.2382 190.837 14.9982C191.257 14.7515 191.737 14.6282 192.277 14.6282C192.644 14.6282 192.987 14.6949 193.307 14.8282C193.627 14.9549 193.904 15.1315 194.137 15.3582C194.377 15.5849 194.554 15.8482 194.667 16.1482L193.677 16.6082C193.564 16.3282 193.38 16.1049 193.127 15.9382C192.88 15.7649 192.597 15.6782 192.277 15.6782C191.97 15.6782 191.694 15.7549 191.447 15.9082C191.207 16.0549 191.017 16.2649 190.877 16.5382C190.737 16.8049 190.667 17.1082 190.667 17.4482C190.667 17.7882 190.737 18.0949 190.877 18.3682C191.017 18.6349 191.207 18.8449 191.447 18.9982C191.694 19.1515 191.97 19.2282 192.277 19.2282C192.604 19.2282 192.887 19.1449 193.127 18.9782C193.374 18.8049 193.557 18.5749 193.677 18.2882L194.667 18.7582C194.56 19.0449 194.387 19.3049 194.147 19.5382C193.914 19.7649 193.637 19.9449 193.317 20.0782C192.997 20.2115 192.65 20.2782 192.277 20.2782ZM195.771 20.1582V12.5882H196.901V17.6582L196.461 17.5482L199.171 14.7482H200.581L198.541 16.9182L200.671 20.1582H199.371L197.471 17.2882L198.141 17.1982L196.541 18.8982L196.901 18.1482V20.1582H195.771ZM201.445 20.1582V14.7482H202.525V15.8082L202.395 15.6682C202.528 15.3282 202.742 15.0715 203.035 14.8982C203.328 14.7182 203.668 14.6282 204.055 14.6282C204.455 14.6282 204.808 14.7149 205.115 14.8882C205.422 15.0615 205.662 15.3015 205.835 15.6082C206.008 15.9149 206.095 16.2682 206.095 16.6682V20.1582H204.975V16.9682C204.975 16.6949 204.925 16.4649 204.825 16.2782C204.725 16.0849 204.582 15.9382 204.395 15.8382C204.215 15.7315 204.008 15.6782 203.775 15.6782C203.542 15.6782 203.332 15.7315 203.145 15.8382C202.965 15.9382 202.825 16.0849 202.725 16.2782C202.625 16.4715 202.575 16.7015 202.575 16.9682V20.1582H201.445ZM207.305 20.1582V14.7482H208.435V20.1582H207.305ZM207.305 14.0082V12.7082H208.435V14.0082H207.305ZM209.756 20.1582V14.7482H210.836V15.8082L210.706 15.6682C210.839 15.3282 211.052 15.0715 211.346 14.8982C211.639 14.7182 211.979 14.6282 212.366 14.6282C212.766 14.6282 213.119 14.7149 213.426 14.8882C213.732 15.0615 213.972 15.3015 214.146 15.6082C214.319 15.9149 214.406 16.2682 214.406 16.6682V20.1582H213.286V16.9682C213.286 16.6949 213.236 16.4649 213.136 16.2782C213.036 16.0849 212.892 15.9382 212.706 15.8382C212.526 15.7315 212.319 15.6782 212.086 15.6782C211.852 15.6782 211.642 15.7315 211.456 15.8382C211.276 15.9382 211.136 16.0849 211.036 16.2782C210.936 16.4715 210.886 16.7015 210.886 16.9682V20.1582H209.756ZM218.225 22.3582C217.832 22.3582 217.468 22.2949 217.135 22.1682C216.802 22.0415 216.515 21.8649 216.275 21.6382C216.035 21.4182 215.855 21.1582 215.735 20.8582L216.775 20.4282C216.868 20.6815 217.038 20.8915 217.285 21.0582C217.538 21.2249 217.848 21.3082 218.215 21.3082C218.502 21.3082 218.758 21.2515 218.985 21.1382C219.212 21.0315 219.392 20.8715 219.525 20.6582C219.658 20.4515 219.725 20.2015 219.725 19.9082V18.6882L219.925 18.9182C219.738 19.2649 219.478 19.5282 219.145 19.7082C218.818 19.8882 218.448 19.9782 218.035 19.9782C217.535 19.9782 217.085 19.8615 216.685 19.6282C216.285 19.3949 215.968 19.0749 215.735 18.6682C215.508 18.2615 215.395 17.8049 215.395 17.2982C215.395 16.7849 215.508 16.3282 215.735 15.9282C215.968 15.5282 216.282 15.2115 216.675 14.9782C217.068 14.7449 217.518 14.6282 218.025 14.6282C218.438 14.6282 218.805 14.7182 219.125 14.8982C219.452 15.0715 219.718 15.3249 219.925 15.6582L219.775 15.9382V14.7482H220.845V19.9082C220.845 20.3749 220.732 20.7915 220.505 21.1582C220.285 21.5315 219.978 21.8249 219.585 22.0382C219.192 22.2515 218.738 22.3582 218.225 22.3582ZM218.165 18.9282C218.465 18.9282 218.732 18.8582 218.965 18.7182C219.198 18.5715 219.382 18.3782 219.515 18.1382C219.655 17.8915 219.725 17.6149 219.725 17.3082C219.725 17.0015 219.655 16.7249 219.515 16.4782C219.375 16.2315 219.188 16.0382 218.955 15.8982C218.722 15.7515 218.458 15.6782 218.165 15.6782C217.858 15.6782 217.585 15.7515 217.345 15.8982C217.105 16.0382 216.915 16.2315 216.775 16.4782C216.642 16.7182 216.575 16.9949 216.575 17.3082C216.575 17.6082 216.642 17.8815 216.775 18.1282C216.915 18.3749 217.105 18.5715 217.345 18.7182C217.585 18.8582 217.858 18.9282 218.165 18.9282Z" fill="#434C69"/>
<defs>
<clipPath id="clip0_9020_4822">
<rect width="25.8938" height="18.3322" fill="white" transform="translate(365.62 7.68945)"/>
</clipPath>
<clipPath id="clip1_9020_4822">
<rect width="25.8938" height="18.3322" fill="white" transform="translate(396.693 7.68945)"/>
</clipPath>
<clipPath id="clip2_9020_4822">
<rect width="25.8938" height="18.3322" fill="white" transform="translate(334.548 7.68945)"/>
</clipPath>
<clipPath id="clip3_9020_4822">
<rect width="25.8938" height="18.3322" fill="white" transform="translate(303.475 7.68945)"/>
</clipPath>
<clipPath id="clip4_9020_4822">
<rect width="25.8938" height="18.3322" fill="white" transform="translate(427.765 7.68945)"/>
</clipPath>
<clipPath id="clip5_9020_4822">
<rect width="14.7964" height="15.2768" fill="white" transform="translate(432.944 9.2168)"/>
</clipPath>
<clipPath id="clip6_9020_4822">
<rect width="59.7878" height="18.0312" fill="white" transform="translate(225.865 7.64258)"/>
</clipPath>
</defs>
</svg>
