<svg width="26" height="26" viewBox="0 0 26 26" fill="none" xmlns="http://www.w3.org/2000/svg">
<path d="M9.25 11.05C11.03 11.7 12.97 11.7 14.75 11.05" stroke="#0083FF" stroke-width="2" strokeLinecap="round" strokeLinejoin="round"/>
<path d="M16.82 4H7.18C5.05 4 3.32 5.74 3.32 7.86V21.95C3.32 23.75 4.61 24.51 6.19 23.64L11.07 20.93C11.59 20.64 12.43 20.64 12.94 20.93L17.82 23.64C19.4 24.52 20.69 23.76 20.69 21.95V7.86C20.68 5.74 18.95 4 16.82 4Z" stroke="#0083FF" stroke-width="1.5" strokeLinecap="round" strokeLinejoin="round"/>
<path d="M16.82 4H7.18C5.05 4 3.32 5.74 3.32 7.86V21.95C3.32 23.75 4.61 24.51 6.19 23.64L11.07 20.93C11.59 20.64 12.43 20.64 12.94 20.93L17.82 23.64C19.4 24.52 20.69 23.76 20.69 21.95V7.86C20.68 5.74 18.95 4 16.82 4Z" stroke="#0083FF" stroke-width="2" strokeLinecap="round" strokeLinejoin="round"/>
<circle cx="20.6902" cy="5.28323" r="4.00015" fill="#0083FF" stroke="white"/>
</svg>
