<?xml version="1.0" standalone="no"?>
<!DOCTYPE svg PUBLIC "-//W3C//DTD SVG 20010904//EN"
 "http://www.w3.org/TR/2001/REC-SVG-20010904/DTD/svg10.dtd">
<svg version="1.0" xmlns="http://www.w3.org/2000/svg"
 width="174.000000pt" height="177.000000pt" viewBox="0 0 174.000000 177.000000"
 preserveAspectRatio="xMidYMid meet">
<metadata>
Created by potrace 1.16, written by Peter Selinger 2001-2019
</metadata>
<g transform="translate(0.000000,177.000000) scale(0.100000,-0.100000)"
fill="#000000" stroke="none">
<path d="M797 1759 c-47 -28 -47 -24 -47 -734 0 -714 0 -708 49 -735 39 -20
91 -12 122 19 l29 29 0 690 0 689 -25 27 c-19 20 -33 26 -67 26 -24 0 -51 -5
-61 -11z"/>
<path d="M464 1626 c-20 -9 -35 -26 -43 -46 -8 -23 -11 -190 -11 -547 0 -439
2 -518 15 -543 19 -37 43 -50 93 -50 33 0 45 6 66 31 l26 31 0 538 0 539 -22
26 c-28 31 -81 41 -124 21z"/>
<path d="M1195 1621 c-11 -5 -29 -19 -40 -31 -19 -21 -20 -38 -23 -546 -3
-588 -3 -582 63 -610 29 -12 44 -13 70 -4 67 22 65 1 65 599 l0 540 -22 26
c-25 28 -79 41 -113 26z"/>
<path d="M107 1199 c-35 -20 -47 -64 -47 -167 0 -116 10 -152 49 -175 45 -26
88 -22 122 12 l29 29 0 128 c0 125 -1 129 -27 156 -21 22 -36 28 -67 28 -23 0
-49 -5 -59 -11z"/>
<path d="M1506 1179 c-25 -29 -26 -36 -26 -152 0 -114 2 -124 24 -152 21 -26
30 -30 75 -30 39 0 56 5 73 23 21 21 23 33 26 151 3 126 3 128 -23 159 -23 28
-33 32 -75 32 -42 0 -52 -4 -74 -31z"/>
<path d="M1654 514 c-169 -155 -349 -271 -516 -334 -185 -69 -423 -66 -612 7
-140 54 -348 176 -459 269 -34 29 -47 30 -47 5 0 -11 38 -55 92 -105 448 -419
978 -434 1417 -40 63 56 191 204 191 220 0 24 -25 15 -66 -22z"/>
</g>
</svg>
