<svg width="46" height="46" viewBox="0 0 46 46" fill="none" xmlns="http://www.w3.org/2000/svg">
<path fill-rule="evenodd" clip-rule="evenodd" d="M23 13.8228L20.4436 11.5346C19.0846 10.3183 17.2994 9.58333 15.3334 9.58333C11.0992 9.58333 7.66671 13.0158 7.66671 17.25C7.66671 22.9992 10.2346 27.2397 13.4785 30.3794C16.7793 33.5741 20.6613 35.4934 22.781 36.3772C22.9284 36.4385 23.0717 36.4385 23.2191 36.3772C25.3388 35.4934 29.2208 33.5741 32.5217 30.3794C35.7654 27.2395 38.3334 22.9992 38.3334 17.2501C38.3334 13.0159 34.9008 9.58333 30.6667 9.58333C28.7006 9.58333 26.9154 10.3183 25.5565 11.5346L23 13.8228ZM23 8.67826C20.9655 6.85728 18.2787 5.75 15.3334 5.75C8.9821 5.75 3.83337 10.8987 3.83337 17.25C3.83337 31.3396 16.6203 37.9617 21.3057 39.9153C22.3973 40.3704 23.6028 40.3704 24.6944 39.9153C29.3797 37.9617 42.1667 31.3398 42.1667 17.2501C42.1667 10.8988 37.018 5.75 30.6667 5.75C27.7214 5.75 25.0346 6.85728 23 8.67826Z" fill="#225AEA"/>
<path fill-rule="evenodd" clip-rule="evenodd" d="M23 13.8228L20.4436 11.5346C19.0846 10.3183 17.2994 9.58333 15.3334 9.58333C11.0992 9.58333 7.66671 13.0158 7.66671 17.25C7.66671 22.9992 10.2346 27.2397 13.4785 30.3794C16.7793 33.5741 20.6613 35.4934 22.781 36.3772C22.9284 36.4385 23.0717 36.4385 23.2191 36.3772C25.3388 35.4934 29.2208 33.5741 32.5217 30.3794C35.7654 27.2395 38.3334 22.9992 38.3334 17.2501C38.3334 13.0159 34.9008 9.58333 30.6667 9.58333C28.7006 9.58333 26.9154 10.3183 25.5565 11.5346L23 13.8228ZM23 8.67826C20.9655 6.85728 18.2787 5.75 15.3334 5.75C8.9821 5.75 3.83337 10.8987 3.83337 17.25C3.83337 31.3396 16.6203 37.9617 21.3057 39.9153C22.3973 40.3704 23.6028 40.3704 24.6944 39.9153C29.3797 37.9617 42.1667 31.3398 42.1667 17.2501C42.1667 10.8988 37.018 5.75 30.6667 5.75C27.7214 5.75 25.0346 6.85728 23 8.67826Z" fill="url(#paint0_linear_8996_4642)" fill-opacity="0.16"/>
<defs>
<linearGradient id="paint0_linear_8996_4642" x1="23" y1="5.75" x2="23" y2="40.2565" gradientUnits="userSpaceOnUse">
<stop stop-color="white" stop-opacity="0"/>
<stop offset="1" stop-color="white"/>
</linearGradient>
</defs>
</svg>
