<svg width="23" height="26" viewBox="0 0 23 26" fill="none" xmlns="http://www.w3.org/2000/svg">
    <path d="M14.6781 25.3399L22.3012 23.6881C22.3012 23.6881 19.5514 5.07592 19.5287 4.95267C19.5061 4.83083 19.4069 4.74867 19.3049 4.74867C19.2029 4.74867 17.2663 4.60558 17.2663 4.60558C17.2663 4.60558 15.9219 3.26117 15.759 3.11808C15.7208 3.077 15.6782 3.05717 15.6372 3.03592L14.6781 25.3399ZM15.3099 2.99625C15.2872 2.99625 15.249 3.01608 15.2292 3.01608C15.2065 3.01608 14.9217 3.09967 14.4741 3.23992C14.0236 1.938 13.2288 0.73525 11.8235 0.73525H11.7017C11.2922 0.223833 10.8049 0 10.3757 0C7.09467 0 5.52217 4.097 5.03483 6.17525C3.77117 6.56483 2.856 6.84958 2.74975 6.89067C2.03575 7.1145 2.01733 7.13433 1.93658 7.80867C1.85583 8.296 0 22.6681 0 22.6681L14.3324 25.3583L15.3099 2.99625ZM11.577 3.99358V4.13808C10.7851 4.38317 9.90817 4.64808 9.05108 4.913C9.54125 3.03875 10.4564 2.11933 11.2512 1.77225C11.458 2.3035 11.577 3.01608 11.577 3.99358ZM10.2737 0.876917C10.4153 0.876917 10.5584 0.916583 10.7029 1.02142C9.66592 1.50875 8.52267 2.75258 8.05233 5.24025C7.3886 5.45256 6.72224 5.65658 6.05342 5.85225C6.6045 3.95533 7.9305 0.876917 10.2737 0.876917ZM10.8432 11.9439C10.8432 11.9439 9.9875 11.4977 8.97033 11.4977C7.44033 11.4977 7.37942 12.4553 7.37942 12.7004C7.37942 14.0052 10.8049 14.5137 10.8049 17.5922C10.8049 20.0175 9.27492 21.5673 7.19667 21.5673C4.709 21.5673 3.44533 20.0175 3.44533 20.0175L4.11825 17.816C4.11825 17.816 5.42442 18.938 6.52233 18.938C6.6542 18.9433 6.78579 18.922 6.90923 18.8753C7.03268 18.8287 7.14544 18.7576 7.24079 18.6663C7.33614 18.5751 7.41211 18.4655 7.46416 18.3443C7.51622 18.223 7.54329 18.0925 7.54375 17.9605C7.54375 16.2477 4.73025 16.1642 4.73025 13.3535C4.73025 10.9891 6.42317 8.68558 9.8685 8.68558C11.1945 8.68558 11.8447 9.07092 11.8447 9.07092L10.8432 11.9439ZM12.1493 1.62917C12.8832 1.71417 13.3535 2.54717 13.6567 3.48642C13.2912 3.60967 12.8818 3.7315 12.4341 3.87317V3.60825C12.4341 2.8135 12.3321 2.16042 12.1493 1.62917Z" fill="white"/>
</svg>
