<svg width="27" height="34" viewBox="0 0 27 34" fill="none" xmlns="http://www.w3.org/2000/svg">
<path d="M10 1.66667C10 0.74619 9.2538 0 8.3333 0C7.4129 0 6.6667 0.74619 6.6667 1.66667V6.66671H5C2.23858 6.66671 0 8.90521 0 11.6667V20C0 24.6024 3.731 28.3333 8.3333 28.3333H11.6667V31.6667C11.6667 32.5871 12.4129 33.3333 13.3333 33.3333C14.2538 33.3333 15 32.5871 15 31.6667V28.3333H18.3333C22.9357 28.3333 26.6667 24.6024 26.6667 20V11.6667C26.6667 8.90521 24.4281 6.66671 21.6667 6.66671H20V1.66667C20 0.74619 19.2538 0 18.3333 0C17.4129 0 16.6667 0.74619 16.6667 1.66667V6.66671H10V1.66667Z" fill="#225AEA"/>
</svg>
