<svg width="30" height="33" viewBox="0 0 30 33" fill="none" xmlns="http://www.w3.org/2000/svg">
<path fill-rule="evenodd" clip-rule="evenodd" d="M0 5.00001C0 2.23858 2.23858 0 5.00001 0H25C27.7614 0 30 2.23858 30 5.00001V22.9399C30 24.8337 28.93 26.5651 27.2361 27.412L17.2361 32.412C15.8284 33.1158 14.1716 33.1158 12.7639 32.412L2.76393 27.412C1.07001 26.5651 0 24.8337 0 22.9399V5.00001ZM20.3452 13.2618C20.9961 12.611 20.9961 11.5557 20.3452 10.9048C19.6943 10.2539 18.639 10.2539 17.9882 10.9048L13.3333 15.5596L12.0118 14.2381C11.361 13.5873 10.3057 13.5873 9.65481 14.2381C9.00391 14.889 9.00391 15.9443 9.65481 16.5952L12.1548 19.0952C12.4674 19.4077 12.8913 19.5833 13.3333 19.5833C13.7754 19.5833 14.1993 19.4077 14.5118 19.0952L20.3452 13.2618Z" fill="#16895A"/>
</svg>
