<svg width="34" height="34" viewBox="0 0 34 34" fill="none" xmlns="http://www.w3.org/2000/svg">
<path fill-rule="evenodd" clip-rule="evenodd" d="M16.6667 33.3333C25.8714 33.3333 33.3333 25.8714 33.3333 16.6667C33.3333 7.46191 25.8714 0 16.6667 0C7.46189 0 0 7.46191 0 16.6667C0 25.8714 7.46189 33.3333 16.6667 33.3333ZM14.9424 10.4986C15.8796 11.967 15.4167 14.3725 12.2538 16.8824L12.0724 17.0263L11.8528 16.9531C8.02219 15.6763 6.76439 13.5742 7.14279 11.8739C7.32649 11.0483 7.89959 10.3788 8.66019 10.0691C9.32979 9.79651 10.1171 9.81341 10.8696 10.2049C11.4428 9.57971 12.1768 9.29451 12.8993 9.32171C13.7199 9.35251 14.4874 9.78561 14.9424 10.4986ZM21.4842 16.9532C25.3148 15.6765 26.5725 13.5744 26.1941 11.874C26.0104 11.0484 25.4373 10.3789 24.6767 10.0693C24.0071 9.79661 23.2199 9.81361 22.4673 10.205C21.8941 9.57981 21.1601 9.29461 20.4376 9.32181C19.617 9.35271 18.8495 9.78571 18.3945 10.4987C17.4574 11.9671 17.9203 14.3726 21.0832 16.8825L21.2646 17.0264L21.4842 16.9532ZM23.3333 20C23.3333 23.6819 20.3486 26.6667 16.6667 26.6667C12.9848 26.6667 9.99999 23.6819 9.99999 20C14.4712 20.4608 18.8621 20.4608 23.3333 20Z" fill="#D71313"/>
</svg>
