<svg width="22" height="25" viewBox="0 0 22 25" fill="none" xmlns="http://www.w3.org/2000/svg">
<path fill-rule="evenodd" clip-rule="evenodd" d="M0 3.7948C0 1.69899 1.64162 0 3.66667 0H18.3333C20.3584 0 22 1.69899 22 3.7948V17.4104C22 18.8478 21.2153 20.1618 19.9731 20.8046L12.6398 24.5994C11.6075 25.1335 10.3925 25.1335 9.3602 24.5994L2.02688 20.8046C0.784674 20.1618 0 18.8478 0 17.4104V3.7948ZM14.9198 10.0652C15.3971 9.57124 15.3971 8.77031 14.9198 8.2763C14.4425 7.7823 13.6686 7.7823 13.1913 8.2763L9.77776 11.8091L8.80866 10.8061C8.3314 10.3122 7.55752 10.3122 7.08019 10.8061C6.60287 11.3001 6.60287 12.1011 7.08019 12.5951L8.91352 14.4925C9.14276 14.7297 9.45362 14.8629 9.77776 14.8629C10.102 14.8629 10.4128 14.7297 10.642 14.4925L14.9198 10.0652Z" fill="#DF7009"/>
</svg>
