<svg width="1216" height="313" viewBox="0 0 1216 313" fill="none" xmlns="http://www.w3.org/2000/svg">
<g clip-path="url(#clip0_1_6180)">
<mask id="mask0_1_6180" style="mask-type:luminance" maskUnits="userSpaceOnUse" x="0" y="0" width="1216" height="313">
<path d="M1216 0.840332H0V313H1216V0.840332Z" fill="white"/>
</mask>
<g mask="url(#mask0_1_6180)">
<path d="M1216 0.840332H0V313H1216V0.840332Z" fill="#225AEA"/>
<mask id="mask1_1_6180" style="mask-type:luminance" maskUnits="userSpaceOnUse" x="0" y="-88" width="1216" height="500">
<path d="M0 317.877H32V286.661H0V317.877Z" fill="white"/>
<path d="M32 317.877H64V286.661H32V317.877Z" fill="white"/>
<path d="M64 317.877H96V286.661H64V317.877Z" fill="white"/>
<path d="M96 317.877H128V286.661H96V317.877Z" fill="white"/>
<path d="M128 317.877H160V286.661H128V317.877Z" fill="white"/>
<path d="M160 317.877H192V286.661H160V317.877Z" fill="white"/>
<path d="M192 317.877H224V286.661H192V317.877Z" fill="white"/>
<path d="M224 317.877H256V286.661H224V317.877Z" fill="white"/>
<path d="M256 317.877H288V286.661H256V317.877Z" fill="white"/>
<path d="M288 317.877H320V286.661H288V317.877Z" fill="white"/>
<path d="M320 317.877H352V286.661H320V317.877Z" fill="white"/>
<path d="M352 317.877H384V286.661H352V317.877Z" fill="white"/>
<path d="M384 317.877H416V286.661H384V317.877Z" fill="white"/>
<path d="M416 317.877H448V286.661H416V317.877Z" fill="white"/>
<path d="M448 317.877H480V286.661H448V317.877Z" fill="white"/>
<path d="M480 317.877H512V286.661H480V317.877Z" fill="white"/>
<path d="M512 317.877H544V286.661H512V317.877Z" fill="white"/>
<path d="M544 317.877H576V286.661H544V317.877Z" fill="white"/>
<path d="M576 317.877H608V286.661H576V317.877Z" fill="white"/>
<path d="M608 317.877H640V286.661H608V317.877Z" fill="white"/>
<path d="M640 317.877H672V286.661H640V317.877Z" fill="white"/>
<path d="M672 317.877H704V286.661H672V317.877Z" fill="white"/>
<path d="M704 317.877H736V286.661H704V317.877Z" fill="white"/>
<path d="M736 317.877H768V286.661H736V317.877Z" fill="white"/>
<path d="M768 317.877H800V286.661H768V317.877Z" fill="white"/>
<path d="M800 317.877H832V286.661H800V317.877Z" fill="white"/>
<path d="M832 317.877H864V286.661H832V317.877Z" fill="white"/>
<path d="M864 317.877H896V286.661H864V317.877Z" fill="white"/>
<path d="M896 317.877H928V286.661H896V317.877Z" fill="white"/>
<path d="M928 317.877H960V286.661H928V317.877Z" fill="white"/>
<path d="M960 317.877H992V286.661H960V317.877Z" fill="white"/>
<path d="M992 317.877H1024V286.661H992V317.877Z" fill="white"/>
<path d="M1024 317.877H1056V286.661H1024V317.877Z" fill="white"/>
<path d="M1056 317.877H1088V286.661H1056V317.877Z" fill="white"/>
<path d="M1088 317.877H1120V286.661H1088V317.877Z" fill="white"/>
<path d="M1120 317.877H1152V286.661H1120V317.877Z" fill="white"/>
<path d="M1152 317.877H1184V286.661H1152V317.877Z" fill="white"/>
<path d="M1184 317.877H1216V286.661H1184V317.877Z" fill="white"/>
<path d="M0 286.662H32V255.446H0V286.662Z" fill="white"/>
<path d="M32 286.662H64V255.446H32V286.662Z" fill="white"/>
<path d="M64 286.662H96V255.446H64V286.662Z" fill="white"/>
<path d="M96 286.662H128V255.446H96V286.662Z" fill="white"/>
<path d="M128 286.662H160V255.446H128V286.662Z" fill="white"/>
<path d="M160 286.662H192V255.446H160V286.662Z" fill="white"/>
<path d="M192 286.662H224V255.446H192V286.662Z" fill="white"/>
<path d="M224 286.662H256V255.446H224V286.662Z" fill="white"/>
<path d="M256 286.662H288V255.446H256V286.662Z" fill="white"/>
<path d="M288 286.662H320V255.446H288V286.662Z" fill="white"/>
<path d="M320 286.662H352V255.446H320V286.662Z" fill="white"/>
<path d="M352 286.662H384V255.446H352V286.662Z" fill="white"/>
<path d="M384 286.662H416V255.446H384V286.662Z" fill="white"/>
<path d="M416 286.662H448V255.446H416V286.662Z" fill="white"/>
<path d="M448 286.662H480V255.446H448V286.662Z" fill="white"/>
<path d="M480 286.662H512V255.446H480V286.662Z" fill="white"/>
<path d="M512 286.662H544V255.446H512V286.662Z" fill="white"/>
<path d="M544 286.662H576V255.446H544V286.662Z" fill="white"/>
<path d="M576 286.662H608V255.446H576V286.662Z" fill="white"/>
<path d="M608 286.662H640V255.446H608V286.662Z" fill="white"/>
<path d="M640 286.662H672V255.446H640V286.662Z" fill="white"/>
<path d="M672 286.662H704V255.446H672V286.662Z" fill="white"/>
<path d="M704 286.662H736V255.446H704V286.662Z" fill="white"/>
<path d="M736 286.662H768V255.446H736V286.662Z" fill="white"/>
<path d="M768 286.662H800V255.446H768V286.662Z" fill="white"/>
<path d="M800 286.662H832V255.446H800V286.662Z" fill="white"/>
<path d="M832 286.662H864V255.446H832V286.662Z" fill="white"/>
<path d="M864 286.662H896V255.446H864V286.662Z" fill="white"/>
<path d="M896 286.662H928V255.446H896V286.662Z" fill="white"/>
<path d="M928 286.662H960V255.446H928V286.662Z" fill="white"/>
<path d="M960 286.662H992V255.446H960V286.662Z" fill="white"/>
<path d="M992 286.662H1024V255.446H992V286.662Z" fill="white"/>
<path d="M1024 286.662H1056V255.446H1024V286.662Z" fill="white"/>
<path d="M1056 286.662H1088V255.446H1056V286.662Z" fill="white"/>
<path d="M1088 286.662H1120V255.446H1088V286.662Z" fill="white"/>
<path d="M1120 286.662H1152V255.446H1120V286.662Z" fill="white"/>
<path d="M1152 286.662H1184V255.446H1152V286.662Z" fill="white"/>
<path d="M1184 286.662H1216V255.446H1184V286.662Z" fill="white"/>
<path d="M0 255.447H32V224.231H0V255.447Z" fill="white"/>
<path d="M32 255.447H64V224.231H32V255.447Z" fill="white"/>
<path d="M64 255.447H96V224.231H64V255.447Z" fill="white"/>
<path d="M96 255.447H128V224.231H96V255.447Z" fill="white"/>
<path d="M128 255.447H160V224.231H128V255.447Z" fill="white"/>
<path d="M160 255.447H192V224.231H160V255.447Z" fill="white"/>
<path d="M192 255.447H224V224.231H192V255.447Z" fill="white"/>
<path d="M224 255.447H256V224.231H224V255.447Z" fill="white"/>
<path d="M256 255.447H288V224.231H256V255.447Z" fill="white"/>
<path d="M288 255.447H320V224.231H288V255.447Z" fill="white"/>
<path d="M320 255.447H352V224.231H320V255.447Z" fill="white"/>
<path d="M352 255.447H384V224.231H352V255.447Z" fill="white"/>
<path d="M384 255.447H416V224.231H384V255.447Z" fill="white"/>
<path d="M416 255.447H448V224.231H416V255.447Z" fill="white"/>
<path d="M448 255.447H480V224.231H448V255.447Z" fill="white"/>
<path d="M480 255.447H512V224.231H480V255.447Z" fill="white"/>
<path d="M512 255.447H544V224.231H512V255.447Z" fill="white"/>
<path d="M544 255.447H576V224.231H544V255.447Z" fill="white"/>
<path d="M576 255.447H608V224.231H576V255.447Z" fill="white"/>
<path d="M608 255.447H640V224.231H608V255.447Z" fill="white"/>
<path d="M640 255.447H672V224.231H640V255.447Z" fill="white"/>
<path d="M672 255.447H704V224.231H672V255.447Z" fill="white"/>
<path d="M704 255.447H736V224.231H704V255.447Z" fill="white"/>
<path d="M736 255.447H768V224.231H736V255.447Z" fill="white"/>
<path d="M768 255.447H800V224.231H768V255.447Z" fill="white"/>
<path d="M800 255.447H832V224.231H800V255.447Z" fill="white"/>
<path d="M832 255.447H864V224.231H832V255.447Z" fill="white"/>
<path d="M864 255.447H896V224.231H864V255.447Z" fill="white"/>
<path d="M896 255.447H928V224.231H896V255.447Z" fill="white"/>
<path d="M928 255.447H960V224.231H928V255.447Z" fill="white"/>
<path d="M960 255.447H992V224.231H960V255.447Z" fill="white"/>
<path d="M992 255.447H1024V224.231H992V255.447Z" fill="white"/>
<path d="M1024 255.447H1056V224.231H1024V255.447Z" fill="white"/>
<path d="M1056 255.447H1088V224.231H1056V255.447Z" fill="white"/>
<path d="M1088 255.447H1120V224.231H1088V255.447Z" fill="white"/>
<path d="M1120 255.447H1152V224.231H1120V255.447Z" fill="white"/>
<path d="M1152 255.447H1184V224.231H1152V255.447Z" fill="white"/>
<path d="M1184 255.447H1216V224.231H1184V255.447Z" fill="white"/>
<path d="M0 224.232H32V193.016H0V224.232Z" fill="white"/>
<path d="M32 224.232H64V193.016H32V224.232Z" fill="white"/>
<path d="M64 224.232H96V193.016H64V224.232Z" fill="white"/>
<path d="M96 224.232H128V193.016H96V224.232Z" fill="white"/>
<path d="M128 224.232H160V193.016H128V224.232Z" fill="white"/>
<path d="M160 224.232H192V193.016H160V224.232Z" fill="white"/>
<path d="M192 224.232H224V193.016H192V224.232Z" fill="white"/>
<path d="M224 224.232H256V193.016H224V224.232Z" fill="white"/>
<path d="M256 224.232H288V193.016H256V224.232Z" fill="white"/>
<path d="M288 224.232H320V193.016H288V224.232Z" fill="white"/>
<path d="M320 224.232H352V193.016H320V224.232Z" fill="white"/>
<path d="M352 224.232H384V193.016H352V224.232Z" fill="white"/>
<path d="M384 224.232H416V193.016H384V224.232Z" fill="white"/>
<path d="M416 224.232H448V193.016H416V224.232Z" fill="white"/>
<path d="M448 224.232H480V193.016H448V224.232Z" fill="white"/>
<path d="M480 224.232H512V193.016H480V224.232Z" fill="white"/>
<path d="M512 224.232H544V193.016H512V224.232Z" fill="white"/>
<path d="M544 224.232H576V193.016H544V224.232Z" fill="white"/>
<path d="M576 224.232H608V193.016H576V224.232Z" fill="white"/>
<path d="M608 224.232H640V193.016H608V224.232Z" fill="white"/>
<path d="M640 224.232H672V193.016H640V224.232Z" fill="white"/>
<path d="M672 224.232H704V193.016H672V224.232Z" fill="white"/>
<path d="M704 224.232H736V193.016H704V224.232Z" fill="white"/>
<path d="M736 224.232H768V193.016H736V224.232Z" fill="white"/>
<path d="M768 224.232H800V193.016H768V224.232Z" fill="white"/>
<path d="M800 224.232H832V193.016H800V224.232Z" fill="white"/>
<path d="M832 224.232H864V193.016H832V224.232Z" fill="white"/>
<path d="M864 224.232H896V193.016H864V224.232Z" fill="white"/>
<path d="M896 224.232H928V193.016H896V224.232Z" fill="white"/>
<path d="M928 224.232H960V193.016H928V224.232Z" fill="white"/>
<path d="M960 224.232H992V193.016H960V224.232Z" fill="white"/>
<path d="M992 224.232H1024V193.016H992V224.232Z" fill="white"/>
<path d="M1024 224.232H1056V193.016H1024V224.232Z" fill="white"/>
<path d="M1056 224.232H1088V193.016H1056V224.232Z" fill="white"/>
<path d="M1088 224.232H1120V193.016H1088V224.232Z" fill="white"/>
<path d="M1120 224.232H1152V193.016H1120V224.232Z" fill="white"/>
<path d="M1152 224.232H1184V193.016H1152V224.232Z" fill="white"/>
<path d="M1184 224.232H1216V193.016H1184V224.232Z" fill="white"/>
<path d="M0 193.013H32V161.797H0V193.013Z" fill="white"/>
<path d="M32 193.013H64V161.797H32V193.013Z" fill="white"/>
<path d="M64 193.013H96V161.797H64V193.013Z" fill="white"/>
<path d="M96 193.013H128V161.797H96V193.013Z" fill="white"/>
<path d="M128 193.013H160V161.797H128V193.013Z" fill="white"/>
<path d="M160 193.013H192V161.797H160V193.013Z" fill="white"/>
<path d="M192 193.013H224V161.797H192V193.013Z" fill="white"/>
<path d="M224 193.013H256V161.797H224V193.013Z" fill="white"/>
<path d="M256 193.013H288V161.797H256V193.013Z" fill="white"/>
<path d="M288 193.013H320V161.797H288V193.013Z" fill="white"/>
<path d="M320 193.013H352V161.797H320V193.013Z" fill="white"/>
<path d="M352 193.013H384V161.797H352V193.013Z" fill="white"/>
<path d="M384 193.013H416V161.797H384V193.013Z" fill="white"/>
<path d="M416 193.013H448V161.797H416V193.013Z" fill="white"/>
<path d="M448 193.013H480V161.797H448V193.013Z" fill="white"/>
<path d="M480 193.013H512V161.797H480V193.013Z" fill="white"/>
<path d="M512 193.013H544V161.797H512V193.013Z" fill="white"/>
<path d="M544 193.013H576V161.797H544V193.013Z" fill="white"/>
<path d="M576 193.013H608V161.797H576V193.013Z" fill="white"/>
<path d="M608 193.013H640V161.797H608V193.013Z" fill="white"/>
<path d="M640 193.013H672V161.797H640V193.013Z" fill="white"/>
<path d="M672 193.013H704V161.797H672V193.013Z" fill="white"/>
<path d="M704 193.013H736V161.797H704V193.013Z" fill="white"/>
<path d="M736 193.013H768V161.797H736V193.013Z" fill="white"/>
<path d="M768 193.013H800V161.797H768V193.013Z" fill="white"/>
<path d="M800 193.013H832V161.797H800V193.013Z" fill="white"/>
<path d="M832 193.013H864V161.797H832V193.013Z" fill="white"/>
<path d="M864 193.013H896V161.797H864V193.013Z" fill="white"/>
<path d="M896 193.013H928V161.797H896V193.013Z" fill="white"/>
<path d="M928 193.013H960V161.797H928V193.013Z" fill="white"/>
<path d="M960 193.013H992V161.797H960V193.013Z" fill="white"/>
<path d="M992 193.013H1024V161.797H992V193.013Z" fill="white"/>
<path d="M1024 193.013H1056V161.797H1024V193.013Z" fill="white"/>
<path d="M1056 193.013H1088V161.797H1056V193.013Z" fill="white"/>
<path d="M1088 193.013H1120V161.797H1088V193.013Z" fill="white"/>
<path d="M1120 193.013H1152V161.797H1120V193.013Z" fill="white"/>
<path d="M1152 193.013H1184V161.797H1152V193.013Z" fill="white"/>
<path d="M1184 193.013H1216V161.797H1184V193.013Z" fill="white"/>
<path d="M0 161.798H32V130.583H0V161.798Z" fill="white"/>
<path d="M32 161.798H64V130.583H32V161.798Z" fill="white"/>
<path d="M64 161.798H96V130.583H64V161.798Z" fill="white"/>
<path d="M96 161.798H128V130.583H96V161.798Z" fill="white"/>
<path d="M128 161.798H160V130.583H128V161.798Z" fill="white"/>
<path d="M160 161.798H192V130.583H160V161.798Z" fill="white"/>
<path d="M192 161.798H224V130.583H192V161.798Z" fill="white"/>
<path d="M224 161.798H256V130.583H224V161.798Z" fill="white"/>
<path d="M256 161.798H288V130.583H256V161.798Z" fill="white"/>
<path d="M288 161.798H320V130.583H288V161.798Z" fill="white"/>
<path d="M320 161.798H352V130.583H320V161.798Z" fill="white"/>
<path d="M352 161.798H384V130.583H352V161.798Z" fill="white"/>
<path d="M384 161.798H416V130.583H384V161.798Z" fill="white"/>
<path d="M416 161.798H448V130.583H416V161.798Z" fill="white"/>
<path d="M448 161.798H480V130.583H448V161.798Z" fill="white"/>
<path d="M480 161.798H512V130.583H480V161.798Z" fill="white"/>
<path d="M512 161.798H544V130.583H512V161.798Z" fill="white"/>
<path d="M544 161.798H576V130.583H544V161.798Z" fill="white"/>
<path d="M576 161.798H608V130.583H576V161.798Z" fill="white"/>
<path d="M608 161.798H640V130.583H608V161.798Z" fill="white"/>
<path d="M640 161.798H672V130.583H640V161.798Z" fill="white"/>
<path d="M672 161.798H704V130.583H672V161.798Z" fill="white"/>
<path d="M704 161.798H736V130.583H704V161.798Z" fill="white"/>
<path d="M736 161.798H768V130.583H736V161.798Z" fill="white"/>
<path d="M768 161.798H800V130.583H768V161.798Z" fill="white"/>
<path d="M800 161.798H832V130.583H800V161.798Z" fill="white"/>
<path d="M832 161.798H864V130.583H832V161.798Z" fill="white"/>
<path d="M864 161.798H896V130.583H864V161.798Z" fill="white"/>
<path d="M896 161.798H928V130.583H896V161.798Z" fill="white"/>
<path d="M928 161.798H960V130.583H928V161.798Z" fill="white"/>
<path d="M960 161.798H992V130.583H960V161.798Z" fill="white"/>
<path d="M992 161.798H1024V130.583H992V161.798Z" fill="white"/>
<path d="M1024 161.798H1056V130.583H1024V161.798Z" fill="white"/>
<path d="M1056 161.798H1088V130.583H1056V161.798Z" fill="white"/>
<path d="M1088 161.798H1120V130.583H1088V161.798Z" fill="white"/>
<path d="M1120 161.798H1152V130.583H1120V161.798Z" fill="white"/>
<path d="M1152 161.798H1184V130.583H1152V161.798Z" fill="white"/>
<path d="M1184 161.798H1216V130.583H1184V161.798Z" fill="white"/>
<path d="M0 130.584H32V99.3677H0V130.584Z" fill="white"/>
<path d="M32 130.584H64V99.3677H32V130.584Z" fill="white"/>
<path d="M64 130.584H96V99.3677H64V130.584Z" fill="white"/>
<path d="M96 130.584H128V99.3677H96V130.584Z" fill="white"/>
<path d="M128 130.584H160V99.3677H128V130.584Z" fill="white"/>
<path d="M160 130.584H192V99.3677H160V130.584Z" fill="white"/>
<path d="M192 130.584H224V99.3677H192V130.584Z" fill="white"/>
<path d="M224 130.584H256V99.3677H224V130.584Z" fill="white"/>
<path d="M256 130.584H288V99.3677H256V130.584Z" fill="white"/>
<path d="M288 130.584H320V99.3677H288V130.584Z" fill="white"/>
<path d="M320 130.584H352V99.3677H320V130.584Z" fill="white"/>
<path d="M352 130.584H384V99.3677H352V130.584Z" fill="white"/>
<path d="M384 130.584H416V99.3677H384V130.584Z" fill="white"/>
<path d="M416 130.584H448V99.3677H416V130.584Z" fill="white"/>
<path d="M448 130.584H480V99.3677H448V130.584Z" fill="white"/>
<path d="M480 130.584H512V99.3677H480V130.584Z" fill="white"/>
<path d="M512 130.584H544V99.3677H512V130.584Z" fill="white"/>
<path d="M544 130.584H576V99.3677H544V130.584Z" fill="white"/>
<path d="M576 130.584H608V99.3677H576V130.584Z" fill="white"/>
<path d="M608 130.584H640V99.3677H608V130.584Z" fill="white"/>
<path d="M640 130.584H672V99.3677H640V130.584Z" fill="white"/>
<path d="M672 130.584H704V99.3677H672V130.584Z" fill="white"/>
<path d="M704 130.584H736V99.3677H704V130.584Z" fill="white"/>
<path d="M736 130.584H768V99.3677H736V130.584Z" fill="white"/>
<path d="M768 130.584H800V99.3677H768V130.584Z" fill="white"/>
<path d="M800 130.584H832V99.3677H800V130.584Z" fill="white"/>
<path d="M832 130.584H864V99.3677H832V130.584Z" fill="white"/>
<path d="M864 130.584H896V99.3677H864V130.584Z" fill="white"/>
<path d="M896 130.584H928V99.3677H896V130.584Z" fill="white"/>
<path d="M928 130.584H960V99.3677H928V130.584Z" fill="white"/>
<path d="M960 130.584H992V99.3677H960V130.584Z" fill="white"/>
<path d="M992 130.584H1024V99.3677H992V130.584Z" fill="white"/>
<path d="M1024 130.584H1056V99.3677H1024V130.584Z" fill="white"/>
<path d="M1056 130.584H1088V99.3677H1056V130.584Z" fill="white"/>
<path d="M1088 130.584H1120V99.3677H1088V130.584Z" fill="white"/>
<path d="M1120 130.584H1152V99.3677H1120V130.584Z" fill="white"/>
<path d="M1152 130.584H1184V99.3677H1152V130.584Z" fill="white"/>
<path d="M1184 130.584H1216V99.3677H1184V130.584Z" fill="white"/>
<path d="M0 99.3649H32V68.1489H0V99.3649Z" fill="white"/>
<path d="M32 99.3649H64V68.1489H32V99.3649Z" fill="white"/>
<path d="M64 99.3649H96V68.1489H64V99.3649Z" fill="white"/>
<path d="M96 99.3649H128V68.1489H96V99.3649Z" fill="white"/>
<path d="M128 99.3649H160V68.1489H128V99.3649Z" fill="white"/>
<path d="M160 99.3649H192V68.1489H160V99.3649Z" fill="white"/>
<path d="M192 99.3649H224V68.1489H192V99.3649Z" fill="white"/>
<path d="M224 99.3649H256V68.1489H224V99.3649Z" fill="white"/>
<path d="M256 99.3649H288V68.1489H256V99.3649Z" fill="white"/>
<path d="M288 99.3649H320V68.1489H288V99.3649Z" fill="white"/>
<path d="M320 99.3649H352V68.1489H320V99.3649Z" fill="white"/>
<path d="M352 99.3649H384V68.1489H352V99.3649Z" fill="white"/>
<path d="M384 99.3649H416V68.1489H384V99.3649Z" fill="white"/>
<path d="M416 99.3649H448V68.1489H416V99.3649Z" fill="white"/>
<path d="M448 99.3649H480V68.1489H448V99.3649Z" fill="white"/>
<path d="M480 99.3649H512V68.1489H480V99.3649Z" fill="white"/>
<path d="M512 99.3649H544V68.1489H512V99.3649Z" fill="white"/>
<path d="M544 99.3649H576V68.1489H544V99.3649Z" fill="white"/>
<path d="M576 99.3649H608V68.1489H576V99.3649Z" fill="white"/>
<path d="M608 99.3649H640V68.1489H608V99.3649Z" fill="white"/>
<path d="M640 99.3649H672V68.1489H640V99.3649Z" fill="white"/>
<path d="M672 99.3649H704V68.1489H672V99.3649Z" fill="white"/>
<path d="M704 99.3649H736V68.1489H704V99.3649Z" fill="white"/>
<path d="M736 99.3649H768V68.1489H736V99.3649Z" fill="white"/>
<path d="M768 99.3649H800V68.1489H768V99.3649Z" fill="white"/>
<path d="M800 99.3649H832V68.1489H800V99.3649Z" fill="white"/>
<path d="M832 99.3649H864V68.1489H832V99.3649Z" fill="white"/>
<path d="M864 99.3649H896V68.1489H864V99.3649Z" fill="white"/>
<path d="M896 99.3649H928V68.1489H896V99.3649Z" fill="white"/>
<path d="M928 99.3649H960V68.1489H928V99.3649Z" fill="white"/>
<path d="M960 99.3649H992V68.1489H960V99.3649Z" fill="white"/>
<path d="M992 99.3649H1024V68.1489H992V99.3649Z" fill="white"/>
<path d="M1024 99.3649H1056V68.1489H1024V99.3649Z" fill="white"/>
<path d="M1056 99.3649H1088V68.1489H1056V99.3649Z" fill="white"/>
<path d="M1088 99.3649H1120V68.1489H1088V99.3649Z" fill="white"/>
<path d="M1120 99.3649H1152V68.1489H1120V99.3649Z" fill="white"/>
<path d="M1152 99.3649H1184V68.1489H1152V99.3649Z" fill="white"/>
<path d="M1184 99.3649H1216V68.1489H1184V99.3649Z" fill="white"/>
<path d="M0 68.15H32V36.9341H0V68.15Z" fill="white"/>
<path d="M32 68.15H64V36.9341H32V68.15Z" fill="white"/>
<path d="M64 68.15H96V36.9341H64V68.15Z" fill="white"/>
<path d="M96 68.15H128V36.9341H96V68.15Z" fill="white"/>
<path d="M128 68.15H160V36.9341H128V68.15Z" fill="white"/>
<path d="M160 68.15H192V36.9341H160V68.15Z" fill="white"/>
<path d="M192 68.15H224V36.9341H192V68.15Z" fill="white"/>
<path d="M224 68.15H256V36.9341H224V68.15Z" fill="white"/>
<path d="M256 68.15H288V36.9341H256V68.15Z" fill="white"/>
<path d="M288 68.15H320V36.9341H288V68.15Z" fill="white"/>
<path d="M320 68.15H352V36.9341H320V68.15Z" fill="white"/>
<path d="M352 68.15H384V36.9341H352V68.15Z" fill="white"/>
<path d="M384 68.15H416V36.9341H384V68.15Z" fill="white"/>
<path d="M416 68.15H448V36.9341H416V68.15Z" fill="white"/>
<path d="M448 68.15H480V36.9341H448V68.15Z" fill="white"/>
<path d="M480 68.15H512V36.9341H480V68.15Z" fill="white"/>
<path d="M512 68.15H544V36.9341H512V68.15Z" fill="white"/>
<path d="M544 68.15H576V36.9341H544V68.15Z" fill="white"/>
<path d="M576 68.15H608V36.9341H576V68.15Z" fill="white"/>
<path d="M608 68.15H640V36.9341H608V68.15Z" fill="white"/>
<path d="M640 68.15H672V36.9341H640V68.15Z" fill="white"/>
<path d="M672 68.15H704V36.9341H672V68.15Z" fill="white"/>
<path d="M704 68.15H736V36.9341H704V68.15Z" fill="white"/>
<path d="M736 68.15H768V36.9341H736V68.15Z" fill="white"/>
<path d="M768 68.15H800V36.9341H768V68.15Z" fill="white"/>
<path d="M800 68.15H832V36.9341H800V68.15Z" fill="white"/>
<path d="M832 68.15H864V36.9341H832V68.15Z" fill="white"/>
<path d="M864 68.15H896V36.9341H864V68.15Z" fill="white"/>
<path d="M896 68.15H928V36.9341H896V68.15Z" fill="white"/>
<path d="M928 68.15H960V36.9341H928V68.15Z" fill="white"/>
<path d="M960 68.15H992V36.9341H960V68.15Z" fill="white"/>
<path d="M992 68.15H1024V36.9341H992V68.15Z" fill="white"/>
<path d="M1024 68.15H1056V36.9341H1024V68.15Z" fill="white"/>
<path d="M1056 68.15H1088V36.9341H1056V68.15Z" fill="white"/>
<path d="M1088 68.15H1120V36.9341H1088V68.15Z" fill="white"/>
<path d="M1120 68.15H1152V36.9341H1120V68.15Z" fill="white"/>
<path d="M1152 68.15H1184V36.9341H1152V68.15Z" fill="white"/>
<path d="M1184 68.15H1216V36.9341H1184V68.15Z" fill="white"/>
<path d="M0 36.9352H32V5.71924H0V36.9352Z" fill="white"/>
<path d="M32 36.9352H64V5.71924H32V36.9352Z" fill="white"/>
<path d="M64 36.9352H96V5.71924H64V36.9352Z" fill="white"/>
<path d="M96 36.9352H128V5.71924H96V36.9352Z" fill="white"/>
<path d="M128 36.9352H160V5.71924H128V36.9352Z" fill="white"/>
<path d="M160 36.9352H192V5.71924H160V36.9352Z" fill="white"/>
<path d="M192 36.9352H224V5.71924H192V36.9352Z" fill="white"/>
<path d="M224 36.9352H256V5.71924H224V36.9352Z" fill="white"/>
<path d="M256 36.9352H288V5.71924H256V36.9352Z" fill="white"/>
<path d="M288 36.9352H320V5.71924H288V36.9352Z" fill="white"/>
<path d="M320 36.9352H352V5.71924H320V36.9352Z" fill="white"/>
<path d="M352 36.9352H384V5.71924H352V36.9352Z" fill="white"/>
<path d="M384 36.9352H416V5.71924H384V36.9352Z" fill="white"/>
<path d="M416 36.9352H448V5.71924H416V36.9352Z" fill="white"/>
<path d="M448 36.9352H480V5.71924H448V36.9352Z" fill="white"/>
<path d="M480 36.9352H512V5.71924H480V36.9352Z" fill="white"/>
<path d="M512 36.9352H544V5.71924H512V36.9352Z" fill="white"/>
<path d="M544 36.9352H576V5.71924H544V36.9352Z" fill="white"/>
<path d="M576 36.9352H608V5.71924H576V36.9352Z" fill="white"/>
<path d="M608 36.9352H640V5.71924H608V36.9352Z" fill="white"/>
<path d="M640 36.9352H672V5.71924H640V36.9352Z" fill="white"/>
<path d="M672 36.9352H704V5.71924H672V36.9352Z" fill="white"/>
<path d="M704 36.9352H736V5.71924H704V36.9352Z" fill="white"/>
<path d="M736 36.9352H768V5.71924H736V36.9352Z" fill="white"/>
<path d="M768 36.9352H800V5.71924H768V36.9352Z" fill="white"/>
<path d="M800 36.9352H832V5.71924H800V36.9352Z" fill="white"/>
<path d="M832 36.9352H864V5.71924H832V36.9352Z" fill="white"/>
<path d="M864 36.9352H896V5.71924H864V36.9352Z" fill="white"/>
<path d="M896 36.9352H928V5.71924H896V36.9352Z" fill="white"/>
<path d="M928 36.9352H960V5.71924H928V36.9352Z" fill="white"/>
<path d="M960 36.9352H992V5.71924H960V36.9352Z" fill="white"/>
<path d="M992 36.9352H1024V5.71924H992V36.9352Z" fill="white"/>
<path d="M1024 36.9352H1056V5.71924H1024V36.9352Z" fill="white"/>
<path d="M1056 36.9352H1088V5.71924H1056V36.9352Z" fill="white"/>
<path d="M1088 36.9352H1120V5.71924H1088V36.9352Z" fill="white"/>
<path d="M1120 36.9352H1152V5.71924H1120V36.9352Z" fill="white"/>
<path d="M1152 36.9352H1184V5.71924H1152V36.9352Z" fill="white"/>
<path d="M1184 36.9352H1216V5.71924H1184V36.9352Z" fill="white"/>
<path d="M0 5.72036H32V-25.4956H0V5.72036Z" fill="white"/>
<path d="M32 5.72036H64V-25.4956H32V5.72036Z" fill="white"/>
<path d="M64 5.72036H96V-25.4956H64V5.72036Z" fill="white"/>
<path d="M96 5.72036H128V-25.4956H96V5.72036Z" fill="white"/>
<path d="M128 5.72036H160V-25.4956H128V5.72036Z" fill="white"/>
<path d="M160 5.72036H192V-25.4956H160V5.72036Z" fill="white"/>
<path d="M192 5.72036H224V-25.4956H192V5.72036Z" fill="white"/>
<path d="M224 5.72036H256V-25.4956H224V5.72036Z" fill="white"/>
<path d="M256 5.72036H288V-25.4956H256V5.72036Z" fill="white"/>
<path d="M288 5.72036H320V-25.4956H288V5.72036Z" fill="white"/>
<path d="M320 5.72036H352V-25.4956H320V5.72036Z" fill="white"/>
<path d="M352 5.72036H384V-25.4956H352V5.72036Z" fill="white"/>
<path d="M384 5.72036H416V-25.4956H384V5.72036Z" fill="white"/>
<path d="M416 5.72036H448V-25.4956H416V5.72036Z" fill="white"/>
<path d="M448 5.72036H480V-25.4956H448V5.72036Z" fill="white"/>
<path d="M480 5.72036H512V-25.4956H480V5.72036Z" fill="white"/>
<path d="M512 5.72036H544V-25.4956H512V5.72036Z" fill="white"/>
<path d="M544 5.72036H576V-25.4956H544V5.72036Z" fill="white"/>
<path d="M576 5.72036H608V-25.4956H576V5.72036Z" fill="white"/>
<path d="M608 5.72036H640V-25.4956H608V5.72036Z" fill="white"/>
<path d="M640 5.72036H672V-25.4956H640V5.72036Z" fill="white"/>
<path d="M672 5.72036H704V-25.4956H672V5.72036Z" fill="white"/>
<path d="M704 5.72036H736V-25.4956H704V5.72036Z" fill="white"/>
<path d="M736 5.72036H768V-25.4956H736V5.72036Z" fill="white"/>
<path d="M768 5.72036H800V-25.4956H768V5.72036Z" fill="white"/>
<path d="M800 5.72036H832V-25.4956H800V5.72036Z" fill="white"/>
<path d="M832 5.72036H864V-25.4956H832V5.72036Z" fill="white"/>
<path d="M864 5.72036H896V-25.4956H864V5.72036Z" fill="white"/>
<path d="M896 5.72036H928V-25.4956H896V5.72036Z" fill="white"/>
<path d="M928 5.72036H960V-25.4956H928V5.72036Z" fill="white"/>
<path d="M960 5.72036H992V-25.4956H960V5.72036Z" fill="white"/>
<path d="M992 5.72036H1024V-25.4956H992V5.72036Z" fill="white"/>
<path d="M1024 5.72036H1056V-25.4956H1024V5.72036Z" fill="white"/>
<path d="M1056 5.72036H1088V-25.4956H1056V5.72036Z" fill="white"/>
<path d="M1088 5.72036H1120V-25.4956H1088V5.72036Z" fill="white"/>
<path d="M1120 5.72036H1152V-25.4956H1120V5.72036Z" fill="white"/>
<path d="M1152 5.72036H1184V-25.4956H1152V5.72036Z" fill="white"/>
<path d="M1184 5.72036H1216V-25.4956H1184V5.72036Z" fill="white"/>
</mask>
<g mask="url(#mask1_1_6180)">
<path d="M31.5 411.525V380.309H32.5V411.525H31.5ZM32 380.797H0V379.821H32V380.797ZM63.5 411.525V380.309H64.5V411.525H63.5ZM64 380.797H32V379.821H64V380.797ZM95.5 411.525V380.309H96.5V411.525H95.5ZM96 380.797H64V379.821H96V380.797ZM127.5 411.525V380.309H128.5V411.525H127.5ZM128 380.797H96V379.821H128V380.797ZM159.5 411.525V380.309H160.5V411.525H159.5ZM160 380.797H128V379.821H160V380.797ZM191.5 411.525V380.309H192.5V411.525H191.5ZM192 380.797H160V379.821H192V380.797ZM223.5 411.525V380.309H224.5V411.525H223.5ZM224 380.797H192V379.821H224V380.797ZM255.5 411.525V380.309H256.5V411.525H255.5ZM256 380.797H224V379.821H256V380.797ZM287.5 411.525V380.309H288.5V411.525H287.5ZM288 380.797H256V379.821H288V380.797ZM319.5 411.525V380.309H320.5V411.525H319.5ZM320 380.797H288V379.821H320V380.797ZM351.5 411.525V380.309H352.5V411.525H351.5ZM352 380.797H320V379.821H352V380.797ZM383.5 411.525V380.309H384.5V411.525H383.5ZM384 380.797H352V379.821H384V380.797ZM415.5 411.525V380.309H416.5V411.525H415.5ZM416 380.797H384V379.821H416V380.797ZM447.5 411.525V380.309H448.5V411.525H447.5ZM448 380.797H416V379.821H448V380.797ZM479.5 411.525V380.309H480.5V411.525H479.5ZM480 380.797H448V379.821H480V380.797ZM511.5 411.525V380.309H512.5V411.525H511.5ZM512 380.797H480V379.821H512V380.797ZM543.5 411.525V380.309H544.5V411.525H543.5ZM544 380.797H512V379.821H544V380.797ZM575.5 411.525V380.309H576.5V411.525H575.5ZM576 380.797H544V379.821H576V380.797ZM607.5 411.525V380.309H608.5V411.525H607.5ZM608 380.797H576V379.821H608V380.797ZM639.5 411.525V380.309H640.5V411.525H639.5ZM640 380.797H608V379.821H640V380.797ZM671.5 411.525V380.309H672.5V411.525H671.5ZM672 380.797H640V379.821H672V380.797ZM703.5 411.525V380.309H704.5V411.525H703.5ZM704 380.797H672V379.821H704V380.797ZM735.5 411.525V380.309H736.5V411.525H735.5ZM736 380.797H704V379.821H736V380.797ZM767.5 411.525V380.309H768.5V411.525H767.5ZM768 380.797H736V379.821H768V380.797ZM799.5 411.525V380.309H800.5V411.525H799.5ZM800 380.797H768V379.821H800V380.797ZM831.5 411.525V380.309H832.5V411.525H831.5ZM832 380.797H800V379.821H832V380.797ZM863.5 411.525V380.309H864.5V411.525H863.5ZM864 380.797H832V379.821H864V380.797ZM895.5 411.525V380.309H896.5V411.525H895.5ZM896 380.797H864V379.821H896V380.797ZM927.5 411.525V380.309H928.5V411.525H927.5ZM928 380.797H896V379.821H928V380.797ZM959.5 411.525V380.309H960.5V411.525H959.5ZM960 380.797H928V379.821H960V380.797ZM991.5 411.525V380.309H992.5V411.525H991.5ZM992 380.797H960V379.821H992V380.797ZM1023.5 411.525V380.309H1024.5V411.525H1023.5ZM1024 380.797H992V379.821H1024V380.797ZM1055.5 411.525V380.309H1056.5V411.525H1055.5ZM1056 380.797H1024V379.821H1056V380.797ZM1087.5 411.525V380.309H1088.5V411.525H1087.5ZM1088 380.797H1056V379.821H1088V380.797ZM1119.5 411.525V380.309H1120.5V411.525H1119.5ZM1120 380.797H1088V379.821H1120V380.797ZM1151.5 411.525V380.309H1152.5V411.525H1151.5ZM1152 380.797H1120V379.821H1152V380.797ZM1183.5 411.525V380.309H1184.5V411.525H1183.5ZM1184 380.797H1152V379.821H1184V380.797ZM1216 380.797H1184V379.821H1216V380.797ZM31.5 380.309V349.093H32.5V380.309H31.5ZM32 349.581H0V348.605H32V349.581ZM63.5 380.309V349.093H64.5V380.309H63.5ZM64 349.581H32V348.605H64V349.581ZM95.5 380.309V349.093H96.5V380.309H95.5ZM96 349.581H64V348.605H96V349.581ZM127.5 380.309V349.093H128.5V380.309H127.5ZM128 349.581H96V348.605H128V349.581ZM159.5 380.309V349.093H160.5V380.309H159.5ZM160 349.581H128V348.605H160V349.581ZM191.5 380.309V349.093H192.5V380.309H191.5ZM192 349.581H160V348.605H192V349.581ZM223.5 380.309V349.093H224.5V380.309H223.5ZM224 349.581H192V348.605H224V349.581ZM255.5 380.309V349.093H256.5V380.309H255.5ZM256 349.581H224V348.605H256V349.581ZM287.5 380.309V349.093H288.5V380.309H287.5ZM288 349.581H256V348.605H288V349.581ZM319.5 380.309V349.093H320.5V380.309H319.5ZM320 349.581H288V348.605H320V349.581ZM351.5 380.309V349.093H352.5V380.309H351.5ZM352 349.581H320V348.605H352V349.581ZM383.5 380.309V349.093H384.5V380.309H383.5ZM384 349.581H352V348.605H384V349.581ZM415.5 380.309V349.093H416.5V380.309H415.5ZM416 349.581H384V348.605H416V349.581ZM447.5 380.309V349.093H448.5V380.309H447.5ZM448 349.581H416V348.605H448V349.581ZM479.5 380.309V349.093H480.5V380.309H479.5ZM480 349.581H448V348.605H480V349.581ZM511.5 380.309V349.093H512.5V380.309H511.5ZM512 349.581H480V348.605H512V349.581ZM543.5 380.309V349.093H544.5V380.309H543.5ZM544 349.581H512V348.605H544V349.581ZM575.5 380.309V349.093H576.5V380.309H575.5ZM576 349.581H544V348.605H576V349.581ZM607.5 380.309V349.093H608.5V380.309H607.5ZM608 349.581H576V348.605H608V349.581ZM639.5 380.309V349.093H640.5V380.309H639.5ZM640 349.581H608V348.605H640V349.581ZM671.5 380.309V349.093H672.5V380.309H671.5ZM672 349.581H640V348.605H672V349.581ZM703.5 380.309V349.093H704.5V380.309H703.5ZM704 349.581H672V348.605H704V349.581ZM735.5 380.309V349.093H736.5V380.309H735.5ZM736 349.581H704V348.605H736V349.581ZM767.5 380.309V349.093H768.5V380.309H767.5ZM768 349.581H736V348.605H768V349.581ZM799.5 380.309V349.093H800.5V380.309H799.5ZM800 349.581H768V348.605H800V349.581ZM831.5 380.309V349.093H832.5V380.309H831.5ZM832 349.581H800V348.605H832V349.581ZM863.5 380.309V349.093H864.5V380.309H863.5ZM864 349.581H832V348.605H864V349.581ZM895.5 380.309V349.093H896.5V380.309H895.5ZM896 349.581H864V348.605H896V349.581ZM927.5 380.309V349.093H928.5V380.309H927.5ZM928 349.581H896V348.605H928V349.581ZM959.5 380.309V349.093H960.5V380.309H959.5ZM960 349.581H928V348.605H960V349.581ZM991.5 380.309V349.093H992.5V380.309H991.5ZM992 349.581H960V348.605H992V349.581ZM1023.5 380.309V349.093H1024.5V380.309H1023.5ZM1024 349.581H992V348.605H1024V349.581ZM1055.5 380.309V349.093H1056.5V380.309H1055.5ZM1056 349.581H1024V348.605H1056V349.581ZM1087.5 380.309V349.093H1088.5V380.309H1087.5ZM1088 349.581H1056V348.605H1088V349.581ZM1119.5 380.309V349.093H1120.5V380.309H1119.5ZM1120 349.581H1088V348.605H1120V349.581ZM1151.5 380.309V349.093H1152.5V380.309H1151.5ZM1152 349.581H1120V348.605H1152V349.581ZM1183.5 380.309V349.093H1184.5V380.309H1183.5ZM1184 349.581H1152V348.605H1184V349.581ZM1216 349.581H1184V348.605H1216V349.581ZM31.5 349.093V317.877H32.5V349.093H31.5ZM32 318.365H0V317.389H32V318.365ZM63.5 349.093V317.877H64.5V349.093H63.5ZM64 318.365H32V317.389H64V318.365ZM95.5 349.093V317.877H96.5V349.093H95.5ZM96 318.365H64V317.389H96V318.365ZM127.5 349.093V317.877H128.5V349.093H127.5ZM128 318.365H96V317.389H128V318.365ZM159.5 349.093V317.877H160.5V349.093H159.5ZM160 318.365H128V317.389H160V318.365ZM191.5 349.093V317.877H192.5V349.093H191.5ZM192 318.365H160V317.389H192V318.365ZM223.5 349.093V317.877H224.5V349.093H223.5ZM224 318.365H192V317.389H224V318.365ZM255.5 349.093V317.877H256.5V349.093H255.5ZM256 318.365H224V317.389H256V318.365ZM287.5 349.093V317.877H288.5V349.093H287.5ZM288 318.365H256V317.389H288V318.365ZM319.5 349.093V317.877H320.5V349.093H319.5ZM320 318.365H288V317.389H320V318.365ZM351.5 349.093V317.877H352.5V349.093H351.5ZM352 318.365H320V317.389H352V318.365ZM383.5 349.093V317.877H384.5V349.093H383.5ZM384 318.365H352V317.389H384V318.365ZM415.5 349.093V317.877H416.5V349.093H415.5ZM416 318.365H384V317.389H416V318.365ZM447.5 349.093V317.877H448.5V349.093H447.5ZM448 318.365H416V317.389H448V318.365ZM479.5 349.093V317.877H480.5V349.093H479.5ZM480 318.365H448V317.389H480V318.365ZM511.5 349.093V317.877H512.5V349.093H511.5ZM512 318.365H480V317.389H512V318.365ZM543.5 349.093V317.877H544.5V349.093H543.5ZM544 318.365H512V317.389H544V318.365ZM575.5 349.093V317.877H576.5V349.093H575.5ZM576 318.365H544V317.389H576V318.365ZM607.5 349.093V317.877H608.5V349.093H607.5ZM608 318.365H576V317.389H608V318.365ZM639.5 349.093V317.877H640.5V349.093H639.5ZM640 318.365H608V317.389H640V318.365ZM671.5 349.093V317.877H672.5V349.093H671.5ZM672 318.365H640V317.389H672V318.365ZM703.5 349.093V317.877H704.5V349.093H703.5ZM704 318.365H672V317.389H704V318.365ZM735.5 349.093V317.877H736.5V349.093H735.5ZM736 318.365H704V317.389H736V318.365ZM767.5 349.093V317.877H768.5V349.093H767.5ZM768 318.365H736V317.389H768V318.365ZM799.5 349.093V317.877H800.5V349.093H799.5ZM800 318.365H768V317.389H800V318.365ZM831.5 349.093V317.877H832.5V349.093H831.5ZM832 318.365H800V317.389H832V318.365ZM863.5 349.093V317.877H864.5V349.093H863.5ZM864 318.365H832V317.389H864V318.365ZM895.5 349.093V317.877H896.5V349.093H895.5ZM896 318.365H864V317.389H896V318.365ZM927.5 349.093V317.877H928.5V349.093H927.5ZM928 318.365H896V317.389H928V318.365ZM959.5 349.093V317.877H960.5V349.093H959.5ZM960 318.365H928V317.389H960V318.365ZM991.5 349.093V317.877H992.5V349.093H991.5ZM992 318.365H960V317.389H992V318.365ZM1023.5 349.093V317.877H1024.5V349.093H1023.5ZM1024 318.365H992V317.389H1024V318.365ZM1055.5 349.093V317.877H1056.5V349.093H1055.5ZM1056 318.365H1024V317.389H1056V318.365ZM1087.5 349.093V317.877H1088.5V349.093H1087.5ZM1088 318.365H1056V317.389H1088V318.365ZM1119.5 349.093V317.877H1120.5V349.093H1119.5ZM1120 318.365H1088V317.389H1120V318.365ZM1151.5 349.093V317.877H1152.5V349.093H1151.5ZM1152 318.365H1120V317.389H1152V318.365ZM1183.5 349.093V317.877H1184.5V349.093H1183.5ZM1184 318.365H1152V317.389H1184V318.365ZM1216 318.365H1184V317.389H1216V318.365ZM31.5 317.877V286.661H32.5V317.877H31.5ZM32 287.149H0V286.174H32V287.149ZM63.5 317.877V286.661H64.5V317.877H63.5ZM64 287.149H32V286.174H64V287.149ZM95.5 317.877V286.661H96.5V317.877H95.5ZM96 287.149H64V286.174H96V287.149ZM127.5 317.877V286.661H128.5V317.877H127.5ZM128 287.149H96V286.174H128V287.149ZM159.5 317.877V286.661H160.5V317.877H159.5ZM160 287.149H128V286.174H160V287.149ZM191.5 317.877V286.661H192.5V317.877H191.5ZM192 287.149H160V286.174H192V287.149ZM223.5 317.877V286.661H224.5V317.877H223.5ZM224 287.149H192V286.174H224V287.149ZM255.5 317.877V286.661H256.5V317.877H255.5ZM256 287.149H224V286.174H256V287.149ZM287.5 317.877V286.661H288.5V317.877H287.5ZM288 287.149H256V286.174H288V287.149ZM319.5 317.877V286.661H320.5V317.877H319.5ZM320 287.149H288V286.174H320V287.149ZM351.5 317.877V286.661H352.5V317.877H351.5ZM352 287.149H320V286.174H352V287.149ZM383.5 317.877V286.661H384.5V317.877H383.5ZM384 287.149H352V286.174H384V287.149ZM415.5 317.877V286.661H416.5V317.877H415.5ZM416 287.149H384V286.174H416V287.149ZM447.5 317.877V286.661H448.5V317.877H447.5ZM448 287.149H416V286.174H448V287.149ZM479.5 317.877V286.661H480.5V317.877H479.5ZM480 287.149H448V286.174H480V287.149ZM511.5 317.877V286.661H512.5V317.877H511.5ZM512 287.149H480V286.174H512V287.149ZM543.5 317.877V286.661H544.5V317.877H543.5ZM544 287.149H512V286.174H544V287.149ZM575.5 317.877V286.661H576.5V317.877H575.5ZM576 287.149H544V286.174H576V287.149ZM607.5 317.877V286.661H608.5V317.877H607.5ZM608 287.149H576V286.174H608V287.149ZM639.5 317.877V286.661H640.5V317.877H639.5ZM640 287.149H608V286.174H640V287.149ZM671.5 317.877V286.661H672.5V317.877H671.5ZM672 287.149H640V286.174H672V287.149ZM703.5 317.877V286.661H704.5V317.877H703.5ZM704 287.149H672V286.174H704V287.149ZM735.5 317.877V286.661H736.5V317.877H735.5ZM736 287.149H704V286.174H736V287.149ZM767.5 317.877V286.661H768.5V317.877H767.5ZM768 287.149H736V286.174H768V287.149ZM799.5 317.877V286.661H800.5V317.877H799.5ZM800 287.149H768V286.174H800V287.149ZM831.5 317.877V286.661H832.5V317.877H831.5ZM832 287.149H800V286.174H832V287.149ZM863.5 317.877V286.661H864.5V317.877H863.5ZM864 287.149H832V286.174H864V287.149ZM895.5 317.877V286.661H896.5V317.877H895.5ZM896 287.149H864V286.174H896V287.149ZM927.5 317.877V286.661H928.5V317.877H927.5ZM928 287.149H896V286.174H928V287.149ZM959.5 317.877V286.661H960.5V317.877H959.5ZM960 287.149H928V286.174H960V287.149ZM991.5 317.877V286.661H992.5V317.877H991.5ZM992 287.149H960V286.174H992V287.149ZM1023.5 317.877V286.661H1024.5V317.877H1023.5ZM1024 287.149H992V286.174H1024V287.149ZM1055.5 317.877V286.661H1056.5V317.877H1055.5ZM1056 287.149H1024V286.174H1056V287.149ZM1087.5 317.877V286.661H1088.5V317.877H1087.5ZM1088 287.149H1056V286.174H1088V287.149ZM1119.5 317.877V286.661H1120.5V317.877H1119.5ZM1120 287.149H1088V286.174H1120V287.149ZM1151.5 317.877V286.661H1152.5V317.877H1151.5ZM1152 287.149H1120V286.174H1152V287.149ZM1183.5 317.877V286.661H1184.5V317.877H1183.5ZM1184 287.149H1152V286.174H1184V287.149ZM1216 287.149H1184V286.174H1216V287.149ZM31.5 286.661V255.445H32.5V286.661H31.5ZM32 255.933H0V254.958H32V255.933ZM63.5 286.661V255.445H64.5V286.661H63.5ZM64 255.933H32V254.958H64V255.933ZM95.5 286.661V255.445H96.5V286.661H95.5ZM96 255.933H64V254.958H96V255.933ZM127.5 286.661V255.445H128.5V286.661H127.5ZM128 255.933H96V254.958H128V255.933ZM159.5 286.661V255.445H160.5V286.661H159.5ZM160 255.933H128V254.958H160V255.933ZM191.5 286.661V255.445H192.5V286.661H191.5ZM192 255.933H160V254.958H192V255.933ZM223.5 286.661V255.445H224.5V286.661H223.5ZM224 255.933H192V254.958H224V255.933ZM255.5 286.661V255.445H256.5V286.661H255.5ZM256 255.933H224V254.958H256V255.933ZM287.5 286.661V255.445H288.5V286.661H287.5ZM288 255.933H256V254.958H288V255.933ZM319.5 286.661V255.445H320.5V286.661H319.5ZM320 255.933H288V254.958H320V255.933ZM351.5 286.661V255.445H352.5V286.661H351.5ZM352 255.933H320V254.958H352V255.933ZM383.5 286.661V255.445H384.5V286.661H383.5ZM384 255.933H352V254.958H384V255.933ZM415.5 286.661V255.445H416.5V286.661H415.5ZM416 255.933H384V254.958H416V255.933ZM447.5 286.661V255.445H448.5V286.661H447.5ZM448 255.933H416V254.958H448V255.933ZM479.5 286.661V255.445H480.5V286.661H479.5ZM480 255.933H448V254.958H480V255.933ZM511.5 286.661V255.445H512.5V286.661H511.5ZM512 255.933H480V254.958H512V255.933ZM543.5 286.661V255.445H544.5V286.661H543.5ZM544 255.933H512V254.958H544V255.933ZM575.5 286.661V255.445H576.5V286.661H575.5ZM576 255.933H544V254.958H576V255.933ZM607.5 286.661V255.445H608.5V286.661H607.5ZM608 255.933H576V254.958H608V255.933ZM639.5 286.661V255.445H640.5V286.661H639.5ZM640 255.933H608V254.958H640V255.933ZM671.5 286.661V255.445H672.5V286.661H671.5ZM672 255.933H640V254.958H672V255.933ZM703.5 286.661V255.445H704.5V286.661H703.5ZM704 255.933H672V254.958H704V255.933ZM735.5 286.661V255.445H736.5V286.661H735.5ZM736 255.933H704V254.958H736V255.933ZM767.5 286.661V255.445H768.5V286.661H767.5ZM768 255.933H736V254.958H768V255.933ZM799.5 286.661V255.445H800.5V286.661H799.5ZM800 255.933H768V254.958H800V255.933ZM831.5 286.661V255.445H832.5V286.661H831.5ZM832 255.933H800V254.958H832V255.933ZM863.5 286.661V255.445H864.5V286.661H863.5ZM864 255.933H832V254.958H864V255.933ZM895.5 286.661V255.445H896.5V286.661H895.5ZM896 255.933H864V254.958H896V255.933ZM927.5 286.661V255.445H928.5V286.661H927.5ZM928 255.933H896V254.958H928V255.933ZM959.5 286.661V255.445H960.5V286.661H959.5ZM960 255.933H928V254.958H960V255.933ZM991.5 286.661V255.445H992.5V286.661H991.5ZM992 255.933H960V254.958H992V255.933ZM1023.5 286.661V255.445H1024.5V286.661H1023.5ZM1024 255.933H992V254.958H1024V255.933ZM1055.5 286.661V255.445H1056.5V286.661H1055.5ZM1056 255.933H1024V254.958H1056V255.933ZM1087.5 286.661V255.445H1088.5V286.661H1087.5ZM1088 255.933H1056V254.958H1088V255.933ZM1119.5 286.661V255.445H1120.5V286.661H1119.5ZM1120 255.933H1088V254.958H1120V255.933ZM1151.5 286.661V255.445H1152.5V286.661H1151.5ZM1152 255.933H1120V254.958H1152V255.933ZM1183.5 286.661V255.445H1184.5V286.661H1183.5ZM1184 255.933H1152V254.958H1184V255.933ZM1216 255.933H1184V254.958H1216V255.933ZM31.5 255.445V224.229H32.5V255.445H31.5ZM32 224.717H0V223.742H32V224.717ZM63.5 255.445V224.229H64.5V255.445H63.5ZM64 224.717H32V223.742H64V224.717ZM95.5 255.445V224.229H96.5V255.445H95.5ZM96 224.717H64V223.742H96V224.717ZM127.5 255.445V224.229H128.5V255.445H127.5ZM128 224.717H96V223.742H128V224.717ZM159.5 255.445V224.229H160.5V255.445H159.5ZM160 224.717H128V223.742H160V224.717ZM191.5 255.445V224.229H192.5V255.445H191.5ZM192 224.717H160V223.742H192V224.717ZM223.5 255.445V224.229H224.5V255.445H223.5ZM224 224.717H192V223.742H224V224.717ZM255.5 255.445V224.229H256.5V255.445H255.5ZM256 224.717H224V223.742H256V224.717ZM287.5 255.445V224.229H288.5V255.445H287.5ZM288 224.717H256V223.742H288V224.717ZM319.5 255.445V224.229H320.5V255.445H319.5ZM320 224.717H288V223.742H320V224.717ZM351.5 255.445V224.229H352.5V255.445H351.5ZM352 224.717H320V223.742H352V224.717ZM383.5 255.445V224.229H384.5V255.445H383.5ZM384 224.717H352V223.742H384V224.717ZM415.5 255.445V224.229H416.5V255.445H415.5ZM416 224.717H384V223.742H416V224.717ZM447.5 255.445V224.229H448.5V255.445H447.5ZM448 224.717H416V223.742H448V224.717ZM479.5 255.445V224.229H480.5V255.445H479.5ZM480 224.717H448V223.742H480V224.717ZM511.5 255.445V224.229H512.5V255.445H511.5ZM512 224.717H480V223.742H512V224.717ZM543.5 255.445V224.229H544.5V255.445H543.5ZM544 224.717H512V223.742H544V224.717ZM575.5 255.445V224.229H576.5V255.445H575.5ZM576 224.717H544V223.742H576V224.717ZM607.5 255.445V224.229H608.5V255.445H607.5ZM608 224.717H576V223.742H608V224.717ZM639.5 255.445V224.229H640.5V255.445H639.5ZM640 224.717H608V223.742H640V224.717ZM671.5 255.445V224.229H672.5V255.445H671.5ZM672 224.717H640V223.742H672V224.717ZM703.5 255.445V224.229H704.5V255.445H703.5ZM704 224.717H672V223.742H704V224.717ZM735.5 255.445V224.229H736.5V255.445H735.5ZM736 224.717H704V223.742H736V224.717ZM767.5 255.445V224.229H768.5V255.445H767.5ZM768 224.717H736V223.742H768V224.717ZM799.5 255.445V224.229H800.5V255.445H799.5ZM800 224.717H768V223.742H800V224.717ZM831.5 255.445V224.229H832.5V255.445H831.5ZM832 224.717H800V223.742H832V224.717ZM863.5 255.445V224.229H864.5V255.445H863.5ZM864 224.717H832V223.742H864V224.717ZM895.5 255.445V224.229H896.5V255.445H895.5ZM896 224.717H864V223.742H896V224.717ZM927.5 255.445V224.229H928.5V255.445H927.5ZM928 224.717H896V223.742H928V224.717ZM959.5 255.445V224.229H960.5V255.445H959.5ZM960 224.717H928V223.742H960V224.717ZM991.5 255.445V224.229H992.5V255.445H991.5ZM992 224.717H960V223.742H992V224.717ZM1023.5 255.445V224.229H1024.5V255.445H1023.5ZM1024 224.717H992V223.742H1024V224.717ZM1055.5 255.445V224.229H1056.5V255.445H1055.5ZM1056 224.717H1024V223.742H1056V224.717ZM1087.5 255.445V224.229H1088.5V255.445H1087.5ZM1088 224.717H1056V223.742H1088V224.717ZM1119.5 255.445V224.229H1120.5V255.445H1119.5ZM1120 224.717H1088V223.742H1120V224.717ZM1151.5 255.445V224.229H1152.5V255.445H1151.5ZM1152 224.717H1120V223.742H1152V224.717ZM1183.5 255.445V224.229H1184.5V255.445H1183.5ZM1184 224.717H1152V223.742H1184V224.717ZM1216 224.717H1184V223.742H1216V224.717ZM31.5 224.229V193.013H32.5V224.229H31.5ZM32 193.501H0V192.526H32V193.501ZM63.5 224.229V193.013H64.5V224.229H63.5ZM64 193.501H32V192.526H64V193.501ZM95.5 224.229V193.013H96.5V224.229H95.5ZM96 193.501H64V192.526H96V193.501ZM127.5 224.229V193.013H128.5V224.229H127.5ZM128 193.501H96V192.526H128V193.501ZM159.5 224.229V193.013H160.5V224.229H159.5ZM160 193.501H128V192.526H160V193.501ZM191.5 224.229V193.013H192.5V224.229H191.5ZM192 193.501H160V192.526H192V193.501ZM223.5 224.229V193.013H224.5V224.229H223.5ZM224 193.501H192V192.526H224V193.501ZM255.5 224.229V193.013H256.5V224.229H255.5ZM256 193.501H224V192.526H256V193.501ZM287.5 224.229V193.013H288.5V224.229H287.5ZM288 193.501H256V192.526H288V193.501ZM319.5 224.229V193.013H320.5V224.229H319.5ZM320 193.501H288V192.526H320V193.501ZM351.5 224.229V193.013H352.5V224.229H351.5ZM352 193.501H320V192.526H352V193.501ZM383.5 224.229V193.013H384.5V224.229H383.5ZM384 193.501H352V192.526H384V193.501ZM415.5 224.229V193.013H416.5V224.229H415.5ZM416 193.501H384V192.526H416V193.501ZM447.5 224.229V193.013H448.5V224.229H447.5ZM448 193.501H416V192.526H448V193.501ZM479.5 224.229V193.013H480.5V224.229H479.5ZM480 193.501H448V192.526H480V193.501ZM511.5 224.229V193.013H512.5V224.229H511.5ZM512 193.501H480V192.526H512V193.501ZM543.5 224.229V193.013H544.5V224.229H543.5ZM544 193.501H512V192.526H544V193.501ZM575.5 224.229V193.013H576.5V224.229H575.5ZM576 193.501H544V192.526H576V193.501ZM607.5 224.229V193.013H608.5V224.229H607.5ZM608 193.501H576V192.526H608V193.501ZM639.5 224.229V193.013H640.5V224.229H639.5ZM640 193.501H608V192.526H640V193.501ZM671.5 224.229V193.013H672.5V224.229H671.5ZM672 193.501H640V192.526H672V193.501ZM703.5 224.229V193.013H704.5V224.229H703.5ZM704 193.501H672V192.526H704V193.501ZM735.5 224.229V193.013H736.5V224.229H735.5ZM736 193.501H704V192.526H736V193.501ZM767.5 224.229V193.013H768.5V224.229H767.5ZM768 193.501H736V192.526H768V193.501ZM799.5 224.229V193.013H800.5V224.229H799.5ZM800 193.501H768V192.526H800V193.501ZM831.5 224.229V193.013H832.5V224.229H831.5ZM832 193.501H800V192.526H832V193.501ZM863.5 224.229V193.013H864.5V224.229H863.5ZM864 193.501H832V192.526H864V193.501ZM895.5 224.229V193.013H896.5V224.229H895.5ZM896 193.501H864V192.526H896V193.501ZM927.5 224.229V193.013H928.5V224.229H927.5ZM928 193.501H896V192.526H928V193.501ZM959.5 224.229V193.013H960.5V224.229H959.5ZM960 193.501H928V192.526H960V193.501ZM991.5 224.229V193.013H992.5V224.229H991.5ZM992 193.501H960V192.526H992V193.501ZM1023.5 224.229V193.013H1024.5V224.229H1023.5ZM1024 193.501H992V192.526H1024V193.501ZM1055.5 224.229V193.013H1056.5V224.229H1055.5ZM1056 193.501H1024V192.526H1056V193.501ZM1087.5 224.229V193.013H1088.5V224.229H1087.5ZM1088 193.501H1056V192.526H1088V193.501ZM1119.5 224.229V193.013H1120.5V224.229H1119.5ZM1120 193.501H1088V192.526H1120V193.501ZM1151.5 224.229V193.013H1152.5V224.229H1151.5ZM1152 193.501H1120V192.526H1152V193.501ZM1183.5 224.229V193.013H1184.5V224.229H1183.5ZM1184 193.501H1152V192.526H1184V193.501ZM1216 193.501H1184V192.526H1216V193.501ZM31.5 193.013V161.797H32.5V193.013H31.5ZM32 162.285H0V161.31H32V162.285ZM63.5 193.013V161.797H64.5V193.013H63.5ZM64 162.285H32V161.31H64V162.285ZM95.5 193.013V161.797H96.5V193.013H95.5ZM96 162.285H64V161.31H96V162.285ZM127.5 193.013V161.797H128.5V193.013H127.5ZM128 162.285H96V161.31H128V162.285ZM159.5 193.013V161.797H160.5V193.013H159.5ZM160 162.285H128V161.31H160V162.285ZM191.5 193.013V161.797H192.5V193.013H191.5ZM192 162.285H160V161.31H192V162.285ZM223.5 193.013V161.797H224.5V193.013H223.5ZM224 162.285H192V161.31H224V162.285ZM255.5 193.013V161.797H256.5V193.013H255.5ZM256 162.285H224V161.31H256V162.285ZM287.5 193.013V161.797H288.5V193.013H287.5ZM288 162.285H256V161.31H288V162.285ZM319.5 193.013V161.797H320.5V193.013H319.5ZM320 162.285H288V161.31H320V162.285ZM351.5 193.013V161.797H352.5V193.013H351.5ZM352 162.285H320V161.31H352V162.285ZM383.5 193.013V161.797H384.5V193.013H383.5ZM384 162.285H352V161.31H384V162.285ZM415.5 193.013V161.797H416.5V193.013H415.5ZM416 162.285H384V161.31H416V162.285ZM447.5 193.013V161.797H448.5V193.013H447.5ZM448 162.285H416V161.31H448V162.285ZM479.5 193.013V161.797H480.5V193.013H479.5ZM480 162.285H448V161.31H480V162.285ZM511.5 193.013V161.797H512.5V193.013H511.5ZM512 162.285H480V161.31H512V162.285ZM543.5 193.013V161.797H544.5V193.013H543.5ZM544 162.285H512V161.31H544V162.285ZM575.5 193.013V161.797H576.5V193.013H575.5ZM576 162.285H544V161.31H576V162.285ZM607.5 193.013V161.797H608.5V193.013H607.5ZM608 162.285H576V161.31H608V162.285ZM639.5 193.013V161.797H640.5V193.013H639.5ZM640 162.285H608V161.31H640V162.285ZM671.5 193.013V161.797H672.5V193.013H671.5ZM672 162.285H640V161.31H672V162.285ZM703.5 193.013V161.797H704.5V193.013H703.5ZM704 162.285H672V161.31H704V162.285ZM735.5 193.013V161.797H736.5V193.013H735.5ZM736 162.285H704V161.31H736V162.285ZM767.5 193.013V161.797H768.5V193.013H767.5ZM768 162.285H736V161.31H768V162.285ZM799.5 193.013V161.797H800.5V193.013H799.5ZM800 162.285H768V161.31H800V162.285ZM831.5 193.013V161.797H832.5V193.013H831.5ZM832 162.285H800V161.31H832V162.285ZM863.5 193.013V161.797H864.5V193.013H863.5ZM864 162.285H832V161.31H864V162.285ZM895.5 193.013V161.797H896.5V193.013H895.5ZM896 162.285H864V161.31H896V162.285ZM927.5 193.013V161.797H928.5V193.013H927.5ZM928 162.285H896V161.31H928V162.285ZM959.5 193.013V161.797H960.5V193.013H959.5ZM960 162.285H928V161.31H960V162.285ZM991.5 193.013V161.797H992.5V193.013H991.5ZM992 162.285H960V161.31H992V162.285ZM1023.5 193.013V161.797H1024.5V193.013H1023.5ZM1024 162.285H992V161.31H1024V162.285ZM1055.5 193.013V161.797H1056.5V193.013H1055.5ZM1056 162.285H1024V161.31H1056V162.285ZM1087.5 193.013V161.797H1088.5V193.013H1087.5ZM1088 162.285H1056V161.31H1088V162.285ZM1119.5 193.013V161.797H1120.5V193.013H1119.5ZM1120 162.285H1088V161.31H1120V162.285ZM1151.5 193.013V161.797H1152.5V193.013H1151.5ZM1152 162.285H1120V161.31H1152V162.285ZM1183.5 193.013V161.797H1184.5V193.013H1183.5ZM1184 162.285H1152V161.31H1184V162.285ZM1216 162.285H1184V161.31H1216V162.285ZM31.5 161.797V130.581H32.5V161.797H31.5ZM32 131.069H0V130.094H32V131.069ZM63.5 161.797V130.581H64.5V161.797H63.5ZM64 131.069H32V130.094H64V131.069ZM95.5 161.797V130.581H96.5V161.797H95.5ZM96 131.069H64V130.094H96V131.069ZM127.5 161.797V130.581H128.5V161.797H127.5ZM128 131.069H96V130.094H128V131.069ZM159.5 161.797V130.581H160.5V161.797H159.5ZM160 131.069H128V130.094H160V131.069ZM191.5 161.797V130.581H192.5V161.797H191.5ZM192 131.069H160V130.094H192V131.069ZM223.5 161.797V130.581H224.5V161.797H223.5ZM224 131.069H192V130.094H224V131.069ZM255.5 161.797V130.581H256.5V161.797H255.5ZM256 131.069H224V130.094H256V131.069ZM287.5 161.797V130.581H288.5V161.797H287.5ZM288 131.069H256V130.094H288V131.069ZM319.5 161.797V130.581H320.5V161.797H319.5ZM320 131.069H288V130.094H320V131.069ZM351.5 161.797V130.581H352.5V161.797H351.5ZM352 131.069H320V130.094H352V131.069ZM383.5 161.797V130.581H384.5V161.797H383.5ZM384 131.069H352V130.094H384V131.069ZM415.5 161.797V130.581H416.5V161.797H415.5ZM416 131.069H384V130.094H416V131.069ZM447.5 161.797V130.581H448.5V161.797H447.5ZM448 131.069H416V130.094H448V131.069ZM479.5 161.797V130.581H480.5V161.797H479.5ZM480 131.069H448V130.094H480V131.069ZM511.5 161.797V130.581H512.5V161.797H511.5ZM512 131.069H480V130.094H512V131.069ZM543.5 161.797V130.581H544.5V161.797H543.5ZM544 131.069H512V130.094H544V131.069ZM575.5 161.797V130.581H576.5V161.797H575.5ZM576 131.069H544V130.094H576V131.069ZM607.5 161.797V130.581H608.5V161.797H607.5ZM608 131.069H576V130.094H608V131.069ZM639.5 161.797V130.581H640.5V161.797H639.5ZM640 131.069H608V130.094H640V131.069ZM671.5 161.797V130.581H672.5V161.797H671.5ZM672 131.069H640V130.094H672V131.069ZM703.5 161.797V130.581H704.5V161.797H703.5ZM704 131.069H672V130.094H704V131.069ZM735.5 161.797V130.581H736.5V161.797H735.5ZM736 131.069H704V130.094H736V131.069ZM767.5 161.797V130.581H768.5V161.797H767.5ZM768 131.069H736V130.094H768V131.069ZM799.5 161.797V130.581H800.5V161.797H799.5ZM800 131.069H768V130.094H800V131.069ZM831.5 161.797V130.581H832.5V161.797H831.5ZM832 131.069H800V130.094H832V131.069ZM863.5 161.797V130.581H864.5V161.797H863.5ZM864 131.069H832V130.094H864V131.069ZM895.5 161.797V130.581H896.5V161.797H895.5ZM896 131.069H864V130.094H896V131.069ZM927.5 161.797V130.581H928.5V161.797H927.5ZM928 131.069H896V130.094H928V131.069ZM959.5 161.797V130.581H960.5V161.797H959.5ZM960 131.069H928V130.094H960V131.069ZM991.5 161.797V130.581H992.5V161.797H991.5ZM992 131.069H960V130.094H992V131.069ZM1023.5 161.797V130.581H1024.5V161.797H1023.5ZM1024 131.069H992V130.094H1024V131.069ZM1055.5 161.797V130.581H1056.5V161.797H1055.5ZM1056 131.069H1024V130.094H1056V131.069ZM1087.5 161.797V130.581H1088.5V161.797H1087.5ZM1088 131.069H1056V130.094H1088V131.069ZM1119.5 161.797V130.581H1120.5V161.797H1119.5ZM1120 131.069H1088V130.094H1120V131.069ZM1151.5 161.797V130.581H1152.5V161.797H1151.5ZM1152 131.069H1120V130.094H1152V131.069ZM1183.5 161.797V130.581H1184.5V161.797H1183.5ZM1184 131.069H1152V130.094H1184V131.069ZM1216 131.069H1184V130.094H1216V131.069ZM31.5 130.581V99.3655H32.5V130.581H31.5ZM32 99.8533H0V98.8778H32V99.8533ZM63.5 130.581V99.3655H64.5V130.581H63.5ZM64 99.8533H32V98.8778H64V99.8533ZM95.5 130.581V99.3655H96.5V130.581H95.5ZM96 99.8533H64V98.8778H96V99.8533ZM127.5 130.581V99.3655H128.5V130.581H127.5ZM128 99.8533H96V98.8778H128V99.8533ZM159.5 130.581V99.3655H160.5V130.581H159.5ZM160 99.8533H128V98.8778H160V99.8533ZM191.5 130.581V99.3655H192.5V130.581H191.5ZM192 99.8533H160V98.8778H192V99.8533ZM223.5 130.581V99.3655H224.5V130.581H223.5ZM224 99.8533H192V98.8778H224V99.8533ZM255.5 130.581V99.3655H256.5V130.581H255.5ZM256 99.8533H224V98.8778H256V99.8533ZM287.5 130.581V99.3655H288.5V130.581H287.5ZM288 99.8533H256V98.8778H288V99.8533ZM319.5 130.581V99.3655H320.5V130.581H319.5ZM320 99.8533H288V98.8778H320V99.8533ZM351.5 130.581V99.3655H352.5V130.581H351.5ZM352 99.8533H320V98.8778H352V99.8533ZM383.5 130.581V99.3655H384.5V130.581H383.5ZM384 99.8533H352V98.8778H384V99.8533ZM415.5 130.581V99.3655H416.5V130.581H415.5ZM416 99.8533H384V98.8778H416V99.8533ZM447.5 130.581V99.3655H448.5V130.581H447.5ZM448 99.8533H416V98.8778H448V99.8533ZM479.5 130.581V99.3655H480.5V130.581H479.5ZM480 99.8533H448V98.8778H480V99.8533ZM511.5 130.581V99.3655H512.5V130.581H511.5ZM512 99.8533H480V98.8778H512V99.8533ZM543.5 130.581V99.3655H544.5V130.581H543.5ZM544 99.8533H512V98.8778H544V99.8533ZM575.5 130.581V99.3655H576.5V130.581H575.5ZM576 99.8533H544V98.8778H576V99.8533ZM607.5 130.581V99.3655H608.5V130.581H607.5ZM608 99.8533H576V98.8778H608V99.8533ZM639.5 130.581V99.3655H640.5V130.581H639.5ZM640 99.8533H608V98.8778H640V99.8533ZM671.5 130.581V99.3655H672.5V130.581H671.5ZM672 99.8533H640V98.8778H672V99.8533ZM703.5 130.581V99.3655H704.5V130.581H703.5ZM704 99.8533H672V98.8778H704V99.8533ZM735.5 130.581V99.3655H736.5V130.581H735.5ZM736 99.8533H704V98.8778H736V99.8533ZM767.5 130.581V99.3655H768.5V130.581H767.5ZM768 99.8533H736V98.8778H768V99.8533ZM799.5 130.581V99.3655H800.5V130.581H799.5ZM800 99.8533H768V98.8778H800V99.8533ZM831.5 130.581V99.3655H832.5V130.581H831.5ZM832 99.8533H800V98.8778H832V99.8533ZM863.5 130.581V99.3655H864.5V130.581H863.5ZM864 99.8533H832V98.8778H864V99.8533ZM895.5 130.581V99.3655H896.5V130.581H895.5ZM896 99.8533H864V98.8778H896V99.8533ZM927.5 130.581V99.3655H928.5V130.581H927.5ZM928 99.8533H896V98.8778H928V99.8533ZM959.5 130.581V99.3655H960.5V130.581H959.5ZM960 99.8533H928V98.8778H960V99.8533ZM991.5 130.581V99.3655H992.5V130.581H991.5ZM992 99.8533H960V98.8778H992V99.8533ZM1023.5 130.581V99.3655H1024.5V130.581H1023.5ZM1024 99.8533H992V98.8778H1024V99.8533ZM1055.5 130.581V99.3655H1056.5V130.581H1055.5ZM1056 99.8533H1024V98.8778H1056V99.8533ZM1087.5 130.581V99.3655H1088.5V130.581H1087.5ZM1088 99.8533H1056V98.8778H1088V99.8533ZM1119.5 130.581V99.3655H1120.5V130.581H1119.5ZM1120 99.8533H1088V98.8778H1120V99.8533ZM1151.5 130.581V99.3655H1152.5V130.581H1151.5ZM1152 99.8533H1120V98.8778H1152V99.8533ZM1183.5 130.581V99.3655H1184.5V130.581H1183.5ZM1184 99.8533H1152V98.8778H1184V99.8533ZM1216 99.8533H1184V98.8778H1216V99.8533ZM31.5 99.3655V68.1496H32.5V99.3655H31.5ZM32 68.6373H0V67.6618H32V68.6373ZM63.5 99.3655V68.1496H64.5V99.3655H63.5ZM64 68.6373H32V67.6618H64V68.6373ZM95.5 99.3655V68.1496H96.5V99.3655H95.5ZM96 68.6373H64V67.6618H96V68.6373ZM127.5 99.3655V68.1496H128.5V99.3655H127.5ZM128 68.6373H96V67.6618H128V68.6373ZM159.5 99.3655V68.1496H160.5V99.3655H159.5ZM160 68.6373H128V67.6618H160V68.6373ZM191.5 99.3655V68.1496H192.5V99.3655H191.5ZM192 68.6373H160V67.6618H192V68.6373ZM223.5 99.3655V68.1496H224.5V99.3655H223.5ZM224 68.6373H192V67.6618H224V68.6373ZM255.5 99.3655V68.1496H256.5V99.3655H255.5ZM256 68.6373H224V67.6618H256V68.6373ZM287.5 99.3655V68.1496H288.5V99.3655H287.5ZM288 68.6373H256V67.6618H288V68.6373ZM319.5 99.3655V68.1496H320.5V99.3655H319.5ZM320 68.6373H288V67.6618H320V68.6373ZM351.5 99.3655V68.1496H352.5V99.3655H351.5ZM352 68.6373H320V67.6618H352V68.6373ZM383.5 99.3655V68.1496H384.5V99.3655H383.5ZM384 68.6373H352V67.6618H384V68.6373ZM415.5 99.3655V68.1496H416.5V99.3655H415.5ZM416 68.6373H384V67.6618H416V68.6373ZM447.5 99.3655V68.1496H448.5V99.3655H447.5ZM448 68.6373H416V67.6618H448V68.6373ZM479.5 99.3655V68.1496H480.5V99.3655H479.5ZM480 68.6373H448V67.6618H480V68.6373ZM511.5 99.3655V68.1496H512.5V99.3655H511.5ZM512 68.6373H480V67.6618H512V68.6373ZM543.5 99.3655V68.1496H544.5V99.3655H543.5ZM544 68.6373H512V67.6618H544V68.6373ZM575.5 99.3655V68.1496H576.5V99.3655H575.5ZM576 68.6373H544V67.6618H576V68.6373ZM607.5 99.3655V68.1496H608.5V99.3655H607.5ZM608 68.6373H576V67.6618H608V68.6373ZM639.5 99.3655V68.1496H640.5V99.3655H639.5ZM640 68.6373H608V67.6618H640V68.6373ZM671.5 99.3655V68.1496H672.5V99.3655H671.5ZM672 68.6373H640V67.6618H672V68.6373ZM703.5 99.3655V68.1496H704.5V99.3655H703.5ZM704 68.6373H672V67.6618H704V68.6373ZM735.5 99.3655V68.1496H736.5V99.3655H735.5ZM736 68.6373H704V67.6618H736V68.6373ZM767.5 99.3655V68.1496H768.5V99.3655H767.5ZM768 68.6373H736V67.6618H768V68.6373ZM799.5 99.3655V68.1496H800.5V99.3655H799.5ZM800 68.6373H768V67.6618H800V68.6373ZM831.5 99.3655V68.1496H832.5V99.3655H831.5ZM832 68.6373H800V67.6618H832V68.6373ZM863.5 99.3655V68.1496H864.5V99.3655H863.5ZM864 68.6373H832V67.6618H864V68.6373ZM895.5 99.3655V68.1496H896.5V99.3655H895.5ZM896 68.6373H864V67.6618H896V68.6373ZM927.5 99.3655V68.1496H928.5V99.3655H927.5ZM928 68.6373H896V67.6618H928V68.6373ZM959.5 99.3655V68.1496H960.5V99.3655H959.5ZM960 68.6373H928V67.6618H960V68.6373ZM991.5 99.3655V68.1496H992.5V99.3655H991.5ZM992 68.6373H960V67.6618H992V68.6373ZM1023.5 99.3655V68.1496H1024.5V99.3655H1023.5ZM1024 68.6373H992V67.6618H1024V68.6373ZM1055.5 99.3655V68.1496H1056.5V99.3655H1055.5ZM1056 68.6373H1024V67.6618H1056V68.6373ZM1087.5 99.3655V68.1496H1088.5V99.3655H1087.5ZM1088 68.6373H1056V67.6618H1088V68.6373ZM1119.5 99.3655V68.1496H1120.5V99.3655H1119.5ZM1120 68.6373H1088V67.6618H1120V68.6373ZM1151.5 99.3655V68.1496H1152.5V99.3655H1151.5ZM1152 68.6373H1120V67.6618H1152V68.6373ZM1183.5 99.3655V68.1496H1184.5V99.3655H1183.5ZM1184 68.6373H1152V67.6618H1184V68.6373ZM1216 68.6373H1184V67.6618H1216V68.6373ZM31.5 68.1496V36.9336H32.5V68.1496H31.5ZM32 37.4213H0V36.4458H32V37.4213ZM63.5 68.1496V36.9336H64.5V68.1496H63.5ZM64 37.4213H32V36.4458H64V37.4213ZM95.5 68.1496V36.9336H96.5V68.1496H95.5ZM96 37.4213H64V36.4458H96V37.4213ZM127.5 68.1496V36.9336H128.5V68.1496H127.5ZM128 37.4213H96V36.4458H128V37.4213ZM159.5 68.1496V36.9336H160.5V68.1496H159.5ZM160 37.4213H128V36.4458H160V37.4213ZM191.5 68.1496V36.9336H192.5V68.1496H191.5ZM192 37.4213H160V36.4458H192V37.4213ZM223.5 68.1496V36.9336H224.5V68.1496H223.5ZM224 37.4213H192V36.4458H224V37.4213ZM255.5 68.1496V36.9336H256.5V68.1496H255.5ZM256 37.4213H224V36.4458H256V37.4213ZM287.5 68.1496V36.9336H288.5V68.1496H287.5ZM288 37.4213H256V36.4458H288V37.4213ZM319.5 68.1496V36.9336H320.5V68.1496H319.5ZM320 37.4213H288V36.4458H320V37.4213ZM351.5 68.1496V36.9336H352.5V68.1496H351.5ZM352 37.4213H320V36.4458H352V37.4213ZM383.5 68.1496V36.9336H384.5V68.1496H383.5ZM384 37.4213H352V36.4458H384V37.4213ZM415.5 68.1496V36.9336H416.5V68.1496H415.5ZM416 37.4213H384V36.4458H416V37.4213ZM447.5 68.1496V36.9336H448.5V68.1496H447.5ZM448 37.4213H416V36.4458H448V37.4213ZM479.5 68.1496V36.9336H480.5V68.1496H479.5ZM480 37.4213H448V36.4458H480V37.4213ZM511.5 68.1496V36.9336H512.5V68.1496H511.5ZM512 37.4213H480V36.4458H512V37.4213ZM543.5 68.1496V36.9336H544.5V68.1496H543.5ZM544 37.4213H512V36.4458H544V37.4213ZM575.5 68.1496V36.9336H576.5V68.1496H575.5ZM576 37.4213H544V36.4458H576V37.4213ZM607.5 68.1496V36.9336H608.5V68.1496H607.5ZM608 37.4213H576V36.4458H608V37.4213ZM639.5 68.1496V36.9336H640.5V68.1496H639.5ZM640 37.4213H608V36.4458H640V37.4213ZM671.5 68.1496V36.9336H672.5V68.1496H671.5ZM672 37.4213H640V36.4458H672V37.4213ZM703.5 68.1496V36.9336H704.5V68.1496H703.5ZM704 37.4213H672V36.4458H704V37.4213ZM735.5 68.1496V36.9336H736.5V68.1496H735.5ZM736 37.4213H704V36.4458H736V37.4213ZM767.5 68.1496V36.9336H768.5V68.1496H767.5ZM768 37.4213H736V36.4458H768V37.4213ZM799.5 68.1496V36.9336H800.5V68.1496H799.5ZM800 37.4213H768V36.4458H800V37.4213ZM831.5 68.1496V36.9336H832.5V68.1496H831.5ZM832 37.4213H800V36.4458H832V37.4213ZM863.5 68.1496V36.9336H864.5V68.1496H863.5ZM864 37.4213H832V36.4458H864V37.4213ZM895.5 68.1496V36.9336H896.5V68.1496H895.5ZM896 37.4213H864V36.4458H896V37.4213ZM927.5 68.1496V36.9336H928.5V68.1496H927.5ZM928 37.4213H896V36.4458H928V37.4213ZM959.5 68.1496V36.9336H960.5V68.1496H959.5ZM960 37.4213H928V36.4458H960V37.4213ZM991.5 68.1496V36.9336H992.5V68.1496H991.5ZM992 37.4213H960V36.4458H992V37.4213ZM1023.5 68.1496V36.9336H1024.5V68.1496H1023.5ZM1024 37.4213H992V36.4458H1024V37.4213ZM1055.5 68.1496V36.9336H1056.5V68.1496H1055.5ZM1056 37.4213H1024V36.4458H1056V37.4213ZM1087.5 68.1496V36.9336H1088.5V68.1496H1087.5ZM1088 37.4213H1056V36.4458H1088V37.4213ZM1119.5 68.1496V36.9336H1120.5V68.1496H1119.5ZM1120 37.4213H1088V36.4458H1120V37.4213ZM1151.5 68.1496V36.9336H1152.5V68.1496H1151.5ZM1152 37.4213H1120V36.4458H1152V37.4213ZM1183.5 68.1496V36.9336H1184.5V68.1496H1183.5ZM1184 37.4213H1152V36.4458H1184V37.4213ZM1216 37.4213H1184V36.4458H1216V37.4213ZM31.5 36.9336V5.71762H32.5V36.9336H31.5ZM32 6.20537H0V5.22987H32V6.20537ZM63.5 36.9336V5.71762H64.5V36.9336H63.5ZM64 6.20537H32V5.22987H64V6.20537ZM95.5 36.9336V5.71762H96.5V36.9336H95.5ZM96 6.20537H64V5.22987H96V6.20537ZM127.5 36.9336V5.71762H128.5V36.9336H127.5ZM128 6.20537H96V5.22987H128V6.20537ZM159.5 36.9336V5.71762H160.5V36.9336H159.5ZM160 6.20537H128V5.22987H160V6.20537ZM191.5 36.9336V5.71762H192.5V36.9336H191.5ZM192 6.20537H160V5.22987H192V6.20537ZM223.5 36.9336V5.71762H224.5V36.9336H223.5ZM224 6.20537H192V5.22987H224V6.20537ZM255.5 36.9336V5.71762H256.5V36.9336H255.5ZM256 6.20537H224V5.22987H256V6.20537ZM287.5 36.9336V5.71762H288.5V36.9336H287.5ZM288 6.20537H256V5.22987H288V6.20537ZM319.5 36.9336V5.71762H320.5V36.9336H319.5ZM320 6.20537H288V5.22987H320V6.20537ZM351.5 36.9336V5.71762H352.5V36.9336H351.5ZM352 6.20537H320V5.22987H352V6.20537ZM383.5 36.9336V5.71762H384.5V36.9336H383.5ZM384 6.20537H352V5.22987H384V6.20537ZM415.5 36.9336V5.71762H416.5V36.9336H415.5ZM416 6.20537H384V5.22987H416V6.20537ZM447.5 36.9336V5.71762H448.5V36.9336H447.5ZM448 6.20537H416V5.22987H448V6.20537ZM479.5 36.9336V5.71762H480.5V36.9336H479.5ZM480 6.20537H448V5.22987H480V6.20537ZM511.5 36.9336V5.71762H512.5V36.9336H511.5ZM512 6.20537H480V5.22987H512V6.20537ZM543.5 36.9336V5.71762H544.5V36.9336H543.5ZM544 6.20537H512V5.22987H544V6.20537ZM575.5 36.9336V5.71762H576.5V36.9336H575.5ZM576 6.20537H544V5.22987H576V6.20537ZM607.5 36.9336V5.71762H608.5V36.9336H607.5ZM608 6.20537H576V5.22987H608V6.20537ZM639.5 36.9336V5.71762H640.5V36.9336H639.5ZM640 6.20537H608V5.22987H640V6.20537ZM671.5 36.9336V5.71762H672.5V36.9336H671.5ZM672 6.20537H640V5.22987H672V6.20537ZM703.5 36.9336V5.71762H704.5V36.9336H703.5ZM704 6.20537H672V5.22987H704V6.20537ZM735.5 36.9336V5.71762H736.5V36.9336H735.5ZM736 6.20537H704V5.22987H736V6.20537ZM767.5 36.9336V5.71762H768.5V36.9336H767.5ZM768 6.20537H736V5.22987H768V6.20537ZM799.5 36.9336V5.71762H800.5V36.9336H799.5ZM800 6.20537H768V5.22987H800V6.20537ZM831.5 36.9336V5.71762H832.5V36.9336H831.5ZM832 6.20537H800V5.22987H832V6.20537ZM863.5 36.9336V5.71762H864.5V36.9336H863.5ZM864 6.20537H832V5.22987H864V6.20537ZM895.5 36.9336V5.71762H896.5V36.9336H895.5ZM896 6.20537H864V5.22987H896V6.20537ZM927.5 36.9336V5.71762H928.5V36.9336H927.5ZM928 6.20537H896V5.22987H928V6.20537ZM959.5 36.9336V5.71762H960.5V36.9336H959.5ZM960 6.20537H928V5.22987H960V6.20537ZM991.5 36.9336V5.71762H992.5V36.9336H991.5ZM992 6.20537H960V5.22987H992V6.20537ZM1023.5 36.9336V5.71762H1024.5V36.9336H1023.5ZM1024 6.20537H992V5.22987H1024V6.20537ZM1055.5 36.9336V5.71762H1056.5V36.9336H1055.5ZM1056 6.20537H1024V5.22987H1056V6.20537ZM1087.5 36.9336V5.71762H1088.5V36.9336H1087.5ZM1088 6.20537H1056V5.22987H1088V6.20537ZM1119.5 36.9336V5.71762H1120.5V36.9336H1119.5ZM1120 6.20537H1088V5.22987H1120V6.20537ZM1151.5 36.9336V5.71762H1152.5V36.9336H1151.5ZM1152 6.20537H1120V5.22987H1152V6.20537ZM1183.5 36.9336V5.71762H1184.5V36.9336H1183.5ZM1184 6.20537H1152V5.22987H1184V6.20537ZM1216 6.20537H1184V5.22987H1216V6.20537ZM31.5 5.71762V-25.4983H32.5V5.71762H31.5ZM32 -25.0106H0V-25.9861H32V-25.0106ZM63.5 5.71762V-25.4983H64.5V5.71762H63.5ZM64 -25.0106H32V-25.9861H64V-25.0106ZM95.5 5.71762V-25.4983H96.5V5.71762H95.5ZM96 -25.0106H64V-25.9861H96V-25.0106ZM127.5 5.71762V-25.4983H128.5V5.71762H127.5ZM128 -25.0106H96V-25.9861H128V-25.0106ZM159.5 5.71762V-25.4983H160.5V5.71762H159.5ZM160 -25.0106H128V-25.9861H160V-25.0106ZM191.5 5.71762V-25.4983H192.5V5.71762H191.5ZM192 -25.0106H160V-25.9861H192V-25.0106ZM223.5 5.71762V-25.4983H224.5V5.71762H223.5ZM224 -25.0106H192V-25.9861H224V-25.0106ZM255.5 5.71762V-25.4983H256.5V5.71762H255.5ZM256 -25.0106H224V-25.9861H256V-25.0106ZM287.5 5.71762V-25.4983H288.5V5.71762H287.5ZM288 -25.0106H256V-25.9861H288V-25.0106ZM319.5 5.71762V-25.4983H320.5V5.71762H319.5ZM320 -25.0106H288V-25.9861H320V-25.0106ZM351.5 5.71762V-25.4983H352.5V5.71762H351.5ZM352 -25.0106H320V-25.9861H352V-25.0106ZM383.5 5.71762V-25.4983H384.5V5.71762H383.5ZM384 -25.0106H352V-25.9861H384V-25.0106ZM415.5 5.71762V-25.4983H416.5V5.71762H415.5ZM416 -25.0106H384V-25.9861H416V-25.0106ZM447.5 5.71762V-25.4983H448.5V5.71762H447.5ZM448 -25.0106H416V-25.9861H448V-25.0106ZM479.5 5.71762V-25.4983H480.5V5.71762H479.5ZM480 -25.0106H448V-25.9861H480V-25.0106ZM511.5 5.71762V-25.4983H512.5V5.71762H511.5ZM512 -25.0106H480V-25.9861H512V-25.0106ZM543.5 5.71762V-25.4983H544.5V5.71762H543.5ZM544 -25.0106H512V-25.9861H544V-25.0106ZM575.5 5.71762V-25.4983H576.5V5.71762H575.5ZM576 -25.0106H544V-25.9861H576V-25.0106ZM607.5 5.71762V-25.4983H608.5V5.71762H607.5ZM608 -25.0106H576V-25.9861H608V-25.0106ZM639.5 5.71762V-25.4983H640.5V5.71762H639.5ZM640 -25.0106H608V-25.9861H640V-25.0106ZM671.5 5.71762V-25.4983H672.5V5.71762H671.5ZM672 -25.0106H640V-25.9861H672V-25.0106ZM703.5 5.71762V-25.4983H704.5V5.71762H703.5ZM704 -25.0106H672V-25.9861H704V-25.0106ZM735.5 5.71762V-25.4983H736.5V5.71762H735.5ZM736 -25.0106H704V-25.9861H736V-25.0106ZM767.5 5.71762V-25.4983H768.5V5.71762H767.5ZM768 -25.0106H736V-25.9861H768V-25.0106ZM799.5 5.71762V-25.4983H800.5V5.71762H799.5ZM800 -25.0106H768V-25.9861H800V-25.0106ZM831.5 5.71762V-25.4983H832.5V5.71762H831.5ZM832 -25.0106H800V-25.9861H832V-25.0106ZM863.5 5.71762V-25.4983H864.5V5.71762H863.5ZM864 -25.0106H832V-25.9861H864V-25.0106ZM895.5 5.71762V-25.4983H896.5V5.71762H895.5ZM896 -25.0106H864V-25.9861H896V-25.0106ZM927.5 5.71762V-25.4983H928.5V5.71762H927.5ZM928 -25.0106H896V-25.9861H928V-25.0106ZM959.5 5.71762V-25.4983H960.5V5.71762H959.5ZM960 -25.0106H928V-25.9861H960V-25.0106ZM991.5 5.71762V-25.4983H992.5V5.71762H991.5ZM992 -25.0106H960V-25.9861H992V-25.0106ZM1023.5 5.71762V-25.4983H1024.5V5.71762H1023.5ZM1024 -25.0106H992V-25.9861H1024V-25.0106ZM1055.5 5.71762V-25.4983H1056.5V5.71762H1055.5ZM1056 -25.0106H1024V-25.9861H1056V-25.0106ZM1087.5 5.71762V-25.4983H1088.5V5.71762H1087.5ZM1088 -25.0106H1056V-25.9861H1088V-25.0106ZM1119.5 5.71762V-25.4983H1120.5V5.71762H1119.5ZM1120 -25.0106H1088V-25.9861H1120V-25.0106ZM1151.5 5.71762V-25.4983H1152.5V5.71762H1151.5ZM1152 -25.0106H1120V-25.9861H1152V-25.0106ZM1183.5 5.71762V-25.4983H1184.5V5.71762H1183.5ZM1184 -25.0106H1152V-25.9861H1184V-25.0106ZM1216 -25.0106H1184V-25.9861H1216V-25.0106ZM31.5 -25.4983V-56.7143H32.5V-25.4983H31.5ZM32 -56.2266H0V-57.2021H32V-56.2266ZM63.5 -25.4983V-56.7143H64.5V-25.4983H63.5ZM64 -56.2266H32V-57.2021H64V-56.2266ZM95.5 -25.4983V-56.7143H96.5V-25.4983H95.5ZM96 -56.2266H64V-57.2021H96V-56.2266ZM127.5 -25.4983V-56.7143H128.5V-25.4983H127.5ZM128 -56.2266H96V-57.2021H128V-56.2266ZM159.5 -25.4983V-56.7143H160.5V-25.4983H159.5ZM160 -56.2266H128V-57.2021H160V-56.2266ZM191.5 -25.4983V-56.7143H192.5V-25.4983H191.5ZM192 -56.2266H160V-57.2021H192V-56.2266ZM223.5 -25.4983V-56.7143H224.5V-25.4983H223.5ZM224 -56.2266H192V-57.2021H224V-56.2266ZM255.5 -25.4983V-56.7143H256.5V-25.4983H255.5ZM256 -56.2266H224V-57.2021H256V-56.2266ZM287.5 -25.4983V-56.7143H288.5V-25.4983H287.5ZM288 -56.2266H256V-57.2021H288V-56.2266ZM319.5 -25.4983V-56.7143H320.5V-25.4983H319.5ZM320 -56.2266H288V-57.2021H320V-56.2266ZM351.5 -25.4983V-56.7143H352.5V-25.4983H351.5ZM352 -56.2266H320V-57.2021H352V-56.2266ZM383.5 -25.4983V-56.7143H384.5V-25.4983H383.5ZM384 -56.2266H352V-57.2021H384V-56.2266ZM415.5 -25.4983V-56.7143H416.5V-25.4983H415.5ZM416 -56.2266H384V-57.2021H416V-56.2266ZM447.5 -25.4983V-56.7143H448.5V-25.4983H447.5ZM448 -56.2266H416V-57.2021H448V-56.2266ZM479.5 -25.4983V-56.7143H480.5V-25.4983H479.5ZM480 -56.2266H448V-57.2021H480V-56.2266ZM511.5 -25.4983V-56.7143H512.5V-25.4983H511.5ZM512 -56.2266H480V-57.2021H512V-56.2266ZM543.5 -25.4983V-56.7143H544.5V-25.4983H543.5ZM544 -56.2266H512V-57.2021H544V-56.2266ZM575.5 -25.4983V-56.7143H576.5V-25.4983H575.5ZM576 -56.2266H544V-57.2021H576V-56.2266ZM607.5 -25.4983V-56.7143H608.5V-25.4983H607.5ZM608 -56.2266H576V-57.2021H608V-56.2266ZM639.5 -25.4983V-56.7143H640.5V-25.4983H639.5ZM640 -56.2266H608V-57.2021H640V-56.2266ZM671.5 -25.4983V-56.7143H672.5V-25.4983H671.5ZM672 -56.2266H640V-57.2021H672V-56.2266ZM703.5 -25.4983V-56.7143H704.5V-25.4983H703.5ZM704 -56.2266H672V-57.2021H704V-56.2266ZM735.5 -25.4983V-56.7143H736.5V-25.4983H735.5ZM736 -56.2266H704V-57.2021H736V-56.2266ZM767.5 -25.4983V-56.7143H768.5V-25.4983H767.5ZM768 -56.2266H736V-57.2021H768V-56.2266ZM799.5 -25.4983V-56.7143H800.5V-25.4983H799.5ZM800 -56.2266H768V-57.2021H800V-56.2266ZM831.5 -25.4983V-56.7143H832.5V-25.4983H831.5ZM832 -56.2266H800V-57.2021H832V-56.2266ZM863.5 -25.4983V-56.7143H864.5V-25.4983H863.5ZM864 -56.2266H832V-57.2021H864V-56.2266ZM895.5 -25.4983V-56.7143H896.5V-25.4983H895.5ZM896 -56.2266H864V-57.2021H896V-56.2266ZM927.5 -25.4983V-56.7143H928.5V-25.4983H927.5ZM928 -56.2266H896V-57.2021H928V-56.2266ZM959.5 -25.4983V-56.7143H960.5V-25.4983H959.5ZM960 -56.2266H928V-57.2021H960V-56.2266ZM991.5 -25.4983V-56.7143H992.5V-25.4983H991.5ZM992 -56.2266H960V-57.2021H992V-56.2266ZM1023.5 -25.4983V-56.7143H1024.5V-25.4983H1023.5ZM1024 -56.2266H992V-57.2021H1024V-56.2266ZM1055.5 -25.4983V-56.7143H1056.5V-25.4983H1055.5ZM1056 -56.2266H1024V-57.2021H1056V-56.2266ZM1087.5 -25.4983V-56.7143H1088.5V-25.4983H1087.5ZM1088 -56.2266H1056V-57.2021H1088V-56.2266ZM1119.5 -25.4983V-56.7143H1120.5V-25.4983H1119.5ZM1120 -56.2266H1088V-57.2021H1120V-56.2266ZM1151.5 -25.4983V-56.7143H1152.5V-25.4983H1151.5ZM1152 -56.2266H1120V-57.2021H1152V-56.2266ZM1183.5 -25.4983V-56.7143H1184.5V-25.4983H1183.5ZM1184 -56.2266H1152V-57.2021H1184V-56.2266ZM1216 -56.2266H1184V-57.2021H1216V-56.2266ZM31.5 -56.7143V-87.9303H32.5V-56.7143H31.5ZM63.5 -56.7143V-87.9303H64.5V-56.7143H63.5ZM95.5 -56.7143V-87.9303H96.5V-56.7143H95.5ZM127.5 -56.7143V-87.9303H128.5V-56.7143H127.5ZM159.5 -56.7143V-87.9303H160.5V-56.7143H159.5ZM191.5 -56.7143V-87.9303H192.5V-56.7143H191.5ZM223.5 -56.7143V-87.9303H224.5V-56.7143H223.5ZM255.5 -56.7143V-87.9303H256.5V-56.7143H255.5ZM287.5 -56.7143V-87.9303H288.5V-56.7143H287.5ZM319.5 -56.7143V-87.9303H320.5V-56.7143H319.5ZM351.5 -56.7143V-87.9303H352.5V-56.7143H351.5ZM383.5 -56.7143V-87.9303H384.5V-56.7143H383.5ZM415.5 -56.7143V-87.9303H416.5V-56.7143H415.5ZM447.5 -56.7143V-87.9303H448.5V-56.7143H447.5ZM479.5 -56.7143V-87.9303H480.5V-56.7143H479.5ZM511.5 -56.7143V-87.9303H512.5V-56.7143H511.5ZM543.5 -56.7143V-87.9303H544.5V-56.7143H543.5ZM575.5 -56.7143V-87.9303H576.5V-56.7143H575.5ZM607.5 -56.7143V-87.9303H608.5V-56.7143H607.5ZM639.5 -56.7143V-87.9303H640.5V-56.7143H639.5ZM671.5 -56.7143V-87.9303H672.5V-56.7143H671.5ZM703.5 -56.7143V-87.9303H704.5V-56.7143H703.5ZM735.5 -56.7143V-87.9303H736.5V-56.7143H735.5ZM767.5 -56.7143V-87.9303H768.5V-56.7143H767.5ZM799.5 -56.7143V-87.9303H800.5V-56.7143H799.5ZM831.5 -56.7143V-87.9303H832.5V-56.7143H831.5ZM863.5 -56.7143V-87.9303H864.5V-56.7143H863.5ZM895.5 -56.7143V-87.9303H896.5V-56.7143H895.5ZM927.5 -56.7143V-87.9303H928.5V-56.7143H927.5ZM959.5 -56.7143V-87.9303H960.5V-56.7143H959.5ZM991.5 -56.7143V-87.9303H992.5V-56.7143H991.5ZM1023.5 -56.7143V-87.9303H1024.5V-56.7143H1023.5ZM1055.5 -56.7143V-87.9303H1056.5V-56.7143H1055.5ZM1087.5 -56.7143V-87.9303H1088.5V-56.7143H1087.5ZM1119.5 -56.7143V-87.9303H1120.5V-56.7143H1119.5ZM1151.5 -56.7143V-87.9303H1152.5V-56.7143H1151.5ZM1183.5 -56.7143V-87.9303H1184.5V-56.7143H1183.5ZM0 411.525V412.501H-1V411.525H0ZM1216 411.525H1217V412.501H1216V411.525ZM0 -87.9303H-1V-88.9058H0V-87.9303ZM1216 -87.9303V-88.9058H1217V-87.9303H1216ZM0 410.55H32V412.501H0V410.55ZM1 380.309V411.525H-1V380.309H1ZM32 410.55H64V412.501H32V410.55ZM64 410.55H96V412.501H64V410.55ZM96 410.55H128V412.501H96V410.55ZM128 410.55H160V412.501H128V410.55ZM160 410.55H192V412.501H160V410.55ZM192 410.55H224V412.501H192V410.55ZM224 410.55H256V412.501H224V410.55ZM256 410.55H288V412.501H256V410.55ZM288 410.55H320V412.501H288V410.55ZM320 410.55H352V412.501H320V410.55ZM352 410.55H384V412.501H352V410.55ZM384 410.55H416V412.501H384V410.55ZM416 410.55H448V412.501H416V410.55ZM448 410.55H480V412.501H448V410.55ZM480 410.55H512V412.501H480V410.55ZM512 410.55H544V412.501H512V410.55ZM544 410.55H576V412.501H544V410.55ZM576 410.55H608V412.501H576V410.55ZM608 410.55H640V412.501H608V410.55ZM640 410.55H672V412.501H640V410.55ZM672 410.55H704V412.501H672V410.55ZM704 410.55H736V412.501H704V410.55ZM736 410.55H768V412.501H736V410.55ZM768 410.55H800V412.501H768V410.55ZM800 410.55H832V412.501H800V410.55ZM832 410.55H864V412.501H832V410.55ZM864 410.55H896V412.501H864V410.55ZM896 410.55H928V412.501H896V410.55ZM928 410.55H960V412.501H928V410.55ZM960 410.55H992V412.501H960V410.55ZM992 410.55H1024V412.501H992V410.55ZM1024 410.55H1056V412.501H1024V410.55ZM1056 410.55H1088V412.501H1056V410.55ZM1088 410.55H1120V412.501H1088V410.55ZM1120 410.55H1152V412.501H1120V410.55ZM1152 410.55H1184V412.501H1152V410.55ZM1184 410.55H1216V412.501H1184V410.55ZM1215 411.525V380.309H1217V411.525H1215ZM1 349.093V380.309H-1V349.093H1ZM1215 380.309V349.093H1217V380.309H1215ZM1 317.877V349.093H-1V317.877H1ZM1215 349.093V317.877H1217V349.093H1215ZM1 286.661V317.877H-1V286.661H1ZM1215 317.877V286.661H1217V317.877H1215ZM1 255.445V286.661H-1V255.445H1ZM1215 286.661V255.445H1217V286.661H1215ZM1 224.229V255.445H-1V224.229H1ZM1215 255.445V224.229H1217V255.445H1215ZM1 193.013V224.229H-1V193.013H1ZM1215 224.229V193.013H1217V224.229H1215ZM1 161.797V193.013H-1V161.797H1ZM1215 193.013V161.797H1217V193.013H1215ZM1 130.581V161.797H-1V130.581H1ZM1215 161.797V130.581H1217V161.797H1215ZM1 99.3655V130.581H-1V99.3655H1ZM1215 130.581V99.3655H1217V130.581H1215ZM1 68.1496V99.3655H-1V68.1496H1ZM1215 99.3655V68.1496H1217V99.3655H1215ZM1 36.9336V68.1496H-1V36.9336H1ZM1215 68.1496V36.9336H1217V68.1496H1215ZM1 5.71762V36.9336H-1V5.71762H1ZM1215 36.9336V5.71762H1217V36.9336H1215ZM1 -25.4983V5.71762H-1V-25.4983H1ZM1215 5.71762V-25.4983H1217V5.71762H1215ZM1 -56.7143V-25.4983H-1V-56.7143H1ZM1215 -25.4983V-56.7143H1217V-25.4983H1215ZM32 -86.9548H0V-88.9058H32V-86.9548ZM1 -87.9303V-56.7143H-1V-87.9303H1ZM64 -86.9548H32V-88.9058H64V-86.9548ZM96 -86.9548H64V-88.9058H96V-86.9548ZM128 -86.9548H96V-88.9058H128V-86.9548ZM160 -86.9548H128V-88.9058H160V-86.9548ZM192 -86.9548H160V-88.9058H192V-86.9548ZM224 -86.9548H192V-88.9058H224V-86.9548ZM256 -86.9548H224V-88.9058H256V-86.9548ZM288 -86.9548H256V-88.9058H288V-86.9548ZM320 -86.9548H288V-88.9058H320V-86.9548ZM352 -86.9548H320V-88.9058H352V-86.9548ZM384 -86.9548H352V-88.9058H384V-86.9548ZM416 -86.9548H384V-88.9058H416V-86.9548ZM448 -86.9548H416V-88.9058H448V-86.9548ZM480 -86.9548H448V-88.9058H480V-86.9548ZM512 -86.9548H480V-88.9058H512V-86.9548ZM544 -86.9548H512V-88.9058H544V-86.9548ZM576 -86.9548H544V-88.9058H576V-86.9548ZM608 -86.9548H576V-88.9058H608V-86.9548ZM640 -86.9548H608V-88.9058H640V-86.9548ZM672 -86.9548H640V-88.9058H672V-86.9548ZM704 -86.9548H672V-88.9058H704V-86.9548ZM736 -86.9548H704V-88.9058H736V-86.9548ZM768 -86.9548H736V-88.9058H768V-86.9548ZM800 -86.9548H768V-88.9058H800V-86.9548ZM832 -86.9548H800V-88.9058H832V-86.9548ZM864 -86.9548H832V-88.9058H864V-86.9548ZM896 -86.9548H864V-88.9058H896V-86.9548ZM928 -86.9548H896V-88.9058H928V-86.9548ZM960 -86.9548H928V-88.9058H960V-86.9548ZM992 -86.9548H960V-88.9058H992V-86.9548ZM1024 -86.9548H992V-88.9058H1024V-86.9548ZM1056 -86.9548H1024V-88.9058H1056V-86.9548ZM1088 -86.9548H1056V-88.9058H1088V-86.9548ZM1120 -86.9548H1088V-88.9058H1120V-86.9548ZM1152 -86.9548H1120V-88.9058H1152V-86.9548ZM1184 -86.9548H1152V-88.9058H1184V-86.9548ZM1215 -56.7143V-87.9303H1217V-56.7143H1215ZM1216 -86.9548H1184V-88.9058H1216V-86.9548Z" fill="url(#paint0_radial_1_6180)" fill-opacity="0.24"/>
</g>
<g opacity="0.5">
<path d="M957 285.688C957 473.712 800.747 626.137 608 626.137C415.253 626.137 259 473.712 259 285.688C259 97.663 415.253 -54.7612 608 -54.7612C800.747 -54.7612 957 97.663 957 285.688Z" stroke="url(#paint1_linear_1_6180)" stroke-opacity="0.75" stroke-width="2"/>
</g>
</g>
</g>
<defs>
<radialGradient id="paint0_radial_1_6180" cx="0" cy="0" r="1" gradientUnits="userSpaceOnUse" gradientTransform="translate(608 421.768) rotate(-90) scale(372.153 906.062)">
<stop stop-color="white"/>
<stop offset="1" stop-color="white" stop-opacity="0"/>
</radialGradient>
<linearGradient id="paint1_linear_1_6180" x1="608" y1="-55.7367" x2="608" y2="108.147" gradientUnits="userSpaceOnUse">
<stop stop-color="white"/>
<stop offset="1" stop-color="white" stop-opacity="0"/>
</linearGradient>
<clipPath id="clip0_1_6180">
<rect y="0.840332" width="1216" height="312.16" rx="35" fill="white"/>
</clipPath>
</defs>
</svg>
