<svg width="32" height="36" viewBox="0 0 32 36" fill="none" xmlns="http://www.w3.org/2000/svg">
<path fill-rule="evenodd" clip-rule="evenodd" d="M0 5.46452C0 2.44655 2.38782 0 5.33334 0H26.6667C29.6122 0 32 2.44655 32 5.46452V25.071C32 27.1408 30.8587 29.033 29.0518 29.9586L18.3852 35.4231C16.8836 36.1923 15.1164 36.1923 13.6148 35.4231L2.94819 29.9586C1.14134 29.033 0 27.1408 0 25.071V5.46452ZM21.7015 14.4938C22.3958 13.7826 22.3958 12.6292 21.7015 11.9179C21.0073 11.2065 19.8816 11.2065 19.1874 11.9179L14.2222 17.0051L12.8126 15.5608C12.1184 14.8496 10.9928 14.8496 10.2985 15.5608C9.60417 16.2722 9.60417 17.4255 10.2985 18.1369L12.9651 20.8692C13.2986 21.2107 13.7507 21.4026 14.2222 21.4026C14.6938 21.4026 15.1459 21.2107 15.4793 20.8692L21.7015 14.4938Z" fill="white"/>
</svg>
