<svg width="34" height="33" viewBox="0 0 34 33" fill="none" xmlns="http://www.w3.org/2000/svg">
<path fill-rule="evenodd" clip-rule="evenodd" d="M16.6667 0.39502C7.46189 0.39502 0 7.67409 0 16.6534C0 25.6325 7.46189 32.9116 16.6667 32.9116C25.8714 32.9116 33.3333 25.6325 33.3333 16.6534C33.3333 7.67409 25.8714 0.39502 16.6667 0.39502ZM16.6667 11.7759C16.0378 11.7759 15.4877 12.115 15.2025 12.6238C14.7608 13.4115 13.748 13.7008 12.9405 13.2699C12.1329 12.8391 11.8363 11.8512 12.278 11.0634C13.1244 9.55378 14.7711 8.52414 16.6667 8.52414C19.1913 8.52414 20.9448 10.1604 21.4441 12.0832C21.946 14.016 21.1835 16.268 18.9028 17.3804C18.5538 17.5506 18.3334 17.8986 18.3334 18.2791C18.3334 19.1771 17.5872 19.905 16.6667 19.905C15.7462 19.905 15 19.1771 15 18.2791C15 16.6669 15.9338 15.193 17.412 14.4721C18.1699 14.1023 18.3646 13.4663 18.2128 12.8816C18.0583 12.2866 17.5472 11.7759 16.6667 11.7759ZM16.6667 24.7825C17.5872 24.7825 18.3333 24.0546 18.3333 23.1566C18.3333 22.2588 17.5872 21.5309 16.6667 21.5309C15.7462 21.5309 15 22.2588 15 23.1566C15 24.0546 15.7462 24.7825 16.6667 24.7825Z" fill="white"/>
</svg>
