<svg width="1218" height="502" viewBox="0 0 1218 502" fill="none" xmlns="http://www.w3.org/2000/svg">
<path d="M32.5 500.431V469.215H33.5V500.431H32.5ZM33 469.703H1V468.727H33V469.703ZM64.5 500.431V469.215H65.5V500.431H64.5ZM65 469.703H33V468.727H65V469.703ZM96.5 500.431V469.215H97.5V500.431H96.5ZM97 469.703H65V468.727H97V469.703ZM128.5 500.431V469.215H129.5V500.431H128.5ZM129 469.703H97V468.727H129V469.703ZM160.5 500.431V469.215H161.5V500.431H160.5ZM161 469.703H129V468.727H161V469.703ZM192.5 500.431V469.215H193.5V500.431H192.5ZM193 469.703H161V468.727H193V469.703ZM224.5 500.431V469.215H225.5V500.431H224.5ZM225 469.703H193V468.727H225V469.703ZM256.5 500.431V469.215H257.5V500.431H256.5ZM257 469.703H225V468.727H257V469.703ZM288.5 500.431V469.215H289.5V500.431H288.5ZM289 469.703H257V468.727H289V469.703ZM320.5 500.431V469.215H321.5V500.431H320.5ZM321 469.703H289V468.727H321V469.703ZM352.5 500.431V469.215H353.5V500.431H352.5ZM353 469.703H321V468.727H353V469.703ZM384.5 500.431V469.215H385.5V500.431H384.5ZM385 469.703H353V468.727H385V469.703ZM416.5 500.431V469.215H417.5V500.431H416.5ZM417 469.703H385V468.727H417V469.703ZM448.5 500.431V469.215H449.5V500.431H448.5ZM449 469.703H417V468.727H449V469.703ZM480.5 500.431V469.215H481.5V500.431H480.5ZM481 469.703H449V468.727H481V469.703ZM512.5 500.431V469.215H513.5V500.431H512.5ZM513 469.703H481V468.727H513V469.703ZM544.5 500.431V469.215H545.5V500.431H544.5ZM545 469.703H513V468.727H545V469.703ZM576.5 500.431V469.215H577.5V500.431H576.5ZM577 469.703H545V468.727H577V469.703ZM608.5 500.431V469.215H609.5V500.431H608.5ZM609 469.703H577V468.727H609V469.703ZM640.5 500.431V469.215H641.5V500.431H640.5ZM641 469.703H609V468.727H641V469.703ZM672.5 500.431V469.215H673.5V500.431H672.5ZM673 469.703H641V468.727H673V469.703ZM704.5 500.431V469.215H705.5V500.431H704.5ZM705 469.703H673V468.727H705V469.703ZM736.5 500.431V469.215H737.5V500.431H736.5ZM737 469.703H705V468.727H737V469.703ZM768.5 500.431V469.215H769.5V500.431H768.5ZM769 469.703H737V468.727H769V469.703ZM800.5 500.431V469.215H801.5V500.431H800.5ZM801 469.703H769V468.727H801V469.703ZM832.5 500.431V469.215H833.5V500.431H832.5ZM833 469.703H801V468.727H833V469.703ZM864.5 500.431V469.215H865.5V500.431H864.5ZM865 469.703H833V468.727H865V469.703ZM896.5 500.431V469.215H897.5V500.431H896.5ZM897 469.703H865V468.727H897V469.703ZM928.5 500.431V469.215H929.5V500.431H928.5ZM929 469.703H897V468.727H929V469.703ZM960.5 500.431V469.215H961.5V500.431H960.5ZM961 469.703H929V468.727H961V469.703ZM992.5 500.431V469.215H993.5V500.431H992.5ZM993 469.703H961V468.727H993V469.703ZM1024.5 500.431V469.215H1025.5V500.431H1024.5ZM1025 469.703H993V468.727H1025V469.703ZM1056.5 500.431V469.215H1057.5V500.431H1056.5ZM1057 469.703H1025V468.727H1057V469.703ZM1088.5 500.431V469.215H1089.5V500.431H1088.5ZM1089 469.703H1057V468.727H1089V469.703ZM1120.5 500.431V469.215H1121.5V500.431H1120.5ZM1121 469.703H1089V468.727H1121V469.703ZM1152.5 500.431V469.215H1153.5V500.431H1152.5ZM1153 469.703H1121V468.727H1153V469.703ZM1184.5 500.431V469.215H1185.5V500.431H1184.5ZM1185 469.703H1153V468.727H1185V469.703ZM1217 469.703H1185V468.727H1217V469.703ZM32.5 469.215V437.999H33.5V469.215H32.5ZM33 438.487H1V437.511H33V438.487ZM64.5 469.215V437.999H65.5V469.215H64.5ZM65 438.487H33V437.511H65V438.487ZM96.5 469.215V437.999H97.5V469.215H96.5ZM97 438.487H65V437.511H97V438.487ZM128.5 469.215V437.999H129.5V469.215H128.5ZM129 438.487H97V437.511H129V438.487ZM160.5 469.215V437.999H161.5V469.215H160.5ZM161 438.487H129V437.511H161V438.487ZM192.5 469.215V437.999H193.5V469.215H192.5ZM193 438.487H161V437.511H193V438.487ZM224.5 469.215V437.999H225.5V469.215H224.5ZM225 438.487H193V437.511H225V438.487ZM256.5 469.215V437.999H257.5V469.215H256.5ZM257 438.487H225V437.511H257V438.487ZM288.5 469.215V437.999H289.5V469.215H288.5ZM289 438.487H257V437.511H289V438.487ZM320.5 469.215V437.999H321.5V469.215H320.5ZM321 438.487H289V437.511H321V438.487ZM352.5 469.215V437.999H353.5V469.215H352.5ZM353 438.487H321V437.511H353V438.487ZM384.5 469.215V437.999H385.5V469.215H384.5ZM385 438.487H353V437.511H385V438.487ZM416.5 469.215V437.999H417.5V469.215H416.5ZM417 438.487H385V437.511H417V438.487ZM448.5 469.215V437.999H449.5V469.215H448.5ZM449 438.487H417V437.511H449V438.487ZM480.5 469.215V437.999H481.5V469.215H480.5ZM481 438.487H449V437.511H481V438.487ZM512.5 469.215V437.999H513.5V469.215H512.5ZM513 438.487H481V437.511H513V438.487ZM544.5 469.215V437.999H545.5V469.215H544.5ZM545 438.487H513V437.511H545V438.487ZM576.5 469.215V437.999H577.5V469.215H576.5ZM577 438.487H545V437.511H577V438.487ZM608.5 469.215V437.999H609.5V469.215H608.5ZM609 438.487H577V437.511H609V438.487ZM640.5 469.215V437.999H641.5V469.215H640.5ZM641 438.487H609V437.511H641V438.487ZM672.5 469.215V437.999H673.5V469.215H672.5ZM673 438.487H641V437.511H673V438.487ZM704.5 469.215V437.999H705.5V469.215H704.5ZM705 438.487H673V437.511H705V438.487ZM736.5 469.215V437.999H737.5V469.215H736.5ZM737 438.487H705V437.511H737V438.487ZM768.5 469.215V437.999H769.5V469.215H768.5ZM769 438.487H737V437.511H769V438.487ZM800.5 469.215V437.999H801.5V469.215H800.5ZM801 438.487H769V437.511H801V438.487ZM832.5 469.215V437.999H833.5V469.215H832.5ZM833 438.487H801V437.511H833V438.487ZM864.5 469.215V437.999H865.5V469.215H864.5ZM865 438.487H833V437.511H865V438.487ZM896.5 469.215V437.999H897.5V469.215H896.5ZM897 438.487H865V437.511H897V438.487ZM928.5 469.215V437.999H929.5V469.215H928.5ZM929 438.487H897V437.511H929V438.487ZM960.5 469.215V437.999H961.5V469.215H960.5ZM961 438.487H929V437.511H961V438.487ZM992.5 469.215V437.999H993.5V469.215H992.5ZM993 438.487H961V437.511H993V438.487ZM1024.5 469.215V437.999H1025.5V469.215H1024.5ZM1025 438.487H993V437.511H1025V438.487ZM1056.5 469.215V437.999H1057.5V469.215H1056.5ZM1057 438.487H1025V437.511H1057V438.487ZM1088.5 469.215V437.999H1089.5V469.215H1088.5ZM1089 438.487H1057V437.511H1089V438.487ZM1120.5 469.215V437.999H1121.5V469.215H1120.5ZM1121 438.487H1089V437.511H1121V438.487ZM1152.5 469.215V437.999H1153.5V469.215H1152.5ZM1153 438.487H1121V437.511H1153V438.487ZM1184.5 469.215V437.999H1185.5V469.215H1184.5ZM1185 438.487H1153V437.511H1185V438.487ZM1217 438.487H1185V437.511H1217V438.487ZM32.5 437.999V406.783H33.5V437.999H32.5ZM33 407.271H1V406.295H33V407.271ZM64.5 437.999V406.783H65.5V437.999H64.5ZM65 407.271H33V406.295H65V407.271ZM96.5 437.999V406.783H97.5V437.999H96.5ZM97 407.271H65V406.295H97V407.271ZM128.5 437.999V406.783H129.5V437.999H128.5ZM129 407.271H97V406.295H129V407.271ZM160.5 437.999V406.783H161.5V437.999H160.5ZM161 407.271H129V406.295H161V407.271ZM192.5 437.999V406.783H193.5V437.999H192.5ZM193 407.271H161V406.295H193V407.271ZM224.5 437.999V406.783H225.5V437.999H224.5ZM225 407.271H193V406.295H225V407.271ZM256.5 437.999V406.783H257.5V437.999H256.5ZM257 407.271H225V406.295H257V407.271ZM288.5 437.999V406.783H289.5V437.999H288.5ZM289 407.271H257V406.295H289V407.271ZM320.5 437.999V406.783H321.5V437.999H320.5ZM321 407.271H289V406.295H321V407.271ZM352.5 437.999V406.783H353.5V437.999H352.5ZM353 407.271H321V406.295H353V407.271ZM384.5 437.999V406.783H385.5V437.999H384.5ZM385 407.271H353V406.295H385V407.271ZM416.5 437.999V406.783H417.5V437.999H416.5ZM417 407.271H385V406.295H417V407.271ZM448.5 437.999V406.783H449.5V437.999H448.5ZM449 407.271H417V406.295H449V407.271ZM480.5 437.999V406.783H481.5V437.999H480.5ZM481 407.271H449V406.295H481V407.271ZM512.5 437.999V406.783H513.5V437.999H512.5ZM513 407.271H481V406.295H513V407.271ZM544.5 437.999V406.783H545.5V437.999H544.5ZM545 407.271H513V406.295H545V407.271ZM576.5 437.999V406.783H577.5V437.999H576.5ZM577 407.271H545V406.295H577V407.271ZM608.5 437.999V406.783H609.5V437.999H608.5ZM609 407.271H577V406.295H609V407.271ZM640.5 437.999V406.783H641.5V437.999H640.5ZM641 407.271H609V406.295H641V407.271ZM672.5 437.999V406.783H673.5V437.999H672.5ZM673 407.271H641V406.295H673V407.271ZM704.5 437.999V406.783H705.5V437.999H704.5ZM705 407.271H673V406.295H705V407.271ZM736.5 437.999V406.783H737.5V437.999H736.5ZM737 407.271H705V406.295H737V407.271ZM768.5 437.999V406.783H769.5V437.999H768.5ZM769 407.271H737V406.295H769V407.271ZM800.5 437.999V406.783H801.5V437.999H800.5ZM801 407.271H769V406.295H801V407.271ZM832.5 437.999V406.783H833.5V437.999H832.5ZM833 407.271H801V406.295H833V407.271ZM864.5 437.999V406.783H865.5V437.999H864.5ZM865 407.271H833V406.295H865V407.271ZM896.5 437.999V406.783H897.5V437.999H896.5ZM897 407.271H865V406.295H897V407.271ZM928.5 437.999V406.783H929.5V437.999H928.5ZM929 407.271H897V406.295H929V407.271ZM960.5 437.999V406.783H961.5V437.999H960.5ZM961 407.271H929V406.295H961V407.271ZM992.5 437.999V406.783H993.5V437.999H992.5ZM993 407.271H961V406.295H993V407.271ZM1024.5 437.999V406.783H1025.5V437.999H1024.5ZM1025 407.271H993V406.295H1025V407.271ZM1056.5 437.999V406.783H1057.5V437.999H1056.5ZM1057 407.271H1025V406.295H1057V407.271ZM1088.5 437.999V406.783H1089.5V437.999H1088.5ZM1089 407.271H1057V406.295H1089V407.271ZM1120.5 437.999V406.783H1121.5V437.999H1120.5ZM1121 407.271H1089V406.295H1121V407.271ZM1152.5 437.999V406.783H1153.5V437.999H1152.5ZM1153 407.271H1121V406.295H1153V407.271ZM1184.5 437.999V406.783H1185.5V437.999H1184.5ZM1185 407.271H1153V406.295H1185V407.271ZM1217 407.271H1185V406.295H1217V407.271ZM32.5 406.783V375.567H33.5V406.783H32.5ZM33 376.055H1V375.079H33V376.055ZM64.5 406.783V375.567H65.5V406.783H64.5ZM65 376.055H33V375.079H65V376.055ZM96.5 406.783V375.567H97.5V406.783H96.5ZM97 376.055H65V375.079H97V376.055ZM128.5 406.783V375.567H129.5V406.783H128.5ZM129 376.055H97V375.079H129V376.055ZM160.5 406.783V375.567H161.5V406.783H160.5ZM161 376.055H129V375.079H161V376.055ZM192.5 406.783V375.567H193.5V406.783H192.5ZM193 376.055H161V375.079H193V376.055ZM224.5 406.783V375.567H225.5V406.783H224.5ZM225 376.055H193V375.079H225V376.055ZM256.5 406.783V375.567H257.5V406.783H256.5ZM257 376.055H225V375.079H257V376.055ZM288.5 406.783V375.567H289.5V406.783H288.5ZM289 376.055H257V375.079H289V376.055ZM320.5 406.783V375.567H321.5V406.783H320.5ZM321 376.055H289V375.079H321V376.055ZM352.5 406.783V375.567H353.5V406.783H352.5ZM353 376.055H321V375.079H353V376.055ZM384.5 406.783V375.567H385.5V406.783H384.5ZM385 376.055H353V375.079H385V376.055ZM416.5 406.783V375.567H417.5V406.783H416.5ZM417 376.055H385V375.079H417V376.055ZM448.5 406.783V375.567H449.5V406.783H448.5ZM449 376.055H417V375.079H449V376.055ZM480.5 406.783V375.567H481.5V406.783H480.5ZM481 376.055H449V375.079H481V376.055ZM512.5 406.783V375.567H513.5V406.783H512.5ZM513 376.055H481V375.079H513V376.055ZM544.5 406.783V375.567H545.5V406.783H544.5ZM545 376.055H513V375.079H545V376.055ZM576.5 406.783V375.567H577.5V406.783H576.5ZM577 376.055H545V375.079H577V376.055ZM608.5 406.783V375.567H609.5V406.783H608.5ZM609 376.055H577V375.079H609V376.055ZM640.5 406.783V375.567H641.5V406.783H640.5ZM641 376.055H609V375.079H641V376.055ZM672.5 406.783V375.567H673.5V406.783H672.5ZM673 376.055H641V375.079H673V376.055ZM704.5 406.783V375.567H705.5V406.783H704.5ZM705 376.055H673V375.079H705V376.055ZM736.5 406.783V375.567H737.5V406.783H736.5ZM737 376.055H705V375.079H737V376.055ZM768.5 406.783V375.567H769.5V406.783H768.5ZM769 376.055H737V375.079H769V376.055ZM800.5 406.783V375.567H801.5V406.783H800.5ZM801 376.055H769V375.079H801V376.055ZM832.5 406.783V375.567H833.5V406.783H832.5ZM833 376.055H801V375.079H833V376.055ZM864.5 406.783V375.567H865.5V406.783H864.5ZM865 376.055H833V375.079H865V376.055ZM896.5 406.783V375.567H897.5V406.783H896.5ZM897 376.055H865V375.079H897V376.055ZM928.5 406.783V375.567H929.5V406.783H928.5ZM929 376.055H897V375.079H929V376.055ZM960.5 406.783V375.567H961.5V406.783H960.5ZM961 376.055H929V375.079H961V376.055ZM992.5 406.783V375.567H993.5V406.783H992.5ZM993 376.055H961V375.079H993V376.055ZM1024.5 406.783V375.567H1025.5V406.783H1024.5ZM1025 376.055H993V375.079H1025V376.055ZM1056.5 406.783V375.567H1057.5V406.783H1056.5ZM1057 376.055H1025V375.079H1057V376.055ZM1088.5 406.783V375.567H1089.5V406.783H1088.5ZM1089 376.055H1057V375.079H1089V376.055ZM1120.5 406.783V375.567H1121.5V406.783H1120.5ZM1121 376.055H1089V375.079H1121V376.055ZM1152.5 406.783V375.567H1153.5V406.783H1152.5ZM1153 376.055H1121V375.079H1153V376.055ZM1184.5 406.783V375.567H1185.5V406.783H1184.5ZM1185 376.055H1153V375.079H1185V376.055ZM1217 376.055H1185V375.079H1217V376.055ZM32.5 375.567V344.351H33.5V375.567H32.5ZM33 344.839H1V343.863H33V344.839ZM64.5 375.567V344.351H65.5V375.567H64.5ZM65 344.839H33V343.863H65V344.839ZM96.5 375.567V344.351H97.5V375.567H96.5ZM97 344.839H65V343.863H97V344.839ZM128.5 375.567V344.351H129.5V375.567H128.5ZM129 344.839H97V343.863H129V344.839ZM160.5 375.567V344.351H161.5V375.567H160.5ZM161 344.839H129V343.863H161V344.839ZM192.5 375.567V344.351H193.5V375.567H192.5ZM193 344.839H161V343.863H193V344.839ZM224.5 375.567V344.351H225.5V375.567H224.5ZM225 344.839H193V343.863H225V344.839ZM256.5 375.567V344.351H257.5V375.567H256.5ZM257 344.839H225V343.863H257V344.839ZM288.5 375.567V344.351H289.5V375.567H288.5ZM289 344.839H257V343.863H289V344.839ZM320.5 375.567V344.351H321.5V375.567H320.5ZM321 344.839H289V343.863H321V344.839ZM352.5 375.567V344.351H353.5V375.567H352.5ZM353 344.839H321V343.863H353V344.839ZM384.5 375.567V344.351H385.5V375.567H384.5ZM385 344.839H353V343.863H385V344.839ZM416.5 375.567V344.351H417.5V375.567H416.5ZM417 344.839H385V343.863H417V344.839ZM448.5 375.567V344.351H449.5V375.567H448.5ZM449 344.839H417V343.863H449V344.839ZM480.5 375.567V344.351H481.5V375.567H480.5ZM481 344.839H449V343.863H481V344.839ZM512.5 375.567V344.351H513.5V375.567H512.5ZM513 344.839H481V343.863H513V344.839ZM544.5 375.567V344.351H545.5V375.567H544.5ZM545 344.839H513V343.863H545V344.839ZM576.5 375.567V344.351H577.5V375.567H576.5ZM577 344.839H545V343.863H577V344.839ZM608.5 375.567V344.351H609.5V375.567H608.5ZM609 344.839H577V343.863H609V344.839ZM640.5 375.567V344.351H641.5V375.567H640.5ZM641 344.839H609V343.863H641V344.839ZM672.5 375.567V344.351H673.5V375.567H672.5ZM673 344.839H641V343.863H673V344.839ZM704.5 375.567V344.351H705.5V375.567H704.5ZM705 344.839H673V343.863H705V344.839ZM736.5 375.567V344.351H737.5V375.567H736.5ZM737 344.839H705V343.863H737V344.839ZM768.5 375.567V344.351H769.5V375.567H768.5ZM769 344.839H737V343.863H769V344.839ZM800.5 375.567V344.351H801.5V375.567H800.5ZM801 344.839H769V343.863H801V344.839ZM832.5 375.567V344.351H833.5V375.567H832.5ZM833 344.839H801V343.863H833V344.839ZM864.5 375.567V344.351H865.5V375.567H864.5ZM865 344.839H833V343.863H865V344.839ZM896.5 375.567V344.351H897.5V375.567H896.5ZM897 344.839H865V343.863H897V344.839ZM928.5 375.567V344.351H929.5V375.567H928.5ZM929 344.839H897V343.863H929V344.839ZM960.5 375.567V344.351H961.5V375.567H960.5ZM961 344.839H929V343.863H961V344.839ZM992.5 375.567V344.351H993.5V375.567H992.5ZM993 344.839H961V343.863H993V344.839ZM1024.5 375.567V344.351H1025.5V375.567H1024.5ZM1025 344.839H993V343.863H1025V344.839ZM1056.5 375.567V344.351H1057.5V375.567H1056.5ZM1057 344.839H1025V343.863H1057V344.839ZM1088.5 375.567V344.351H1089.5V375.567H1088.5ZM1089 344.839H1057V343.863H1089V344.839ZM1120.5 375.567V344.351H1121.5V375.567H1120.5ZM1121 344.839H1089V343.863H1121V344.839ZM1152.5 375.567V344.351H1153.5V375.567H1152.5ZM1153 344.839H1121V343.863H1153V344.839ZM1184.5 375.567V344.351H1185.5V375.567H1184.5ZM1185 344.839H1153V343.863H1185V344.839ZM1217 344.839H1185V343.863H1217V344.839ZM32.5 344.351V313.135H33.5V344.351H32.5ZM33 313.623H1V312.647H33V313.623ZM64.5 344.351V313.135H65.5V344.351H64.5ZM65 313.623H33V312.647H65V313.623ZM96.5 344.351V313.135H97.5V344.351H96.5ZM97 313.623H65V312.647H97V313.623ZM128.5 344.351V313.135H129.5V344.351H128.5ZM129 313.623H97V312.647H129V313.623ZM160.5 344.351V313.135H161.5V344.351H160.5ZM161 313.623H129V312.647H161V313.623ZM192.5 344.351V313.135H193.5V344.351H192.5ZM193 313.623H161V312.647H193V313.623ZM224.5 344.351V313.135H225.5V344.351H224.5ZM225 313.623H193V312.647H225V313.623ZM256.5 344.351V313.135H257.5V344.351H256.5ZM257 313.623H225V312.647H257V313.623ZM288.5 344.351V313.135H289.5V344.351H288.5ZM289 313.623H257V312.647H289V313.623ZM320.5 344.351V313.135H321.5V344.351H320.5ZM321 313.623H289V312.647H321V313.623ZM352.5 344.351V313.135H353.5V344.351H352.5ZM353 313.623H321V312.647H353V313.623ZM384.5 344.351V313.135H385.5V344.351H384.5ZM385 313.623H353V312.647H385V313.623ZM416.5 344.351V313.135H417.5V344.351H416.5ZM417 313.623H385V312.647H417V313.623ZM448.5 344.351V313.135H449.5V344.351H448.5ZM449 313.623H417V312.647H449V313.623ZM480.5 344.351V313.135H481.5V344.351H480.5ZM481 313.623H449V312.647H481V313.623ZM512.5 344.351V313.135H513.5V344.351H512.5ZM513 313.623H481V312.647H513V313.623ZM544.5 344.351V313.135H545.5V344.351H544.5ZM545 313.623H513V312.647H545V313.623ZM576.5 344.351V313.135H577.5V344.351H576.5ZM577 313.623H545V312.647H577V313.623ZM608.5 344.351V313.135H609.5V344.351H608.5ZM609 313.623H577V312.647H609V313.623ZM640.5 344.351V313.135H641.5V344.351H640.5ZM641 313.623H609V312.647H641V313.623ZM672.5 344.351V313.135H673.5V344.351H672.5ZM673 313.623H641V312.647H673V313.623ZM704.5 344.351V313.135H705.5V344.351H704.5ZM705 313.623H673V312.647H705V313.623ZM736.5 344.351V313.135H737.5V344.351H736.5ZM737 313.623H705V312.647H737V313.623ZM768.5 344.351V313.135H769.5V344.351H768.5ZM769 313.623H737V312.647H769V313.623ZM800.5 344.351V313.135H801.5V344.351H800.5ZM801 313.623H769V312.647H801V313.623ZM832.5 344.351V313.135H833.5V344.351H832.5ZM833 313.623H801V312.647H833V313.623ZM864.5 344.351V313.135H865.5V344.351H864.5ZM865 313.623H833V312.647H865V313.623ZM896.5 344.351V313.135H897.5V344.351H896.5ZM897 313.623H865V312.647H897V313.623ZM928.5 344.351V313.135H929.5V344.351H928.5ZM929 313.623H897V312.647H929V313.623ZM960.5 344.351V313.135H961.5V344.351H960.5ZM961 313.623H929V312.647H961V313.623ZM992.5 344.351V313.135H993.5V344.351H992.5ZM993 313.623H961V312.647H993V313.623ZM1024.5 344.351V313.135H1025.5V344.351H1024.5ZM1025 313.623H993V312.647H1025V313.623ZM1056.5 344.351V313.135H1057.5V344.351H1056.5ZM1057 313.623H1025V312.647H1057V313.623ZM1088.5 344.351V313.135H1089.5V344.351H1088.5ZM1089 313.623H1057V312.647H1089V313.623ZM1120.5 344.351V313.135H1121.5V344.351H1120.5ZM1121 313.623H1089V312.647H1121V313.623ZM1152.5 344.351V313.135H1153.5V344.351H1152.5ZM1153 313.623H1121V312.647H1153V313.623ZM1184.5 344.351V313.135H1185.5V344.351H1184.5ZM1185 313.623H1153V312.647H1185V313.623ZM1217 313.623H1185V312.647H1217V313.623ZM32.5 313.135V281.919H33.5V313.135H32.5ZM33 282.407H1V281.431H33V282.407ZM64.5 313.135V281.919H65.5V313.135H64.5ZM65 282.407H33V281.431H65V282.407ZM96.5 313.135V281.919H97.5V313.135H96.5ZM97 282.407H65V281.431H97V282.407ZM128.5 313.135V281.919H129.5V313.135H128.5ZM129 282.407H97V281.431H129V282.407ZM160.5 313.135V281.919H161.5V313.135H160.5ZM161 282.407H129V281.431H161V282.407ZM192.5 313.135V281.919H193.5V313.135H192.5ZM193 282.407H161V281.431H193V282.407ZM224.5 313.135V281.919H225.5V313.135H224.5ZM225 282.407H193V281.431H225V282.407ZM256.5 313.135V281.919H257.5V313.135H256.5ZM257 282.407H225V281.431H257V282.407ZM288.5 313.135V281.919H289.5V313.135H288.5ZM289 282.407H257V281.431H289V282.407ZM320.5 313.135V281.919H321.5V313.135H320.5ZM321 282.407H289V281.431H321V282.407ZM352.5 313.135V281.919H353.5V313.135H352.5ZM353 282.407H321V281.431H353V282.407ZM384.5 313.135V281.919H385.5V313.135H384.5ZM385 282.407H353V281.431H385V282.407ZM416.5 313.135V281.919H417.5V313.135H416.5ZM417 282.407H385V281.431H417V282.407ZM448.5 313.135V281.919H449.5V313.135H448.5ZM449 282.407H417V281.431H449V282.407ZM480.5 313.135V281.919H481.5V313.135H480.5ZM481 282.407H449V281.431H481V282.407ZM512.5 313.135V281.919H513.5V313.135H512.5ZM513 282.407H481V281.431H513V282.407ZM544.5 313.135V281.919H545.5V313.135H544.5ZM545 282.407H513V281.431H545V282.407ZM576.5 313.135V281.919H577.5V313.135H576.5ZM577 282.407H545V281.431H577V282.407ZM608.5 313.135V281.919H609.5V313.135H608.5ZM609 282.407H577V281.431H609V282.407ZM640.5 313.135V281.919H641.5V313.135H640.5ZM641 282.407H609V281.431H641V282.407ZM672.5 313.135V281.919H673.5V313.135H672.5ZM673 282.407H641V281.431H673V282.407ZM704.5 313.135V281.919H705.5V313.135H704.5ZM705 282.407H673V281.431H705V282.407ZM736.5 313.135V281.919H737.5V313.135H736.5ZM737 282.407H705V281.431H737V282.407ZM768.5 313.135V281.919H769.5V313.135H768.5ZM769 282.407H737V281.431H769V282.407ZM800.5 313.135V281.919H801.5V313.135H800.5ZM801 282.407H769V281.431H801V282.407ZM832.5 313.135V281.919H833.5V313.135H832.5ZM833 282.407H801V281.431H833V282.407ZM864.5 313.135V281.919H865.5V313.135H864.5ZM865 282.407H833V281.431H865V282.407ZM896.5 313.135V281.919H897.5V313.135H896.5ZM897 282.407H865V281.431H897V282.407ZM928.5 313.135V281.919H929.5V313.135H928.5ZM929 282.407H897V281.431H929V282.407ZM960.5 313.135V281.919H961.5V313.135H960.5ZM961 282.407H929V281.431H961V282.407ZM992.5 313.135V281.919H993.5V313.135H992.5ZM993 282.407H961V281.431H993V282.407ZM1024.5 313.135V281.919H1025.5V313.135H1024.5ZM1025 282.407H993V281.431H1025V282.407ZM1056.5 313.135V281.919H1057.5V313.135H1056.5ZM1057 282.407H1025V281.431H1057V282.407ZM1088.5 313.135V281.919H1089.5V313.135H1088.5ZM1089 282.407H1057V281.431H1089V282.407ZM1120.5 313.135V281.919H1121.5V313.135H1120.5ZM1121 282.407H1089V281.431H1121V282.407ZM1152.5 313.135V281.919H1153.5V313.135H1152.5ZM1153 282.407H1121V281.431H1153V282.407ZM1184.5 313.135V281.919H1185.5V313.135H1184.5ZM1185 282.407H1153V281.431H1185V282.407ZM1217 282.407H1185V281.431H1217V282.407ZM32.5 281.919V250.703H33.5V281.919H32.5ZM33 251.191H1V250.215H33V251.191ZM64.5 281.919V250.703H65.5V281.919H64.5ZM65 251.191H33V250.215H65V251.191ZM96.5 281.919V250.703H97.5V281.919H96.5ZM97 251.191H65V250.215H97V251.191ZM128.5 281.919V250.703H129.5V281.919H128.5ZM129 251.191H97V250.215H129V251.191ZM160.5 281.919V250.703H161.5V281.919H160.5ZM161 251.191H129V250.215H161V251.191ZM192.5 281.919V250.703H193.5V281.919H192.5ZM193 251.191H161V250.215H193V251.191ZM224.5 281.919V250.703H225.5V281.919H224.5ZM225 251.191H193V250.215H225V251.191ZM256.5 281.919V250.703H257.5V281.919H256.5ZM257 251.191H225V250.215H257V251.191ZM288.5 281.919V250.703H289.5V281.919H288.5ZM289 251.191H257V250.215H289V251.191ZM320.5 281.919V250.703H321.5V281.919H320.5ZM321 251.191H289V250.215H321V251.191ZM352.5 281.919V250.703H353.5V281.919H352.5ZM353 251.191H321V250.215H353V251.191ZM384.5 281.919V250.703H385.5V281.919H384.5ZM385 251.191H353V250.215H385V251.191ZM416.5 281.919V250.703H417.5V281.919H416.5ZM417 251.191H385V250.215H417V251.191ZM448.5 281.919V250.703H449.5V281.919H448.5ZM449 251.191H417V250.215H449V251.191ZM480.5 281.919V250.703H481.5V281.919H480.5ZM481 251.191H449V250.215H481V251.191ZM512.5 281.919V250.703H513.5V281.919H512.5ZM513 251.191H481V250.215H513V251.191ZM544.5 281.919V250.703H545.5V281.919H544.5ZM545 251.191H513V250.215H545V251.191ZM576.5 281.919V250.703H577.5V281.919H576.5ZM577 251.191H545V250.215H577V251.191ZM608.5 281.919V250.703H609.5V281.919H608.5ZM609 251.191H577V250.215H609V251.191ZM640.5 281.919V250.703H641.5V281.919H640.5ZM641 251.191H609V250.215H641V251.191ZM672.5 281.919V250.703H673.5V281.919H672.5ZM673 251.191H641V250.215H673V251.191ZM704.5 281.919V250.703H705.5V281.919H704.5ZM705 251.191H673V250.215H705V251.191ZM736.5 281.919V250.703H737.5V281.919H736.5ZM737 251.191H705V250.215H737V251.191ZM768.5 281.919V250.703H769.5V281.919H768.5ZM769 251.191H737V250.215H769V251.191ZM800.5 281.919V250.703H801.5V281.919H800.5ZM801 251.191H769V250.215H801V251.191ZM832.5 281.919V250.703H833.5V281.919H832.5ZM833 251.191H801V250.215H833V251.191ZM864.5 281.919V250.703H865.5V281.919H864.5ZM865 251.191H833V250.215H865V251.191ZM896.5 281.919V250.703H897.5V281.919H896.5ZM897 251.191H865V250.215H897V251.191ZM928.5 281.919V250.703H929.5V281.919H928.5ZM929 251.191H897V250.215H929V251.191ZM960.5 281.919V250.703H961.5V281.919H960.5ZM961 251.191H929V250.215H961V251.191ZM992.5 281.919V250.703H993.5V281.919H992.5ZM993 251.191H961V250.215H993V251.191ZM1024.5 281.919V250.703H1025.5V281.919H1024.5ZM1025 251.191H993V250.215H1025V251.191ZM1056.5 281.919V250.703H1057.5V281.919H1056.5ZM1057 251.191H1025V250.215H1057V251.191ZM1088.5 281.919V250.703H1089.5V281.919H1088.5ZM1089 251.191H1057V250.215H1089V251.191ZM1120.5 281.919V250.703H1121.5V281.919H1120.5ZM1121 251.191H1089V250.215H1121V251.191ZM1152.5 281.919V250.703H1153.5V281.919H1152.5ZM1153 251.191H1121V250.215H1153V251.191ZM1184.5 281.919V250.703H1185.5V281.919H1184.5ZM1185 251.191H1153V250.215H1185V251.191ZM1217 251.191H1185V250.215H1217V251.191ZM32.5 250.703V219.487H33.5V250.703H32.5ZM33 219.975H1V218.999H33V219.975ZM64.5 250.703V219.487H65.5V250.703H64.5ZM65 219.975H33V218.999H65V219.975ZM96.5 250.703V219.487H97.5V250.703H96.5ZM97 219.975H65V218.999H97V219.975ZM128.5 250.703V219.487H129.5V250.703H128.5ZM129 219.975H97V218.999H129V219.975ZM160.5 250.703V219.487H161.5V250.703H160.5ZM161 219.975H129V218.999H161V219.975ZM192.5 250.703V219.487H193.5V250.703H192.5ZM193 219.975H161V218.999H193V219.975ZM224.5 250.703V219.487H225.5V250.703H224.5ZM225 219.975H193V218.999H225V219.975ZM256.5 250.703V219.487H257.5V250.703H256.5ZM257 219.975H225V218.999H257V219.975ZM288.5 250.703V219.487H289.5V250.703H288.5ZM289 219.975H257V218.999H289V219.975ZM320.5 250.703V219.487H321.5V250.703H320.5ZM321 219.975H289V218.999H321V219.975ZM352.5 250.703V219.487H353.5V250.703H352.5ZM353 219.975H321V218.999H353V219.975ZM384.5 250.703V219.487H385.5V250.703H384.5ZM385 219.975H353V218.999H385V219.975ZM416.5 250.703V219.487H417.5V250.703H416.5ZM417 219.975H385V218.999H417V219.975ZM448.5 250.703V219.487H449.5V250.703H448.5ZM449 219.975H417V218.999H449V219.975ZM480.5 250.703V219.487H481.5V250.703H480.5ZM481 219.975H449V218.999H481V219.975ZM512.5 250.703V219.487H513.5V250.703H512.5ZM513 219.975H481V218.999H513V219.975ZM544.5 250.703V219.487H545.5V250.703H544.5ZM545 219.975H513V218.999H545V219.975ZM576.5 250.703V219.487H577.5V250.703H576.5ZM577 219.975H545V218.999H577V219.975ZM608.5 250.703V219.487H609.5V250.703H608.5ZM609 219.975H577V218.999H609V219.975ZM640.5 250.703V219.487H641.5V250.703H640.5ZM641 219.975H609V218.999H641V219.975ZM672.5 250.703V219.487H673.5V250.703H672.5ZM673 219.975H641V218.999H673V219.975ZM704.5 250.703V219.487H705.5V250.703H704.5ZM705 219.975H673V218.999H705V219.975ZM736.5 250.703V219.487H737.5V250.703H736.5ZM737 219.975H705V218.999H737V219.975ZM768.5 250.703V219.487H769.5V250.703H768.5ZM769 219.975H737V218.999H769V219.975ZM800.5 250.703V219.487H801.5V250.703H800.5ZM801 219.975H769V218.999H801V219.975ZM832.5 250.703V219.487H833.5V250.703H832.5ZM833 219.975H801V218.999H833V219.975ZM864.5 250.703V219.487H865.5V250.703H864.5ZM865 219.975H833V218.999H865V219.975ZM896.5 250.703V219.487H897.5V250.703H896.5ZM897 219.975H865V218.999H897V219.975ZM928.5 250.703V219.487H929.5V250.703H928.5ZM929 219.975H897V218.999H929V219.975ZM960.5 250.703V219.487H961.5V250.703H960.5ZM961 219.975H929V218.999H961V219.975ZM992.5 250.703V219.487H993.5V250.703H992.5ZM993 219.975H961V218.999H993V219.975ZM1024.5 250.703V219.487H1025.5V250.703H1024.5ZM1025 219.975H993V218.999H1025V219.975ZM1056.5 250.703V219.487H1057.5V250.703H1056.5ZM1057 219.975H1025V218.999H1057V219.975ZM1088.5 250.703V219.487H1089.5V250.703H1088.5ZM1089 219.975H1057V218.999H1089V219.975ZM1120.5 250.703V219.487H1121.5V250.703H1120.5ZM1121 219.975H1089V218.999H1121V219.975ZM1152.5 250.703V219.487H1153.5V250.703H1152.5ZM1153 219.975H1121V218.999H1153V219.975ZM1184.5 250.703V219.487H1185.5V250.703H1184.5ZM1185 219.975H1153V218.999H1185V219.975ZM1217 219.975H1185V218.999H1217V219.975ZM32.5 219.487V188.271H33.5V219.487H32.5ZM33 188.759H1V187.784H33V188.759ZM64.5 219.487V188.271H65.5V219.487H64.5ZM65 188.759H33V187.784H65V188.759ZM96.5 219.487V188.271H97.5V219.487H96.5ZM97 188.759H65V187.784H97V188.759ZM128.5 219.487V188.271H129.5V219.487H128.5ZM129 188.759H97V187.784H129V188.759ZM160.5 219.487V188.271H161.5V219.487H160.5ZM161 188.759H129V187.784H161V188.759ZM192.5 219.487V188.271H193.5V219.487H192.5ZM193 188.759H161V187.784H193V188.759ZM224.5 219.487V188.271H225.5V219.487H224.5ZM225 188.759H193V187.784H225V188.759ZM256.5 219.487V188.271H257.5V219.487H256.5ZM257 188.759H225V187.784H257V188.759ZM288.5 219.487V188.271H289.5V219.487H288.5ZM289 188.759H257V187.784H289V188.759ZM320.5 219.487V188.271H321.5V219.487H320.5ZM321 188.759H289V187.784H321V188.759ZM352.5 219.487V188.271H353.5V219.487H352.5ZM353 188.759H321V187.784H353V188.759ZM384.5 219.487V188.271H385.5V219.487H384.5ZM385 188.759H353V187.784H385V188.759ZM416.5 219.487V188.271H417.5V219.487H416.5ZM417 188.759H385V187.784H417V188.759ZM448.5 219.487V188.271H449.5V219.487H448.5ZM449 188.759H417V187.784H449V188.759ZM480.5 219.487V188.271H481.5V219.487H480.5ZM481 188.759H449V187.784H481V188.759ZM512.5 219.487V188.271H513.5V219.487H512.5ZM513 188.759H481V187.784H513V188.759ZM544.5 219.487V188.271H545.5V219.487H544.5ZM545 188.759H513V187.784H545V188.759ZM576.5 219.487V188.271H577.5V219.487H576.5ZM577 188.759H545V187.784H577V188.759ZM608.5 219.487V188.271H609.5V219.487H608.5ZM609 188.759H577V187.784H609V188.759ZM640.5 219.487V188.271H641.5V219.487H640.5ZM641 188.759H609V187.784H641V188.759ZM672.5 219.487V188.271H673.5V219.487H672.5ZM673 188.759H641V187.784H673V188.759ZM704.5 219.487V188.271H705.5V219.487H704.5ZM705 188.759H673V187.784H705V188.759ZM736.5 219.487V188.271H737.5V219.487H736.5ZM737 188.759H705V187.784H737V188.759ZM768.5 219.487V188.271H769.5V219.487H768.5ZM769 188.759H737V187.784H769V188.759ZM800.5 219.487V188.271H801.5V219.487H800.5ZM801 188.759H769V187.784H801V188.759ZM832.5 219.487V188.271H833.5V219.487H832.5ZM833 188.759H801V187.784H833V188.759ZM864.5 219.487V188.271H865.5V219.487H864.5ZM865 188.759H833V187.784H865V188.759ZM896.5 219.487V188.271H897.5V219.487H896.5ZM897 188.759H865V187.784H897V188.759ZM928.5 219.487V188.271H929.5V219.487H928.5ZM929 188.759H897V187.784H929V188.759ZM960.5 219.487V188.271H961.5V219.487H960.5ZM961 188.759H929V187.784H961V188.759ZM992.5 219.487V188.271H993.5V219.487H992.5ZM993 188.759H961V187.784H993V188.759ZM1024.5 219.487V188.271H1025.5V219.487H1024.5ZM1025 188.759H993V187.784H1025V188.759ZM1056.5 219.487V188.271H1057.5V219.487H1056.5ZM1057 188.759H1025V187.784H1057V188.759ZM1088.5 219.487V188.271H1089.5V219.487H1088.5ZM1089 188.759H1057V187.784H1089V188.759ZM1120.5 219.487V188.271H1121.5V219.487H1120.5ZM1121 188.759H1089V187.784H1121V188.759ZM1152.5 219.487V188.271H1153.5V219.487H1152.5ZM1153 188.759H1121V187.784H1153V188.759ZM1184.5 219.487V188.271H1185.5V219.487H1184.5ZM1185 188.759H1153V187.784H1185V188.759ZM1217 188.759H1185V187.784H1217V188.759ZM32.5 188.271V157.055H33.5V188.271H32.5ZM33 157.543H1V156.568H33V157.543ZM64.5 188.271V157.055H65.5V188.271H64.5ZM65 157.543H33V156.568H65V157.543ZM96.5 188.271V157.055H97.5V188.271H96.5ZM97 157.543H65V156.568H97V157.543ZM128.5 188.271V157.055H129.5V188.271H128.5ZM129 157.543H97V156.568H129V157.543ZM160.5 188.271V157.055H161.5V188.271H160.5ZM161 157.543H129V156.568H161V157.543ZM192.5 188.271V157.055H193.5V188.271H192.5ZM193 157.543H161V156.568H193V157.543ZM224.5 188.271V157.055H225.5V188.271H224.5ZM225 157.543H193V156.568H225V157.543ZM256.5 188.271V157.055H257.5V188.271H256.5ZM257 157.543H225V156.568H257V157.543ZM288.5 188.271V157.055H289.5V188.271H288.5ZM289 157.543H257V156.568H289V157.543ZM320.5 188.271V157.055H321.5V188.271H320.5ZM321 157.543H289V156.568H321V157.543ZM352.5 188.271V157.055H353.5V188.271H352.5ZM353 157.543H321V156.568H353V157.543ZM384.5 188.271V157.055H385.5V188.271H384.5ZM385 157.543H353V156.568H385V157.543ZM416.5 188.271V157.055H417.5V188.271H416.5ZM417 157.543H385V156.568H417V157.543ZM448.5 188.271V157.055H449.5V188.271H448.5ZM449 157.543H417V156.568H449V157.543ZM480.5 188.271V157.055H481.5V188.271H480.5ZM481 157.543H449V156.568H481V157.543ZM512.5 188.271V157.055H513.5V188.271H512.5ZM513 157.543H481V156.568H513V157.543ZM544.5 188.271V157.055H545.5V188.271H544.5ZM545 157.543H513V156.568H545V157.543ZM576.5 188.271V157.055H577.5V188.271H576.5ZM577 157.543H545V156.568H577V157.543ZM608.5 188.271V157.055H609.5V188.271H608.5ZM609 157.543H577V156.568H609V157.543ZM640.5 188.271V157.055H641.5V188.271H640.5ZM641 157.543H609V156.568H641V157.543ZM672.5 188.271V157.055H673.5V188.271H672.5ZM673 157.543H641V156.568H673V157.543ZM704.5 188.271V157.055H705.5V188.271H704.5ZM705 157.543H673V156.568H705V157.543ZM736.5 188.271V157.055H737.5V188.271H736.5ZM737 157.543H705V156.568H737V157.543ZM768.5 188.271V157.055H769.5V188.271H768.5ZM769 157.543H737V156.568H769V157.543ZM800.5 188.271V157.055H801.5V188.271H800.5ZM801 157.543H769V156.568H801V157.543ZM832.5 188.271V157.055H833.5V188.271H832.5ZM833 157.543H801V156.568H833V157.543ZM864.5 188.271V157.055H865.5V188.271H864.5ZM865 157.543H833V156.568H865V157.543ZM896.5 188.271V157.055H897.5V188.271H896.5ZM897 157.543H865V156.568H897V157.543ZM928.5 188.271V157.055H929.5V188.271H928.5ZM929 157.543H897V156.568H929V157.543ZM960.5 188.271V157.055H961.5V188.271H960.5ZM961 157.543H929V156.568H961V157.543ZM992.5 188.271V157.055H993.5V188.271H992.5ZM993 157.543H961V156.568H993V157.543ZM1024.5 188.271V157.055H1025.5V188.271H1024.5ZM1025 157.543H993V156.568H1025V157.543ZM1056.5 188.271V157.055H1057.5V188.271H1056.5ZM1057 157.543H1025V156.568H1057V157.543ZM1088.5 188.271V157.055H1089.5V188.271H1088.5ZM1089 157.543H1057V156.568H1089V157.543ZM1120.5 188.271V157.055H1121.5V188.271H1120.5ZM1121 157.543H1089V156.568H1121V157.543ZM1152.5 188.271V157.055H1153.5V188.271H1152.5ZM1153 157.543H1121V156.568H1153V157.543ZM1184.5 188.271V157.055H1185.5V188.271H1184.5ZM1185 157.543H1153V156.568H1185V157.543ZM1217 157.543H1185V156.568H1217V157.543ZM32.5 157.055V125.839H33.5V157.055H32.5ZM33 126.327H1V125.352H33V126.327ZM64.5 157.055V125.839H65.5V157.055H64.5ZM65 126.327H33V125.352H65V126.327ZM96.5 157.055V125.839H97.5V157.055H96.5ZM97 126.327H65V125.352H97V126.327ZM128.5 157.055V125.839H129.5V157.055H128.5ZM129 126.327H97V125.352H129V126.327ZM160.5 157.055V125.839H161.5V157.055H160.5ZM161 126.327H129V125.352H161V126.327ZM192.5 157.055V125.839H193.5V157.055H192.5ZM193 126.327H161V125.352H193V126.327ZM224.5 157.055V125.839H225.5V157.055H224.5ZM225 126.327H193V125.352H225V126.327ZM256.5 157.055V125.839H257.5V157.055H256.5ZM257 126.327H225V125.352H257V126.327ZM288.5 157.055V125.839H289.5V157.055H288.5ZM289 126.327H257V125.352H289V126.327ZM320.5 157.055V125.839H321.5V157.055H320.5ZM321 126.327H289V125.352H321V126.327ZM352.5 157.055V125.839H353.5V157.055H352.5ZM353 126.327H321V125.352H353V126.327ZM384.5 157.055V125.839H385.5V157.055H384.5ZM385 126.327H353V125.352H385V126.327ZM416.5 157.055V125.839H417.5V157.055H416.5ZM417 126.327H385V125.352H417V126.327ZM448.5 157.055V125.839H449.5V157.055H448.5ZM449 126.327H417V125.352H449V126.327ZM480.5 157.055V125.839H481.5V157.055H480.5ZM481 126.327H449V125.352H481V126.327ZM512.5 157.055V125.839H513.5V157.055H512.5ZM513 126.327H481V125.352H513V126.327ZM544.5 157.055V125.839H545.5V157.055H544.5ZM545 126.327H513V125.352H545V126.327ZM576.5 157.055V125.839H577.5V157.055H576.5ZM577 126.327H545V125.352H577V126.327ZM608.5 157.055V125.839H609.5V157.055H608.5ZM609 126.327H577V125.352H609V126.327ZM640.5 157.055V125.839H641.5V157.055H640.5ZM641 126.327H609V125.352H641V126.327ZM672.5 157.055V125.839H673.5V157.055H672.5ZM673 126.327H641V125.352H673V126.327ZM704.5 157.055V125.839H705.5V157.055H704.5ZM705 126.327H673V125.352H705V126.327ZM736.5 157.055V125.839H737.5V157.055H736.5ZM737 126.327H705V125.352H737V126.327ZM768.5 157.055V125.839H769.5V157.055H768.5ZM769 126.327H737V125.352H769V126.327ZM800.5 157.055V125.839H801.5V157.055H800.5ZM801 126.327H769V125.352H801V126.327ZM832.5 157.055V125.839H833.5V157.055H832.5ZM833 126.327H801V125.352H833V126.327ZM864.5 157.055V125.839H865.5V157.055H864.5ZM865 126.327H833V125.352H865V126.327ZM896.5 157.055V125.839H897.5V157.055H896.5ZM897 126.327H865V125.352H897V126.327ZM928.5 157.055V125.839H929.5V157.055H928.5ZM929 126.327H897V125.352H929V126.327ZM960.5 157.055V125.839H961.5V157.055H960.5ZM961 126.327H929V125.352H961V126.327ZM992.5 157.055V125.839H993.5V157.055H992.5ZM993 126.327H961V125.352H993V126.327ZM1024.5 157.055V125.839H1025.5V157.055H1024.5ZM1025 126.327H993V125.352H1025V126.327ZM1056.5 157.055V125.839H1057.5V157.055H1056.5ZM1057 126.327H1025V125.352H1057V126.327ZM1088.5 157.055V125.839H1089.5V157.055H1088.5ZM1089 126.327H1057V125.352H1089V126.327ZM1120.5 157.055V125.839H1121.5V157.055H1120.5ZM1121 126.327H1089V125.352H1121V126.327ZM1152.5 157.055V125.839H1153.5V157.055H1152.5ZM1153 126.327H1121V125.352H1153V126.327ZM1184.5 157.055V125.839H1185.5V157.055H1184.5ZM1185 126.327H1153V125.352H1185V126.327ZM1217 126.327H1185V125.352H1217V126.327ZM32.5 125.839V94.6234H33.5V125.839H32.5ZM33 95.1111H1V94.1356H33V95.1111ZM64.5 125.839V94.6234H65.5V125.839H64.5ZM65 95.1111H33V94.1356H65V95.1111ZM96.5 125.839V94.6234H97.5V125.839H96.5ZM97 95.1111H65V94.1356H97V95.1111ZM128.5 125.839V94.6234H129.5V125.839H128.5ZM129 95.1111H97V94.1356H129V95.1111ZM160.5 125.839V94.6234H161.5V125.839H160.5ZM161 95.1111H129V94.1356H161V95.1111ZM192.5 125.839V94.6234H193.5V125.839H192.5ZM193 95.1111H161V94.1356H193V95.1111ZM224.5 125.839V94.6234H225.5V125.839H224.5ZM225 95.1111H193V94.1356H225V95.1111ZM256.5 125.839V94.6234H257.5V125.839H256.5ZM257 95.1111H225V94.1356H257V95.1111ZM288.5 125.839V94.6234H289.5V125.839H288.5ZM289 95.1111H257V94.1356H289V95.1111ZM320.5 125.839V94.6234H321.5V125.839H320.5ZM321 95.1111H289V94.1356H321V95.1111ZM352.5 125.839V94.6234H353.5V125.839H352.5ZM353 95.1111H321V94.1356H353V95.1111ZM384.5 125.839V94.6234H385.5V125.839H384.5ZM385 95.1111H353V94.1356H385V95.1111ZM416.5 125.839V94.6234H417.5V125.839H416.5ZM417 95.1111H385V94.1356H417V95.1111ZM448.5 125.839V94.6234H449.5V125.839H448.5ZM449 95.1111H417V94.1356H449V95.1111ZM480.5 125.839V94.6234H481.5V125.839H480.5ZM481 95.1111H449V94.1356H481V95.1111ZM512.5 125.839V94.6234H513.5V125.839H512.5ZM513 95.1111H481V94.1356H513V95.1111ZM544.5 125.839V94.6234H545.5V125.839H544.5ZM545 95.1111H513V94.1356H545V95.1111ZM576.5 125.839V94.6234H577.5V125.839H576.5ZM577 95.1111H545V94.1356H577V95.1111ZM608.5 125.839V94.6234H609.5V125.839H608.5ZM609 95.1111H577V94.1356H609V95.1111ZM640.5 125.839V94.6234H641.5V125.839H640.5ZM641 95.1111H609V94.1356H641V95.1111ZM672.5 125.839V94.6234H673.5V125.839H672.5ZM673 95.1111H641V94.1356H673V95.1111ZM704.5 125.839V94.6234H705.5V125.839H704.5ZM705 95.1111H673V94.1356H705V95.1111ZM736.5 125.839V94.6234H737.5V125.839H736.5ZM737 95.1111H705V94.1356H737V95.1111ZM768.5 125.839V94.6234H769.5V125.839H768.5ZM769 95.1111H737V94.1356H769V95.1111ZM800.5 125.839V94.6234H801.5V125.839H800.5ZM801 95.1111H769V94.1356H801V95.1111ZM832.5 125.839V94.6234H833.5V125.839H832.5ZM833 95.1111H801V94.1356H833V95.1111ZM864.5 125.839V94.6234H865.5V125.839H864.5ZM865 95.1111H833V94.1356H865V95.1111ZM896.5 125.839V94.6234H897.5V125.839H896.5ZM897 95.1111H865V94.1356H897V95.1111ZM928.5 125.839V94.6234H929.5V125.839H928.5ZM929 95.1111H897V94.1356H929V95.1111ZM960.5 125.839V94.6234H961.5V125.839H960.5ZM961 95.1111H929V94.1356H961V95.1111ZM992.5 125.839V94.6234H993.5V125.839H992.5ZM993 95.1111H961V94.1356H993V95.1111ZM1024.5 125.839V94.6234H1025.5V125.839H1024.5ZM1025 95.1111H993V94.1356H1025V95.1111ZM1056.5 125.839V94.6234H1057.5V125.839H1056.5ZM1057 95.1111H1025V94.1356H1057V95.1111ZM1088.5 125.839V94.6234H1089.5V125.839H1088.5ZM1089 95.1111H1057V94.1356H1089V95.1111ZM1120.5 125.839V94.6234H1121.5V125.839H1120.5ZM1121 95.1111H1089V94.1356H1121V95.1111ZM1152.5 125.839V94.6234H1153.5V125.839H1152.5ZM1153 95.1111H1121V94.1356H1153V95.1111ZM1184.5 125.839V94.6234H1185.5V125.839H1184.5ZM1185 95.1111H1153V94.1356H1185V95.1111ZM1217 95.1111H1185V94.1356H1217V95.1111ZM32.5 94.6234V63.4074H33.5V94.6234H32.5ZM33 63.8952H1V62.9197H33V63.8952ZM64.5 94.6234V63.4074H65.5V94.6234H64.5ZM65 63.8952H33V62.9197H65V63.8952ZM96.5 94.6234V63.4074H97.5V94.6234H96.5ZM97 63.8952H65V62.9197H97V63.8952ZM128.5 94.6234V63.4074H129.5V94.6234H128.5ZM129 63.8952H97V62.9197H129V63.8952ZM160.5 94.6234V63.4074H161.5V94.6234H160.5ZM161 63.8952H129V62.9197H161V63.8952ZM192.5 94.6234V63.4074H193.5V94.6234H192.5ZM193 63.8952H161V62.9197H193V63.8952ZM224.5 94.6234V63.4074H225.5V94.6234H224.5ZM225 63.8952H193V62.9197H225V63.8952ZM256.5 94.6234V63.4074H257.5V94.6234H256.5ZM257 63.8952H225V62.9197H257V63.8952ZM288.5 94.6234V63.4074H289.5V94.6234H288.5ZM289 63.8952H257V62.9197H289V63.8952ZM320.5 94.6234V63.4074H321.5V94.6234H320.5ZM321 63.8952H289V62.9197H321V63.8952ZM352.5 94.6234V63.4074H353.5V94.6234H352.5ZM353 63.8952H321V62.9197H353V63.8952ZM384.5 94.6234V63.4074H385.5V94.6234H384.5ZM385 63.8952H353V62.9197H385V63.8952ZM416.5 94.6234V63.4074H417.5V94.6234H416.5ZM417 63.8952H385V62.9197H417V63.8952ZM448.5 94.6234V63.4074H449.5V94.6234H448.5ZM449 63.8952H417V62.9197H449V63.8952ZM480.5 94.6234V63.4074H481.5V94.6234H480.5ZM481 63.8952H449V62.9197H481V63.8952ZM512.5 94.6234V63.4074H513.5V94.6234H512.5ZM513 63.8952H481V62.9197H513V63.8952ZM544.5 94.6234V63.4074H545.5V94.6234H544.5ZM545 63.8952H513V62.9197H545V63.8952ZM576.5 94.6234V63.4074H577.5V94.6234H576.5ZM577 63.8952H545V62.9197H577V63.8952ZM608.5 94.6234V63.4074H609.5V94.6234H608.5ZM609 63.8952H577V62.9197H609V63.8952ZM640.5 94.6234V63.4074H641.5V94.6234H640.5ZM641 63.8952H609V62.9197H641V63.8952ZM672.5 94.6234V63.4074H673.5V94.6234H672.5ZM673 63.8952H641V62.9197H673V63.8952ZM704.5 94.6234V63.4074H705.5V94.6234H704.5ZM705 63.8952H673V62.9197H705V63.8952ZM736.5 94.6234V63.4074H737.5V94.6234H736.5ZM737 63.8952H705V62.9197H737V63.8952ZM768.5 94.6234V63.4074H769.5V94.6234H768.5ZM769 63.8952H737V62.9197H769V63.8952ZM800.5 94.6234V63.4074H801.5V94.6234H800.5ZM801 63.8952H769V62.9197H801V63.8952ZM832.5 94.6234V63.4074H833.5V94.6234H832.5ZM833 63.8952H801V62.9197H833V63.8952ZM864.5 94.6234V63.4074H865.5V94.6234H864.5ZM865 63.8952H833V62.9197H865V63.8952ZM896.5 94.6234V63.4074H897.5V94.6234H896.5ZM897 63.8952H865V62.9197H897V63.8952ZM928.5 94.6234V63.4074H929.5V94.6234H928.5ZM929 63.8952H897V62.9197H929V63.8952ZM960.5 94.6234V63.4074H961.5V94.6234H960.5ZM961 63.8952H929V62.9197H961V63.8952ZM992.5 94.6234V63.4074H993.5V94.6234H992.5ZM993 63.8952H961V62.9197H993V63.8952ZM1024.5 94.6234V63.4074H1025.5V94.6234H1024.5ZM1025 63.8952H993V62.9197H1025V63.8952ZM1056.5 94.6234V63.4074H1057.5V94.6234H1056.5ZM1057 63.8952H1025V62.9197H1057V63.8952ZM1088.5 94.6234V63.4074H1089.5V94.6234H1088.5ZM1089 63.8952H1057V62.9197H1089V63.8952ZM1120.5 94.6234V63.4074H1121.5V94.6234H1120.5ZM1121 63.8952H1089V62.9197H1121V63.8952ZM1152.5 94.6234V63.4074H1153.5V94.6234H1152.5ZM1153 63.8952H1121V62.9197H1153V63.8952ZM1184.5 94.6234V63.4074H1185.5V94.6234H1184.5ZM1185 63.8952H1153V62.9197H1185V63.8952ZM1217 63.8952H1185V62.9197H1217V63.8952ZM32.5 63.4074V32.1915H33.5V63.4074H32.5ZM33 32.6792H1V31.7037H33V32.6792ZM64.5 63.4074V32.1915H65.5V63.4074H64.5ZM65 32.6792H33V31.7037H65V32.6792ZM96.5 63.4074V32.1915H97.5V63.4074H96.5ZM97 32.6792H65V31.7037H97V32.6792ZM128.5 63.4074V32.1915H129.5V63.4074H128.5ZM129 32.6792H97V31.7037H129V32.6792ZM160.5 63.4074V32.1915H161.5V63.4074H160.5ZM161 32.6792H129V31.7037H161V32.6792ZM192.5 63.4074V32.1915H193.5V63.4074H192.5ZM193 32.6792H161V31.7037H193V32.6792ZM224.5 63.4074V32.1915H225.5V63.4074H224.5ZM225 32.6792H193V31.7037H225V32.6792ZM256.5 63.4074V32.1915H257.5V63.4074H256.5ZM257 32.6792H225V31.7037H257V32.6792ZM288.5 63.4074V32.1915H289.5V63.4074H288.5ZM289 32.6792H257V31.7037H289V32.6792ZM320.5 63.4074V32.1915H321.5V63.4074H320.5ZM321 32.6792H289V31.7037H321V32.6792ZM352.5 63.4074V32.1915H353.5V63.4074H352.5ZM353 32.6792H321V31.7037H353V32.6792ZM384.5 63.4074V32.1915H385.5V63.4074H384.5ZM385 32.6792H353V31.7037H385V32.6792ZM416.5 63.4074V32.1915H417.5V63.4074H416.5ZM417 32.6792H385V31.7037H417V32.6792ZM448.5 63.4074V32.1915H449.5V63.4074H448.5ZM449 32.6792H417V31.7037H449V32.6792ZM480.5 63.4074V32.1915H481.5V63.4074H480.5ZM481 32.6792H449V31.7037H481V32.6792ZM512.5 63.4074V32.1915H513.5V63.4074H512.5ZM513 32.6792H481V31.7037H513V32.6792ZM544.5 63.4074V32.1915H545.5V63.4074H544.5ZM545 32.6792H513V31.7037H545V32.6792ZM576.5 63.4074V32.1915H577.5V63.4074H576.5ZM577 32.6792H545V31.7037H577V32.6792ZM608.5 63.4074V32.1915H609.5V63.4074H608.5ZM609 32.6792H577V31.7037H609V32.6792ZM640.5 63.4074V32.1915H641.5V63.4074H640.5ZM641 32.6792H609V31.7037H641V32.6792ZM672.5 63.4074V32.1915H673.5V63.4074H672.5ZM673 32.6792H641V31.7037H673V32.6792ZM704.5 63.4074V32.1915H705.5V63.4074H704.5ZM705 32.6792H673V31.7037H705V32.6792ZM736.5 63.4074V32.1915H737.5V63.4074H736.5ZM737 32.6792H705V31.7037H737V32.6792ZM768.5 63.4074V32.1915H769.5V63.4074H768.5ZM769 32.6792H737V31.7037H769V32.6792ZM800.5 63.4074V32.1915H801.5V63.4074H800.5ZM801 32.6792H769V31.7037H801V32.6792ZM832.5 63.4074V32.1915H833.5V63.4074H832.5ZM833 32.6792H801V31.7037H833V32.6792ZM864.5 63.4074V32.1915H865.5V63.4074H864.5ZM865 32.6792H833V31.7037H865V32.6792ZM896.5 63.4074V32.1915H897.5V63.4074H896.5ZM897 32.6792H865V31.7037H897V32.6792ZM928.5 63.4074V32.1915H929.5V63.4074H928.5ZM929 32.6792H897V31.7037H929V32.6792ZM960.5 63.4074V32.1915H961.5V63.4074H960.5ZM961 32.6792H929V31.7037H961V32.6792ZM992.5 63.4074V32.1915H993.5V63.4074H992.5ZM993 32.6792H961V31.7037H993V32.6792ZM1024.5 63.4074V32.1915H1025.5V63.4074H1024.5ZM1025 32.6792H993V31.7037H1025V32.6792ZM1056.5 63.4074V32.1915H1057.5V63.4074H1056.5ZM1057 32.6792H1025V31.7037H1057V32.6792ZM1088.5 63.4074V32.1915H1089.5V63.4074H1088.5ZM1089 32.6792H1057V31.7037H1089V32.6792ZM1120.5 63.4074V32.1915H1121.5V63.4074H1120.5ZM1121 32.6792H1089V31.7037H1121V32.6792ZM1152.5 63.4074V32.1915H1153.5V63.4074H1152.5ZM1153 32.6792H1121V31.7037H1153V32.6792ZM1184.5 63.4074V32.1915H1185.5V63.4074H1184.5ZM1185 32.6792H1153V31.7037H1185V32.6792ZM1217 32.6792H1185V31.7037H1217V32.6792ZM32.5 32.1915V0.975499H33.5V32.1915H32.5ZM64.5 32.1915V0.975499H65.5V32.1915H64.5ZM96.5 32.1915V0.975499H97.5V32.1915H96.5ZM128.5 32.1915V0.975499H129.5V32.1915H128.5ZM160.5 32.1915V0.975499H161.5V32.1915H160.5ZM192.5 32.1915V0.975499H193.5V32.1915H192.5ZM224.5 32.1915V0.975499H225.5V32.1915H224.5ZM256.5 32.1915V0.975499H257.5V32.1915H256.5ZM288.5 32.1915V0.975499H289.5V32.1915H288.5ZM320.5 32.1915V0.975499H321.5V32.1915H320.5ZM352.5 32.1915V0.975499H353.5V32.1915H352.5ZM384.5 32.1915V0.975499H385.5V32.1915H384.5ZM416.5 32.1915V0.975499H417.5V32.1915H416.5ZM448.5 32.1915V0.975499H449.5V32.1915H448.5ZM480.5 32.1915V0.975499H481.5V32.1915H480.5ZM512.5 32.1915V0.975499H513.5V32.1915H512.5ZM544.5 32.1915V0.975499H545.5V32.1915H544.5ZM576.5 32.1915V0.975499H577.5V32.1915H576.5ZM608.5 32.1915V0.975499H609.5V32.1915H608.5ZM640.5 32.1915V0.975499H641.5V32.1915H640.5ZM672.5 32.1915V0.975499H673.5V32.1915H672.5ZM704.5 32.1915V0.975499H705.5V32.1915H704.5ZM736.5 32.1915V0.975499H737.5V32.1915H736.5ZM768.5 32.1915V0.975499H769.5V32.1915H768.5ZM800.5 32.1915V0.975499H801.5V32.1915H800.5ZM832.5 32.1915V0.975499H833.5V32.1915H832.5ZM864.5 32.1915V0.975499H865.5V32.1915H864.5ZM896.5 32.1915V0.975499H897.5V32.1915H896.5ZM928.5 32.1915V0.975499H929.5V32.1915H928.5ZM960.5 32.1915V0.975499H961.5V32.1915H960.5ZM992.5 32.1915V0.975499H993.5V32.1915H992.5ZM1024.5 32.1915V0.975499H1025.5V32.1915H1024.5ZM1056.5 32.1915V0.975499H1057.5V32.1915H1056.5ZM1088.5 32.1915V0.975499H1089.5V32.1915H1088.5ZM1120.5 32.1915V0.975499H1121.5V32.1915H1120.5ZM1152.5 32.1915V0.975499H1153.5V32.1915H1152.5ZM1184.5 32.1915V0.975499H1185.5V32.1915H1184.5ZM1 500.431V501.406H0V500.431H1ZM1217 500.431H1218V501.406H1217V500.431ZM1 0.975499H0V0H1V0.975499ZM1217 0.975499V0H1218V0.975499H1217ZM1 499.455H33V501.406H1V499.455ZM2 469.215V500.431H0V469.215H2ZM33 499.455H65V501.406H33V499.455ZM65 499.455H97V501.406H65V499.455ZM97 499.455H129V501.406H97V499.455ZM129 499.455H161V501.406H129V499.455ZM161 499.455H193V501.406H161V499.455ZM193 499.455H225V501.406H193V499.455ZM225 499.455H257V501.406H225V499.455ZM257 499.455H289V501.406H257V499.455ZM289 499.455H321V501.406H289V499.455ZM321 499.455H353V501.406H321V499.455ZM353 499.455H385V501.406H353V499.455ZM385 499.455H417V501.406H385V499.455ZM417 499.455H449V501.406H417V499.455ZM449 499.455H481V501.406H449V499.455ZM481 499.455H513V501.406H481V499.455ZM513 499.455H545V501.406H513V499.455ZM545 499.455H577V501.406H545V499.455ZM577 499.455H609V501.406H577V499.455ZM609 499.455H641V501.406H609V499.455ZM641 499.455H673V501.406H641V499.455ZM673 499.455H705V501.406H673V499.455ZM705 499.455H737V501.406H705V499.455ZM737 499.455H769V501.406H737V499.455ZM769 499.455H801V501.406H769V499.455ZM801 499.455H833V501.406H801V499.455ZM833 499.455H865V501.406H833V499.455ZM865 499.455H897V501.406H865V499.455ZM897 499.455H929V501.406H897V499.455ZM929 499.455H961V501.406H929V499.455ZM961 499.455H993V501.406H961V499.455ZM993 499.455H1025V501.406H993V499.455ZM1025 499.455H1057V501.406H1025V499.455ZM1057 499.455H1089V501.406H1057V499.455ZM1089 499.455H1121V501.406H1089V499.455ZM1121 499.455H1153V501.406H1121V499.455ZM1153 499.455H1185V501.406H1153V499.455ZM1185 499.455H1217V501.406H1185V499.455ZM1216 500.431V469.215H1218V500.431H1216ZM2 437.999V469.215H0V437.999H2ZM1216 469.215V437.999H1218V469.215H1216ZM2 406.783V437.999H0V406.783H2ZM1216 437.999V406.783H1218V437.999H1216ZM2 375.567V406.783H0V375.567H2ZM1216 406.783V375.567H1218V406.783H1216ZM2 344.351V375.567H0V344.351H2ZM1216 375.567V344.351H1218V375.567H1216ZM2 313.135V344.351H0V313.135H2ZM1216 344.351V313.135H1218V344.351H1216ZM2 281.919V313.135H0V281.919H2ZM1216 313.135V281.919H1218V313.135H1216ZM2 250.703V281.919H0V250.703H2ZM1216 281.919V250.703H1218V281.919H1216ZM2 219.487V250.703H0V219.487H2ZM1216 250.703V219.487H1218V250.703H1216ZM2 188.271V219.487H0V188.271H2ZM1216 219.487V188.271H1218V219.487H1216ZM2 157.055V188.271H0V157.055H2ZM1216 188.271V157.055H1218V188.271H1216ZM2 125.839V157.055H0V125.839H2ZM1216 157.055V125.839H1218V157.055H1216ZM2 94.6234V125.839H0V94.6234H2ZM1216 125.839V94.6234H1218V125.839H1216ZM2 63.4074V94.6234H0V63.4074H2ZM1216 94.6234V63.4074H1218V94.6234H1216ZM2 32.1915V63.4074H0V32.1915H2ZM1216 63.4074V32.1915H1218V63.4074H1216ZM33 1.951H1V0H33V1.951ZM2 0.975499V32.1915H0V0.975499H2ZM65 1.951H33V0H65V1.951ZM97 1.951H65V0H97V1.951ZM129 1.951H97V0H129V1.951ZM161 1.951H129V0H161V1.951ZM193 1.951H161V0H193V1.951ZM225 1.951H193V0H225V1.951ZM257 1.951H225V0H257V1.951ZM289 1.951H257V0H289V1.951ZM321 1.951H289V0H321V1.951ZM353 1.951H321V0H353V1.951ZM385 1.951H353V0H385V1.951ZM417 1.951H385V0H417V1.951ZM449 1.951H417V0H449V1.951ZM481 1.951H449V0H481V1.951ZM513 1.951H481V0H513V1.951ZM545 1.951H513V0H545V1.951ZM577 1.951H545V0H577V1.951ZM609 1.951H577V0H609V1.951ZM641 1.951H609V0H641V1.951ZM673 1.951H641V0H673V1.951ZM705 1.951H673V0H705V1.951ZM737 1.951H705V0H737V1.951ZM769 1.951H737V0H769V1.951ZM801 1.951H769V0H801V1.951ZM833 1.951H801V0H833V1.951ZM865 1.951H833V0H865V1.951ZM897 1.951H865V0H897V1.951ZM929 1.951H897V0H929V1.951ZM961 1.951H929V0H961V1.951ZM993 1.951H961V0H993V1.951ZM1025 1.951H993V0H1025V1.951ZM1057 1.951H1025V0H1057V1.951ZM1089 1.951H1057V0H1089V1.951ZM1121 1.951H1089V0H1121V1.951ZM1153 1.951H1121V0H1153V1.951ZM1185 1.951H1153V0H1185V1.951ZM1216 32.1915V0.975499H1218V32.1915H1216ZM1217 1.951H1185V0H1217V1.951Z" fill="url(#paint0_radial_11531_13152)" fill-opacity="0.24"/>
<defs>
<radialGradient id="paint0_radial_11531_13152" cx="0" cy="0" r="1" gradientUnits="userSpaceOnUse" gradientTransform="translate(609 510.674) rotate(-90) scale(372.153 906.062)">
<stop stop-color="white"/>
<stop offset="1" stop-color="white" stop-opacity="0"/>
</radialGradient>
</defs>
</svg>
