<svg width="712" height="117" viewBox="0 0 712 117" fill="none" xmlns="http://www.w3.org/2000/svg">
<path d="M561.722 0.5C562.201 0.497829 562.784 0.859747 563.494 1.62988C564.182 2.37618 564.879 3.38182 565.603 4.42773C566.315 5.45669 567.054 6.52671 567.799 7.33496C568.522 8.11924 569.367 8.79131 570.311 8.78711C571.164 8.78338 571.97 8.4122 572.71 7.92578C573.451 7.43817 574.184 6.79493 574.883 6.18164C575.594 5.55722 576.272 4.9628 576.943 4.52051C577.617 4.07693 578.226 3.82581 578.794 3.82324C580.181 3.81698 581.576 3.96884 582.992 4.15918C584.397 4.34803 585.841 4.57806 587.272 4.7168C588.706 4.85636 590.147 4.91922 591.554 5.00977C592.792 5.08947 594.018 5.19123 595.238 5.38379L595.762 5.47168C597.13 5.71765 598.497 6.277 599.95 6.80371C601.374 7.32001 602.872 7.8006 604.389 7.79395C606.504 7.78426 608.616 7.18094 610.661 6.54199L612.683 5.91113C614.154 5.47004 615.631 4.64133 617.006 3.96973C618.418 3.27987 619.742 2.74317 621.037 2.7373C623.928 2.72426 626.829 3.40269 629.79 4.20801H629.791C631.159 4.57926 632.52 5.34147 633.983 6.05957C635.407 6.75832 636.924 7.412 638.473 7.40527C639.314 7.40144 640.115 7.06384 640.856 6.61621C641.598 6.16829 642.332 5.57722 643.031 5.01367C643.743 4.44006 644.422 3.89386 645.095 3.4873C645.768 3.0804 646.384 2.84637 646.963 2.84375C646.981 2.84372 647.048 2.85045 647.172 2.95508C647.297 3.06068 647.445 3.23679 647.61 3.49707C647.941 4.01703 648.289 4.78515 648.648 5.74512C649.365 7.66002 650.09 10.2235 650.823 12.8164C651.552 15.3953 652.29 18.0045 653.024 19.9668C653.391 20.9453 653.767 21.7919 654.155 22.4014C654.349 22.7057 654.56 22.9738 654.792 23.1699C655.025 23.3663 655.314 23.519 655.65 23.5176C656.598 23.5133 657.434 22.8167 658.143 22.0117C658.874 21.1808 659.595 20.0833 660.291 19.0273C660.998 17.954 661.68 16.922 662.355 16.1543C663.054 15.3608 663.629 14.9896 664.101 14.9873C664.678 14.9847 665.297 15.2199 665.979 15.6328C666.658 16.045 667.346 16.6001 668.067 17.1836C668.776 17.757 669.519 18.3586 670.267 18.8125C671.013 19.2657 671.819 19.6063 672.663 19.6025C673.473 19.599 674.256 19.3481 674.997 19.0029C675.736 18.6584 676.469 18.2026 677.17 17.7676C677.882 17.3258 678.562 16.9045 679.237 16.5898C679.911 16.2759 680.544 16.0858 681.153 16.083C682.482 16.077 683.836 16.4741 685.249 16.9961C686.632 17.507 688.111 18.1549 689.559 18.5605C692.466 19.3754 695.232 19.9438 698.085 20.8486C699.483 21.2922 700.877 21.9162 702.316 22.5205C703.741 23.1186 705.204 23.6935 706.679 23.9951H706.68C708.876 24.4391 710.547 26.1834 710.547 28.3311V88C710.547 103.74 697.787 116.5 682.047 116.5H29.5664C26.2997 116.5 23.0569 115.939 19.9805 114.84L17.7168 114.031L17.6328 113.997C16.061 113.368 14.5479 112.601 13.1123 111.704L11.3389 110.596C9.72304 109.301 8.29258 107.79 7.08887 106.104L6.4502 105.209L6.44336 105.2L6.24316 104.934C2.5417 99.9983 0.499368 94.0115 0.5 87.8477C0.500743 81.021 0.604688 72.017 1.12695 64.1318C1.21548 62.7952 1.35833 61.8224 1.55176 61.1328C1.74774 60.4342 1.9769 60.0965 2.18359 59.9404C2.36509 59.8035 2.60368 59.7518 2.99316 59.8369C3.39795 59.9253 3.89667 60.1473 4.52148 60.4805C6.97931 61.7911 10.8977 64.5683 16.4678 64.543C17.0513 64.5403 17.6722 64.7624 18.3438 65.1729C19.0145 65.5828 19.7003 66.1582 20.4082 66.8145C21.1304 67.484 21.8089 68.172 22.5498 68.873C23.2694 69.554 24.0088 70.2085 24.7588 70.71H24.7598C25.4846 71.1933 26.2152 71.7675 26.96 72.3672C27.6989 72.9622 28.4558 73.5855 29.2109 74.1445C30.7038 75.2498 32.3077 76.1989 33.9658 76.1914C34.833 76.1874 35.6458 75.7695 36.3818 75.2324C37.1219 74.6923 37.8527 73.9793 38.5508 73.2998C39.2619 72.6077 39.9405 71.9482 40.6123 71.458C41.2879 70.9651 41.8898 70.6941 42.4424 70.6914C44.9144 70.6801 47.3873 70.7703 49.8604 70.9629L50.9199 71.0518C52.2304 71.1684 53.5641 71.8355 55.0205 72.5361C56.4277 73.2131 57.9573 73.9238 59.5117 73.917C61.1165 73.9096 62.6542 72.9025 64.0498 71.8779C65.4156 70.8752 66.6715 69.8378 67.9238 69.2822L68.1748 69.1777C70.9837 68.0809 73.751 67.2957 76.501 67.2832C77.0517 67.2808 77.6577 67.5519 78.3428 68.0527C79.0231 68.5502 79.7127 69.2208 80.4346 69.9248C81.1433 70.616 81.8849 71.3413 82.6328 71.8887C83.3756 72.4322 84.1955 72.8555 85.0664 72.8516C87.9976 72.8382 90.8916 72.0677 93.7568 70.915V70.916C95.2324 70.3235 96.689 69.3511 98.0918 68.4131C99.3375 67.5801 100.542 66.7726 101.737 66.2051L102.25 65.9775C103.596 65.4183 104.948 65.2446 106.384 65.0342C107.803 64.8262 109.292 64.5828 110.784 63.8447C111.57 63.4566 112.323 62.798 113.04 62.0498C113.76 61.298 114.477 60.4193 115.177 59.5674C115.882 58.7079 116.571 57.8745 117.257 57.1797C117.947 56.4807 118.599 55.9581 119.218 55.6895L119.217 55.6885C121.872 54.5382 124.524 53.9619 127.172 53.9502C128.546 53.9439 129.944 54.4414 131.447 54.9834C132.912 55.5116 134.482 56.0841 136.066 56.0771C136.574 56.0748 137.035 55.8469 137.437 55.5303C137.839 55.213 138.222 54.7768 138.586 54.2842C139.312 53.3004 140.029 51.9999 140.724 50.7412C141.428 49.4643 142.112 48.2292 142.79 47.3096C143.128 46.8508 143.449 46.493 143.752 46.2539C144.056 46.0143 144.304 45.9229 144.506 45.9219C145.746 45.9162 147.056 46.6271 148.468 47.7686C149.874 48.9059 151.272 50.375 152.727 51.7764C154.114 53.1116 155.515 55.2513 156.97 57.3535C157.688 58.3917 158.417 59.4136 159.149 60.29C159.787 61.0534 160.445 61.7292 161.123 62.2109L161.415 62.4053C164.34 64.2174 167.273 65.1316 170.229 65.1182C171.074 65.1143 171.876 64.7683 172.619 64.2979C173.363 63.8265 174.096 63.1988 174.8 62.5752C175.515 61.9417 176.2 61.314 176.886 60.7949C177.573 60.275 178.215 59.9004 178.826 59.748H178.827C180.194 59.4062 181.568 59.3146 182.994 59.2207C184.407 59.1277 185.871 59.0328 187.339 58.667H187.34C188.201 58.4516 188.992 57.7725 189.705 56.9922C190.43 56.1992 191.151 55.213 191.846 54.2842C192.552 53.3409 193.232 52.4559 193.903 51.8047C194.589 51.1402 195.173 50.8119 195.679 50.8096C196.223 50.8073 196.826 51.0851 197.513 51.6025C198.193 52.1156 198.883 52.8074 199.605 53.5332C200.315 54.2459 201.056 54.9934 201.805 55.5576C202.547 56.1173 203.37 56.5554 204.245 56.5518H204.246C205.817 56.5445 207.347 55.7188 208.729 54.9834C210.174 54.2152 211.471 53.5371 212.743 53.5312C213.293 53.5287 213.9 53.8014 214.585 54.3047C215.265 54.8042 215.954 55.4777 216.676 56.1846C217.384 56.8787 218.126 57.6066 218.874 58.1562C219.617 58.7021 220.437 59.1278 221.309 59.124C224.182 59.1109 227.038 58.8646 229.894 58.4561C232.584 58.07 235.38 57.8162 238.16 56.748C239.688 56.1597 241.198 55.2345 242.67 54.2871C244.157 53.3296 245.601 52.3528 247.047 51.6055C247.771 51.231 248.492 50.7974 249.198 50.3662C249.91 49.9322 250.605 49.5015 251.301 49.1152C252.699 48.3384 254.022 47.7881 255.31 47.7822C255.915 47.7796 256.549 47.9707 257.228 48.292C257.908 48.614 258.595 49.0476 259.314 49.502C260.022 49.9492 260.763 50.4177 261.508 50.7705C262.254 51.1239 263.044 51.3805 263.859 51.377C265.319 51.3703 266.771 51.1653 268.184 50.9668C269.608 50.7666 270.993 50.5727 272.374 50.5664C272.931 50.5639 273.54 50.8281 274.224 51.3096C274.904 51.7882 275.592 52.4337 276.313 53.1113C277.022 53.7767 277.764 54.474 278.512 55.001C279.255 55.5251 280.073 55.9306 280.938 55.9268C283.778 55.9138 286.692 55.6209 289.471 55.5254C290.887 55.4768 292.302 55.4583 293.723 55.4385C295.141 55.4187 296.566 55.3973 297.992 55.3428C299.479 55.2858 300.946 54.9199 302.368 54.5137C303.808 54.1023 305.187 53.6558 306.578 53.3945C309.456 52.8532 312.219 52.1572 314.999 52.1445C315.593 52.1419 316.222 52.35 316.9 52.7051C317.58 53.0606 318.267 53.5394 318.987 54.042C319.695 54.5363 320.436 55.0548 321.183 55.4453C321.93 55.8362 322.726 56.1229 323.552 56.1191C324.978 56.1126 326.402 56.0775 327.821 56.042C329.242 56.0065 330.658 55.9713 332.072 55.9648C333.455 55.9586 334.844 56.1296 336.271 56.3057C337.688 56.4804 339.141 56.66 340.599 56.6533C343.445 56.6404 346.281 56.6202 349.122 56.5908C350.616 56.5751 352.088 56.2155 353.509 55.8164C354.769 55.4623 355.978 55.0813 357.187 54.8398L357.704 54.7461C360.441 54.2983 363.11 53.8306 365.79 53.8184C367.195 53.812 368.615 54.1688 370.109 54.5469C371.58 54.9187 373.125 55.3125 374.679 55.3057C377.543 55.2926 380.405 55.076 383.265 54.6572C384.77 54.4369 386.261 53.7092 387.646 53.085C389.071 52.4429 390.395 51.9034 391.694 51.8975C392.961 51.8917 394.267 52.5844 395.727 53.374C397.12 54.1278 398.666 54.9788 400.239 54.9717C403.13 54.959 406.014 54.5192 408.893 53.6533C409.729 53.4017 410.509 52.7663 411.226 52.0381C411.949 51.3028 412.671 50.4059 413.365 49.5684C414.07 48.7176 414.749 47.9263 415.418 47.3467C416.096 46.7595 416.687 46.4584 417.214 46.4561C417.76 46.4536 418.364 46.7313 419.05 47.251C419.73 47.7663 420.42 48.4647 421.141 49.2021C421.849 49.9267 422.588 50.6908 423.332 51.2822C424.07 51.8686 424.882 52.3436 425.746 52.4033C428.249 52.5771 430.742 52.6699 433.237 52.6816H434.307C435.119 52.6781 435.904 52.4244 436.646 52.0762C437.385 51.7287 438.118 51.2697 438.819 50.8311C439.531 50.3855 440.212 49.9599 440.888 49.6426C441.562 49.3262 442.195 49.1346 442.806 49.1318C445.583 49.1192 448.369 49.6195 451.166 50.6328H451.167C452.532 51.1268 453.915 51.9781 455.351 52.877C456.765 53.7628 458.235 54.6966 459.711 55.2803H459.712C461.186 55.8628 462.651 56.1537 464.073 56.418C465.507 56.6843 466.889 56.9228 468.272 57.3916C469.638 57.8546 470.997 58.7383 472.466 59.5664C473.89 60.369 475.42 61.1175 476.986 61.1104C479.895 61.0971 482.784 60.5466 485.668 59.4639C486.45 59.1705 487.204 58.6617 487.924 58.0947C488.642 57.5292 489.366 56.8703 490.057 56.2734C490.759 55.6664 491.436 55.1148 492.103 54.7139C492.77 54.3126 493.387 54.0876 493.97 54.085C494.587 54.0822 495.228 54.2589 495.908 54.5527C496.59 54.8475 497.278 55.245 497.996 55.6602C498.704 56.0692 499.442 56.4964 500.186 56.8184C500.93 57.141 501.713 57.3728 502.519 57.3691C502.854 57.3676 503.141 57.2147 503.372 57.0176C503.602 56.8212 503.81 56.5539 504 56.251C504.38 55.6448 504.744 54.8051 505.095 53.8359C505.623 52.3779 506.147 50.5607 506.666 48.667L507.701 44.8486C508.218 42.9642 508.731 41.1825 509.246 39.7607C509.59 38.8105 509.924 38.0501 510.246 37.5352C510.407 37.2774 510.552 37.1037 510.675 36.999C510.796 36.8952 510.863 36.8868 510.883 36.8867C512.243 36.8805 513.616 37.1497 515.048 37.4326C516.461 37.7119 517.934 38.0048 519.412 37.998C522.331 37.9847 525.23 37.3463 528.118 36.0947H528.119C528.978 35.7215 529.75 34.8021 530.456 33.6787C531.177 32.5323 531.887 31.0754 532.587 29.502C533.914 26.5179 535.194 23.1459 536.497 20.4209L536.758 19.8848C538.172 17.039 539.58 12.6456 540.955 8.99902C541.65 7.15682 542.336 5.50242 543.017 4.28418C543.357 3.67492 543.686 3.1952 543.999 2.85938C544.278 2.56042 544.512 2.41007 544.7 2.35449L544.778 2.33691C546.17 2.09805 547.567 1.9883 548.982 1.90039C550.39 1.81297 551.826 1.74656 553.257 1.5918C554.698 1.4357 556.143 1.16042 557.545 0.929688C558.958 0.69703 560.344 0.506223 561.722 0.5Z" fill="url(#paint0_linear_11524_18697)" stroke="url(#paint1_linear_11524_18697)"/>
<defs>
<linearGradient id="paint0_linear_11524_18697" x1="721.632" y1="-88.9095" x2="230.399" y2="234.659" gradientUnits="userSpaceOnUse">
<stop stop-color="#16895A" stop-opacity="0.1"/>
<stop offset="0.8" stop-color="#16895A" stop-opacity="0"/>
</linearGradient>
<linearGradient id="paint1_linear_11524_18697" x1="-0.953125" y1="58.5" x2="711.047" y2="58.5" gradientUnits="userSpaceOnUse">
<stop stop-color="#16895A"/>
<stop offset="1" stop-color="#16895A"/>
</linearGradient>
</defs>
</svg>
