<svg width="120" height="20" viewBox="0 0 120 20" fill="none" xmlns="http://www.w3.org/2000/svg">
<path d="M0 0H20V20H0V0Z" fill="#00B67A"/>
<path d="M25 0H45V20H25V0Z" fill="#00B67A"/>
<path d="M50 0H70V20H50V0Z" fill="#00B67A"/>
<path d="M75 0H95V20H75V0Z" fill="#00B67A"/>
<path d="M100 0H120V20H100V0Z" fill="#00B67A"/>
<path d="M5.12539 15.8763L6.27643 10.9003L2.41602 7.55339L7.51602 7.11068L9.49935 2.41797L11.4827 7.11068L16.5827 7.55339L12.7223 10.9003L13.8733 15.8763L9.49935 13.2378L5.12539 15.8763Z" fill="white"/>
<path d="M30.1254 15.8763L31.2764 10.9003L27.416 7.55339L32.516 7.11068L34.4993 2.41797L36.4827 7.11068L41.5827 7.55339L37.7223 10.9003L38.8733 15.8763L34.4993 13.2378L30.1254 15.8763Z" fill="white"/>
<path d="M55.1254 15.8763L56.2764 10.9003L52.416 7.55339L57.516 7.11068L59.4993 2.41797L61.4827 7.11068L66.5827 7.55339L62.7223 10.9003L63.8733 15.8763L59.4993 13.2378L55.1254 15.8763Z" fill="white"/>
<path d="M80.1254 15.8763L81.2764 10.9003L77.416 7.55339L82.516 7.11068L84.4993 2.41797L86.4827 7.11068L91.5827 7.55339L87.7223 10.9003L88.8733 15.8763L84.4993 13.2378L80.1254 15.8763Z" fill="white"/>
<path d="M105.125 15.8763L106.276 10.9003L102.416 7.55339L107.516 7.11068L109.499 2.41797L111.483 7.11068L116.583 7.55339L112.722 10.9003L113.873 15.8763L109.499 13.2378L105.125 15.8763Z" fill="white"/>
</svg>
