<svg width="18" height="18" viewBox="0 0 18 18" fill="none" xmlns="http://www.w3.org/2000/svg">
<path d="M16.5596 13.6779C16.5596 13.9629 16.4962 14.2558 16.3617 14.5408C16.2271 14.8258 16.0529 15.095 15.8233 15.3483C15.4354 15.7758 15.0079 16.0846 14.525 16.2825C14.05 16.4804 13.5354 16.5833 12.9813 16.5833C12.1738 16.5833 11.3108 16.3933 10.4004 16.0054C9.49 15.6175 8.57958 15.095 7.67708 14.4379C6.76667 13.7729 5.90375 13.0367 5.08042 12.2212C4.265 11.3979 3.52875 10.535 2.87167 9.6325C2.2225 8.73 1.7 7.8275 1.32 6.93292C0.94 6.03042 0.75 5.1675 0.75 4.34417C0.75 3.80583 0.845 3.29125 1.035 2.81625C1.225 2.33333 1.52583 1.89 1.94542 1.49417C2.45208 0.995417 3.00625 0.75 3.59208 0.75C3.81375 0.75 4.03542 0.7975 4.23333 0.8925C4.43917 0.9875 4.62125 1.13 4.76375 1.33583L6.60042 3.92458C6.74292 4.1225 6.84583 4.30458 6.91708 4.47875C6.98833 4.645 7.02792 4.81125 7.02792 4.96167C7.02792 5.15167 6.9725 5.34167 6.86167 5.52375C6.75875 5.70583 6.60833 5.89583 6.41833 6.08583L5.81667 6.71125C5.72958 6.79833 5.69 6.90125 5.69 7.02792C5.69 7.09125 5.69792 7.14667 5.71375 7.21C5.7375 7.27333 5.76125 7.32083 5.77708 7.36833C5.91958 7.62958 6.165 7.97 6.51333 8.38167C6.86958 8.79333 7.24958 9.21292 7.66125 9.6325C8.08875 10.0521 8.50042 10.44 8.92 10.7962C9.33167 11.1446 9.67208 11.3821 9.94125 11.5246C9.98083 11.5404 10.0283 11.5642 10.0838 11.5879C10.1471 11.6117 10.2104 11.6196 10.2817 11.6196C10.4163 11.6196 10.5192 11.5721 10.6063 11.485L11.2079 10.8912C11.4058 10.6933 11.5958 10.5429 11.7779 10.4479C11.96 10.3371 12.1421 10.2817 12.34 10.2817C12.4904 10.2817 12.6488 10.3133 12.8229 10.3846C12.9971 10.4558 13.1792 10.5587 13.3771 10.6933L15.9975 12.5537C16.2033 12.6962 16.3458 12.8625 16.4329 13.0604C16.5121 13.2583 16.5596 13.4562 16.5596 13.6779Z" stroke="#4F4F4F" stroke-width="1.5" stroke-miterlimit="10"/>
</svg>
