<svg width="20" height="20" viewBox="0 0 20 20" fill="none" xmlns="http://www.w3.org/2000/svg">
<path fill-rule="evenodd" clip-rule="evenodd" d="M2.5 5C2.5 3.61929 3.61929 2.5 5 2.5H15C16.3807 2.5 17.5 3.61929 17.5 5V15C17.5 16.3807 16.3807 17.5 15 17.5H5C3.61929 17.5 2.5 16.3807 2.5 15V5ZM10.5771 6.59579C10.3636 6.08248 9.63642 6.08248 9.42293 6.59579L8.87919 7.90308C8.78919 8.11948 8.58568 8.26733 8.35206 8.28606L6.94073 8.39921C6.38657 8.44364 6.16186 9.1352 6.58408 9.49687L7.65936 10.418C7.83736 10.5704 7.91509 10.8097 7.86071 11.0376L7.53219 12.4149C7.4032 12.9556 7.99148 13.383 8.46592 13.0933L9.67422 12.3552C9.87423 12.2331 10.1258 12.2331 10.3258 12.3552L11.5341 13.0933C12.0085 13.383 12.5968 12.9556 12.4678 12.4149L12.1393 11.0376C12.0849 10.8097 12.1626 10.5704 12.3406 10.418L13.4159 9.49687C13.8381 9.1352 13.6134 8.44364 13.0593 8.39921L11.6479 8.28606C11.4143 8.26733 11.2108 8.11948 11.1208 7.90308L10.5771 6.59579Z" fill="#16895A"/>
</svg>
