<svg width="48" height="48" viewBox="0 0 48 48" fill="none" xmlns="http://www.w3.org/2000/svg">
<path fill-rule="evenodd" clip-rule="evenodd" d="M21.9291 34C21.4439 37.3923 18.5265 40 15 40C11.4124 40 8.45514 37.3011 8.04786 33.8229C5.71845 33.2121 4 31.0924 4 28.5714V21.2111C4 20.0266 4.35063 18.8685 5.0077 17.8829L7.14843 14.6718C8.26123 13.0026 10.1346 12 12.1407 12H16.3414C17.1651 9.66962 19.3876 8 22 8H38C41.3137 8 44 10.6863 44 14V30C44 32.2091 42.2091 34 40 34C39.9763 34 39.9527 33.9998 39.9292 33.9994C39.4442 37.392 36.5267 40 33 40C29.4735 40 26.5561 37.3923 26.0709 34H21.9291ZM16 16H12.1407C11.472 16 10.8476 16.3342 10.4766 16.8906L8.3359 20.1017C8.11688 20.4302 8 20.8163 8 21.2111V28.5714C8 29.1173 8.30616 29.5917 8.75614 29.8322C9.91221 27.558 12.2742 26 15 26C15.3395 26 15.6734 26.0242 16 26.0709V16ZM33 30C31.3431 30 30 31.3431 30 33C30 34.6569 31.3431 36 33 36C34.6569 36 36 34.6569 36 33C36 31.3431 34.6569 30 33 30ZM12 33C12 31.3431 13.3431 30 15 30C16.6569 30 18 31.3431 18 33C18 34.6569 16.6569 36 15 36C13.3431 36 12 34.6569 12 33Z" fill="#225AEA" fill-opacity="0.2"/>
</svg>
