<svg width="40" height="41" viewBox="0 0 40 41" fill="none" xmlns="http://www.w3.org/2000/svg">
<path fill-rule="evenodd" clip-rule="evenodd" d="M0 20.528C0 9.32557 8.76779 0.244141 19.5833 0.244141C30.399 0.244141 39.1667 9.32557 39.1667 20.528C39.1667 31.7303 30.399 40.8118 19.5833 40.8118C8.76779 40.8118 0 31.7303 0 20.528ZM19.5833 7.34348C20.6649 7.34348 21.5417 8.25162 21.5417 9.37182V10.6369C23.1163 11.0495 24.5056 11.9572 25.4111 13.2543C26.0449 14.162 25.8481 15.4301 24.9716 16.0865C24.0952 16.7429 22.871 16.5391 22.2373 15.6314C21.8118 15.0219 20.863 14.4428 19.5833 14.4428H19.0394C17.2871 14.4428 16.6458 15.5481 16.6458 16.0204V16.1753C16.6458 16.5754 16.9379 17.2473 17.9237 17.6558L22.6975 19.6336C24.7869 20.4992 26.4376 22.4318 26.4376 24.8807C26.4376 27.8686 24.1326 29.8878 21.5417 30.4854V31.6841C21.5417 32.8042 20.6649 33.7124 19.5833 33.7124C18.5017 33.7124 17.6251 32.8042 17.6251 31.6841V30.419C16.0504 30.0064 14.6611 29.0988 13.7555 27.8017C13.1218 26.8939 13.3186 25.6258 14.195 24.9694C15.0714 24.313 16.2957 24.5168 16.9295 25.4245C17.3549 26.034 18.3037 26.6131 19.5833 26.6131H19.9405C21.796 26.6131 22.5208 25.4384 22.5208 24.8807C22.5208 24.4805 22.2288 23.8086 21.2429 23.4001L16.4691 21.4223C14.3797 20.5567 12.7292 18.6242 12.7292 16.1753V16.0204C12.7292 13.0509 15.0584 11.0737 17.6251 10.5348V9.37182C17.6251 8.25162 18.5017 7.34348 19.5833 7.34348Z" fill="#16895A" fill-opacity="0.2"/>
</svg>
