<svg width="48" height="48" viewBox="0 0 48 48" fill="none" xmlns="http://www.w3.org/2000/svg">
<path fill-rule="evenodd" clip-rule="evenodd" d="M9.2 8.4C10.3331 6.88916 12.1115 6 14 6H34C35.8885 6 37.6669 6.88916 38.8 8.4L43.6 14.8C43.8596 15.1462 44 15.5673 44 16V18C44 20.0288 43.243 21.8826 42 23.2915V36C42 39.3137 39.3137 42 36 42H12C8.68629 42 6 39.3137 6 36V23.2915C4.75703 21.8826 4 20.0288 4 18V16C4 15.5673 4.14036 15.1462 4.4 14.8L9.2 8.4ZM10 25.7475V36C10 37.1046 10.8954 38 12 38H18V34C18 30.6863 20.6863 28 24 28C27.3137 28 30 30.6863 30 34V38H36C37.1046 38 38 37.1046 38 36V25.7475C37.3605 25.9123 36.6902 26 36 26C33.6106 26 31.4659 24.9525 30 23.2916C28.5341 24.9525 26.3894 26 24 26C21.6106 26 19.4659 24.9525 18 23.2916C16.5341 24.9525 14.3894 26 12 26C11.3098 26 10.6395 25.9123 10 25.7475Z" fill="#225AEA" fill-opacity="0.2"/>
</svg>
