<svg width="962" height="126" viewBox="0 0 962 126" fill="none" xmlns="http://www.w3.org/2000/svg">
<mask id="mask0_9582_3600" style="mask-type:luminance" maskUnits="userSpaceOnUse" x="0" y="0" width="1020" height="229">
<path d="M1018.69 0.00141335L0.369019 6.23242L1.67578 228.001L1020 221.77L1018.69 0.00141335Z" fill="white"/>
</mask>
<g mask="url(#mask0_9582_3600)">
<path d="M1.4646 193.237C5.46085 181.498 9.45711 169.759 13.4543 158.395C17.2943 147.497 21.0566 126.424 24.9516 126.399C29.0255 126.374 33.1316 134.812 37.2178 138.511C41.4839 142.362 45.7576 148.994 49.9925 148.968C54.0569 148.943 58.0598 138.337 62.1242 138.312C66.1896 138.287 70.2559 138.52 74.3232 139.014C78.3914 139.504 82.4862 144.587 86.5516 144.563C90.616 144.538 94.6397 137.588 98.6927 135.445C102.745 133.303 106.801 131.733 110.865 131.708C114.938 131.683 119.058 142.522 123.124 142.497C127.197 142.472 131.245 141.023 135.297 138.816C139.357 136.609 143.383 131.53 147.444 129.252C151.495 126.974 155.565 127.858 159.615 125.146C163.664 122.439 167.666 111.704 171.716 109.326C175.598 107.049 179.487 105.898 183.382 105.875C187.616 105.849 191.875 110.021 196.11 109.996C200.183 109.971 204.125 90.345 208.189 90.3199C212.263 90.2948 216.356 96.5905 220.452 101.935C224.558 107.282 228.683 118.968 232.768 122.402C236.862 125.836 240.928 127.539 245.002 127.514C249.066 127.489 253.079 118.508 257.135 117.138C261.192 115.764 265.261 116.412 269.318 115.042C273.375 113.669 277.358 99.8155 281.423 99.7904C285.488 99.7663 289.619 110.94 293.683 110.916C297.757 110.891 301.779 105.089 305.844 105.064C309.917 105.039 314.038 115.924 318.103 115.899C322.176 115.874 326.23 115.402 330.29 114.616C334.189 113.858 338.081 113.381 341.965 111.361C346.186 109.16 350.393 104.391 354.611 101.44C358.659 98.6064 362.696 93.9493 366.761 93.9242C370.826 93.9 374.932 100.914 378.997 100.89C383.062 100.864 387.118 99.3446 391.183 99.3195C395.256 99.2944 399.374 109.729 403.439 109.704C407.512 109.679 411.566 109.117 415.629 108.928C419.701 108.739 423.758 108.785 427.822 108.575C431.895 108.364 435.936 105.85 440.004 104.815C444.062 103.782 448.119 102.402 452.184 102.377C456.249 102.352 460.36 110.103 464.424 110.078C468.489 110.053 472.552 109.803 476.618 109.778C480.682 109.753 484.755 111.138 488.82 111.113C492.893 111.088 496.95 111.049 501.015 110.992C505.088 110.934 509.128 108.331 513.188 107.429C517.087 106.566 520.968 105.644 524.872 105.62C529.107 105.594 533.359 108.526 537.593 108.501C541.658 108.475 545.72 108.06 549.78 107.256C553.841 106.451 557.879 101.923 561.944 101.898C566.009 101.873 570.109 107.879 574.173 107.854C578.239 107.83 582.298 106.992 586.354 105.34C590.418 103.684 594.402 91.3794 598.466 91.3553C602.54 91.3302 606.662 102.501 610.73 102.88C614.805 103.263 618.862 103.442 622.928 103.417C627.001 103.393 631.017 96.5644 635.091 96.5393C639.155 96.5142 643.226 97.5053 647.303 99.5048C651.38 101.501 655.472 106.337 659.551 108.52C663.629 110.702 667.693 110.723 671.77 112.594C675.846 114.465 679.941 119.774 684.007 119.749C688.08 119.724 692.13 118.679 696.183 116.619C700.245 114.555 704.251 106.16 708.312 106.135C712.393 106.11 716.484 112.525 720.547 112.5C724.619 112.474 728.454 72.8389 732.517 72.8138C736.579 72.7887 740.661 74.9928 744.723 74.9677C748.795 74.9426 752.848 73.7373 756.901 71.3595C760.954 68.974 764.913 51.3183 768.909 40.409C772.915 29.4958 776.845 6.82536 780.907 5.88487C784.97 4.94061 789.032 5.0267 793.085 4.43312C797.157 3.83588 801.21 2.33733 805.273 2.31253C809.345 2.28754 813.493 18.3944 817.565 18.3693C821.637 18.3452 825.643 8.77679 829.705 8.75189C833.777 8.72699 837.849 9.95409 841.912 10.4872C845.984 11.0239 850.046 10.9669 854.118 11.9614C858.19 12.9524 862.272 16.4682 866.334 16.4441C870.236 16.42 874.118 14.4216 878.001 12.8383C882.064 11.1894 886.098 6.67202 890.16 6.64713C894.403 6.62117 898.636 7.96879 902.878 9.53104C906.969 11.0334 911.05 15.7155 915.113 15.6914C919.185 15.6663 923.2 6.87776 927.263 6.85287C931.325 6.82807 935.634 46.9363 939.697 46.9112C943.759 46.8861 947.727 30.4077 951.79 30.3826C955.862 30.3575 959.981 39.3504 964.043 39.3253C968.106 39.3012 972.13 32.5297 976.193 32.5047C980.265 32.4796 984.347 35.7963 988.419 37.3413C992.5 38.8901 996.563 40.0317 1000.64 41.7841C1004.73 43.5375 1008.8 46.7278 1012.87 47.855C1014.92 48.4147 1016.95 48.6453 1018.98 48.8692L1020 222.775L1.67577 229.006L1.4646 193.237Z" fill="url(#paint0_linear_9582_3600)"/>
<path d="M1.4646 193.237C5.46085 181.498 9.45711 169.759 13.4543 158.395C17.2943 147.497 21.0566 126.424 24.9516 126.399C29.0255 126.374 33.1316 134.812 37.2178 138.511C41.4839 142.362 45.7576 148.994 49.9925 148.968C54.0569 148.943 58.0598 138.337 62.1242 138.312C66.1896 138.287 70.2559 138.52 74.3232 139.014C78.3914 139.504 82.4862 144.587 86.5516 144.563C90.616 144.538 94.6397 137.588 98.6927 135.445C102.745 133.303 106.801 131.733 110.865 131.708C114.938 131.683 119.058 142.522 123.124 142.497C127.197 142.471 131.245 141.023 135.297 138.816C139.357 136.609 143.383 131.53 147.444 129.252C151.495 126.974 155.565 127.858 159.615 125.146C163.664 122.439 167.666 111.704 171.716 109.326C175.598 107.049 179.487 105.898 183.382 105.875C187.616 105.849 191.875 110.021 196.11 109.996C200.183 109.971 204.125 90.345 208.189 90.3199C212.263 90.2948 216.356 96.5905 220.452 101.935C224.558 107.282 228.683 118.968 232.768 122.402C236.862 125.836 240.928 127.539 245.002 127.514C249.066 127.489 253.079 118.508 257.135 117.138C261.192 115.764 265.261 116.412 269.318 115.042C273.375 113.669 277.358 99.8155 281.423 99.7904C285.488 99.7663 289.619 110.94 293.683 110.916C297.757 110.891 301.779 105.089 305.844 105.064C309.917 105.039 314.038 115.924 318.103 115.899C322.176 115.874 326.23 115.402 330.29 114.616C334.189 113.858 338.081 113.381 341.965 111.361C346.186 109.16 350.393 104.391 354.611 101.44C358.659 98.6064 362.696 93.9492 366.761 93.9242C370.826 93.9 374.932 100.914 378.997 100.89C383.062 100.864 387.118 99.3446 391.183 99.3195C395.256 99.2944 399.374 109.729 403.439 109.704C407.512 109.679 411.566 109.117 415.629 108.928C419.701 108.739 423.758 108.785 427.822 108.575C431.895 108.363 435.936 105.85 440.004 104.815C444.062 103.782 448.119 102.402 452.184 102.377C456.249 102.352 460.36 110.103 464.424 110.078C468.489 110.053 472.552 109.803 476.618 109.778C480.682 109.753 484.755 111.138 488.82 111.113C492.893 111.088 496.95 111.049 501.015 110.992C505.088 110.934 509.128 108.331 513.188 107.429C517.087 106.566 520.968 105.644 524.872 105.62C529.107 105.594 533.359 108.526 537.593 108.501C541.658 108.475 545.72 108.06 549.78 107.256C553.841 106.451 557.879 101.923 561.944 101.898C566.009 101.873 570.109 107.879 574.173 107.854C578.239 107.83 582.298 106.992 586.354 105.34C590.418 103.684 594.402 91.3794 598.466 91.3553C602.54 91.3302 606.662 102.501 610.73 102.88C614.805 103.263 618.862 103.442 622.928 103.417C627.001 103.393 631.017 96.5644 635.091 96.5393C639.155 96.5142 643.226 97.5053 647.303 99.5048C651.38 101.501 655.472 106.337 659.551 108.52C663.629 110.702 667.693 110.723 671.77 112.594C675.846 114.465 679.941 119.774 684.007 119.749C688.08 119.723 692.13 118.679 696.183 116.619C700.245 114.555 704.251 106.16 708.312 106.135C712.393 106.11 716.484 112.525 720.547 112.499C724.619 112.474 728.454 72.8389 732.517 72.8138C736.579 72.7887 740.661 74.9927 744.723 74.9677C748.795 74.9426 752.848 73.7373 756.901 71.3595C760.954 68.974 764.913 51.3183 768.909 40.409C772.915 29.4958 776.845 6.82536 780.907 5.88487C784.97 4.94061 789.032 5.0267 793.085 4.43312C797.157 3.83588 801.21 2.33733 805.273 2.31253C809.345 2.28754 813.493 18.3944 817.565 18.3693C821.637 18.3452 825.643 8.77679 829.705 8.75189C833.777 8.72699 837.849 9.95409 841.912 10.4872C845.984 11.0239 850.046 10.9669 854.118 11.9614C858.19 12.9524 862.272 16.4682 866.334 16.4441C870.236 16.42 874.118 14.4216 878.001 12.8383C882.063 11.1894 886.098 6.67202 890.16 6.64713C894.403 6.62117 898.636 7.96879 902.878 9.53104C906.969 11.0334 911.05 15.7155 915.113 15.6914C919.185 15.6663 923.2 6.87776 927.263 6.85287C931.325 6.82807 935.634 46.9363 939.697 46.9112C943.759 46.8861 947.727 30.4077 951.79 30.3826C955.862 30.3575 959.981 39.3504 964.043 39.3253C968.106 39.3012 972.131 32.5297 976.193 32.5047C980.265 32.4796 984.347 35.7963 988.419 37.3412C992.5 38.8901 996.563 40.0317 1000.64 41.7841C1004.73 43.5375 1008.8 46.7278 1012.87 47.855C1014.92 48.4147 1016.95 48.6453 1018.98 48.8692" stroke="url(#paint1_linear_9582_3600)" stroke-width="2" stroke-linecap="round"/>
</g>
<defs>
<linearGradient id="paint0_linear_9582_3600" x1="1034.11" y1="-169.954" x2="219.018" y2="226.604" gradientUnits="userSpaceOnUse">
<stop stop-color="#16895A" stop-opacity="0.1"/>
<stop offset="0.8" stop-color="#16895A" stop-opacity="0"/>
</linearGradient>
<linearGradient id="paint1_linear_9582_3600" x1="309.436" y1="282.983" x2="1019.22" y2="9.85189" gradientUnits="userSpaceOnUse">
<stop stop-color="#16895A" stop-opacity="0"/>
<stop offset="1" stop-color="#16895A"/>
</linearGradient>
</defs>
</svg>
