<svg width="1439" height="924" viewBox="0 0 1439 924" fill="none" xmlns="http://www.w3.org/2000/svg">
<path d="M38.397 922.202V864.677H39.5784V922.202H38.397ZM38.9877 865.576H1.18145V863.778H38.9877V865.576ZM76.2032 922.202V864.677H77.3847V922.202H76.2032ZM76.7939 865.576H38.9877V863.778H76.7939V865.576ZM114.009 922.202V864.677H115.191V922.202H114.009ZM114.6 865.576H76.7939V863.778H114.6V865.576ZM151.816 922.202V864.677H152.997V922.202H151.816ZM152.406 865.576H114.6V863.778H152.406V865.576ZM189.622 922.202V864.677H190.803V922.202H189.622ZM190.213 865.576H152.406V863.778H190.213V865.576ZM227.428 922.202V864.677H228.61V922.202H227.428ZM228.019 865.576H190.213V863.778H228.019V865.576ZM265.234 922.202V864.677H266.416V922.202H265.234ZM265.825 865.576H228.019V863.778H265.825V865.576ZM303.041 922.202V864.677H304.222V922.202H303.041ZM303.631 865.576H265.825V863.778H303.631V865.576ZM340.847 922.202V864.677H342.028V922.202H340.847ZM341.438 865.576H303.631V863.778H341.438V865.576ZM378.653 922.202V864.677H379.835V922.202H378.653ZM379.244 865.576H341.438V863.778H379.244V865.576ZM416.459 922.202V864.677H417.641V922.202H416.459ZM417.05 865.576H379.244V863.778H417.05V865.576ZM454.266 922.202V864.677H455.447V922.202H454.266ZM454.856 865.576H417.05V863.778H454.856V865.576ZM492.072 922.202V864.677H493.253V922.202H492.072ZM492.663 865.576H454.856V863.778H492.663V865.576ZM529.878 922.202V864.677H531.06V922.202H529.878ZM530.469 865.576H492.663V863.778H530.469V865.576ZM567.684 922.202V864.677H568.866V922.202H567.684ZM568.275 865.576H530.469V863.778H568.275V865.576ZM605.491 922.202V864.677H606.672V922.202H605.491ZM606.081 865.576H568.275V863.778H606.081V865.576ZM643.297 922.202V864.677H644.478V922.202H643.297ZM643.888 865.576H606.081V863.778H643.888V865.576ZM681.103 922.202V864.677H682.284V922.202H681.103ZM681.694 865.576H643.888V863.778H681.694V865.576ZM718.909 922.202V864.677H720.091V922.202H718.909ZM719.5 865.576H681.694V863.778H719.5V865.576ZM756.716 922.202V864.677H757.897V922.202H756.716ZM757.306 865.576H719.5V863.778H757.306V865.576ZM794.522 922.202V864.677H795.703V922.202H794.522ZM795.112 865.576H757.306V863.778H795.112V865.576ZM832.328 922.202V864.677H833.509V922.202H832.328ZM832.919 865.576H795.112V863.778H832.919V865.576ZM870.134 922.202V864.677H871.316V922.202H870.134ZM870.725 865.576H832.919V863.778H870.725V865.576ZM907.94 922.202V864.677H909.122V922.202H907.94ZM908.531 865.576H870.725V863.778H908.531V865.576ZM945.747 922.202V864.677H946.928V922.202H945.747ZM946.337 865.576H908.531V863.778H946.337V865.576ZM983.553 922.202V864.677H984.734V922.202H983.553ZM984.144 865.576H946.337V863.778H984.144V865.576ZM1021.36 922.202V864.677H1022.54V922.202H1021.36ZM1021.95 865.576H984.144V863.778H1021.95V865.576ZM1059.17 922.202V864.677H1060.35V922.202H1059.17ZM1059.76 865.576H1021.95V863.778H1059.76V865.576ZM1096.97 922.202V864.677H1098.15V922.202H1096.97ZM1097.56 865.576H1059.76V863.778H1097.56V865.576ZM1134.78 922.202V864.677H1135.96V922.202H1134.78ZM1135.37 865.576H1097.56V863.778H1135.37V865.576ZM1172.58 922.202V864.677H1173.77V922.202H1172.58ZM1173.17 865.576H1135.37V863.778H1173.17V865.576ZM1210.39 922.202V864.677H1211.57V922.202H1210.39ZM1210.98 865.576H1173.17V863.778H1210.98V865.576ZM1248.2 922.202V864.677H1249.38V922.202H1248.2ZM1248.79 865.576H1210.98V863.778H1248.79V865.576ZM1286 922.202V864.677H1287.18V922.202H1286ZM1286.59 865.576H1248.79V863.778H1286.59V865.576ZM1323.81 922.202V864.677H1324.99V922.202H1323.81ZM1324.4 865.576H1286.59V863.778H1324.4V865.576ZM1361.62 922.202V864.677H1362.8V922.202H1361.62ZM1362.21 865.576H1324.4V863.778H1362.21V865.576ZM1399.42 922.202V864.677H1400.6V922.202H1399.42ZM1400.01 865.576H1362.21V863.778H1400.01V865.576ZM1437.82 865.576H1400.01V863.778H1437.82V865.576ZM38.397 864.677V807.152H39.5784V864.677H38.397ZM38.9877 808.051H1.18145V806.253H38.9877V808.051ZM76.2032 864.677V807.152H77.3847V864.677H76.2032ZM76.7939 808.051H38.9877V806.253H76.7939V808.051ZM114.009 864.677V807.152H115.191V864.677H114.009ZM114.6 808.051H76.7939V806.253H114.6V808.051ZM151.816 864.677V807.152H152.997V864.677H151.816ZM152.406 808.051H114.6V806.253H152.406V808.051ZM189.622 864.677V807.152H190.803V864.677H189.622ZM190.213 808.051H152.406V806.253H190.213V808.051ZM227.428 864.677V807.152H228.61V864.677H227.428ZM228.019 808.051H190.213V806.253H228.019V808.051ZM265.234 864.677V807.152H266.416V864.677H265.234ZM265.825 808.051H228.019V806.253H265.825V808.051ZM303.041 864.677V807.152H304.222V864.677H303.041ZM303.631 808.051H265.825V806.253H303.631V808.051ZM340.847 864.677V807.152H342.028V864.677H340.847ZM341.438 808.051H303.631V806.253H341.438V808.051ZM378.653 864.677V807.152H379.835V864.677H378.653ZM379.244 808.051H341.438V806.253H379.244V808.051ZM416.459 864.677V807.152H417.641V864.677H416.459ZM417.05 808.051H379.244V806.253H417.05V808.051ZM454.266 864.677V807.152H455.447V864.677H454.266ZM454.856 808.051H417.05V806.253H454.856V808.051ZM492.072 864.677V807.152H493.253V864.677H492.072ZM492.663 808.051H454.856V806.253H492.663V808.051ZM529.878 864.677V807.152H531.06V864.677H529.878ZM530.469 808.051H492.663V806.253H530.469V808.051ZM567.684 864.677V807.152H568.866V864.677H567.684ZM568.275 808.051H530.469V806.253H568.275V808.051ZM605.491 864.677V807.152H606.672V864.677H605.491ZM606.081 808.051H568.275V806.253H606.081V808.051ZM643.297 864.677V807.152H644.478V864.677H643.297ZM643.888 808.051H606.081V806.253H643.888V808.051ZM681.103 864.677V807.152H682.284V864.677H681.103ZM681.694 808.051H643.888V806.253H681.694V808.051ZM718.909 864.677V807.152H720.091V864.677H718.909ZM719.5 808.051H681.694V806.253H719.5V808.051ZM756.716 864.677V807.152H757.897V864.677H756.716ZM757.306 808.051H719.5V806.253H757.306V808.051ZM794.522 864.677V807.152H795.703V864.677H794.522ZM795.112 808.051H757.306V806.253H795.112V808.051ZM832.328 864.677V807.152H833.509V864.677H832.328ZM832.919 808.051H795.112V806.253H832.919V808.051ZM870.134 864.677V807.152H871.316V864.677H870.134ZM870.725 808.051H832.919V806.253H870.725V808.051ZM907.94 864.677V807.152H909.122V864.677H907.94ZM908.531 808.051H870.725V806.253H908.531V808.051ZM945.747 864.677V807.152H946.928V864.677H945.747ZM946.337 808.051H908.531V806.253H946.337V808.051ZM983.553 864.677V807.152H984.734V864.677H983.553ZM984.144 808.051H946.337V806.253H984.144V808.051ZM1021.36 864.677V807.152H1022.54V864.677H1021.36ZM1021.95 808.051H984.144V806.253H1021.95V808.051ZM1059.17 864.677V807.152H1060.35V864.677H1059.17ZM1059.76 808.051H1021.95V806.253H1059.76V808.051ZM1096.97 864.677V807.152H1098.15V864.677H1096.97ZM1097.56 808.051H1059.76V806.253H1097.56V808.051ZM1134.78 864.677V807.152H1135.96V864.677H1134.78ZM1135.37 808.051H1097.56V806.253H1135.37V808.051ZM1172.58 864.677V807.152H1173.77V864.677H1172.58ZM1173.17 808.051H1135.37V806.253H1173.17V808.051ZM1210.39 864.677V807.152H1211.57V864.677H1210.39ZM1210.98 808.051H1173.17V806.253H1210.98V808.051ZM1248.2 864.677V807.152H1249.38V864.677H1248.2ZM1248.79 808.051H1210.98V806.253H1248.79V808.051ZM1286 864.677V807.152H1287.18V864.677H1286ZM1286.59 808.051H1248.79V806.253H1286.59V808.051ZM1323.81 864.677V807.152H1324.99V864.677H1323.81ZM1324.4 808.051H1286.59V806.253H1324.4V808.051ZM1361.62 864.677V807.152H1362.8V864.677H1361.62ZM1362.21 808.051H1324.4V806.253H1362.21V808.051ZM1399.42 864.677V807.152H1400.6V864.677H1399.42ZM1400.01 808.051H1362.21V806.253H1400.01V808.051ZM1437.82 808.051H1400.01V806.253H1437.82V808.051ZM38.397 807.152V749.626H39.5784V807.152H38.397ZM38.9877 750.525H1.18145V748.728H38.9877V750.525ZM76.2032 807.152V749.626H77.3847V807.152H76.2032ZM76.7939 750.525H38.9877V748.728H76.7939V750.525ZM114.009 807.152V749.626H115.191V807.152H114.009ZM114.6 750.525H76.7939V748.728H114.6V750.525ZM151.816 807.152V749.626H152.997V807.152H151.816ZM152.406 750.525H114.6V748.728H152.406V750.525ZM189.622 807.152V749.626H190.803V807.152H189.622ZM190.213 750.525H152.406V748.728H190.213V750.525ZM227.428 807.152V749.626H228.61V807.152H227.428ZM228.019 750.525H190.213V748.728H228.019V750.525ZM265.234 807.152V749.626H266.416V807.152H265.234ZM265.825 750.525H228.019V748.728H265.825V750.525ZM303.041 807.152V749.626H304.222V807.152H303.041ZM303.631 750.525H265.825V748.728H303.631V750.525ZM340.847 807.152V749.626H342.028V807.152H340.847ZM341.438 750.525H303.631V748.728H341.438V750.525ZM378.653 807.152V749.626H379.835V807.152H378.653ZM379.244 750.525H341.438V748.728H379.244V750.525ZM416.459 807.152V749.626H417.641V807.152H416.459ZM417.05 750.525H379.244V748.728H417.05V750.525ZM454.266 807.152V749.626H455.447V807.152H454.266ZM454.856 750.525H417.05V748.728H454.856V750.525ZM492.072 807.152V749.626H493.253V807.152H492.072ZM492.663 750.525H454.856V748.728H492.663V750.525ZM529.878 807.152V749.626H531.06V807.152H529.878ZM530.469 750.525H492.663V748.728H530.469V750.525ZM567.684 807.152V749.626H568.866V807.152H567.684ZM568.275 750.525H530.469V748.728H568.275V750.525ZM605.491 807.152V749.626H606.672V807.152H605.491ZM606.081 750.525H568.275V748.728H606.081V750.525ZM643.297 807.152V749.626H644.478V807.152H643.297ZM643.888 750.525H606.081V748.728H643.888V750.525ZM681.103 807.152V749.626H682.284V807.152H681.103ZM681.694 750.525H643.888V748.728H681.694V750.525ZM718.909 807.152V749.626H720.091V807.152H718.909ZM719.5 750.525H681.694V748.728H719.5V750.525ZM756.716 807.152V749.626H757.897V807.152H756.716ZM757.306 750.525H719.5V748.728H757.306V750.525ZM794.522 807.152V749.626H795.703V807.152H794.522ZM795.112 750.525H757.306V748.728H795.112V750.525ZM832.328 807.152V749.626H833.509V807.152H832.328ZM832.919 750.525H795.112V748.728H832.919V750.525ZM870.134 807.152V749.626H871.316V807.152H870.134ZM870.725 750.525H832.919V748.728H870.725V750.525ZM907.94 807.152V749.626H909.122V807.152H907.94ZM908.531 750.525H870.725V748.728H908.531V750.525ZM945.747 807.152V749.626H946.928V807.152H945.747ZM946.337 750.525H908.531V748.728H946.337V750.525ZM983.553 807.152V749.626H984.734V807.152H983.553ZM984.144 750.525H946.337V748.728H984.144V750.525ZM1021.36 807.152V749.626H1022.54V807.152H1021.36ZM1021.95 750.525H984.144V748.728H1021.95V750.525ZM1059.17 807.152V749.626H1060.35V807.152H1059.17ZM1059.76 750.525H1021.95V748.728H1059.76V750.525ZM1096.97 807.152V749.626H1098.15V807.152H1096.97ZM1097.56 750.525H1059.76V748.728H1097.56V750.525ZM1134.78 807.152V749.626H1135.96V807.152H1134.78ZM1135.37 750.525H1097.56V748.728H1135.37V750.525ZM1172.58 807.152V749.626H1173.77V807.152H1172.58ZM1173.17 750.525H1135.37V748.728H1173.17V750.525ZM1210.39 807.152V749.626H1211.57V807.152H1210.39ZM1210.98 750.525H1173.17V748.728H1210.98V750.525ZM1248.2 807.152V749.626H1249.38V807.152H1248.2ZM1248.79 750.525H1210.98V748.728H1248.79V750.525ZM1286 807.152V749.626H1287.18V807.152H1286ZM1286.59 750.525H1248.79V748.728H1286.59V750.525ZM1323.81 807.152V749.626H1324.99V807.152H1323.81ZM1324.4 750.525H1286.59V748.728H1324.4V750.525ZM1361.62 807.152V749.626H1362.8V807.152H1361.62ZM1362.21 750.525H1324.4V748.728H1362.21V750.525ZM1399.42 807.152V749.626H1400.6V807.152H1399.42ZM1400.01 750.525H1362.21V748.728H1400.01V750.525ZM1437.82 750.525H1400.01V748.728H1437.82V750.525ZM38.397 749.626V692.101H39.5784V749.626H38.397ZM38.9877 693H1.18145V691.202H38.9877V693ZM76.2032 749.626V692.101H77.3847V749.626H76.2032ZM76.7939 693H38.9877V691.202H76.7939V693ZM114.009 749.626V692.101H115.191V749.626H114.009ZM114.6 693H76.7939V691.202H114.6V693ZM151.816 749.626V692.101H152.997V749.626H151.816ZM152.406 693H114.6V691.202H152.406V693ZM189.622 749.626V692.101H190.803V749.626H189.622ZM190.213 693H152.406V691.202H190.213V693ZM227.428 749.626V692.101H228.61V749.626H227.428ZM228.019 693H190.213V691.202H228.019V693ZM265.234 749.626V692.101H266.416V749.626H265.234ZM265.825 693H228.019V691.202H265.825V693ZM303.041 749.626V692.101H304.222V749.626H303.041ZM303.631 693H265.825V691.202H303.631V693ZM340.847 749.626V692.101H342.028V749.626H340.847ZM341.438 693H303.631V691.202H341.438V693ZM378.653 749.626V692.101H379.835V749.626H378.653ZM379.244 693H341.438V691.202H379.244V693ZM416.459 749.626V692.101H417.641V749.626H416.459ZM417.05 693H379.244V691.202H417.05V693ZM454.266 749.626V692.101H455.447V749.626H454.266ZM454.856 693H417.05V691.202H454.856V693ZM492.072 749.626V692.101H493.253V749.626H492.072ZM492.663 693H454.856V691.202H492.663V693ZM529.878 749.626V692.101H531.06V749.626H529.878ZM530.469 693H492.663V691.202H530.469V693ZM567.684 749.626V692.101H568.866V749.626H567.684ZM568.275 693H530.469V691.202H568.275V693ZM605.491 749.626V692.101H606.672V749.626H605.491ZM606.081 693H568.275V691.202H606.081V693ZM643.297 749.626V692.101H644.478V749.626H643.297ZM643.888 693H606.081V691.202H643.888V693ZM681.103 749.626V692.101H682.284V749.626H681.103ZM681.694 693H643.888V691.202H681.694V693ZM718.909 749.626V692.101H720.091V749.626H718.909ZM719.5 693H681.694V691.202H719.5V693ZM756.716 749.626V692.101H757.897V749.626H756.716ZM757.306 693H719.5V691.202H757.306V693ZM794.522 749.626V692.101H795.703V749.626H794.522ZM795.112 693H757.306V691.202H795.112V693ZM832.328 749.626V692.101H833.509V749.626H832.328ZM832.919 693H795.112V691.202H832.919V693ZM870.134 749.626V692.101H871.316V749.626H870.134ZM870.725 693H832.919V691.202H870.725V693ZM907.94 749.626V692.101H909.122V749.626H907.94ZM908.531 693H870.725V691.202H908.531V693ZM945.747 749.626V692.101H946.928V749.626H945.747ZM946.337 693H908.531V691.202H946.337V693ZM983.553 749.626V692.101H984.734V749.626H983.553ZM984.144 693H946.337V691.202H984.144V693ZM1021.36 749.626V692.101H1022.54V749.626H1021.36ZM1021.95 693H984.144V691.202H1021.95V693ZM1059.17 749.626V692.101H1060.35V749.626H1059.17ZM1059.76 693H1021.95V691.202H1059.76V693ZM1096.97 749.626V692.101H1098.15V749.626H1096.97ZM1097.56 693H1059.76V691.202H1097.56V693ZM1134.78 749.626V692.101H1135.96V749.626H1134.78ZM1135.37 693H1097.56V691.202H1135.37V693ZM1172.58 749.626V692.101H1173.77V749.626H1172.58ZM1173.17 693H1135.37V691.202H1173.17V693ZM1210.39 749.626V692.101H1211.57V749.626H1210.39ZM1210.98 693H1173.17V691.202H1210.98V693ZM1248.2 749.626V692.101H1249.38V749.626H1248.2ZM1248.79 693H1210.98V691.202H1248.79V693ZM1286 749.626V692.101H1287.18V749.626H1286ZM1286.59 693H1248.79V691.202H1286.59V693ZM1323.81 749.626V692.101H1324.99V749.626H1323.81ZM1324.4 693H1286.59V691.202H1324.4V693ZM1361.62 749.626V692.101H1362.8V749.626H1361.62ZM1362.21 693H1324.4V691.202H1362.21V693ZM1399.42 749.626V692.101H1400.6V749.626H1399.42ZM1400.01 693H1362.21V691.202H1400.01V693ZM1437.82 693H1400.01V691.202H1437.82V693ZM38.397 692.101V634.576H39.5784V692.101H38.397ZM38.9877 635.475H1.18145V633.677H38.9877V635.475ZM76.2032 692.101V634.576H77.3847V692.101H76.2032ZM76.7939 635.475H38.9877V633.677H76.7939V635.475ZM114.009 692.101V634.576H115.191V692.101H114.009ZM114.6 635.475H76.7939V633.677H114.6V635.475ZM151.816 692.101V634.576H152.997V692.101H151.816ZM152.406 635.475H114.6V633.677H152.406V635.475ZM189.622 692.101V634.576H190.803V692.101H189.622ZM190.213 635.475H152.406V633.677H190.213V635.475ZM227.428 692.101V634.576H228.61V692.101H227.428ZM228.019 635.475H190.213V633.677H228.019V635.475ZM265.234 692.101V634.576H266.416V692.101H265.234ZM265.825 635.475H228.019V633.677H265.825V635.475ZM303.041 692.101V634.576H304.222V692.101H303.041ZM303.631 635.475H265.825V633.677H303.631V635.475ZM340.847 692.101V634.576H342.028V692.101H340.847ZM341.438 635.475H303.631V633.677H341.438V635.475ZM378.653 692.101V634.576H379.835V692.101H378.653ZM379.244 635.475H341.438V633.677H379.244V635.475ZM416.459 692.101V634.576H417.641V692.101H416.459ZM417.05 635.475H379.244V633.677H417.05V635.475ZM454.266 692.101V634.576H455.447V692.101H454.266ZM454.856 635.475H417.05V633.677H454.856V635.475ZM492.072 692.101V634.576H493.253V692.101H492.072ZM492.663 635.475H454.856V633.677H492.663V635.475ZM529.878 692.101V634.576H531.06V692.101H529.878ZM530.469 635.475H492.663V633.677H530.469V635.475ZM567.684 692.101V634.576H568.866V692.101H567.684ZM568.275 635.475H530.469V633.677H568.275V635.475ZM605.491 692.101V634.576H606.672V692.101H605.491ZM606.081 635.475H568.275V633.677H606.081V635.475ZM643.297 692.101V634.576H644.478V692.101H643.297ZM643.888 635.475H606.081V633.677H643.888V635.475ZM681.103 692.101V634.576H682.284V692.101H681.103ZM681.694 635.475H643.888V633.677H681.694V635.475ZM718.909 692.101V634.576H720.091V692.101H718.909ZM719.5 635.475H681.694V633.677H719.5V635.475ZM756.716 692.101V634.576H757.897V692.101H756.716ZM757.306 635.475H719.5V633.677H757.306V635.475ZM794.522 692.101V634.576H795.703V692.101H794.522ZM795.112 635.475H757.306V633.677H795.112V635.475ZM832.328 692.101V634.576H833.509V692.101H832.328ZM832.919 635.475H795.112V633.677H832.919V635.475ZM870.134 692.101V634.576H871.316V692.101H870.134ZM870.725 635.475H832.919V633.677H870.725V635.475ZM907.94 692.101V634.576H909.122V692.101H907.94ZM908.531 635.475H870.725V633.677H908.531V635.475ZM945.747 692.101V634.576H946.928V692.101H945.747ZM946.337 635.475H908.531V633.677H946.337V635.475ZM983.553 692.101V634.576H984.734V692.101H983.553ZM984.144 635.475H946.337V633.677H984.144V635.475ZM1021.36 692.101V634.576H1022.54V692.101H1021.36ZM1021.95 635.475H984.144V633.677H1021.95V635.475ZM1059.17 692.101V634.576H1060.35V692.101H1059.17ZM1059.76 635.475H1021.95V633.677H1059.76V635.475ZM1096.97 692.101V634.576H1098.15V692.101H1096.97ZM1097.56 635.475H1059.76V633.677H1097.56V635.475ZM1134.78 692.101V634.576H1135.96V692.101H1134.78ZM1135.37 635.475H1097.56V633.677H1135.37V635.475ZM1172.58 692.101V634.576H1173.77V692.101H1172.58ZM1173.17 635.475H1135.37V633.677H1173.17V635.475ZM1210.39 692.101V634.576H1211.57V692.101H1210.39ZM1210.98 635.475H1173.17V633.677H1210.98V635.475ZM1248.2 692.101V634.576H1249.38V692.101H1248.2ZM1248.79 635.475H1210.98V633.677H1248.79V635.475ZM1286 692.101V634.576H1287.18V692.101H1286ZM1286.59 635.475H1248.79V633.677H1286.59V635.475ZM1323.81 692.101V634.576H1324.99V692.101H1323.81ZM1324.4 635.475H1286.59V633.677H1324.4V635.475ZM1361.62 692.101V634.576H1362.8V692.101H1361.62ZM1362.21 635.475H1324.4V633.677H1362.21V635.475ZM1399.42 692.101V634.576H1400.6V692.101H1399.42ZM1400.01 635.475H1362.21V633.677H1400.01V635.475ZM1437.82 635.475H1400.01V633.677H1437.82V635.475ZM38.397 634.576V577.051H39.5784V634.576H38.397ZM38.9877 577.949H1.18145V576.152H38.9877V577.949ZM76.2032 634.576V577.051H77.3847V634.576H76.2032ZM76.7939 577.949H38.9877V576.152H76.7939V577.949ZM114.009 634.576V577.051H115.191V634.576H114.009ZM114.6 577.949H76.7939V576.152H114.6V577.949ZM151.816 634.576V577.051H152.997V634.576H151.816ZM152.406 577.949H114.6V576.152H152.406V577.949ZM189.622 634.576V577.051H190.803V634.576H189.622ZM190.213 577.949H152.406V576.152H190.213V577.949ZM227.428 634.576V577.051H228.61V634.576H227.428ZM228.019 577.949H190.213V576.152H228.019V577.949ZM265.234 634.576V577.051H266.416V634.576H265.234ZM265.825 577.949H228.019V576.152H265.825V577.949ZM303.041 634.576V577.051H304.222V634.576H303.041ZM303.631 577.949H265.825V576.152H303.631V577.949ZM340.847 634.576V577.051H342.028V634.576H340.847ZM341.438 577.949H303.631V576.152H341.438V577.949ZM378.653 634.576V577.051H379.835V634.576H378.653ZM379.244 577.949H341.438V576.152H379.244V577.949ZM416.459 634.576V577.051H417.641V634.576H416.459ZM417.05 577.949H379.244V576.152H417.05V577.949ZM454.266 634.576V577.051H455.447V634.576H454.266ZM454.856 577.949H417.05V576.152H454.856V577.949ZM492.072 634.576V577.051H493.253V634.576H492.072ZM492.663 577.949H454.856V576.152H492.663V577.949ZM529.878 634.576V577.051H531.06V634.576H529.878ZM530.469 577.949H492.663V576.152H530.469V577.949ZM567.684 634.576V577.051H568.866V634.576H567.684ZM568.275 577.949H530.469V576.152H568.275V577.949ZM605.491 634.576V577.051H606.672V634.576H605.491ZM606.081 577.949H568.275V576.152H606.081V577.949ZM643.297 634.576V577.051H644.478V634.576H643.297ZM643.888 577.949H606.081V576.152H643.888V577.949ZM681.103 634.576V577.051H682.284V634.576H681.103ZM681.694 577.949H643.888V576.152H681.694V577.949ZM718.909 634.576V577.051H720.091V634.576H718.909ZM719.5 577.949H681.694V576.152H719.5V577.949ZM756.716 634.576V577.051H757.897V634.576H756.716ZM757.306 577.949H719.5V576.152H757.306V577.949ZM794.522 634.576V577.051H795.703V634.576H794.522ZM795.112 577.949H757.306V576.152H795.112V577.949ZM832.328 634.576V577.051H833.509V634.576H832.328ZM832.919 577.949H795.112V576.152H832.919V577.949ZM870.134 634.576V577.051H871.316V634.576H870.134ZM870.725 577.949H832.919V576.152H870.725V577.949ZM907.94 634.576V577.051H909.122V634.576H907.94ZM908.531 577.949H870.725V576.152H908.531V577.949ZM945.747 634.576V577.051H946.928V634.576H945.747ZM946.337 577.949H908.531V576.152H946.337V577.949ZM983.553 634.576V577.051H984.734V634.576H983.553ZM984.144 577.949H946.337V576.152H984.144V577.949ZM1021.36 634.576V577.051H1022.54V634.576H1021.36ZM1021.95 577.949H984.144V576.152H1021.95V577.949ZM1059.17 634.576V577.051H1060.35V634.576H1059.17ZM1059.76 577.949H1021.95V576.152H1059.76V577.949ZM1096.97 634.576V577.051H1098.15V634.576H1096.97ZM1097.56 577.949H1059.76V576.152H1097.56V577.949ZM1134.78 634.576V577.051H1135.96V634.576H1134.78ZM1135.37 577.949H1097.56V576.152H1135.37V577.949ZM1172.58 634.576V577.051H1173.77V634.576H1172.58ZM1173.17 577.949H1135.37V576.152H1173.17V577.949ZM1210.39 634.576V577.051H1211.57V634.576H1210.39ZM1210.98 577.949H1173.17V576.152H1210.98V577.949ZM1248.2 634.576V577.051H1249.38V634.576H1248.2ZM1248.79 577.949H1210.98V576.152H1248.79V577.949ZM1286 634.576V577.051H1287.18V634.576H1286ZM1286.59 577.949H1248.79V576.152H1286.59V577.949ZM1323.81 634.576V577.051H1324.99V634.576H1323.81ZM1324.4 577.949H1286.59V576.152H1324.4V577.949ZM1361.62 634.576V577.051H1362.8V634.576H1361.62ZM1362.21 577.949H1324.4V576.152H1362.21V577.949ZM1399.42 634.576V577.051H1400.6V634.576H1399.42ZM1400.01 577.949H1362.21V576.152H1400.01V577.949ZM1437.82 577.949H1400.01V576.152H1437.82V577.949ZM38.397 577.051V519.525H39.5784V577.051H38.397ZM38.9877 520.424H1.18145V518.626H38.9877V520.424ZM76.2032 577.051V519.525H77.3847V577.051H76.2032ZM76.7939 520.424H38.9877V518.626H76.7939V520.424ZM114.009 577.051V519.525H115.191V577.051H114.009ZM114.6 520.424H76.7939V518.626H114.6V520.424ZM151.816 577.051V519.525H152.997V577.051H151.816ZM152.406 520.424H114.6V518.626H152.406V520.424ZM189.622 577.051V519.525H190.803V577.051H189.622ZM190.213 520.424H152.406V518.626H190.213V520.424ZM227.428 577.051V519.525H228.61V577.051H227.428ZM228.019 520.424H190.213V518.626H228.019V520.424ZM265.234 577.051V519.525H266.416V577.051H265.234ZM265.825 520.424H228.019V518.626H265.825V520.424ZM303.041 577.051V519.525H304.222V577.051H303.041ZM303.631 520.424H265.825V518.626H303.631V520.424ZM340.847 577.051V519.525H342.028V577.051H340.847ZM341.438 520.424H303.631V518.626H341.438V520.424ZM378.653 577.051V519.525H379.835V577.051H378.653ZM379.244 520.424H341.438V518.626H379.244V520.424ZM416.459 577.051V519.525H417.641V577.051H416.459ZM417.05 520.424H379.244V518.626H417.05V520.424ZM454.266 577.051V519.525H455.447V577.051H454.266ZM454.856 520.424H417.05V518.626H454.856V520.424ZM492.072 577.051V519.525H493.253V577.051H492.072ZM492.663 520.424H454.856V518.626H492.663V520.424ZM529.878 577.051V519.525H531.06V577.051H529.878ZM530.469 520.424H492.663V518.626H530.469V520.424ZM567.684 577.051V519.525H568.866V577.051H567.684ZM568.275 520.424H530.469V518.626H568.275V520.424ZM605.491 577.051V519.525H606.672V577.051H605.491ZM606.081 520.424H568.275V518.626H606.081V520.424ZM643.297 577.051V519.525H644.478V577.051H643.297ZM643.888 520.424H606.081V518.626H643.888V520.424ZM681.103 577.051V519.525H682.284V577.051H681.103ZM681.694 520.424H643.888V518.626H681.694V520.424ZM718.909 577.051V519.525H720.091V577.051H718.909ZM719.5 520.424H681.694V518.626H719.5V520.424ZM756.716 577.051V519.525H757.897V577.051H756.716ZM757.306 520.424H719.5V518.626H757.306V520.424ZM794.522 577.051V519.525H795.703V577.051H794.522ZM795.112 520.424H757.306V518.626H795.112V520.424ZM832.328 577.051V519.525H833.509V577.051H832.328ZM832.919 520.424H795.112V518.626H832.919V520.424ZM870.134 577.051V519.525H871.316V577.051H870.134ZM870.725 520.424H832.919V518.626H870.725V520.424ZM907.94 577.051V519.525H909.122V577.051H907.94ZM908.531 520.424H870.725V518.626H908.531V520.424ZM945.747 577.051V519.525H946.928V577.051H945.747ZM946.337 520.424H908.531V518.626H946.337V520.424ZM983.553 577.051V519.525H984.734V577.051H983.553ZM984.144 520.424H946.337V518.626H984.144V520.424ZM1021.36 577.051V519.525H1022.54V577.051H1021.36ZM1021.95 520.424H984.144V518.626H1021.95V520.424ZM1059.17 577.051V519.525H1060.35V577.051H1059.17ZM1059.76 520.424H1021.95V518.626H1059.76V520.424ZM1096.97 577.051V519.525H1098.15V577.051H1096.97ZM1097.56 520.424H1059.76V518.626H1097.56V520.424ZM1134.78 577.051V519.525H1135.96V577.051H1134.78ZM1135.37 520.424H1097.56V518.626H1135.37V520.424ZM1172.58 577.051V519.525H1173.77V577.051H1172.58ZM1173.17 520.424H1135.37V518.626H1173.17V520.424ZM1210.39 577.051V519.525H1211.57V577.051H1210.39ZM1210.98 520.424H1173.17V518.626H1210.98V520.424ZM1248.2 577.051V519.525H1249.38V577.051H1248.2ZM1248.79 520.424H1210.98V518.626H1248.79V520.424ZM1286 577.051V519.525H1287.18V577.051H1286ZM1286.59 520.424H1248.79V518.626H1286.59V520.424ZM1323.81 577.051V519.525H1324.99V577.051H1323.81ZM1324.4 520.424H1286.59V518.626H1324.4V520.424ZM1361.62 577.051V519.525H1362.8V577.051H1361.62ZM1362.21 520.424H1324.4V518.626H1362.21V520.424ZM1399.42 577.051V519.525H1400.6V577.051H1399.42ZM1400.01 520.424H1362.21V518.626H1400.01V520.424ZM1437.82 520.424H1400.01V518.626H1437.82V520.424ZM38.397 519.525V462H39.5784V519.525H38.397ZM38.9877 462.899H1.18145V461.101H38.9877V462.899ZM76.2032 519.525V462H77.3847V519.525H76.2032ZM76.7939 462.899H38.9877V461.101H76.7939V462.899ZM114.009 519.525V462H115.191V519.525H114.009ZM114.6 462.899H76.7939V461.101H114.6V462.899ZM151.816 519.525V462H152.997V519.525H151.816ZM152.406 462.899H114.6V461.101H152.406V462.899ZM189.622 519.525V462H190.803V519.525H189.622ZM190.213 462.899H152.406V461.101H190.213V462.899ZM227.428 519.525V462H228.61V519.525H227.428ZM228.019 462.899H190.213V461.101H228.019V462.899ZM265.234 519.525V462H266.416V519.525H265.234ZM265.825 462.899H228.019V461.101H265.825V462.899ZM303.041 519.525V462H304.222V519.525H303.041ZM303.631 462.899H265.825V461.101H303.631V462.899ZM340.847 519.525V462H342.028V519.525H340.847ZM341.438 462.899H303.631V461.101H341.438V462.899ZM378.653 519.525V462H379.835V519.525H378.653ZM379.244 462.899H341.438V461.101H379.244V462.899ZM416.459 519.525V462H417.641V519.525H416.459ZM417.05 462.899H379.244V461.101H417.05V462.899ZM454.266 519.525V462H455.447V519.525H454.266ZM454.856 462.899H417.05V461.101H454.856V462.899ZM492.072 519.525V462H493.253V519.525H492.072ZM492.663 462.899H454.856V461.101H492.663V462.899ZM529.878 519.525V462H531.06V519.525H529.878ZM530.469 462.899H492.663V461.101H530.469V462.899ZM567.684 519.525V462H568.866V519.525H567.684ZM568.275 462.899H530.469V461.101H568.275V462.899ZM605.491 519.525V462H606.672V519.525H605.491ZM606.081 462.899H568.275V461.101H606.081V462.899ZM643.297 519.525V462H644.478V519.525H643.297ZM643.888 462.899H606.081V461.101H643.888V462.899ZM681.103 519.525V462H682.284V519.525H681.103ZM681.694 462.899H643.888V461.101H681.694V462.899ZM718.909 519.525V462H720.091V519.525H718.909ZM719.5 462.899H681.694V461.101H719.5V462.899ZM756.716 519.525V462H757.897V519.525H756.716ZM757.306 462.899H719.5V461.101H757.306V462.899ZM794.522 519.525V462H795.703V519.525H794.522ZM795.112 462.899H757.306V461.101H795.112V462.899ZM832.328 519.525V462H833.509V519.525H832.328ZM832.919 462.899H795.112V461.101H832.919V462.899ZM870.134 519.525V462H871.316V519.525H870.134ZM870.725 462.899H832.919V461.101H870.725V462.899ZM907.94 519.525V462H909.122V519.525H907.94ZM908.531 462.899H870.725V461.101H908.531V462.899ZM945.747 519.525V462H946.928V519.525H945.747ZM946.337 462.899H908.531V461.101H946.337V462.899ZM983.553 519.525V462H984.734V519.525H983.553ZM984.144 462.899H946.337V461.101H984.144V462.899ZM1021.36 519.525V462H1022.54V519.525H1021.36ZM1021.95 462.899H984.144V461.101H1021.95V462.899ZM1059.17 519.525V462H1060.35V519.525H1059.17ZM1059.76 462.899H1021.95V461.101H1059.76V462.899ZM1096.97 519.525V462H1098.15V519.525H1096.97ZM1097.56 462.899H1059.76V461.101H1097.56V462.899ZM1134.78 519.525V462H1135.96V519.525H1134.78ZM1135.37 462.899H1097.56V461.101H1135.37V462.899ZM1172.58 519.525V462H1173.77V519.525H1172.58ZM1173.17 462.899H1135.37V461.101H1173.17V462.899ZM1210.39 519.525V462H1211.57V519.525H1210.39ZM1210.98 462.899H1173.17V461.101H1210.98V462.899ZM1248.2 519.525V462H1249.38V519.525H1248.2ZM1248.79 462.899H1210.98V461.101H1248.79V462.899ZM1286 519.525V462H1287.18V519.525H1286ZM1286.59 462.899H1248.79V461.101H1286.59V462.899ZM1323.81 519.525V462H1324.99V519.525H1323.81ZM1324.4 462.899H1286.59V461.101H1324.4V462.899ZM1361.62 519.525V462H1362.8V519.525H1361.62ZM1362.21 462.899H1324.4V461.101H1362.21V462.899ZM1399.42 519.525V462H1400.6V519.525H1399.42ZM1400.01 462.899H1362.21V461.101H1400.01V462.899ZM1437.82 462.899H1400.01V461.101H1437.82V462.899ZM38.397 462V404.475H39.5784V462H38.397ZM38.9877 405.374H1.18145V403.576H38.9877V405.374ZM76.2032 462V404.475H77.3847V462H76.2032ZM76.7939 405.374H38.9877V403.576H76.7939V405.374ZM114.009 462V404.475H115.191V462H114.009ZM114.6 405.374H76.7939V403.576H114.6V405.374ZM151.816 462V404.475H152.997V462H151.816ZM152.406 405.374H114.6V403.576H152.406V405.374ZM189.622 462V404.475H190.803V462H189.622ZM190.213 405.374H152.406V403.576H190.213V405.374ZM227.428 462V404.475H228.61V462H227.428ZM228.019 405.374H190.213V403.576H228.019V405.374ZM265.234 462V404.475H266.416V462H265.234ZM265.825 405.374H228.019V403.576H265.825V405.374ZM303.041 462V404.475H304.222V462H303.041ZM303.631 405.374H265.825V403.576H303.631V405.374ZM340.847 462V404.475H342.028V462H340.847ZM341.438 405.374H303.631V403.576H341.438V405.374ZM378.653 462V404.475H379.835V462H378.653ZM379.244 405.374H341.438V403.576H379.244V405.374ZM416.459 462V404.475H417.641V462H416.459ZM417.05 405.374H379.244V403.576H417.05V405.374ZM454.266 462V404.475H455.447V462H454.266ZM454.856 405.374H417.05V403.576H454.856V405.374ZM492.072 462V404.475H493.253V462H492.072ZM492.663 405.374H454.856V403.576H492.663V405.374ZM529.878 462V404.475H531.06V462H529.878ZM530.469 405.374H492.663V403.576H530.469V405.374ZM567.684 462V404.475H568.866V462H567.684ZM568.275 405.374H530.469V403.576H568.275V405.374ZM605.491 462V404.475H606.672V462H605.491ZM606.081 405.374H568.275V403.576H606.081V405.374ZM643.297 462V404.475H644.478V462H643.297ZM643.888 405.374H606.081V403.576H643.888V405.374ZM681.103 462V404.475H682.284V462H681.103ZM681.694 405.374H643.888V403.576H681.694V405.374ZM718.909 462V404.475H720.091V462H718.909ZM719.5 405.374H681.694V403.576H719.5V405.374ZM756.716 462V404.475H757.897V462H756.716ZM757.306 405.374H719.5V403.576H757.306V405.374ZM794.522 462V404.475H795.703V462H794.522ZM795.112 405.374H757.306V403.576H795.112V405.374ZM832.328 462V404.475H833.509V462H832.328ZM832.919 405.374H795.112V403.576H832.919V405.374ZM870.134 462V404.475H871.316V462H870.134ZM870.725 405.374H832.919V403.576H870.725V405.374ZM907.94 462V404.475H909.122V462H907.94ZM908.531 405.374H870.725V403.576H908.531V405.374ZM945.747 462V404.475H946.928V462H945.747ZM946.337 405.374H908.531V403.576H946.337V405.374ZM983.553 462V404.475H984.734V462H983.553ZM984.144 405.374H946.337V403.576H984.144V405.374ZM1021.36 462V404.475H1022.54V462H1021.36ZM1021.95 405.374H984.144V403.576H1021.95V405.374ZM1059.17 462V404.475H1060.35V462H1059.17ZM1059.76 405.374H1021.95V403.576H1059.76V405.374ZM1096.97 462V404.475H1098.15V462H1096.97ZM1097.56 405.374H1059.76V403.576H1097.56V405.374ZM1134.78 462V404.475H1135.96V462H1134.78ZM1135.37 405.374H1097.56V403.576H1135.37V405.374ZM1172.58 462V404.475H1173.77V462H1172.58ZM1173.17 405.374H1135.37V403.576H1173.17V405.374ZM1210.39 462V404.475H1211.57V462H1210.39ZM1210.98 405.374H1173.17V403.576H1210.98V405.374ZM1248.2 462V404.475H1249.38V462H1248.2ZM1248.79 405.374H1210.98V403.576H1248.79V405.374ZM1286 462V404.475H1287.18V462H1286ZM1286.59 405.374H1248.79V403.576H1286.59V405.374ZM1323.81 462V404.475H1324.99V462H1323.81ZM1324.4 405.374H1286.59V403.576H1324.4V405.374ZM1361.62 462V404.475H1362.8V462H1361.62ZM1362.21 405.374H1324.4V403.576H1362.21V405.374ZM1399.42 462V404.475H1400.6V462H1399.42ZM1400.01 405.374H1362.21V403.576H1400.01V405.374ZM1437.82 405.374H1400.01V403.576H1437.82V405.374ZM38.397 404.475V346.949H39.5784V404.475H38.397ZM38.9877 347.848H1.18145V346.051H38.9877V347.848ZM76.2032 404.475V346.949H77.3847V404.475H76.2032ZM76.7939 347.848H38.9877V346.051H76.7939V347.848ZM114.009 404.475V346.949H115.191V404.475H114.009ZM114.6 347.848H76.7939V346.051H114.6V347.848ZM151.816 404.475V346.949H152.997V404.475H151.816ZM152.406 347.848H114.6V346.051H152.406V347.848ZM189.622 404.475V346.949H190.803V404.475H189.622ZM190.213 347.848H152.406V346.051H190.213V347.848ZM227.428 404.475V346.949H228.61V404.475H227.428ZM228.019 347.848H190.213V346.051H228.019V347.848ZM265.234 404.475V346.949H266.416V404.475H265.234ZM265.825 347.848H228.019V346.051H265.825V347.848ZM303.041 404.475V346.949H304.222V404.475H303.041ZM303.631 347.848H265.825V346.051H303.631V347.848ZM340.847 404.475V346.949H342.028V404.475H340.847ZM341.438 347.848H303.631V346.051H341.438V347.848ZM378.653 404.475V346.949H379.835V404.475H378.653ZM379.244 347.848H341.438V346.051H379.244V347.848ZM416.459 404.475V346.949H417.641V404.475H416.459ZM417.05 347.848H379.244V346.051H417.05V347.848ZM454.266 404.475V346.949H455.447V404.475H454.266ZM454.856 347.848H417.05V346.051H454.856V347.848ZM492.072 404.475V346.949H493.253V404.475H492.072ZM492.663 347.848H454.856V346.051H492.663V347.848ZM529.878 404.475V346.949H531.06V404.475H529.878ZM530.469 347.848H492.663V346.051H530.469V347.848ZM567.684 404.475V346.949H568.866V404.475H567.684ZM568.275 347.848H530.469V346.051H568.275V347.848ZM605.491 404.475V346.949H606.672V404.475H605.491ZM606.081 347.848H568.275V346.051H606.081V347.848ZM643.297 404.475V346.949H644.478V404.475H643.297ZM643.888 347.848H606.081V346.051H643.888V347.848ZM681.103 404.475V346.949H682.284V404.475H681.103ZM681.694 347.848H643.888V346.051H681.694V347.848ZM718.909 404.475V346.949H720.091V404.475H718.909ZM719.5 347.848H681.694V346.051H719.5V347.848ZM756.716 404.475V346.949H757.897V404.475H756.716ZM757.306 347.848H719.5V346.051H757.306V347.848ZM794.522 404.475V346.949H795.703V404.475H794.522ZM795.112 347.848H757.306V346.051H795.112V347.848ZM832.328 404.475V346.949H833.509V404.475H832.328ZM832.919 347.848H795.112V346.051H832.919V347.848ZM870.134 404.475V346.949H871.316V404.475H870.134ZM870.725 347.848H832.919V346.051H870.725V347.848ZM907.94 404.475V346.949H909.122V404.475H907.94ZM908.531 347.848H870.725V346.051H908.531V347.848ZM945.747 404.475V346.949H946.928V404.475H945.747ZM946.337 347.848H908.531V346.051H946.337V347.848ZM983.553 404.475V346.949H984.734V404.475H983.553ZM984.144 347.848H946.337V346.051H984.144V347.848ZM1021.36 404.475V346.949H1022.54V404.475H1021.36ZM1021.95 347.848H984.144V346.051H1021.95V347.848ZM1059.17 404.475V346.949H1060.35V404.475H1059.17ZM1059.76 347.848H1021.95V346.051H1059.76V347.848ZM1096.97 404.475V346.949H1098.15V404.475H1096.97ZM1097.56 347.848H1059.76V346.051H1097.56V347.848ZM1134.78 404.475V346.949H1135.96V404.475H1134.78ZM1135.37 347.848H1097.56V346.051H1135.37V347.848ZM1172.58 404.475V346.949H1173.77V404.475H1172.58ZM1173.17 347.848H1135.37V346.051H1173.17V347.848ZM1210.39 404.475V346.949H1211.57V404.475H1210.39ZM1210.98 347.848H1173.17V346.051H1210.98V347.848ZM1248.2 404.475V346.949H1249.38V404.475H1248.2ZM1248.79 347.848H1210.98V346.051H1248.79V347.848ZM1286 404.475V346.949H1287.18V404.475H1286ZM1286.59 347.848H1248.79V346.051H1286.59V347.848ZM1323.81 404.475V346.949H1324.99V404.475H1323.81ZM1324.4 347.848H1286.59V346.051H1324.4V347.848ZM1361.62 404.475V346.949H1362.8V404.475H1361.62ZM1362.21 347.848H1324.4V346.051H1362.21V347.848ZM1399.42 404.475V346.949H1400.6V404.475H1399.42ZM1400.01 347.848H1362.21V346.051H1400.01V347.848ZM1437.82 347.848H1400.01V346.051H1437.82V347.848ZM38.397 346.949V289.424H39.5784V346.949H38.397ZM38.9877 290.323H1.18145V288.525H38.9877V290.323ZM76.2032 346.949V289.424H77.3847V346.949H76.2032ZM76.7939 290.323H38.9877V288.525H76.7939V290.323ZM114.009 346.949V289.424H115.191V346.949H114.009ZM114.6 290.323H76.7939V288.525H114.6V290.323ZM151.816 346.949V289.424H152.997V346.949H151.816ZM152.406 290.323H114.6V288.525H152.406V290.323ZM189.622 346.949V289.424H190.803V346.949H189.622ZM190.213 290.323H152.406V288.525H190.213V290.323ZM227.428 346.949V289.424H228.61V346.949H227.428ZM228.019 290.323H190.213V288.525H228.019V290.323ZM265.234 346.949V289.424H266.416V346.949H265.234ZM265.825 290.323H228.019V288.525H265.825V290.323ZM303.041 346.949V289.424H304.222V346.949H303.041ZM303.631 290.323H265.825V288.525H303.631V290.323ZM340.847 346.949V289.424H342.028V346.949H340.847ZM341.438 290.323H303.631V288.525H341.438V290.323ZM378.653 346.949V289.424H379.835V346.949H378.653ZM379.244 290.323H341.438V288.525H379.244V290.323ZM416.459 346.949V289.424H417.641V346.949H416.459ZM417.05 290.323H379.244V288.525H417.05V290.323ZM454.266 346.949V289.424H455.447V346.949H454.266ZM454.856 290.323H417.05V288.525H454.856V290.323ZM492.072 346.949V289.424H493.253V346.949H492.072ZM492.663 290.323H454.856V288.525H492.663V290.323ZM529.878 346.949V289.424H531.06V346.949H529.878ZM530.469 290.323H492.663V288.525H530.469V290.323ZM567.684 346.949V289.424H568.866V346.949H567.684ZM568.275 290.323H530.469V288.525H568.275V290.323ZM605.491 346.949V289.424H606.672V346.949H605.491ZM606.081 290.323H568.275V288.525H606.081V290.323ZM643.297 346.949V289.424H644.478V346.949H643.297ZM643.888 290.323H606.081V288.525H643.888V290.323ZM681.103 346.949V289.424H682.284V346.949H681.103ZM681.694 290.323H643.888V288.525H681.694V290.323ZM718.909 346.949V289.424H720.091V346.949H718.909ZM719.5 290.323H681.694V288.525H719.5V290.323ZM756.716 346.949V289.424H757.897V346.949H756.716ZM757.306 290.323H719.5V288.525H757.306V290.323ZM794.522 346.949V289.424H795.703V346.949H794.522ZM795.112 290.323H757.306V288.525H795.112V290.323ZM832.328 346.949V289.424H833.509V346.949H832.328ZM832.919 290.323H795.112V288.525H832.919V290.323ZM870.134 346.949V289.424H871.316V346.949H870.134ZM870.725 290.323H832.919V288.525H870.725V290.323ZM907.94 346.949V289.424H909.122V346.949H907.94ZM908.531 290.323H870.725V288.525H908.531V290.323ZM945.747 346.949V289.424H946.928V346.949H945.747ZM946.337 290.323H908.531V288.525H946.337V290.323ZM983.553 346.949V289.424H984.734V346.949H983.553ZM984.144 290.323H946.337V288.525H984.144V290.323ZM1021.36 346.949V289.424H1022.54V346.949H1021.36ZM1021.95 290.323H984.144V288.525H1021.95V290.323ZM1059.17 346.949V289.424H1060.35V346.949H1059.17ZM1059.76 290.323H1021.95V288.525H1059.76V290.323ZM1096.97 346.949V289.424H1098.15V346.949H1096.97ZM1097.56 290.323H1059.76V288.525H1097.56V290.323ZM1134.78 346.949V289.424H1135.96V346.949H1134.78ZM1135.37 290.323H1097.56V288.525H1135.37V290.323ZM1172.58 346.949V289.424H1173.77V346.949H1172.58ZM1173.17 290.323H1135.37V288.525H1173.17V290.323ZM1210.39 346.949V289.424H1211.57V346.949H1210.39ZM1210.98 290.323H1173.17V288.525H1210.98V290.323ZM1248.2 346.949V289.424H1249.38V346.949H1248.2ZM1248.79 290.323H1210.98V288.525H1248.79V290.323ZM1286 346.949V289.424H1287.18V346.949H1286ZM1286.59 290.323H1248.79V288.525H1286.59V290.323ZM1323.81 346.949V289.424H1324.99V346.949H1323.81ZM1324.4 290.323H1286.59V288.525H1324.4V290.323ZM1361.62 346.949V289.424H1362.8V346.949H1361.62ZM1362.21 290.323H1324.4V288.525H1362.21V290.323ZM1399.42 346.949V289.424H1400.6V346.949H1399.42ZM1400.01 290.323H1362.21V288.525H1400.01V290.323ZM1437.82 290.323H1400.01V288.525H1437.82V290.323ZM38.397 289.424V231.899H39.5784V289.424H38.397ZM38.9877 232.798H1.18145V231H38.9877V232.798ZM76.2032 289.424V231.899H77.3847V289.424H76.2032ZM76.7939 232.798H38.9877V231H76.7939V232.798ZM114.009 289.424V231.899H115.191V289.424H114.009ZM114.6 232.798H76.7939V231H114.6V232.798ZM151.816 289.424V231.899H152.997V289.424H151.816ZM152.406 232.798H114.6V231H152.406V232.798ZM189.622 289.424V231.899H190.803V289.424H189.622ZM190.213 232.798H152.406V231H190.213V232.798ZM227.428 289.424V231.899H228.61V289.424H227.428ZM228.019 232.798H190.213V231H228.019V232.798ZM265.234 289.424V231.899H266.416V289.424H265.234ZM265.825 232.798H228.019V231H265.825V232.798ZM303.041 289.424V231.899H304.222V289.424H303.041ZM303.631 232.798H265.825V231H303.631V232.798ZM340.847 289.424V231.899H342.028V289.424H340.847ZM341.438 232.798H303.631V231H341.438V232.798ZM378.653 289.424V231.899H379.835V289.424H378.653ZM379.244 232.798H341.438V231H379.244V232.798ZM416.459 289.424V231.899H417.641V289.424H416.459ZM417.05 232.798H379.244V231H417.05V232.798ZM454.266 289.424V231.899H455.447V289.424H454.266ZM454.856 232.798H417.05V231H454.856V232.798ZM492.072 289.424V231.899H493.253V289.424H492.072ZM492.663 232.798H454.856V231H492.663V232.798ZM529.878 289.424V231.899H531.06V289.424H529.878ZM530.469 232.798H492.663V231H530.469V232.798ZM567.684 289.424V231.899H568.866V289.424H567.684ZM568.275 232.798H530.469V231H568.275V232.798ZM605.491 289.424V231.899H606.672V289.424H605.491ZM606.081 232.798H568.275V231H606.081V232.798ZM643.297 289.424V231.899H644.478V289.424H643.297ZM643.888 232.798H606.081V231H643.888V232.798ZM681.103 289.424V231.899H682.284V289.424H681.103ZM681.694 232.798H643.888V231H681.694V232.798ZM718.909 289.424V231.899H720.091V289.424H718.909ZM719.5 232.798H681.694V231H719.5V232.798ZM756.716 289.424V231.899H757.897V289.424H756.716ZM757.306 232.798H719.5V231H757.306V232.798ZM794.522 289.424V231.899H795.703V289.424H794.522ZM795.112 232.798H757.306V231H795.112V232.798ZM832.328 289.424V231.899H833.509V289.424H832.328ZM832.919 232.798H795.112V231H832.919V232.798ZM870.134 289.424V231.899H871.316V289.424H870.134ZM870.725 232.798H832.919V231H870.725V232.798ZM907.94 289.424V231.899H909.122V289.424H907.94ZM908.531 232.798H870.725V231H908.531V232.798ZM945.747 289.424V231.899H946.928V289.424H945.747ZM946.337 232.798H908.531V231H946.337V232.798ZM983.553 289.424V231.899H984.734V289.424H983.553ZM984.144 232.798H946.337V231H984.144V232.798ZM1021.36 289.424V231.899H1022.54V289.424H1021.36ZM1021.95 232.798H984.144V231H1021.95V232.798ZM1059.17 289.424V231.899H1060.35V289.424H1059.17ZM1059.76 232.798H1021.95V231H1059.76V232.798ZM1096.97 289.424V231.899H1098.15V289.424H1096.97ZM1097.56 232.798H1059.76V231H1097.56V232.798ZM1134.78 289.424V231.899H1135.96V289.424H1134.78ZM1135.37 232.798H1097.56V231H1135.37V232.798ZM1172.58 289.424V231.899H1173.77V289.424H1172.58ZM1173.17 232.798H1135.37V231H1173.17V232.798ZM1210.39 289.424V231.899H1211.57V289.424H1210.39ZM1210.98 232.798H1173.17V231H1210.98V232.798ZM1248.2 289.424V231.899H1249.38V289.424H1248.2ZM1248.79 232.798H1210.98V231H1248.79V232.798ZM1286 289.424V231.899H1287.18V289.424H1286ZM1286.59 232.798H1248.79V231H1286.59V232.798ZM1323.81 289.424V231.899H1324.99V289.424H1323.81ZM1324.4 232.798H1286.59V231H1324.4V232.798ZM1361.62 289.424V231.899H1362.8V289.424H1361.62ZM1362.21 232.798H1324.4V231H1362.21V232.798ZM1399.42 289.424V231.899H1400.6V289.424H1399.42ZM1400.01 232.798H1362.21V231H1400.01V232.798ZM1437.82 232.798H1400.01V231H1437.82V232.798ZM38.397 231.899V174.374H39.5784V231.899H38.397ZM38.9877 175.272H1.18145V173.475H38.9877V175.272ZM76.2032 231.899V174.374H77.3847V231.899H76.2032ZM76.7939 175.272H38.9877V173.475H76.7939V175.272ZM114.009 231.899V174.374H115.191V231.899H114.009ZM114.6 175.272H76.7939V173.475H114.6V175.272ZM151.816 231.899V174.374H152.997V231.899H151.816ZM152.406 175.272H114.6V173.475H152.406V175.272ZM189.622 231.899V174.374H190.803V231.899H189.622ZM190.213 175.272H152.406V173.475H190.213V175.272ZM227.428 231.899V174.374H228.61V231.899H227.428ZM228.019 175.272H190.213V173.475H228.019V175.272ZM265.234 231.899V174.374H266.416V231.899H265.234ZM265.825 175.272H228.019V173.475H265.825V175.272ZM303.041 231.899V174.374H304.222V231.899H303.041ZM303.631 175.272H265.825V173.475H303.631V175.272ZM340.847 231.899V174.374H342.028V231.899H340.847ZM341.438 175.272H303.631V173.475H341.438V175.272ZM378.653 231.899V174.374H379.835V231.899H378.653ZM379.244 175.272H341.438V173.475H379.244V175.272ZM416.459 231.899V174.374H417.641V231.899H416.459ZM417.05 175.272H379.244V173.475H417.05V175.272ZM454.266 231.899V174.374H455.447V231.899H454.266ZM454.856 175.272H417.05V173.475H454.856V175.272ZM492.072 231.899V174.374H493.253V231.899H492.072ZM492.663 175.272H454.856V173.475H492.663V175.272ZM529.878 231.899V174.374H531.06V231.899H529.878ZM530.469 175.272H492.663V173.475H530.469V175.272ZM567.684 231.899V174.374H568.866V231.899H567.684ZM568.275 175.272H530.469V173.475H568.275V175.272ZM605.491 231.899V174.374H606.672V231.899H605.491ZM606.081 175.272H568.275V173.475H606.081V175.272ZM643.297 231.899V174.374H644.478V231.899H643.297ZM643.888 175.272H606.081V173.475H643.888V175.272ZM681.103 231.899V174.374H682.284V231.899H681.103ZM681.694 175.272H643.888V173.475H681.694V175.272ZM718.909 231.899V174.374H720.091V231.899H718.909ZM719.5 175.272H681.694V173.475H719.5V175.272ZM756.716 231.899V174.374H757.897V231.899H756.716ZM757.306 175.272H719.5V173.475H757.306V175.272ZM794.522 231.899V174.374H795.703V231.899H794.522ZM795.112 175.272H757.306V173.475H795.112V175.272ZM832.328 231.899V174.374H833.509V231.899H832.328ZM832.919 175.272H795.112V173.475H832.919V175.272ZM870.134 231.899V174.374H871.316V231.899H870.134ZM870.725 175.272H832.919V173.475H870.725V175.272ZM907.94 231.899V174.374H909.122V231.899H907.94ZM908.531 175.272H870.725V173.475H908.531V175.272ZM945.747 231.899V174.374H946.928V231.899H945.747ZM946.337 175.272H908.531V173.475H946.337V175.272ZM983.553 231.899V174.374H984.734V231.899H983.553ZM984.144 175.272H946.337V173.475H984.144V175.272ZM1021.36 231.899V174.374H1022.54V231.899H1021.36ZM1021.95 175.272H984.144V173.475H1021.95V175.272ZM1059.17 231.899V174.374H1060.35V231.899H1059.17ZM1059.76 175.272H1021.95V173.475H1059.76V175.272ZM1096.97 231.899V174.374H1098.15V231.899H1096.97ZM1097.56 175.272H1059.76V173.475H1097.56V175.272ZM1134.78 231.899V174.374H1135.96V231.899H1134.78ZM1135.37 175.272H1097.56V173.475H1135.37V175.272ZM1172.58 231.899V174.374H1173.77V231.899H1172.58ZM1173.17 175.272H1135.37V173.475H1173.17V175.272ZM1210.39 231.899V174.374H1211.57V231.899H1210.39ZM1210.98 175.272H1173.17V173.475H1210.98V175.272ZM1248.2 231.899V174.374H1249.38V231.899H1248.2ZM1248.79 175.272H1210.98V173.475H1248.79V175.272ZM1286 231.899V174.374H1287.18V231.899H1286ZM1286.59 175.272H1248.79V173.475H1286.59V175.272ZM1323.81 231.899V174.374H1324.99V231.899H1323.81ZM1324.4 175.272H1286.59V173.475H1324.4V175.272ZM1361.62 231.899V174.374H1362.8V231.899H1361.62ZM1362.21 175.272H1324.4V173.475H1362.21V175.272ZM1399.42 231.899V174.374H1400.6V231.899H1399.42ZM1400.01 175.272H1362.21V173.475H1400.01V175.272ZM1437.82 175.272H1400.01V173.475H1437.82V175.272ZM38.397 174.374V116.848H39.5784V174.374H38.397ZM38.9877 117.747H1.18145V115.949H38.9877V117.747ZM76.2032 174.374V116.848H77.3847V174.374H76.2032ZM76.7939 117.747H38.9877V115.949H76.7939V117.747ZM114.009 174.374V116.848H115.191V174.374H114.009ZM114.6 117.747H76.7939V115.949H114.6V117.747ZM151.816 174.374V116.848H152.997V174.374H151.816ZM152.406 117.747H114.6V115.949H152.406V117.747ZM189.622 174.374V116.848H190.803V174.374H189.622ZM190.213 117.747H152.406V115.949H190.213V117.747ZM227.428 174.374V116.848H228.61V174.374H227.428ZM228.019 117.747H190.213V115.949H228.019V117.747ZM265.234 174.374V116.848H266.416V174.374H265.234ZM265.825 117.747H228.019V115.949H265.825V117.747ZM303.041 174.374V116.848H304.222V174.374H303.041ZM303.631 117.747H265.825V115.949H303.631V117.747ZM340.847 174.374V116.848H342.028V174.374H340.847ZM341.438 117.747H303.631V115.949H341.438V117.747ZM378.653 174.374V116.848H379.835V174.374H378.653ZM379.244 117.747H341.438V115.949H379.244V117.747ZM416.459 174.374V116.848H417.641V174.374H416.459ZM417.05 117.747H379.244V115.949H417.05V117.747ZM454.266 174.374V116.848H455.447V174.374H454.266ZM454.856 117.747H417.05V115.949H454.856V117.747ZM492.072 174.374V116.848H493.253V174.374H492.072ZM492.663 117.747H454.856V115.949H492.663V117.747ZM529.878 174.374V116.848H531.06V174.374H529.878ZM530.469 117.747H492.663V115.949H530.469V117.747ZM567.684 174.374V116.848H568.866V174.374H567.684ZM568.275 117.747H530.469V115.949H568.275V117.747ZM605.491 174.374V116.848H606.672V174.374H605.491ZM606.081 117.747H568.275V115.949H606.081V117.747ZM643.297 174.374V116.848H644.478V174.374H643.297ZM643.888 117.747H606.081V115.949H643.888V117.747ZM681.103 174.374V116.848H682.284V174.374H681.103ZM681.694 117.747H643.888V115.949H681.694V117.747ZM718.909 174.374V116.848H720.091V174.374H718.909ZM719.5 117.747H681.694V115.949H719.5V117.747ZM756.716 174.374V116.848H757.897V174.374H756.716ZM757.306 117.747H719.5V115.949H757.306V117.747ZM794.522 174.374V116.848H795.703V174.374H794.522ZM795.112 117.747H757.306V115.949H795.112V117.747ZM832.328 174.374V116.848H833.509V174.374H832.328ZM832.919 117.747H795.112V115.949H832.919V117.747ZM870.134 174.374V116.848H871.316V174.374H870.134ZM870.725 117.747H832.919V115.949H870.725V117.747ZM907.94 174.374V116.848H909.122V174.374H907.94ZM908.531 117.747H870.725V115.949H908.531V117.747ZM945.747 174.374V116.848H946.928V174.374H945.747ZM946.337 117.747H908.531V115.949H946.337V117.747ZM983.553 174.374V116.848H984.734V174.374H983.553ZM984.144 117.747H946.337V115.949H984.144V117.747ZM1021.36 174.374V116.848H1022.54V174.374H1021.36ZM1021.95 117.747H984.144V115.949H1021.95V117.747ZM1059.17 174.374V116.848H1060.35V174.374H1059.17ZM1059.76 117.747H1021.95V115.949H1059.76V117.747ZM1096.97 174.374V116.848H1098.15V174.374H1096.97ZM1097.56 117.747H1059.76V115.949H1097.56V117.747ZM1134.78 174.374V116.848H1135.96V174.374H1134.78ZM1135.37 117.747H1097.56V115.949H1135.37V117.747ZM1172.58 174.374V116.848H1173.77V174.374H1172.58ZM1173.17 117.747H1135.37V115.949H1173.17V117.747ZM1210.39 174.374V116.848H1211.57V174.374H1210.39ZM1210.98 117.747H1173.17V115.949H1210.98V117.747ZM1248.2 174.374V116.848H1249.38V174.374H1248.2ZM1248.79 117.747H1210.98V115.949H1248.79V117.747ZM1286 174.374V116.848H1287.18V174.374H1286ZM1286.59 117.747H1248.79V115.949H1286.59V117.747ZM1323.81 174.374V116.848H1324.99V174.374H1323.81ZM1324.4 117.747H1286.59V115.949H1324.4V117.747ZM1361.62 174.374V116.848H1362.8V174.374H1361.62ZM1362.21 117.747H1324.4V115.949H1362.21V117.747ZM1399.42 174.374V116.848H1400.6V174.374H1399.42ZM1400.01 117.747H1362.21V115.949H1400.01V117.747ZM1437.82 117.747H1400.01V115.949H1437.82V117.747ZM38.397 116.848V59.323H39.5784V116.848H38.397ZM38.9877 60.2218H1.18145V58.4241H38.9877V60.2218ZM76.2032 116.848V59.323H77.3847V116.848H76.2032ZM76.7939 60.2218H38.9877V58.4241H76.7939V60.2218ZM114.009 116.848V59.323H115.191V116.848H114.009ZM114.6 60.2218H76.7939V58.4241H114.6V60.2218ZM151.816 116.848V59.323H152.997V116.848H151.816ZM152.406 60.2218H114.6V58.4241H152.406V60.2218ZM189.622 116.848V59.323H190.803V116.848H189.622ZM190.213 60.2218H152.406V58.4241H190.213V60.2218ZM227.428 116.848V59.323H228.61V116.848H227.428ZM228.019 60.2218H190.213V58.4241H228.019V60.2218ZM265.234 116.848V59.323H266.416V116.848H265.234ZM265.825 60.2218H228.019V58.4241H265.825V60.2218ZM303.041 116.848V59.323H304.222V116.848H303.041ZM303.631 60.2218H265.825V58.4241H303.631V60.2218ZM340.847 116.848V59.323H342.028V116.848H340.847ZM341.438 60.2218H303.631V58.4241H341.438V60.2218ZM378.653 116.848V59.323H379.835V116.848H378.653ZM379.244 60.2218H341.438V58.4241H379.244V60.2218ZM416.459 116.848V59.323H417.641V116.848H416.459ZM417.05 60.2218H379.244V58.4241H417.05V60.2218ZM454.266 116.848V59.323H455.447V116.848H454.266ZM454.856 60.2218H417.05V58.4241H454.856V60.2218ZM492.072 116.848V59.323H493.253V116.848H492.072ZM492.663 60.2218H454.856V58.4241H492.663V60.2218ZM529.878 116.848V59.323H531.06V116.848H529.878ZM530.469 60.2218H492.663V58.4241H530.469V60.2218ZM567.684 116.848V59.323H568.866V116.848H567.684ZM568.275 60.2218H530.469V58.4241H568.275V60.2218ZM605.491 116.848V59.323H606.672V116.848H605.491ZM606.081 60.2218H568.275V58.4241H606.081V60.2218ZM643.297 116.848V59.323H644.478V116.848H643.297ZM643.888 60.2218H606.081V58.4241H643.888V60.2218ZM681.103 116.848V59.323H682.284V116.848H681.103ZM681.694 60.2218H643.888V58.4241H681.694V60.2218ZM718.909 116.848V59.323H720.091V116.848H718.909ZM719.5 60.2218H681.694V58.4241H719.5V60.2218ZM756.716 116.848V59.323H757.897V116.848H756.716ZM757.306 60.2218H719.5V58.4241H757.306V60.2218ZM794.522 116.848V59.323H795.703V116.848H794.522ZM795.112 60.2218H757.306V58.4241H795.112V60.2218ZM832.328 116.848V59.323H833.509V116.848H832.328ZM832.919 60.2218H795.112V58.4241H832.919V60.2218ZM870.134 116.848V59.323H871.316V116.848H870.134ZM870.725 60.2218H832.919V58.4241H870.725V60.2218ZM907.94 116.848V59.323H909.122V116.848H907.94ZM908.531 60.2218H870.725V58.4241H908.531V60.2218ZM945.747 116.848V59.323H946.928V116.848H945.747ZM946.337 60.2218H908.531V58.4241H946.337V60.2218ZM983.553 116.848V59.323H984.734V116.848H983.553ZM984.144 60.2218H946.337V58.4241H984.144V60.2218ZM1021.36 116.848V59.323H1022.54V116.848H1021.36ZM1021.95 60.2218H984.144V58.4241H1021.95V60.2218ZM1059.17 116.848V59.323H1060.35V116.848H1059.17ZM1059.76 60.2218H1021.95V58.4241H1059.76V60.2218ZM1096.97 116.848V59.323H1098.15V116.848H1096.97ZM1097.56 60.2218H1059.76V58.4241H1097.56V60.2218ZM1134.78 116.848V59.323H1135.96V116.848H1134.78ZM1135.37 60.2218H1097.56V58.4241H1135.37V60.2218ZM1172.58 116.848V59.323H1173.77V116.848H1172.58ZM1173.17 60.2218H1135.37V58.4241H1173.17V60.2218ZM1210.39 116.848V59.323H1211.57V116.848H1210.39ZM1210.98 60.2218H1173.17V58.4241H1210.98V60.2218ZM1248.2 116.848V59.323H1249.38V116.848H1248.2ZM1248.79 60.2218H1210.98V58.4241H1248.79V60.2218ZM1286 116.848V59.323H1287.18V116.848H1286ZM1286.59 60.2218H1248.79V58.4241H1286.59V60.2218ZM1323.81 116.848V59.323H1324.99V116.848H1323.81ZM1324.4 60.2218H1286.59V58.4241H1324.4V60.2218ZM1361.62 116.848V59.323H1362.8V116.848H1361.62ZM1362.21 60.2218H1324.4V58.4241H1362.21V60.2218ZM1399.42 116.848V59.323H1400.6V116.848H1399.42ZM1400.01 60.2218H1362.21V58.4241H1400.01V60.2218ZM1437.82 60.2218H1400.01V58.4241H1437.82V60.2218ZM38.397 59.323V1.79767H39.5784V59.323H38.397ZM76.2032 59.323V1.79767H77.3847V59.323H76.2032ZM114.009 59.323V1.79767H115.191V59.323H114.009ZM151.816 59.323V1.79767H152.997V59.323H151.816ZM189.622 59.323V1.79767H190.803V59.323H189.622ZM227.428 59.323V1.79767H228.61V59.323H227.428ZM265.234 59.323V1.79767H266.416V59.323H265.234ZM303.041 59.323V1.79767H304.222V59.323H303.041ZM340.847 59.323V1.79767H342.028V59.323H340.847ZM378.653 59.323V1.79767H379.835V59.323H378.653ZM416.459 59.323V1.79767H417.641V59.323H416.459ZM454.266 59.323V1.79767H455.447V59.323H454.266ZM492.072 59.323V1.79767H493.253V59.323H492.072ZM529.878 59.323V1.79767H531.06V59.323H529.878ZM567.684 59.323V1.79767H568.866V59.323H567.684ZM605.491 59.323V1.79767H606.672V59.323H605.491ZM643.297 59.323V1.79767H644.478V59.323H643.297ZM681.103 59.323V1.79767H682.284V59.323H681.103ZM718.909 59.323V1.79767H720.091V59.323H718.909ZM756.716 59.323V1.79767H757.897V59.323H756.716ZM794.522 59.323V1.79767H795.703V59.323H794.522ZM832.328 59.323V1.79767H833.509V59.323H832.328ZM870.134 59.323V1.79767H871.316V59.323H870.134ZM907.94 59.323V1.79767H909.122V59.323H907.94ZM945.747 59.323V1.79767H946.928V59.323H945.747ZM983.553 59.323V1.79767H984.734V59.323H983.553ZM1021.36 59.323V1.79767H1022.54V59.323H1021.36ZM1059.17 59.323V1.79767H1060.35V59.323H1059.17ZM1096.97 59.323V1.79767H1098.15V59.323H1096.97ZM1134.78 59.323V1.79767H1135.96V59.323H1134.78ZM1172.58 59.323V1.79767H1173.77V59.323H1172.58ZM1210.39 59.323V1.79767H1211.57V59.323H1210.39ZM1248.2 59.323V1.79767H1249.38V59.323H1248.2ZM1286 59.323V1.79767H1287.18V59.323H1286ZM1323.81 59.323V1.79767H1324.99V59.323H1323.81ZM1361.62 59.323V1.79767H1362.8V59.323H1361.62ZM1399.42 59.323V1.79767H1400.6V59.323H1399.42ZM1.18145 922.202V924H0V922.202H1.18145ZM1437.82 922.202H1439V924H1437.82V922.202ZM1.18145 1.79767H0V0H1.18145V1.79767ZM1437.82 1.79767V0H1439V1.79767H1437.82ZM1.18145 920.405H38.9877V924H1.18145V920.405ZM2.36289 864.677V922.202H0V864.677H2.36289ZM38.9877 920.405H76.7939V924H38.9877V920.405ZM76.7939 920.405H114.6V924H76.7939V920.405ZM114.6 920.405H152.406V924H114.6V920.405ZM152.406 920.405H190.213V924H152.406V920.405ZM190.213 920.405H228.019V924H190.213V920.405ZM228.019 920.405H265.825V924H228.019V920.405ZM265.825 920.405H303.631V924H265.825V920.405ZM303.631 920.405H341.438V924H303.631V920.405ZM341.438 920.405H379.244V924H341.438V920.405ZM379.244 920.405H417.05V924H379.244V920.405ZM417.05 920.405H454.856V924H417.05V920.405ZM454.856 920.405H492.663V924H454.856V920.405ZM492.663 920.405H530.469V924H492.663V920.405ZM530.469 920.405H568.275V924H530.469V920.405ZM568.275 920.405H606.081V924H568.275V920.405ZM606.081 920.405H643.888V924H606.081V920.405ZM643.888 920.405H681.694V924H643.888V920.405ZM681.694 920.405H719.5V924H681.694V920.405ZM719.5 920.405H757.306V924H719.5V920.405ZM757.306 920.405H795.112V924H757.306V920.405ZM795.112 920.405H832.919V924H795.112V920.405ZM832.919 920.405H870.725V924H832.919V920.405ZM870.725 920.405H908.531V924H870.725V920.405ZM908.531 920.405H946.337V924H908.531V920.405ZM946.337 920.405H984.144V924H946.337V920.405ZM984.144 920.405H1021.95V924H984.144V920.405ZM1021.95 920.405H1059.76V924H1021.95V920.405ZM1059.76 920.405H1097.56V924H1059.76V920.405ZM1097.56 920.405H1135.37V924H1097.56V920.405ZM1135.37 920.405H1173.17V924H1135.37V920.405ZM1173.17 920.405H1210.98V924H1173.17V920.405ZM1210.98 920.405H1248.79V924H1210.98V920.405ZM1248.79 920.405H1286.59V924H1248.79V920.405ZM1286.59 920.405H1324.4V924H1286.59V920.405ZM1324.4 920.405H1362.21V924H1324.4V920.405ZM1362.21 920.405H1400.01V924H1362.21V920.405ZM1400.01 920.405H1437.82V924H1400.01V920.405ZM1436.64 922.202V864.677H1439V922.202H1436.64ZM2.36289 807.152V864.677H0V807.152H2.36289ZM1436.64 864.677V807.152H1439V864.677H1436.64ZM2.36289 749.626V807.152H0V749.626H2.36289ZM1436.64 807.152V749.626H1439V807.152H1436.64ZM2.36289 692.101V749.626H0V692.101H2.36289ZM1436.64 749.626V692.101H1439V749.626H1436.64ZM2.36289 634.576V692.101H0V634.576H2.36289ZM1436.64 692.101V634.576H1439V692.101H1436.64ZM2.36289 577.051V634.576H0V577.051H2.36289ZM1436.64 634.576V577.051H1439V634.576H1436.64ZM2.36289 519.525V577.051H0V519.525H2.36289ZM1436.64 577.051V519.525H1439V577.051H1436.64ZM2.36289 462V519.525H0V462H2.36289ZM1436.64 519.525V462H1439V519.525H1436.64ZM2.36289 404.475V462H0V404.475H2.36289ZM1436.64 462V404.475H1439V462H1436.64ZM2.36289 346.949V404.475H0V346.949H2.36289ZM1436.64 404.475V346.949H1439V404.475H1436.64ZM2.36289 289.424V346.949H0V289.424H2.36289ZM1436.64 346.949V289.424H1439V346.949H1436.64ZM2.36289 231.899V289.424H0V231.899H2.36289ZM1436.64 289.424V231.899H1439V289.424H1436.64ZM2.36289 174.374V231.899H0V174.374H2.36289ZM1436.64 231.899V174.374H1439V231.899H1436.64ZM2.36289 116.848V174.374H0V116.848H2.36289ZM1436.64 174.374V116.848H1439V174.374H1436.64ZM2.36289 59.323V116.848H0V59.323H2.36289ZM1436.64 116.848V59.323H1439V116.848H1436.64ZM38.9877 3.59533H1.18145V0H38.9877V3.59533ZM2.36289 1.79767V59.323H0V1.79767H2.36289ZM76.7939 3.59533H38.9877V0H76.7939V3.59533ZM114.6 3.59533H76.7939V0H114.6V3.59533ZM152.406 3.59533H114.6V0H152.406V3.59533ZM190.213 3.59533H152.406V0H190.213V3.59533ZM228.019 3.59533H190.213V0H228.019V3.59533ZM265.825 3.59533H228.019V0H265.825V3.59533ZM303.631 3.59533H265.825V0H303.631V3.59533ZM341.438 3.59533H303.631V0H341.438V3.59533ZM379.244 3.59533H341.438V0H379.244V3.59533ZM417.05 3.59533H379.244V0H417.05V3.59533ZM454.856 3.59533H417.05V0H454.856V3.59533ZM492.663 3.59533H454.856V0H492.663V3.59533ZM530.469 3.59533H492.663V0H530.469V3.59533ZM568.275 3.59533H530.469V0H568.275V3.59533ZM606.081 3.59533H568.275V0H606.081V3.59533ZM643.888 3.59533H606.081V0H643.888V3.59533ZM681.694 3.59533H643.888V0H681.694V3.59533ZM719.5 3.59533H681.694V0H719.5V3.59533ZM757.306 3.59533H719.5V0H757.306V3.59533ZM795.112 3.59533H757.306V0H795.112V3.59533ZM832.919 3.59533H795.112V0H832.919V3.59533ZM870.725 3.59533H832.919V0H870.725V3.59533ZM908.531 3.59533H870.725V0H908.531V3.59533ZM946.337 3.59533H908.531V0H946.337V3.59533ZM984.144 3.59533H946.337V0H984.144V3.59533ZM1021.95 3.59533H984.144V0H1021.95V3.59533ZM1059.76 3.59533H1021.95V0H1059.76V3.59533ZM1097.56 3.59533H1059.76V0H1097.56V3.59533ZM1135.37 3.59533H1097.56V0H1135.37V3.59533ZM1173.17 3.59533H1135.37V0H1173.17V3.59533ZM1210.98 3.59533H1173.17V0H1210.98V3.59533ZM1248.79 3.59533H1210.98V0H1248.79V3.59533ZM1286.59 3.59533H1248.79V0H1286.59V3.59533ZM1324.4 3.59533H1286.59V0H1324.4V3.59533ZM1362.21 3.59533H1324.4V0H1362.21V3.59533ZM1400.01 3.59533H1362.21V0H1400.01V3.59533ZM1436.64 59.323V1.79767H1439V59.323H1436.64ZM1437.82 3.59533H1400.01V0H1437.82V3.59533Z" fill="url(#paint0_radial_9568_4963)" fill-opacity="0.24"/>
<defs>
<radialGradient id="paint0_radial_9568_4963" cx="0" cy="0" r="1" gradientUnits="userSpaceOnUse" gradientTransform="translate(719.5 941.078) rotate(-90) scale(685.809 1070.46)">
<stop stop-color="#C3C3C3"/>
<stop offset="1" stop-color="#422222" stop-opacity="0"/>
</radialGradient>
</defs>
</svg>
