<svg width="28" height="28" viewBox="0 0 28 28" fill="none" xmlns="http://www.w3.org/2000/svg">
<path d="M20.7783 6.40565V7.26898L16.6483 4.87732C15.085 3.97898 12.9033 3.97898 11.3517 4.87732L7.22168 7.28065V6.40565C7.22168 3.78065 8.65668 2.33398 11.2817 2.33398H16.7183C19.3433 2.33398 20.7783 3.78065 20.7783 6.40565Z" fill="#225AEA"/>
<path d="M20.8135 9.29763L20.6502 9.21596L19.0635 8.30596L15.7735 6.4043C14.7702 5.82096 13.2302 5.82096 12.2268 6.4043L8.93683 8.2943L7.35016 9.22763L7.14016 9.33263C5.0985 10.7093 4.9585 10.966 4.9585 13.171V18.4443C4.9585 20.6493 5.0985 20.906 7.18683 22.3176L12.2268 25.2226C12.7285 25.526 13.3585 25.6543 14.0002 25.6543C14.6302 25.6543 15.2718 25.5143 15.7735 25.2226L20.8602 22.2826C22.9135 20.906 23.0418 20.661 23.0418 18.4443V13.171C23.0418 10.966 22.9018 10.7093 20.8135 9.29763ZM17.2552 15.7493L16.5435 16.6243C16.4268 16.7526 16.3452 16.9976 16.3568 17.1726L16.4268 18.2926C16.4735 18.981 15.9835 19.331 15.3418 19.086L14.3035 18.666C14.1402 18.6076 13.8718 18.6076 13.7085 18.666L12.6702 19.0743C12.0285 19.331 11.5385 18.9693 11.5852 18.281L11.6552 17.161C11.6668 16.986 11.5852 16.741 11.4685 16.6126L10.7452 15.7493C10.3018 15.2243 10.5002 14.641 11.1652 14.466L12.2502 14.186C12.4252 14.1393 12.6235 13.976 12.7168 13.836L13.3235 12.9026C13.6968 12.3193 14.2918 12.3193 14.6768 12.9026L15.2835 13.836C15.3768 13.9876 15.5868 14.1393 15.7502 14.186L16.8352 14.466C17.5002 14.641 17.6985 15.2243 17.2552 15.7493Z" fill="#225AEA"/>
</svg>
