<svg width="30" height="30" viewBox="0 0 30 30" fill="none" xmlns="http://www.w3.org/2000/svg">
<path d="M25.125 8.675C25.125 9.35 24.7625 9.9625 24.1875 10.275L22.0125 11.45L20.1625 12.4375L16.325 14.5125C15.9125 14.7375 15.4625 14.85 15 14.85C14.5375 14.85 14.0875 14.7375 13.675 14.5125L5.8125 10.275C5.2375 9.9625 4.875 9.35 4.875 8.675C4.875 8 5.2375 7.3875 5.8125 7.075L8.275 5.75L10.2375 4.6875L13.675 2.8375C14.5 2.3875 15.5 2.3875 16.325 2.8375L24.1875 7.075C24.7625 7.3875 25.125 8 25.125 8.675Z" fill="#225AEA"/>
<path d="M12.375 15.9867L5.06249 12.3367C4.49999 12.0492 3.84999 12.0867 3.31249 12.4117C2.77499 12.7367 2.46249 13.3117 2.46249 13.9367V20.8492C2.46249 22.0492 3.12499 23.1242 4.19999 23.6617L11.5125 27.3117C11.7625 27.4367 12.0375 27.4992 12.3125 27.4992C12.6375 27.4992 12.9625 27.4117 13.25 27.2242C13.7875 26.8992 14.1 26.3242 14.1 25.6992V18.7867C14.1125 17.5992 13.45 16.5242 12.375 15.9867Z" fill="#225AEA"/>
<path d="M27.5375 13.937V20.8495C27.5375 22.037 26.875 23.112 25.8 23.6495L18.4875 27.312C18.2375 27.437 17.9625 27.4995 17.6875 27.4995C17.3625 27.4995 17.0375 27.412 16.7375 27.2245C16.2125 26.8995 15.8875 26.3245 15.8875 25.6995V18.7995C15.8875 17.5995 16.55 16.5245 17.625 15.987L20.3125 14.6495L22.1875 13.712L24.9375 12.337C25.5 12.0495 26.15 12.0745 26.6875 12.412C27.2125 12.737 27.5375 13.312 27.5375 13.937Z" fill="#225AEA"/>
<path d="M22.0125 11.45L20.1625 12.4375L8.27499 5.75L10.2375 4.6875L21.7125 11.1625C21.8375 11.2375 21.9375 11.3375 22.0125 11.45Z" fill="#225AEA"/>
<path d="M22.1875 13.7129V16.5504C22.1875 17.0629 21.7625 17.4879 21.25 17.4879C20.7375 17.4879 20.3125 17.0629 20.3125 16.5504V14.6504L22.1875 13.7129Z" fill="#225AEA"/>
</svg>
