<svg width="28" height="28" viewBox="0 0 28 28" fill="none" xmlns="http://www.w3.org/2000/svg">
<path d="M24.6052 8.14279C23.6135 7.04612 21.9569 6.49779 19.5535 6.49779H19.2735V6.45112C19.2735 4.49112 19.2735 2.06445 14.8869 2.06445H13.1135C8.72687 2.06445 8.72687 4.50279 8.72687 6.45112V6.50945H8.44687C6.03187 6.50945 4.38687 7.05779 3.39521 8.15445C2.24021 9.43779 2.27521 11.1645 2.39187 12.3428L2.40354 12.4245L2.49766 13.4127C2.51193 13.5625 2.5926 13.6978 2.71841 13.7803C2.99298 13.9603 3.48814 14.2805 3.78021 14.4428C3.94354 14.5478 4.11854 14.6411 4.29354 14.7345C6.28854 15.8311 8.48187 16.5661 10.7102 16.9278C10.8152 18.0245 11.2935 19.3078 13.8485 19.3078C16.4035 19.3078 16.9052 18.0361 16.9869 16.9045C19.3669 16.5195 21.6652 15.6911 23.7419 14.4778C23.8119 14.4428 23.8585 14.4078 23.9169 14.3728C24.3901 14.1053 24.8815 13.7743 25.3271 13.4518C25.44 13.3701 25.5123 13.244 25.5277 13.1055L25.5502 12.9028L25.6085 12.3545C25.6202 12.2845 25.6202 12.2261 25.6319 12.1445C25.7252 10.9661 25.7019 9.35612 24.6052 8.14279ZM15.2719 16.1345C15.2719 17.3711 15.2719 17.5578 13.8369 17.5578C12.4019 17.5578 12.4019 17.3361 12.4019 16.1461V14.6761H15.2719V16.1345ZM10.3952 6.49779V6.45112C10.3952 4.46779 10.3952 3.73279 13.1135 3.73279H14.8869C17.6052 3.73279 17.6052 4.47945 17.6052 6.45112V6.50945H10.3952V6.49779Z" fill="#225AEA"/>
<path d="M24.4882 15.9579C24.8415 15.789 25.2476 16.0695 25.2122 16.4595L24.78 21.2212C24.535 23.5545 23.5783 25.9345 18.445 25.9345H9.55498C4.42165 25.9345 3.46498 23.5545 3.21998 21.2329L2.80927 16.715C2.77423 16.3296 3.17087 16.0492 3.52322 16.2094C4.82749 16.8023 7.43596 17.946 8.9997 18.347C9.16423 18.3891 9.2975 18.5068 9.3677 18.6614C10.0672 20.2024 11.6106 21.0229 13.8483 21.0229C16.0639 21.0229 17.6273 20.1708 18.3288 18.6266C18.3991 18.4718 18.5327 18.3542 18.6973 18.3119C20.3563 17.8849 23.1267 16.609 24.4882 15.9579Z" fill="#225AEA"/>
</svg>
