<svg width="28" height="28" viewBox="0 0 28 28" fill="none" xmlns="http://www.w3.org/2000/svg">
<path d="M16.2052 3.35919L10.7335 2.49585C6.17182 1.78419 4.06015 3.32419 3.33682 7.88585L2.47349 13.3575C2.00682 16.3442 2.49682 18.2809 4.18849 19.4592C5.07515 20.0892 6.28849 20.5092 7.86349 20.7542L13.3352 21.6175C17.8968 22.3292 20.0085 20.7892 20.7318 16.2275L21.5835 10.7559C21.7235 9.85752 21.7818 9.05252 21.7352 8.34085C21.5835 5.42419 19.8685 3.93085 16.2052 3.35919ZM9.61349 10.9075C8.24849 10.9075 7.14015 9.79919 7.14015 8.44585C7.14015 7.08085 8.24849 5.97252 9.61349 5.97252C10.9668 5.97252 12.0752 7.08085 12.0752 8.44585C12.0752 9.79919 10.9668 10.9075 9.61349 10.9075Z" fill="#225AEA"/>
<path d="M23.9166 15.7147L22.1666 20.9763C20.7082 25.363 18.3749 26.5297 13.9882 25.0713L8.72658 23.3213C7.08158 22.773 5.89158 22.0963 5.12158 21.2447C5.85658 21.5363 6.70825 21.758 7.67658 21.9097L13.1599 22.773C13.9066 22.8897 14.6066 22.948 15.2599 22.948C19.1099 22.948 21.1749 20.8713 21.8866 16.403L22.7382 10.9313C22.8549 10.2547 22.9016 9.65966 22.9016 9.11133C24.6749 10.5697 24.9316 12.6463 23.9166 15.7147Z" fill="#225AEA"/>
</svg>
