<svg width="28" height="28" viewBox="0 0 28 28" fill="none" xmlns="http://www.w3.org/2000/svg">
<path d="M19.8332 25.666H8.1665C7.68817 25.666 7.2915 25.2693 7.2915 24.791C7.2915 24.3127 7.68817 23.916 8.1665 23.916H19.8332C20.3115 23.916 20.7082 24.3127 20.7082 24.791C20.7082 25.2693 20.3115 25.666 19.8332 25.666Z" fill="#225AEA"/>
<path d="M23.7414 6.44086L19.0748 9.77753C18.4564 10.2209 17.5698 9.95253 17.3014 9.24086L15.0964 3.36086C14.7231 2.34586 13.2881 2.34586 12.9148 3.36086L10.6981 9.22919C10.4298 9.95253 9.55477 10.2209 8.93643 9.76586L4.26977 6.42919C3.33643 5.77586 2.09977 6.69753 2.48477 7.78253L7.3381 21.3742C7.50143 21.8409 7.94477 22.1442 8.43477 22.1442H19.5531C20.0431 22.1442 20.4864 21.8292 20.6498 21.3742L25.5031 7.78253C25.8998 6.69753 24.6631 5.77586 23.7414 6.44086ZM16.9164 17.2092H11.0831C10.6048 17.2092 10.2081 16.8125 10.2081 16.3342C10.2081 15.8559 10.6048 15.4592 11.0831 15.4592H16.9164C17.3948 15.4592 17.7914 15.8559 17.7914 16.3342C17.7914 16.8125 17.3948 17.2092 16.9164 17.2092Z" fill="#225AEA"/>
</svg>
