<svg width="28" height="28" viewBox="0 0 28 28" fill="none" xmlns="http://www.w3.org/2000/svg">
<path d="M22.6735 4.7056C22.8279 4.94817 22.5635 5.23075 22.2832 5.16703C21.7348 5.0037 21.1282 4.92203 20.5098 4.92203H16.6179C16.4606 4.92203 16.3126 4.84809 16.2181 4.7224L14.8515 2.9037C14.6871 2.67088 14.8425 2.33203 15.1275 2.33203H18.3398C20.161 2.33203 21.7652 3.27788 22.6735 4.7056Z" fill="#225AEA"/>
<path d="M23.4963 7.6287C22.9947 7.26703 22.423 6.9987 21.8047 6.84703C21.3847 6.73036 20.953 6.67203 20.5097 6.67203H16.1697C15.493 6.67203 15.4463 6.6137 15.0847 6.13536L13.4513 3.96536C12.693 2.95036 12.098 2.33203 10.1963 2.33203H7.48967C4.64301 2.33203 2.33301 4.64203 2.33301 7.4887V20.5087C2.33301 23.3554 4.64301 25.6654 7.48967 25.6654H20.5097C23.3563 25.6654 25.6663 23.3554 25.6663 20.5087V11.8287C25.6663 10.0904 24.8147 8.56203 23.4963 7.6287ZM16.788 19.062H11.1997C10.7447 19.062 10.3947 18.7004 10.3947 18.2454C10.3947 17.802 10.7447 17.4287 11.1997 17.4287H16.788C17.243 17.4287 17.6047 17.802 17.6047 18.2454C17.6047 18.7004 17.243 19.062 16.788 19.062Z" fill="#225AEA"/>
</svg>
