<svg width="26" height="26" viewBox="0 0 26 26" fill="none" xmlns="http://www.w3.org/2000/svg">
<path d="M9.25 11.0498C11.03 11.6998 12.97 11.6998 14.75 11.0498" stroke="#707BA0" stroke-width="2" strokeLinecap="round" strokeLinejoin="round"/>
<path d="M16.8201 4H7.18007C5.05007 4 3.32007 5.74 3.32007 7.86V21.95C3.32007 23.75 4.61007 24.51 6.19007 23.64L11.0701 20.93C11.5901 20.64 12.4301 20.64 12.9401 20.93L17.8201 23.64C19.4001 24.52 20.6901 23.76 20.6901 21.95V7.86C20.6801 5.74 18.9501 4 16.8201 4Z" stroke="#707BA0" stroke-width="1.5" strokeLinecap="round" strokeLinejoin="round"/>
<path d="M16.8201 4H7.18007C5.05007 4 3.32007 5.74 3.32007 7.86V21.95C3.32007 23.75 4.61007 24.51 6.19007 23.64L11.0701 20.93C11.5901 20.64 12.4301 20.64 12.9401 20.93L17.8201 23.64C19.4001 24.52 20.6901 23.76 20.6901 21.95V7.86C20.6801 5.74 18.9501 4 16.8201 4Z" stroke="#707BA0" stroke-width="2" strokeLinecap="round" strokeLinejoin="round"/>
<circle cx="20.6901" cy="5.28335" r="4.00015" fill="#0083FF" stroke="white"/>
</svg>
