<svg width="26" height="26" viewBox="0 0 26 26" fill="none" xmlns="http://www.w3.org/2000/svg">
<path d="M18.4165 2.63281H7.58317C4.33317 2.63281 2.1665 4.79948 2.1665 8.04948V14.5495C2.1665 17.7995 4.33317 19.9661 7.58317 19.9661V22.2736C7.58317 23.1403 8.54734 23.6603 9.26234 23.1728L14.0832 19.9661H18.4165C21.6665 19.9661 23.8332 17.7995 23.8332 14.5495V8.04948C23.8332 4.79948 21.6665 2.63281 18.4165 2.63281ZM12.9998 15.817C12.5448 15.817 12.1873 15.4486 12.1873 15.0045C12.1873 14.5603 12.5448 14.192 12.9998 14.192C13.4548 14.192 13.8123 14.5603 13.8123 15.0045C13.8123 15.4486 13.4548 15.817 12.9998 15.817ZM14.3648 11.3211C13.9423 11.6028 13.8123 11.787 13.8123 12.0903V12.3178C13.8123 12.762 13.444 13.1303 12.9998 13.1303C12.5557 13.1303 12.1873 12.762 12.1873 12.3178V12.0903C12.1873 10.8336 13.1082 10.2161 13.4548 9.97781C13.8557 9.70698 13.9857 9.52281 13.9857 9.24115C13.9857 8.69948 13.5415 8.25531 12.9998 8.25531C12.4582 8.25531 12.014 8.69948 12.014 9.24115C12.014 9.68531 11.6457 10.0536 11.2015 10.0536C10.7573 10.0536 10.389 9.68531 10.389 9.24115C10.389 7.80031 11.559 6.63031 12.9998 6.63031C14.4407 6.63031 15.6107 7.80031 15.6107 9.24115C15.6107 10.4761 14.7007 11.0936 14.3648 11.3211Z" fill="#225AEA"/>
</svg>
