<svg width="25" height="25" viewBox="0 0 25 25" fill="none" xmlns="http://www.w3.org/2000/svg">
<path d="M12.6172 7.43994V10.7699" stroke="#707BA0" stroke-width="1.5" strokeMiterlimit="10" strokeLinecap="round"/>
<path d="M12.6371 3C8.95709 3 5.97709 5.98 5.97709 9.66V11.76C5.97709 12.44 5.69709 13.46 5.34709 14.04L4.07709 16.16C3.29709 17.47 3.83709 18.93 5.27709 19.41C10.0571 21 15.2271 21 20.0071 19.41C21.3571 18.96 21.9371 17.38 21.2071 16.16L19.9371 14.04C19.5871 13.46 19.3071 12.43 19.3071 11.76V9.66C19.2971 6 16.2971 3 12.6371 3Z" stroke="#707BA0" stroke-width="1.5" strokeMiterlimit="10" strokeLinecap="round"/>
<path d="M15.9471 19.8198C15.9471 21.6498 14.4471 23.1498 12.6171 23.1498C11.7071 23.1498 10.8671 22.7698 10.2671 22.1698C9.66711 21.5698 9.28711 20.7298 9.28711 19.8198" stroke="#707BA0" stroke-width="1.5" strokeMiterlimit="10"/>
<circle cx="19.411" cy="4.60464" r="4.00015" fill="#0083FF" stroke="white"/>
</svg>
