<svg width="22" height="21" viewBox="0 0 22 21" fill="none" xmlns="http://www.w3.org/2000/svg">
<path d="M11.0124 15.7242C14.0117 15.7242 16.4432 13.3141 16.4432 10.3411C16.4432 7.3681 14.0117 4.95801 11.0124 4.95801C8.01301 4.95801 5.58154 7.3681 5.58154 10.3411C5.58154 13.3141 8.01301 15.7242 11.0124 15.7242Z" stroke="#707BA0" stroke-width="1.5" strokeLinecap="round" strokeLinejoin="round"/>
<path d="M16.9779 16.2544L16.8693 16.1467M16.8693 4.53579L16.9779 4.42813L16.8693 4.53579ZM5.04679 16.2544L5.15541 16.1467L5.04679 16.2544ZM11.0123 2.12582V2.05957V2.12582ZM11.0123 18.6229V18.5567V18.6229ZM2.72407 10.3412H2.65723H2.72407ZM19.3675 10.3412H19.3006H19.3675ZM5.15541 4.53579L5.04679 4.42813L5.15541 4.53579Z" stroke="#707BA0" stroke-width="2" strokeLinecap="round" strokeLinejoin="round"/>
</svg>
