<svg width="22" height="21" viewBox="0 0 22 21" fill="none" xmlns="http://www.w3.org/2000/svg">
<path d="M11.0126 15.7242C14.012 15.7242 16.4434 13.3141 16.4434 10.3411C16.4434 7.3681 14.012 4.95801 11.0126 4.95801C8.01325 4.95801 5.58179 7.3681 5.58179 10.3411C5.58179 13.3141 8.01325 15.7242 11.0126 15.7242Z" stroke="white" stroke-width="1.5" strokeLinecap="round" strokeLinejoin="round"/>
<path d="M16.9784 16.2544L16.8698 16.1467M16.8698 4.53579L16.9784 4.42813L16.8698 4.53579ZM5.04728 16.2544L5.1559 16.1467L5.04728 16.2544ZM11.0128 2.12582V2.05957V2.12582ZM11.0128 18.6229V18.5567V18.6229ZM2.72456 10.3412H2.65771H2.72456ZM19.368 10.3412H19.3011H19.368ZM5.1559 4.53579L5.04728 4.42813L5.1559 4.53579Z" stroke="white" stroke-width="2" strokeLinecap="round" strokeLinejoin="round"/>
</svg>
