<svg width="28" height="28" viewBox="0 0 28 28" fill="none" xmlns="http://www.w3.org/2000/svg">
<path d="M19.635 18.2468C20.4166 17.7335 21.4433 18.2935 21.4433 19.2268V20.7318C21.4433 22.2135 20.2883 23.8002 18.9 24.2668L15.1783 25.5035C14.525 25.7252 13.4633 25.7252 12.8216 25.5035L9.09997 24.2668C7.69997 23.8002 6.55664 22.2135 6.55664 20.7318V19.2152C6.55664 18.2935 7.58331 17.7335 8.35331 18.2352L10.7566 19.7985C11.6783 20.4168 12.845 20.7202 14.0116 20.7202C15.1783 20.7202 16.345 20.4168 17.2666 19.7985L19.635 18.2468Z" fill="#225AEA"/>
<path d="M23.3098 7.53633L16.3214 2.95133C15.0614 2.12299 12.9848 2.12299 11.7248 2.95133L4.70145 7.53633C2.44978 8.99466 2.44978 12.2963 4.70145 13.7663L6.56811 14.9797L11.7248 18.3397C12.9848 19.168 15.0614 19.168 16.3214 18.3397L21.4431 14.9797L23.0414 13.9297V17.4997C23.0414 17.978 23.4381 18.3747 23.9164 18.3747C24.3948 18.3747 24.7914 17.978 24.7914 17.4997V11.7597C25.2581 10.2547 24.7798 8.50466 23.3098 7.53633Z" fill="#225AEA"/>
</svg>
