<svg width="1440" height="1059" viewBox="0 0 1440 1059" fill="none" xmlns="http://www.w3.org/2000/svg">
<path d="M38.4236 1056.88V989.019H39.6059V1056.88H38.4236ZM39.0148 990.08H1.18227V987.959H39.0148V990.08ZM76.2562 1056.88V989.019H77.4384V1056.88H76.2562ZM76.8473 990.08H39.0148V987.959H76.8473V990.08ZM114.089 1056.88V989.019H115.271V1056.88H114.089ZM114.68 990.08H76.8473V987.959H114.68V990.08ZM151.921 1056.88V989.019H153.103V1056.88H151.921ZM152.512 990.08H114.68V987.959H152.512V990.08ZM189.754 1056.88V989.019H190.936V1056.88H189.754ZM190.345 990.08H152.512V987.959H190.345V990.08ZM227.586 1056.88V989.019H228.768V1056.88H227.586ZM228.177 990.08H190.345V987.959H228.177V990.08ZM265.419 1056.88V989.019H266.601V1056.88H265.419ZM266.01 990.08H228.177V987.959H266.01V990.08ZM303.251 1056.88V989.019H304.434V1056.88H303.251ZM303.842 990.08H266.01V987.959H303.842V990.08ZM341.084 1056.88V989.019H342.266V1056.88H341.084ZM341.675 990.08H303.842V987.959H341.675V990.08ZM378.916 1056.88V989.019H380.099V1056.88H378.916ZM379.507 990.08H341.675V987.959H379.507V990.08ZM416.749 1056.88V989.019H417.931V1056.88H416.749ZM417.34 990.08H379.507V987.959H417.34V990.08ZM454.581 1056.88V989.019H455.764V1056.88H454.581ZM455.172 990.08H417.34V987.959H455.172V990.08ZM492.414 1056.88V989.019H493.596V1056.88H492.414ZM493.005 990.08H455.172V987.959H493.005V990.08ZM530.246 1056.88V989.019H531.429V1056.88H530.246ZM530.837 990.08H493.005V987.959H530.837V990.08ZM568.079 1056.88V989.019H569.261V1056.88H568.079ZM568.67 990.08H530.837V987.959H568.67V990.08ZM605.911 1056.88V989.019H607.094V1056.88H605.911ZM606.502 990.08H568.67V987.959H606.502V990.08ZM643.744 1056.88V989.019H644.926V1056.88H643.744ZM644.335 990.08H606.502V987.959H644.335V990.08ZM681.576 1056.88V989.019H682.759V1056.88H681.576ZM682.167 990.08H644.335V987.959H682.167V990.08ZM719.409 1056.88V989.019H720.591V1056.88H719.409ZM720 990.08H682.167V987.959H720V990.08ZM757.241 1056.88V989.019H758.424V1056.88H757.241ZM757.833 990.08H720V987.959H757.833V990.08ZM795.074 1056.88V989.019H796.256V1056.88H795.074ZM795.665 990.08H757.833V987.959H795.665V990.08ZM832.906 1056.88V989.019H834.089V1056.88H832.906ZM833.498 990.08H795.665V987.959H833.498V990.08ZM870.739 1056.88V989.019H871.921V1056.88H870.739ZM871.33 990.08H833.498V987.959H871.33V990.08ZM908.571 1056.88V989.019H909.754V1056.88H908.571ZM909.163 990.08H871.33V987.959H909.163V990.08ZM946.404 1056.88V989.019H947.586V1056.88H946.404ZM946.995 990.08H909.163V987.959H946.995V990.08ZM984.237 1056.88V989.019H985.419V1056.88H984.237ZM984.828 990.08H946.995V987.959H984.828V990.08ZM1022.07 1056.88V989.019H1023.25V1056.88H1022.07ZM1022.66 990.08H984.828V987.959H1022.66V990.08ZM1059.9 1056.88V989.019H1061.08V1056.88H1059.9ZM1060.49 990.08H1022.66V987.959H1060.49V990.08ZM1097.73 1056.88V989.019H1098.92V1056.88H1097.73ZM1098.33 990.08H1060.49V987.959H1098.33V990.08ZM1135.57 1056.88V989.019H1136.75V1056.88H1135.57ZM1136.16 990.08H1098.33V987.959H1136.16V990.08ZM1173.4 1056.88V989.019H1174.58V1056.88H1173.4ZM1173.99 990.08H1136.16V987.959H1173.99V990.08ZM1211.23 1056.88V989.019H1212.41V1056.88H1211.23ZM1211.82 990.08H1173.99V987.959H1211.82V990.08ZM1249.06 1056.88V989.019H1250.25V1056.88H1249.06ZM1249.66 990.08H1211.82V987.959H1249.66V990.08ZM1286.9 1056.88V989.019H1288.08V1056.88H1286.9ZM1287.49 990.08H1249.66V987.959H1287.49V990.08ZM1324.73 1056.88V989.019H1325.91V1056.88H1324.73ZM1325.32 990.08H1287.49V987.959H1325.32V990.08ZM1362.56 1056.88V989.019H1363.74V1056.88H1362.56ZM1363.15 990.08H1325.32V987.959H1363.15V990.08ZM1400.39 1056.88V989.019H1401.58V1056.88H1400.39ZM1400.99 990.08H1363.15V987.959H1400.99V990.08ZM1438.82 990.08H1400.99V987.959H1438.82V990.08ZM38.4236 989.019V921.16H39.6059V989.019H38.4236ZM39.0148 922.22H1.18227V920.099H39.0148V922.22ZM76.2562 989.019V921.16H77.4384V989.019H76.2562ZM76.8473 922.22H39.0148V920.099H76.8473V922.22ZM114.089 989.019V921.16H115.271V989.019H114.089ZM114.68 922.22H76.8473V920.099H114.68V922.22ZM151.921 989.019V921.16H153.103V989.019H151.921ZM152.512 922.22H114.68V920.099H152.512V922.22ZM189.754 989.019V921.16H190.936V989.019H189.754ZM190.345 922.22H152.512V920.099H190.345V922.22ZM227.586 989.019V921.16H228.768V989.019H227.586ZM228.177 922.22H190.345V920.099H228.177V922.22ZM265.419 989.019V921.16H266.601V989.019H265.419ZM266.01 922.22H228.177V920.099H266.01V922.22ZM303.251 989.019V921.16H304.434V989.019H303.251ZM303.842 922.22H266.01V920.099H303.842V922.22ZM341.084 989.019V921.16H342.266V989.019H341.084ZM341.675 922.22H303.842V920.099H341.675V922.22ZM378.916 989.019V921.16H380.099V989.019H378.916ZM379.507 922.22H341.675V920.099H379.507V922.22ZM416.749 989.019V921.16H417.931V989.019H416.749ZM417.34 922.22H379.507V920.099H417.34V922.22ZM454.581 989.019V921.16H455.764V989.019H454.581ZM455.172 922.22H417.34V920.099H455.172V922.22ZM492.414 989.019V921.16H493.596V989.019H492.414ZM493.005 922.22H455.172V920.099H493.005V922.22ZM530.246 989.019V921.16H531.429V989.019H530.246ZM530.837 922.22H493.005V920.099H530.837V922.22ZM568.079 989.019V921.16H569.261V989.019H568.079ZM568.67 922.22H530.837V920.099H568.67V922.22ZM605.911 989.019V921.16H607.094V989.019H605.911ZM606.502 922.22H568.67V920.099H606.502V922.22ZM643.744 989.019V921.16H644.926V989.019H643.744ZM644.335 922.22H606.502V920.099H644.335V922.22ZM681.576 989.019V921.16H682.759V989.019H681.576ZM682.167 922.22H644.335V920.099H682.167V922.22ZM719.409 989.019V921.16H720.591V989.019H719.409ZM720 922.22H682.167V920.099H720V922.22ZM757.241 989.019V921.16H758.424V989.019H757.241ZM757.833 922.22H720V920.099H757.833V922.22ZM795.074 989.019V921.16H796.256V989.019H795.074ZM795.665 922.22H757.833V920.099H795.665V922.22ZM832.906 989.019V921.16H834.089V989.019H832.906ZM833.498 922.22H795.665V920.099H833.498V922.22ZM870.739 989.019V921.16H871.921V989.019H870.739ZM871.33 922.22H833.498V920.099H871.33V922.22ZM908.571 989.019V921.16H909.754V989.019H908.571ZM909.163 922.22H871.33V920.099H909.163V922.22ZM946.404 989.019V921.16H947.586V989.019H946.404ZM946.995 922.22H909.163V920.099H946.995V922.22ZM984.237 989.019V921.16H985.419V989.019H984.237ZM984.828 922.22H946.995V920.099H984.828V922.22ZM1022.07 989.019V921.16H1023.25V989.019H1022.07ZM1022.66 922.22H984.828V920.099H1022.66V922.22ZM1059.9 989.019V921.16H1061.08V989.019H1059.9ZM1060.49 922.22H1022.66V920.099H1060.49V922.22ZM1097.73 989.019V921.16H1098.92V989.019H1097.73ZM1098.33 922.22H1060.49V920.099H1098.33V922.22ZM1135.57 989.019V921.16H1136.75V989.019H1135.57ZM1136.16 922.22H1098.33V920.099H1136.16V922.22ZM1173.4 989.019V921.16H1174.58V989.019H1173.4ZM1173.99 922.22H1136.16V920.099H1173.99V922.22ZM1211.23 989.019V921.16H1212.41V989.019H1211.23ZM1211.82 922.22H1173.99V920.099H1211.82V922.22ZM1249.06 989.019V921.16H1250.25V989.019H1249.06ZM1249.66 922.22H1211.82V920.099H1249.66V922.22ZM1286.9 989.019V921.16H1288.08V989.019H1286.9ZM1287.49 922.22H1249.66V920.099H1287.49V922.22ZM1324.73 989.019V921.16H1325.91V989.019H1324.73ZM1325.32 922.22H1287.49V920.099H1325.32V922.22ZM1362.56 989.019V921.16H1363.74V989.019H1362.56ZM1363.15 922.22H1325.32V920.099H1363.15V922.22ZM1400.39 989.019V921.16H1401.58V989.019H1400.39ZM1400.99 922.22H1363.15V920.099H1400.99V922.22ZM1438.82 922.22H1400.99V920.099H1438.82V922.22ZM38.4236 921.16V853.3H39.6059V921.16H38.4236ZM39.0148 854.36H1.18227V852.239H39.0148V854.36ZM76.2562 921.16V853.3H77.4384V921.16H76.2562ZM76.8473 854.36H39.0148V852.239H76.8473V854.36ZM114.089 921.16V853.3H115.271V921.16H114.089ZM114.68 854.36H76.8473V852.239H114.68V854.36ZM151.921 921.16V853.3H153.103V921.16H151.921ZM152.512 854.36H114.68V852.239H152.512V854.36ZM189.754 921.16V853.3H190.936V921.16H189.754ZM190.345 854.36H152.512V852.239H190.345V854.36ZM227.586 921.16V853.3H228.768V921.16H227.586ZM228.177 854.36H190.345V852.239H228.177V854.36ZM265.419 921.16V853.3H266.601V921.16H265.419ZM266.01 854.36H228.177V852.239H266.01V854.36ZM303.251 921.16V853.3H304.434V921.16H303.251ZM303.842 854.36H266.01V852.239H303.842V854.36ZM341.084 921.16V853.3H342.266V921.16H341.084ZM341.675 854.36H303.842V852.239H341.675V854.36ZM378.916 921.16V853.3H380.099V921.16H378.916ZM379.507 854.36H341.675V852.239H379.507V854.36ZM416.749 921.16V853.3H417.931V921.16H416.749ZM417.34 854.36H379.507V852.239H417.34V854.36ZM454.581 921.16V853.3H455.764V921.16H454.581ZM455.172 854.36H417.34V852.239H455.172V854.36ZM492.414 921.16V853.3H493.596V921.16H492.414ZM493.005 854.36H455.172V852.239H493.005V854.36ZM530.246 921.16V853.3H531.429V921.16H530.246ZM530.837 854.36H493.005V852.239H530.837V854.36ZM568.079 921.16V853.3H569.261V921.16H568.079ZM568.67 854.36H530.837V852.239H568.67V854.36ZM605.911 921.16V853.3H607.094V921.16H605.911ZM606.502 854.36H568.67V852.239H606.502V854.36ZM643.744 921.16V853.3H644.926V921.16H643.744ZM644.335 854.36H606.502V852.239H644.335V854.36ZM681.576 921.16V853.3H682.759V921.16H681.576ZM682.167 854.36H644.335V852.239H682.167V854.36ZM719.409 921.16V853.3H720.591V921.16H719.409ZM720 854.36H682.167V852.239H720V854.36ZM757.241 921.16V853.3H758.424V921.16H757.241ZM757.833 854.36H720V852.239H757.833V854.36ZM795.074 921.16V853.3H796.256V921.16H795.074ZM795.665 854.36H757.833V852.239H795.665V854.36ZM832.906 921.16V853.3H834.089V921.16H832.906ZM833.498 854.36H795.665V852.239H833.498V854.36ZM870.739 921.16V853.3H871.921V921.16H870.739ZM871.33 854.36H833.498V852.239H871.33V854.36ZM908.571 921.16V853.3H909.754V921.16H908.571ZM909.163 854.36H871.33V852.239H909.163V854.36ZM946.404 921.16V853.3H947.586V921.16H946.404ZM946.995 854.36H909.163V852.239H946.995V854.36ZM984.237 921.16V853.3H985.419V921.16H984.237ZM984.828 854.36H946.995V852.239H984.828V854.36ZM1022.07 921.16V853.3H1023.25V921.16H1022.07ZM1022.66 854.36H984.828V852.239H1022.66V854.36ZM1059.9 921.16V853.3H1061.08V921.16H1059.9ZM1060.49 854.36H1022.66V852.239H1060.49V854.36ZM1097.73 921.16V853.3H1098.92V921.16H1097.73ZM1098.33 854.36H1060.49V852.239H1098.33V854.36ZM1135.57 921.16V853.3H1136.75V921.16H1135.57ZM1136.16 854.36H1098.33V852.239H1136.16V854.36ZM1173.4 921.16V853.3H1174.58V921.16H1173.4ZM1173.99 854.36H1136.16V852.239H1173.99V854.36ZM1211.23 921.16V853.3H1212.41V921.16H1211.23ZM1211.82 854.36H1173.99V852.239H1211.82V854.36ZM1249.06 921.16V853.3H1250.25V921.16H1249.06ZM1249.66 854.36H1211.82V852.239H1249.66V854.36ZM1286.9 921.16V853.3H1288.08V921.16H1286.9ZM1287.49 854.36H1249.66V852.239H1287.49V854.36ZM1324.73 921.16V853.3H1325.91V921.16H1324.73ZM1325.32 854.36H1287.49V852.239H1325.32V854.36ZM1362.56 921.16V853.3H1363.74V921.16H1362.56ZM1363.15 854.36H1325.32V852.239H1363.15V854.36ZM1400.39 921.16V853.3H1401.58V921.16H1400.39ZM1400.99 854.36H1363.15V852.239H1400.99V854.36ZM1438.82 854.36H1400.99V852.239H1438.82V854.36ZM38.4236 853.3V785.44H39.6059V853.3H38.4236ZM39.0148 786.5H1.18227V784.379H39.0148V786.5ZM76.2562 853.3V785.44H77.4384V853.3H76.2562ZM76.8473 786.5H39.0148V784.379H76.8473V786.5ZM114.089 853.3V785.44H115.271V853.3H114.089ZM114.68 786.5H76.8473V784.379H114.68V786.5ZM151.921 853.3V785.44H153.103V853.3H151.921ZM152.512 786.5H114.68V784.379H152.512V786.5ZM189.754 853.3V785.44H190.936V853.3H189.754ZM190.345 786.5H152.512V784.379H190.345V786.5ZM227.586 853.3V785.44H228.768V853.3H227.586ZM228.177 786.5H190.345V784.379H228.177V786.5ZM265.419 853.3V785.44H266.601V853.3H265.419ZM266.01 786.5H228.177V784.379H266.01V786.5ZM303.251 853.3V785.44H304.434V853.3H303.251ZM303.842 786.5H266.01V784.379H303.842V786.5ZM341.084 853.3V785.44H342.266V853.3H341.084ZM341.675 786.5H303.842V784.379H341.675V786.5ZM378.916 853.3V785.44H380.099V853.3H378.916ZM379.507 786.5H341.675V784.379H379.507V786.5ZM416.749 853.3V785.44H417.931V853.3H416.749ZM417.34 786.5H379.507V784.379H417.34V786.5ZM454.581 853.3V785.44H455.764V853.3H454.581ZM455.172 786.5H417.34V784.379H455.172V786.5ZM492.414 853.3V785.44H493.596V853.3H492.414ZM493.005 786.5H455.172V784.379H493.005V786.5ZM530.246 853.3V785.44H531.429V853.3H530.246ZM530.837 786.5H493.005V784.379H530.837V786.5ZM568.079 853.3V785.44H569.261V853.3H568.079ZM568.67 786.5H530.837V784.379H568.67V786.5ZM605.911 853.3V785.44H607.094V853.3H605.911ZM606.502 786.5H568.67V784.379H606.502V786.5ZM643.744 853.3V785.44H644.926V853.3H643.744ZM644.335 786.5H606.502V784.379H644.335V786.5ZM681.576 853.3V785.44H682.759V853.3H681.576ZM682.167 786.5H644.335V784.379H682.167V786.5ZM719.409 853.3V785.44H720.591V853.3H719.409ZM720 786.5H682.167V784.379H720V786.5ZM757.241 853.3V785.44H758.424V853.3H757.241ZM757.833 786.5H720V784.379H757.833V786.5ZM795.074 853.3V785.44H796.256V853.3H795.074ZM795.665 786.5H757.833V784.379H795.665V786.5ZM832.906 853.3V785.44H834.089V853.3H832.906ZM833.498 786.5H795.665V784.379H833.498V786.5ZM870.739 853.3V785.44H871.921V853.3H870.739ZM871.33 786.5H833.498V784.379H871.33V786.5ZM908.571 853.3V785.44H909.754V853.3H908.571ZM909.163 786.5H871.33V784.379H909.163V786.5ZM946.404 853.3V785.44H947.586V853.3H946.404ZM946.995 786.5H909.163V784.379H946.995V786.5ZM984.237 853.3V785.44H985.419V853.3H984.237ZM984.828 786.5H946.995V784.379H984.828V786.5ZM1022.07 853.3V785.44H1023.25V853.3H1022.07ZM1022.66 786.5H984.828V784.379H1022.66V786.5ZM1059.9 853.3V785.44H1061.08V853.3H1059.9ZM1060.49 786.5H1022.66V784.379H1060.49V786.5ZM1097.73 853.3V785.44H1098.92V853.3H1097.73ZM1098.33 786.5H1060.49V784.379H1098.33V786.5ZM1135.57 853.3V785.44H1136.75V853.3H1135.57ZM1136.16 786.5H1098.33V784.379H1136.16V786.5ZM1173.4 853.3V785.44H1174.58V853.3H1173.4ZM1173.99 786.5H1136.16V784.379H1173.99V786.5ZM1211.23 853.3V785.44H1212.41V853.3H1211.23ZM1211.82 786.5H1173.99V784.379H1211.82V786.5ZM1249.06 853.3V785.44H1250.25V853.3H1249.06ZM1249.66 786.5H1211.82V784.379H1249.66V786.5ZM1286.9 853.3V785.44H1288.08V853.3H1286.9ZM1287.49 786.5H1249.66V784.379H1287.49V786.5ZM1324.73 853.3V785.44H1325.91V853.3H1324.73ZM1325.32 786.5H1287.49V784.379H1325.32V786.5ZM1362.56 853.3V785.44H1363.74V853.3H1362.56ZM1363.15 786.5H1325.32V784.379H1363.15V786.5ZM1400.39 853.3V785.44H1401.58V853.3H1400.39ZM1400.99 786.5H1363.15V784.379H1400.99V786.5ZM1438.82 786.5H1400.99V784.379H1438.82V786.5ZM38.4236 785.44V717.58H39.6059V785.44H38.4236ZM39.0148 718.64H1.18227V716.519H39.0148V718.64ZM76.2562 785.44V717.58H77.4384V785.44H76.2562ZM76.8473 718.64H39.0148V716.519H76.8473V718.64ZM114.089 785.44V717.58H115.271V785.44H114.089ZM114.68 718.64H76.8473V716.519H114.68V718.64ZM151.921 785.44V717.58H153.103V785.44H151.921ZM152.512 718.64H114.68V716.519H152.512V718.64ZM189.754 785.44V717.58H190.936V785.44H189.754ZM190.345 718.64H152.512V716.519H190.345V718.64ZM227.586 785.44V717.58H228.768V785.44H227.586ZM228.177 718.64H190.345V716.519H228.177V718.64ZM265.419 785.44V717.58H266.601V785.44H265.419ZM266.01 718.64H228.177V716.519H266.01V718.64ZM303.251 785.44V717.58H304.434V785.44H303.251ZM303.842 718.64H266.01V716.519H303.842V718.64ZM341.084 785.44V717.58H342.266V785.44H341.084ZM341.675 718.64H303.842V716.519H341.675V718.64ZM378.916 785.44V717.58H380.099V785.44H378.916ZM379.507 718.64H341.675V716.519H379.507V718.64ZM416.749 785.44V717.58H417.931V785.44H416.749ZM417.34 718.64H379.507V716.519H417.34V718.64ZM454.581 785.44V717.58H455.764V785.44H454.581ZM455.172 718.64H417.34V716.519H455.172V718.64ZM492.414 785.44V717.58H493.596V785.44H492.414ZM493.005 718.64H455.172V716.519H493.005V718.64ZM530.246 785.44V717.58H531.429V785.44H530.246ZM530.837 718.64H493.005V716.519H530.837V718.64ZM568.079 785.44V717.58H569.261V785.44H568.079ZM568.67 718.64H530.837V716.519H568.67V718.64ZM605.911 785.44V717.58H607.094V785.44H605.911ZM606.502 718.64H568.67V716.519H606.502V718.64ZM643.744 785.44V717.58H644.926V785.44H643.744ZM644.335 718.64H606.502V716.519H644.335V718.64ZM681.576 785.44V717.58H682.759V785.44H681.576ZM682.167 718.64H644.335V716.519H682.167V718.64ZM719.409 785.44V717.58H720.591V785.44H719.409ZM720 718.64H682.167V716.519H720V718.64ZM757.241 785.44V717.58H758.424V785.44H757.241ZM757.833 718.64H720V716.519H757.833V718.64ZM795.074 785.44V717.58H796.256V785.44H795.074ZM795.665 718.64H757.833V716.519H795.665V718.64ZM832.906 785.44V717.58H834.089V785.44H832.906ZM833.498 718.64H795.665V716.519H833.498V718.64ZM870.739 785.44V717.58H871.921V785.44H870.739ZM871.33 718.64H833.498V716.519H871.33V718.64ZM908.571 785.44V717.58H909.754V785.44H908.571ZM909.163 718.64H871.33V716.519H909.163V718.64ZM946.404 785.44V717.58H947.586V785.44H946.404ZM946.995 718.64H909.163V716.519H946.995V718.64ZM984.237 785.44V717.58H985.419V785.44H984.237ZM984.828 718.64H946.995V716.519H984.828V718.64ZM1022.07 785.44V717.58H1023.25V785.44H1022.07ZM1022.66 718.64H984.828V716.519H1022.66V718.64ZM1059.9 785.44V717.58H1061.08V785.44H1059.9ZM1060.49 718.64H1022.66V716.519H1060.49V718.64ZM1097.73 785.44V717.58H1098.92V785.44H1097.73ZM1098.33 718.64H1060.49V716.519H1098.33V718.64ZM1135.57 785.44V717.58H1136.75V785.44H1135.57ZM1136.16 718.64H1098.33V716.519H1136.16V718.64ZM1173.4 785.44V717.58H1174.58V785.44H1173.4ZM1173.99 718.64H1136.16V716.519H1173.99V718.64ZM1211.23 785.44V717.58H1212.41V785.44H1211.23ZM1211.82 718.64H1173.99V716.519H1211.82V718.64ZM1249.06 785.44V717.58H1250.25V785.44H1249.06ZM1249.66 718.64H1211.82V716.519H1249.66V718.64ZM1286.9 785.44V717.58H1288.08V785.44H1286.9ZM1287.49 718.64H1249.66V716.519H1287.49V718.64ZM1324.73 785.44V717.58H1325.91V785.44H1324.73ZM1325.32 718.64H1287.49V716.519H1325.32V718.64ZM1362.56 785.44V717.58H1363.74V785.44H1362.56ZM1363.15 718.64H1325.32V716.519H1363.15V718.64ZM1400.39 785.44V717.58H1401.58V785.44H1400.39ZM1400.99 718.64H1363.15V716.519H1400.99V718.64ZM1438.82 718.64H1400.99V716.519H1438.82V718.64ZM38.4236 717.58V649.72H39.6059V717.58H38.4236ZM39.0148 650.78H1.18227V648.66H39.0148V650.78ZM76.2562 717.58V649.72H77.4384V717.58H76.2562ZM76.8473 650.78H39.0148V648.66H76.8473V650.78ZM114.089 717.58V649.72H115.271V717.58H114.089ZM114.68 650.78H76.8473V648.66H114.68V650.78ZM151.921 717.58V649.72H153.103V717.58H151.921ZM152.512 650.78H114.68V648.66H152.512V650.78ZM189.754 717.58V649.72H190.936V717.58H189.754ZM190.345 650.78H152.512V648.66H190.345V650.78ZM227.586 717.58V649.72H228.768V717.58H227.586ZM228.177 650.78H190.345V648.66H228.177V650.78ZM265.419 717.58V649.72H266.601V717.58H265.419ZM266.01 650.78H228.177V648.66H266.01V650.78ZM303.251 717.58V649.72H304.434V717.58H303.251ZM303.842 650.78H266.01V648.66H303.842V650.78ZM341.084 717.58V649.72H342.266V717.58H341.084ZM341.675 650.78H303.842V648.66H341.675V650.78ZM378.916 717.58V649.72H380.099V717.58H378.916ZM379.507 650.78H341.675V648.66H379.507V650.78ZM416.749 717.58V649.72H417.931V717.58H416.749ZM417.34 650.78H379.507V648.66H417.34V650.78ZM454.581 717.58V649.72H455.764V717.58H454.581ZM455.172 650.78H417.34V648.66H455.172V650.78ZM492.414 717.58V649.72H493.596V717.58H492.414ZM493.005 650.78H455.172V648.66H493.005V650.78ZM530.246 717.58V649.72H531.429V717.58H530.246ZM530.837 650.78H493.005V648.66H530.837V650.78ZM568.079 717.58V649.72H569.261V717.58H568.079ZM568.67 650.78H530.837V648.66H568.67V650.78ZM605.911 717.58V649.72H607.094V717.58H605.911ZM606.502 650.78H568.67V648.66H606.502V650.78ZM643.744 717.58V649.72H644.926V717.58H643.744ZM644.335 650.78H606.502V648.66H644.335V650.78ZM681.576 717.58V649.72H682.759V717.58H681.576ZM682.167 650.78H644.335V648.66H682.167V650.78ZM719.409 717.58V649.72H720.591V717.58H719.409ZM720 650.78H682.167V648.66H720V650.78ZM757.241 717.58V649.72H758.424V717.58H757.241ZM757.833 650.78H720V648.66H757.833V650.78ZM795.074 717.58V649.72H796.256V717.58H795.074ZM795.665 650.78H757.833V648.66H795.665V650.78ZM832.906 717.58V649.72H834.089V717.58H832.906ZM833.498 650.78H795.665V648.66H833.498V650.78ZM870.739 717.58V649.72H871.921V717.58H870.739ZM871.33 650.78H833.498V648.66H871.33V650.78ZM908.571 717.58V649.72H909.754V717.58H908.571ZM909.163 650.78H871.33V648.66H909.163V650.78ZM946.404 717.58V649.72H947.586V717.58H946.404ZM946.995 650.78H909.163V648.66H946.995V650.78ZM984.237 717.58V649.72H985.419V717.58H984.237ZM984.828 650.78H946.995V648.66H984.828V650.78ZM1022.07 717.58V649.72H1023.25V717.58H1022.07ZM1022.66 650.78H984.828V648.66H1022.66V650.78ZM1059.9 717.58V649.72H1061.08V717.58H1059.9ZM1060.49 650.78H1022.66V648.66H1060.49V650.78ZM1097.73 717.58V649.72H1098.92V717.58H1097.73ZM1098.33 650.78H1060.49V648.66H1098.33V650.78ZM1135.57 717.58V649.72H1136.75V717.58H1135.57ZM1136.16 650.78H1098.33V648.66H1136.16V650.78ZM1173.4 717.58V649.72H1174.58V717.58H1173.4ZM1173.99 650.78H1136.16V648.66H1173.99V650.78ZM1211.23 717.58V649.72H1212.41V717.58H1211.23ZM1211.82 650.78H1173.99V648.66H1211.82V650.78ZM1249.06 717.58V649.72H1250.25V717.58H1249.06ZM1249.66 650.78H1211.82V648.66H1249.66V650.78ZM1286.9 717.58V649.72H1288.08V717.58H1286.9ZM1287.49 650.78H1249.66V648.66H1287.49V650.78ZM1324.73 717.58V649.72H1325.91V717.58H1324.73ZM1325.32 650.78H1287.49V648.66H1325.32V650.78ZM1362.56 717.58V649.72H1363.74V717.58H1362.56ZM1363.15 650.78H1325.32V648.66H1363.15V650.78ZM1400.39 717.58V649.72H1401.58V717.58H1400.39ZM1400.99 650.78H1363.15V648.66H1400.99V650.78ZM1438.82 650.78H1400.99V648.66H1438.82V650.78ZM38.4236 649.72V581.86H39.6059V649.72H38.4236ZM39.0148 582.92H1.18227V580.8H39.0148V582.92ZM76.2562 649.72V581.86H77.4384V649.72H76.2562ZM76.8473 582.92H39.0148V580.8H76.8473V582.92ZM114.089 649.72V581.86H115.271V649.72H114.089ZM114.68 582.92H76.8473V580.8H114.68V582.92ZM151.921 649.72V581.86H153.103V649.72H151.921ZM152.512 582.92H114.68V580.8H152.512V582.92ZM189.754 649.72V581.86H190.936V649.72H189.754ZM190.345 582.92H152.512V580.8H190.345V582.92ZM227.586 649.72V581.86H228.768V649.72H227.586ZM228.177 582.92H190.345V580.8H228.177V582.92ZM265.419 649.72V581.86H266.601V649.72H265.419ZM266.01 582.92H228.177V580.8H266.01V582.92ZM303.251 649.72V581.86H304.434V649.72H303.251ZM303.842 582.92H266.01V580.8H303.842V582.92ZM341.084 649.72V581.86H342.266V649.72H341.084ZM341.675 582.92H303.842V580.8H341.675V582.92ZM378.916 649.72V581.86H380.099V649.72H378.916ZM379.507 582.92H341.675V580.8H379.507V582.92ZM416.749 649.72V581.86H417.931V649.72H416.749ZM417.34 582.92H379.507V580.8H417.34V582.92ZM454.581 649.72V581.86H455.764V649.72H454.581ZM455.172 582.92H417.34V580.8H455.172V582.92ZM492.414 649.72V581.86H493.596V649.72H492.414ZM493.005 582.92H455.172V580.8H493.005V582.92ZM530.246 649.72V581.86H531.429V649.72H530.246ZM530.837 582.92H493.005V580.8H530.837V582.92ZM568.079 649.72V581.86H569.261V649.72H568.079ZM568.67 582.92H530.837V580.8H568.67V582.92ZM605.911 649.72V581.86H607.094V649.72H605.911ZM606.502 582.92H568.67V580.8H606.502V582.92ZM643.744 649.72V581.86H644.926V649.72H643.744ZM644.335 582.92H606.502V580.8H644.335V582.92ZM681.576 649.72V581.86H682.759V649.72H681.576ZM682.167 582.92H644.335V580.8H682.167V582.92ZM719.409 649.72V581.86H720.591V649.72H719.409ZM720 582.92H682.167V580.8H720V582.92ZM757.241 649.72V581.86H758.424V649.72H757.241ZM757.833 582.92H720V580.8H757.833V582.92ZM795.074 649.72V581.86H796.256V649.72H795.074ZM795.665 582.92H757.833V580.8H795.665V582.92ZM832.906 649.72V581.86H834.089V649.72H832.906ZM833.498 582.92H795.665V580.8H833.498V582.92ZM870.739 649.72V581.86H871.921V649.72H870.739ZM871.33 582.92H833.498V580.8H871.33V582.92ZM908.571 649.72V581.86H909.754V649.72H908.571ZM909.163 582.92H871.33V580.8H909.163V582.92ZM946.404 649.72V581.86H947.586V649.72H946.404ZM946.995 582.92H909.163V580.8H946.995V582.92ZM984.237 649.72V581.86H985.419V649.72H984.237ZM984.828 582.92H946.995V580.8H984.828V582.92ZM1022.07 649.72V581.86H1023.25V649.72H1022.07ZM1022.66 582.92H984.828V580.8H1022.66V582.92ZM1059.9 649.72V581.86H1061.08V649.72H1059.9ZM1060.49 582.92H1022.66V580.8H1060.49V582.92ZM1097.73 649.72V581.86H1098.92V649.72H1097.73ZM1098.33 582.92H1060.49V580.8H1098.33V582.92ZM1135.57 649.72V581.86H1136.75V649.72H1135.57ZM1136.16 582.92H1098.33V580.8H1136.16V582.92ZM1173.4 649.72V581.86H1174.58V649.72H1173.4ZM1173.99 582.92H1136.16V580.8H1173.99V582.92ZM1211.23 649.72V581.86H1212.41V649.72H1211.23ZM1211.82 582.92H1173.99V580.8H1211.82V582.92ZM1249.06 649.72V581.86H1250.25V649.72H1249.06ZM1249.66 582.92H1211.82V580.8H1249.66V582.92ZM1286.9 649.72V581.86H1288.08V649.72H1286.9ZM1287.49 582.92H1249.66V580.8H1287.49V582.92ZM1324.73 649.72V581.86H1325.91V649.72H1324.73ZM1325.32 582.92H1287.49V580.8H1325.32V582.92ZM1362.56 649.72V581.86H1363.74V649.72H1362.56ZM1363.15 582.92H1325.32V580.8H1363.15V582.92ZM1400.39 649.72V581.86H1401.58V649.72H1400.39ZM1400.99 582.92H1363.15V580.8H1400.99V582.92ZM1438.82 582.92H1400.99V580.8H1438.82V582.92ZM38.4236 581.86V514H39.6059V581.86H38.4236ZM39.0148 515.06H1.18227V512.94H39.0148V515.06ZM76.2562 581.86V514H77.4384V581.86H76.2562ZM76.8473 515.06H39.0148V512.94H76.8473V515.06ZM114.089 581.86V514H115.271V581.86H114.089ZM114.68 515.06H76.8473V512.94H114.68V515.06ZM151.921 581.86V514H153.103V581.86H151.921ZM152.512 515.06H114.68V512.94H152.512V515.06ZM189.754 581.86V514H190.936V581.86H189.754ZM190.345 515.06H152.512V512.94H190.345V515.06ZM227.586 581.86V514H228.768V581.86H227.586ZM228.177 515.06H190.345V512.94H228.177V515.06ZM265.419 581.86V514H266.601V581.86H265.419ZM266.01 515.06H228.177V512.94H266.01V515.06ZM303.251 581.86V514H304.434V581.86H303.251ZM303.842 515.06H266.01V512.94H303.842V515.06ZM341.084 581.86V514H342.266V581.86H341.084ZM341.675 515.06H303.842V512.94H341.675V515.06ZM378.916 581.86V514H380.099V581.86H378.916ZM379.507 515.06H341.675V512.94H379.507V515.06ZM416.749 581.86V514H417.931V581.86H416.749ZM417.34 515.06H379.507V512.94H417.34V515.06ZM454.581 581.86V514H455.764V581.86H454.581ZM455.172 515.06H417.34V512.94H455.172V515.06ZM492.414 581.86V514H493.596V581.86H492.414ZM493.005 515.06H455.172V512.94H493.005V515.06ZM530.246 581.86V514H531.429V581.86H530.246ZM530.837 515.06H493.005V512.94H530.837V515.06ZM568.079 581.86V514H569.261V581.86H568.079ZM568.67 515.06H530.837V512.94H568.67V515.06ZM605.911 581.86V514H607.094V581.86H605.911ZM606.502 515.06H568.67V512.94H606.502V515.06ZM643.744 581.86V514H644.926V581.86H643.744ZM644.335 515.06H606.502V512.94H644.335V515.06ZM681.576 581.86V514H682.759V581.86H681.576ZM682.167 515.06H644.335V512.94H682.167V515.06ZM719.409 581.86V514H720.591V581.86H719.409ZM720 515.06H682.167V512.94H720V515.06ZM757.241 581.86V514H758.424V581.86H757.241ZM757.833 515.06H720V512.94H757.833V515.06ZM795.074 581.86V514H796.256V581.86H795.074ZM795.665 515.06H757.833V512.94H795.665V515.06ZM832.906 581.86V514H834.089V581.86H832.906ZM833.498 515.06H795.665V512.94H833.498V515.06ZM870.739 581.86V514H871.921V581.86H870.739ZM871.33 515.06H833.498V512.94H871.33V515.06ZM908.571 581.86V514H909.754V581.86H908.571ZM909.163 515.06H871.33V512.94H909.163V515.06ZM946.404 581.86V514H947.586V581.86H946.404ZM946.995 515.06H909.163V512.94H946.995V515.06ZM984.237 581.86V514H985.419V581.86H984.237ZM984.828 515.06H946.995V512.94H984.828V515.06ZM1022.07 581.86V514H1023.25V581.86H1022.07ZM1022.66 515.06H984.828V512.94H1022.66V515.06ZM1059.9 581.86V514H1061.08V581.86H1059.9ZM1060.49 515.06H1022.66V512.94H1060.49V515.06ZM1097.73 581.86V514H1098.92V581.86H1097.73ZM1098.33 515.06H1060.49V512.94H1098.33V515.06ZM1135.57 581.86V514H1136.75V581.86H1135.57ZM1136.16 515.06H1098.33V512.94H1136.16V515.06ZM1173.4 581.86V514H1174.58V581.86H1173.4ZM1173.99 515.06H1136.16V512.94H1173.99V515.06ZM1211.23 581.86V514H1212.41V581.86H1211.23ZM1211.82 515.06H1173.99V512.94H1211.82V515.06ZM1249.06 581.86V514H1250.25V581.86H1249.06ZM1249.66 515.06H1211.82V512.94H1249.66V515.06ZM1286.9 581.86V514H1288.08V581.86H1286.9ZM1287.49 515.06H1249.66V512.94H1287.49V515.06ZM1324.73 581.86V514H1325.91V581.86H1324.73ZM1325.32 515.06H1287.49V512.94H1325.32V515.06ZM1362.56 581.86V514H1363.74V581.86H1362.56ZM1363.15 515.06H1325.32V512.94H1363.15V515.06ZM1400.39 581.86V514H1401.58V581.86H1400.39ZM1400.99 515.06H1363.15V512.94H1400.99V515.06ZM1438.82 515.06H1400.99V512.94H1438.82V515.06ZM38.4236 514V446.14H39.6059V514H38.4236ZM39.0148 447.2H1.18227V445.08H39.0148V447.2ZM76.2562 514V446.14H77.4384V514H76.2562ZM76.8473 447.2H39.0148V445.08H76.8473V447.2ZM114.089 514V446.14H115.271V514H114.089ZM114.68 447.2H76.8473V445.08H114.68V447.2ZM151.921 514V446.14H153.103V514H151.921ZM152.512 447.2H114.68V445.08H152.512V447.2ZM189.754 514V446.14H190.936V514H189.754ZM190.345 447.2H152.512V445.08H190.345V447.2ZM227.586 514V446.14H228.768V514H227.586ZM228.177 447.2H190.345V445.08H228.177V447.2ZM265.419 514V446.14H266.601V514H265.419ZM266.01 447.2H228.177V445.08H266.01V447.2ZM303.251 514V446.14H304.434V514H303.251ZM303.842 447.2H266.01V445.08H303.842V447.2ZM341.084 514V446.14H342.266V514H341.084ZM341.675 447.2H303.842V445.08H341.675V447.2ZM378.916 514V446.14H380.099V514H378.916ZM379.507 447.2H341.675V445.08H379.507V447.2ZM416.749 514V446.14H417.931V514H416.749ZM417.34 447.2H379.507V445.08H417.34V447.2ZM454.581 514V446.14H455.764V514H454.581ZM455.172 447.2H417.34V445.08H455.172V447.2ZM492.414 514V446.14H493.596V514H492.414ZM493.005 447.2H455.172V445.08H493.005V447.2ZM530.246 514V446.14H531.429V514H530.246ZM530.837 447.2H493.005V445.08H530.837V447.2ZM568.079 514V446.14H569.261V514H568.079ZM568.67 447.2H530.837V445.08H568.67V447.2ZM605.911 514V446.14H607.094V514H605.911ZM606.502 447.2H568.67V445.08H606.502V447.2ZM643.744 514V446.14H644.926V514H643.744ZM644.335 447.2H606.502V445.08H644.335V447.2ZM681.576 514V446.14H682.759V514H681.576ZM682.167 447.2H644.335V445.08H682.167V447.2ZM719.409 514V446.14H720.591V514H719.409ZM720 447.2H682.167V445.08H720V447.2ZM757.241 514V446.14H758.424V514H757.241ZM757.833 447.2H720V445.08H757.833V447.2ZM795.074 514V446.14H796.256V514H795.074ZM795.665 447.2H757.833V445.08H795.665V447.2ZM832.906 514V446.14H834.089V514H832.906ZM833.498 447.2H795.665V445.08H833.498V447.2ZM870.739 514V446.14H871.921V514H870.739ZM871.33 447.2H833.498V445.08H871.33V447.2ZM908.571 514V446.14H909.754V514H908.571ZM909.163 447.2H871.33V445.08H909.163V447.2ZM946.404 514V446.14H947.586V514H946.404ZM946.995 447.2H909.163V445.08H946.995V447.2ZM984.237 514V446.14H985.419V514H984.237ZM984.828 447.2H946.995V445.08H984.828V447.2ZM1022.07 514V446.14H1023.25V514H1022.07ZM1022.66 447.2H984.828V445.08H1022.66V447.2ZM1059.9 514V446.14H1061.08V514H1059.9ZM1060.49 447.2H1022.66V445.08H1060.49V447.2ZM1097.73 514V446.14H1098.92V514H1097.73ZM1098.33 447.2H1060.49V445.08H1098.33V447.2ZM1135.57 514V446.14H1136.75V514H1135.57ZM1136.16 447.2H1098.33V445.08H1136.16V447.2ZM1173.4 514V446.14H1174.58V514H1173.4ZM1173.99 447.2H1136.16V445.08H1173.99V447.2ZM1211.23 514V446.14H1212.41V514H1211.23ZM1211.82 447.2H1173.99V445.08H1211.82V447.2ZM1249.06 514V446.14H1250.25V514H1249.06ZM1249.66 447.2H1211.82V445.08H1249.66V447.2ZM1286.9 514V446.14H1288.08V514H1286.9ZM1287.49 447.2H1249.66V445.08H1287.49V447.2ZM1324.73 514V446.14H1325.91V514H1324.73ZM1325.32 447.2H1287.49V445.08H1325.32V447.2ZM1362.56 514V446.14H1363.74V514H1362.56ZM1363.15 447.2H1325.32V445.08H1363.15V447.2ZM1400.39 514V446.14H1401.58V514H1400.39ZM1400.99 447.2H1363.15V445.08H1400.99V447.2ZM1438.82 447.2H1400.99V445.08H1438.82V447.2ZM38.4236 446.14V378.28H39.6059V446.14H38.4236ZM39.0148 379.34H1.18227V377.22H39.0148V379.34ZM76.2562 446.14V378.28H77.4384V446.14H76.2562ZM76.8473 379.34H39.0148V377.22H76.8473V379.34ZM114.089 446.14V378.28H115.271V446.14H114.089ZM114.68 379.34H76.8473V377.22H114.68V379.34ZM151.921 446.14V378.28H153.103V446.14H151.921ZM152.512 379.34H114.68V377.22H152.512V379.34ZM189.754 446.14V378.28H190.936V446.14H189.754ZM190.345 379.34H152.512V377.22H190.345V379.34ZM227.586 446.14V378.28H228.768V446.14H227.586ZM228.177 379.34H190.345V377.22H228.177V379.34ZM265.419 446.14V378.28H266.601V446.14H265.419ZM266.01 379.34H228.177V377.22H266.01V379.34ZM303.251 446.14V378.28H304.434V446.14H303.251ZM303.842 379.34H266.01V377.22H303.842V379.34ZM341.084 446.14V378.28H342.266V446.14H341.084ZM341.675 379.34H303.842V377.22H341.675V379.34ZM378.916 446.14V378.28H380.099V446.14H378.916ZM379.507 379.34H341.675V377.22H379.507V379.34ZM416.749 446.14V378.28H417.931V446.14H416.749ZM417.34 379.34H379.507V377.22H417.34V379.34ZM454.581 446.14V378.28H455.764V446.14H454.581ZM455.172 379.34H417.34V377.22H455.172V379.34ZM492.414 446.14V378.28H493.596V446.14H492.414ZM493.005 379.34H455.172V377.22H493.005V379.34ZM530.246 446.14V378.28H531.429V446.14H530.246ZM530.837 379.34H493.005V377.22H530.837V379.34ZM568.079 446.14V378.28H569.261V446.14H568.079ZM568.67 379.34H530.837V377.22H568.67V379.34ZM605.911 446.14V378.28H607.094V446.14H605.911ZM606.502 379.34H568.67V377.22H606.502V379.34ZM643.744 446.14V378.28H644.926V446.14H643.744ZM644.335 379.34H606.502V377.22H644.335V379.34ZM681.576 446.14V378.28H682.759V446.14H681.576ZM682.167 379.34H644.335V377.22H682.167V379.34ZM719.409 446.14V378.28H720.591V446.14H719.409ZM720 379.34H682.167V377.22H720V379.34ZM757.241 446.14V378.28H758.424V446.14H757.241ZM757.833 379.34H720V377.22H757.833V379.34ZM795.074 446.14V378.28H796.256V446.14H795.074ZM795.665 379.34H757.833V377.22H795.665V379.34ZM832.906 446.14V378.28H834.089V446.14H832.906ZM833.498 379.34H795.665V377.22H833.498V379.34ZM870.739 446.14V378.28H871.921V446.14H870.739ZM871.33 379.34H833.498V377.22H871.33V379.34ZM908.571 446.14V378.28H909.754V446.14H908.571ZM909.163 379.34H871.33V377.22H909.163V379.34ZM946.404 446.14V378.28H947.586V446.14H946.404ZM946.995 379.34H909.163V377.22H946.995V379.34ZM984.237 446.14V378.28H985.419V446.14H984.237ZM984.828 379.34H946.995V377.22H984.828V379.34ZM1022.07 446.14V378.28H1023.25V446.14H1022.07ZM1022.66 379.34H984.828V377.22H1022.66V379.34ZM1059.9 446.14V378.28H1061.08V446.14H1059.9ZM1060.49 379.34H1022.66V377.22H1060.49V379.34ZM1097.73 446.14V378.28H1098.92V446.14H1097.73ZM1098.33 379.34H1060.49V377.22H1098.33V379.34ZM1135.57 446.14V378.28H1136.75V446.14H1135.57ZM1136.16 379.34H1098.33V377.22H1136.16V379.34ZM1173.4 446.14V378.28H1174.58V446.14H1173.4ZM1173.99 379.34H1136.16V377.22H1173.99V379.34ZM1211.23 446.14V378.28H1212.41V446.14H1211.23ZM1211.82 379.34H1173.99V377.22H1211.82V379.34ZM1249.06 446.14V378.28H1250.25V446.14H1249.06ZM1249.66 379.34H1211.82V377.22H1249.66V379.34ZM1286.9 446.14V378.28H1288.08V446.14H1286.9ZM1287.49 379.34H1249.66V377.22H1287.49V379.34ZM1324.73 446.14V378.28H1325.91V446.14H1324.73ZM1325.32 379.34H1287.49V377.22H1325.32V379.34ZM1362.56 446.14V378.28H1363.74V446.14H1362.56ZM1363.15 379.34H1325.32V377.22H1363.15V379.34ZM1400.39 446.14V378.28H1401.58V446.14H1400.39ZM1400.99 379.34H1363.15V377.22H1400.99V379.34ZM1438.82 379.34H1400.99V377.22H1438.82V379.34ZM38.4236 378.28V310.42H39.6059V378.28H38.4236ZM39.0148 311.481H1.18227V309.36H39.0148V311.481ZM76.2562 378.28V310.42H77.4384V378.28H76.2562ZM76.8473 311.481H39.0148V309.36H76.8473V311.481ZM114.089 378.28V310.42H115.271V378.28H114.089ZM114.68 311.481H76.8473V309.36H114.68V311.481ZM151.921 378.28V310.42H153.103V378.28H151.921ZM152.512 311.481H114.68V309.36H152.512V311.481ZM189.754 378.28V310.42H190.936V378.28H189.754ZM190.345 311.481H152.512V309.36H190.345V311.481ZM227.586 378.28V310.42H228.768V378.28H227.586ZM228.177 311.481H190.345V309.36H228.177V311.481ZM265.419 378.28V310.42H266.601V378.28H265.419ZM266.01 311.481H228.177V309.36H266.01V311.481ZM303.251 378.28V310.42H304.434V378.28H303.251ZM303.842 311.481H266.01V309.36H303.842V311.481ZM341.084 378.28V310.42H342.266V378.28H341.084ZM341.675 311.481H303.842V309.36H341.675V311.481ZM378.916 378.28V310.42H380.099V378.28H378.916ZM379.507 311.481H341.675V309.36H379.507V311.481ZM416.749 378.28V310.42H417.931V378.28H416.749ZM417.34 311.481H379.507V309.36H417.34V311.481ZM454.581 378.28V310.42H455.764V378.28H454.581ZM455.172 311.481H417.34V309.36H455.172V311.481ZM492.414 378.28V310.42H493.596V378.28H492.414ZM493.005 311.481H455.172V309.36H493.005V311.481ZM530.246 378.28V310.42H531.429V378.28H530.246ZM530.837 311.481H493.005V309.36H530.837V311.481ZM568.079 378.28V310.42H569.261V378.28H568.079ZM568.67 311.481H530.837V309.36H568.67V311.481ZM605.911 378.28V310.42H607.094V378.28H605.911ZM606.502 311.481H568.67V309.36H606.502V311.481ZM643.744 378.28V310.42H644.926V378.28H643.744ZM644.335 311.481H606.502V309.36H644.335V311.481ZM681.576 378.28V310.42H682.759V378.28H681.576ZM682.167 311.481H644.335V309.36H682.167V311.481ZM719.409 378.28V310.42H720.591V378.28H719.409ZM720 311.481H682.167V309.36H720V311.481ZM757.241 378.28V310.42H758.424V378.28H757.241ZM757.833 311.481H720V309.36H757.833V311.481ZM795.074 378.28V310.42H796.256V378.28H795.074ZM795.665 311.481H757.833V309.36H795.665V311.481ZM832.906 378.28V310.42H834.089V378.28H832.906ZM833.498 311.481H795.665V309.36H833.498V311.481ZM870.739 378.28V310.42H871.921V378.28H870.739ZM871.33 311.481H833.498V309.36H871.33V311.481ZM908.571 378.28V310.42H909.754V378.28H908.571ZM909.163 311.481H871.33V309.36H909.163V311.481ZM946.404 378.28V310.42H947.586V378.28H946.404ZM946.995 311.481H909.163V309.36H946.995V311.481ZM984.237 378.28V310.42H985.419V378.28H984.237ZM984.828 311.481H946.995V309.36H984.828V311.481ZM1022.07 378.28V310.42H1023.25V378.28H1022.07ZM1022.66 311.481H984.828V309.36H1022.66V311.481ZM1059.9 378.28V310.42H1061.08V378.28H1059.9ZM1060.49 311.481H1022.66V309.36H1060.49V311.481ZM1097.73 378.28V310.42H1098.92V378.28H1097.73ZM1098.33 311.481H1060.49V309.36H1098.33V311.481ZM1135.57 378.28V310.42H1136.75V378.28H1135.57ZM1136.16 311.481H1098.33V309.36H1136.16V311.481ZM1173.4 378.28V310.42H1174.58V378.28H1173.4ZM1173.99 311.481H1136.16V309.36H1173.99V311.481ZM1211.23 378.28V310.42H1212.41V378.28H1211.23ZM1211.82 311.481H1173.99V309.36H1211.82V311.481ZM1249.06 378.28V310.42H1250.25V378.28H1249.06ZM1249.66 311.481H1211.82V309.36H1249.66V311.481ZM1286.9 378.28V310.42H1288.08V378.28H1286.9ZM1287.49 311.481H1249.66V309.36H1287.49V311.481ZM1324.73 378.28V310.42H1325.91V378.28H1324.73ZM1325.32 311.481H1287.49V309.36H1325.32V311.481ZM1362.56 378.28V310.42H1363.74V378.28H1362.56ZM1363.15 311.481H1325.32V309.36H1363.15V311.481ZM1400.39 378.28V310.42H1401.58V378.28H1400.39ZM1400.99 311.481H1363.15V309.36H1400.99V311.481ZM1438.82 311.481H1400.99V309.36H1438.82V311.481ZM38.4236 310.42V242.56H39.6059V310.42H38.4236ZM39.0148 243.621H1.18227V241.5H39.0148V243.621ZM76.2562 310.42V242.56H77.4384V310.42H76.2562ZM76.8473 243.621H39.0148V241.5H76.8473V243.621ZM114.089 310.42V242.56H115.271V310.42H114.089ZM114.68 243.621H76.8473V241.5H114.68V243.621ZM151.921 310.42V242.56H153.103V310.42H151.921ZM152.512 243.621H114.68V241.5H152.512V243.621ZM189.754 310.42V242.56H190.936V310.42H189.754ZM190.345 243.621H152.512V241.5H190.345V243.621ZM227.586 310.42V242.56H228.768V310.42H227.586ZM228.177 243.621H190.345V241.5H228.177V243.621ZM265.419 310.42V242.56H266.601V310.42H265.419ZM266.01 243.621H228.177V241.5H266.01V243.621ZM303.251 310.42V242.56H304.434V310.42H303.251ZM303.842 243.621H266.01V241.5H303.842V243.621ZM341.084 310.42V242.56H342.266V310.42H341.084ZM341.675 243.621H303.842V241.5H341.675V243.621ZM378.916 310.42V242.56H380.099V310.42H378.916ZM379.507 243.621H341.675V241.5H379.507V243.621ZM416.749 310.42V242.56H417.931V310.42H416.749ZM417.34 243.621H379.507V241.5H417.34V243.621ZM454.581 310.42V242.56H455.764V310.42H454.581ZM455.172 243.621H417.34V241.5H455.172V243.621ZM492.414 310.42V242.56H493.596V310.42H492.414ZM493.005 243.621H455.172V241.5H493.005V243.621ZM530.246 310.42V242.56H531.429V310.42H530.246ZM530.837 243.621H493.005V241.5H530.837V243.621ZM568.079 310.42V242.56H569.261V310.42H568.079ZM568.67 243.621H530.837V241.5H568.67V243.621ZM605.911 310.42V242.56H607.094V310.42H605.911ZM606.502 243.621H568.67V241.5H606.502V243.621ZM643.744 310.42V242.56H644.926V310.42H643.744ZM644.335 243.621H606.502V241.5H644.335V243.621ZM681.576 310.42V242.56H682.759V310.42H681.576ZM682.167 243.621H644.335V241.5H682.167V243.621ZM719.409 310.42V242.56H720.591V310.42H719.409ZM720 243.621H682.167V241.5H720V243.621ZM757.241 310.42V242.56H758.424V310.42H757.241ZM757.833 243.621H720V241.5H757.833V243.621ZM795.074 310.42V242.56H796.256V310.42H795.074ZM795.665 243.621H757.833V241.5H795.665V243.621ZM832.906 310.42V242.56H834.089V310.42H832.906ZM833.498 243.621H795.665V241.5H833.498V243.621ZM870.739 310.42V242.56H871.921V310.42H870.739ZM871.33 243.621H833.498V241.5H871.33V243.621ZM908.571 310.42V242.56H909.754V310.42H908.571ZM909.163 243.621H871.33V241.5H909.163V243.621ZM946.404 310.42V242.56H947.586V310.42H946.404ZM946.995 243.621H909.163V241.5H946.995V243.621ZM984.237 310.42V242.56H985.419V310.42H984.237ZM984.828 243.621H946.995V241.5H984.828V243.621ZM1022.07 310.42V242.56H1023.25V310.42H1022.07ZM1022.66 243.621H984.828V241.5H1022.66V243.621ZM1059.9 310.42V242.56H1061.08V310.42H1059.9ZM1060.49 243.621H1022.66V241.5H1060.49V243.621ZM1097.73 310.42V242.56H1098.92V310.42H1097.73ZM1098.33 243.621H1060.49V241.5H1098.33V243.621ZM1135.57 310.42V242.56H1136.75V310.42H1135.57ZM1136.16 243.621H1098.33V241.5H1136.16V243.621ZM1173.4 310.42V242.56H1174.58V310.42H1173.4ZM1173.99 243.621H1136.16V241.5H1173.99V243.621ZM1211.23 310.42V242.56H1212.41V310.42H1211.23ZM1211.82 243.621H1173.99V241.5H1211.82V243.621ZM1249.06 310.42V242.56H1250.25V310.42H1249.06ZM1249.66 243.621H1211.82V241.5H1249.66V243.621ZM1286.9 310.42V242.56H1288.08V310.42H1286.9ZM1287.49 243.621H1249.66V241.5H1287.49V243.621ZM1324.73 310.42V242.56H1325.91V310.42H1324.73ZM1325.32 243.621H1287.49V241.5H1325.32V243.621ZM1362.56 310.42V242.56H1363.74V310.42H1362.56ZM1363.15 243.621H1325.32V241.5H1363.15V243.621ZM1400.39 310.42V242.56H1401.58V310.42H1400.39ZM1400.99 243.621H1363.15V241.5H1400.99V243.621ZM1438.82 243.621H1400.99V241.5H1438.82V243.621ZM38.4236 242.56V174.7H39.6059V242.56H38.4236ZM39.0148 175.761H1.18227V173.64H39.0148V175.761ZM76.2562 242.56V174.7H77.4384V242.56H76.2562ZM76.8473 175.761H39.0148V173.64H76.8473V175.761ZM114.089 242.56V174.7H115.271V242.56H114.089ZM114.68 175.761H76.8473V173.64H114.68V175.761ZM151.921 242.56V174.7H153.103V242.56H151.921ZM152.512 175.761H114.68V173.64H152.512V175.761ZM189.754 242.56V174.7H190.936V242.56H189.754ZM190.345 175.761H152.512V173.64H190.345V175.761ZM227.586 242.56V174.7H228.768V242.56H227.586ZM228.177 175.761H190.345V173.64H228.177V175.761ZM265.419 242.56V174.7H266.601V242.56H265.419ZM266.01 175.761H228.177V173.64H266.01V175.761ZM303.251 242.56V174.7H304.434V242.56H303.251ZM303.842 175.761H266.01V173.64H303.842V175.761ZM341.084 242.56V174.7H342.266V242.56H341.084ZM341.675 175.761H303.842V173.64H341.675V175.761ZM378.916 242.56V174.7H380.099V242.56H378.916ZM379.507 175.761H341.675V173.64H379.507V175.761ZM416.749 242.56V174.7H417.931V242.56H416.749ZM417.34 175.761H379.507V173.64H417.34V175.761ZM454.581 242.56V174.7H455.764V242.56H454.581ZM455.172 175.761H417.34V173.64H455.172V175.761ZM492.414 242.56V174.7H493.596V242.56H492.414ZM493.005 175.761H455.172V173.64H493.005V175.761ZM530.246 242.56V174.7H531.429V242.56H530.246ZM530.837 175.761H493.005V173.64H530.837V175.761ZM568.079 242.56V174.7H569.261V242.56H568.079ZM568.67 175.761H530.837V173.64H568.67V175.761ZM605.911 242.56V174.7H607.094V242.56H605.911ZM606.502 175.761H568.67V173.64H606.502V175.761ZM643.744 242.56V174.7H644.926V242.56H643.744ZM644.335 175.761H606.502V173.64H644.335V175.761ZM681.576 242.56V174.7H682.759V242.56H681.576ZM682.167 175.761H644.335V173.64H682.167V175.761ZM719.409 242.56V174.7H720.591V242.56H719.409ZM720 175.761H682.167V173.64H720V175.761ZM757.241 242.56V174.7H758.424V242.56H757.241ZM757.833 175.761H720V173.64H757.833V175.761ZM795.074 242.56V174.7H796.256V242.56H795.074ZM795.665 175.761H757.833V173.64H795.665V175.761ZM832.906 242.56V174.7H834.089V242.56H832.906ZM833.498 175.761H795.665V173.64H833.498V175.761ZM870.739 242.56V174.7H871.921V242.56H870.739ZM871.33 175.761H833.498V173.64H871.33V175.761ZM908.571 242.56V174.7H909.754V242.56H908.571ZM909.163 175.761H871.33V173.64H909.163V175.761ZM946.404 242.56V174.7H947.586V242.56H946.404ZM946.995 175.761H909.163V173.64H946.995V175.761ZM984.237 242.56V174.7H985.419V242.56H984.237ZM984.828 175.761H946.995V173.64H984.828V175.761ZM1022.07 242.56V174.7H1023.25V242.56H1022.07ZM1022.66 175.761H984.828V173.64H1022.66V175.761ZM1059.9 242.56V174.7H1061.08V242.56H1059.9ZM1060.49 175.761H1022.66V173.64H1060.49V175.761ZM1097.73 242.56V174.7H1098.92V242.56H1097.73ZM1098.33 175.761H1060.49V173.64H1098.33V175.761ZM1135.57 242.56V174.7H1136.75V242.56H1135.57ZM1136.16 175.761H1098.33V173.64H1136.16V175.761ZM1173.4 242.56V174.7H1174.58V242.56H1173.4ZM1173.99 175.761H1136.16V173.64H1173.99V175.761ZM1211.23 242.56V174.7H1212.41V242.56H1211.23ZM1211.82 175.761H1173.99V173.64H1211.82V175.761ZM1249.06 242.56V174.7H1250.25V242.56H1249.06ZM1249.66 175.761H1211.82V173.64H1249.66V175.761ZM1286.9 242.56V174.7H1288.08V242.56H1286.9ZM1287.49 175.761H1249.66V173.64H1287.49V175.761ZM1324.73 242.56V174.7H1325.91V242.56H1324.73ZM1325.32 175.761H1287.49V173.64H1325.32V175.761ZM1362.56 242.56V174.7H1363.74V242.56H1362.56ZM1363.15 175.761H1325.32V173.64H1363.15V175.761ZM1400.39 242.56V174.7H1401.58V242.56H1400.39ZM1400.99 175.761H1363.15V173.64H1400.99V175.761ZM1438.82 175.761H1400.99V173.64H1438.82V175.761ZM38.4236 174.7V106.84H39.6059V174.7H38.4236ZM39.0148 107.901H1.18227V105.78H39.0148V107.901ZM76.2562 174.7V106.84H77.4384V174.7H76.2562ZM76.8473 107.901H39.0148V105.78H76.8473V107.901ZM114.089 174.7V106.84H115.271V174.7H114.089ZM114.68 107.901H76.8473V105.78H114.68V107.901ZM151.921 174.7V106.84H153.103V174.7H151.921ZM152.512 107.901H114.68V105.78H152.512V107.901ZM189.754 174.7V106.84H190.936V174.7H189.754ZM190.345 107.901H152.512V105.78H190.345V107.901ZM227.586 174.7V106.84H228.768V174.7H227.586ZM228.177 107.901H190.345V105.78H228.177V107.901ZM265.419 174.7V106.84H266.601V174.7H265.419ZM266.01 107.901H228.177V105.78H266.01V107.901ZM303.251 174.7V106.84H304.434V174.7H303.251ZM303.842 107.901H266.01V105.78H303.842V107.901ZM341.084 174.7V106.84H342.266V174.7H341.084ZM341.675 107.901H303.842V105.78H341.675V107.901ZM378.916 174.7V106.84H380.099V174.7H378.916ZM379.507 107.901H341.675V105.78H379.507V107.901ZM416.749 174.7V106.84H417.931V174.7H416.749ZM417.34 107.901H379.507V105.78H417.34V107.901ZM454.581 174.7V106.84H455.764V174.7H454.581ZM455.172 107.901H417.34V105.78H455.172V107.901ZM492.414 174.7V106.84H493.596V174.7H492.414ZM493.005 107.901H455.172V105.78H493.005V107.901ZM530.246 174.7V106.84H531.429V174.7H530.246ZM530.837 107.901H493.005V105.78H530.837V107.901ZM568.079 174.7V106.84H569.261V174.7H568.079ZM568.67 107.901H530.837V105.78H568.67V107.901ZM605.911 174.7V106.84H607.094V174.7H605.911ZM606.502 107.901H568.67V105.78H606.502V107.901ZM643.744 174.7V106.84H644.926V174.7H643.744ZM644.335 107.901H606.502V105.78H644.335V107.901ZM681.576 174.7V106.84H682.759V174.7H681.576ZM682.167 107.901H644.335V105.78H682.167V107.901ZM719.409 174.7V106.84H720.591V174.7H719.409ZM720 107.901H682.167V105.78H720V107.901ZM757.241 174.7V106.84H758.424V174.7H757.241ZM757.833 107.901H720V105.78H757.833V107.901ZM795.074 174.7V106.84H796.256V174.7H795.074ZM795.665 107.901H757.833V105.78H795.665V107.901ZM832.906 174.7V106.84H834.089V174.7H832.906ZM833.498 107.901H795.665V105.78H833.498V107.901ZM870.739 174.7V106.84H871.921V174.7H870.739ZM871.33 107.901H833.498V105.78H871.33V107.901ZM908.571 174.7V106.84H909.754V174.7H908.571ZM909.163 107.901H871.33V105.78H909.163V107.901ZM946.404 174.7V106.84H947.586V174.7H946.404ZM946.995 107.901H909.163V105.78H946.995V107.901ZM984.237 174.7V106.84H985.419V174.7H984.237ZM984.828 107.901H946.995V105.78H984.828V107.901ZM1022.07 174.7V106.84H1023.25V174.7H1022.07ZM1022.66 107.901H984.828V105.78H1022.66V107.901ZM1059.9 174.7V106.84H1061.08V174.7H1059.9ZM1060.49 107.901H1022.66V105.78H1060.49V107.901ZM1097.73 174.7V106.84H1098.92V174.7H1097.73ZM1098.33 107.901H1060.49V105.78H1098.33V107.901ZM1135.57 174.7V106.84H1136.75V174.7H1135.57ZM1136.16 107.901H1098.33V105.78H1136.16V107.901ZM1173.4 174.7V106.84H1174.58V174.7H1173.4ZM1173.99 107.901H1136.16V105.78H1173.99V107.901ZM1211.23 174.7V106.84H1212.41V174.7H1211.23ZM1211.82 107.901H1173.99V105.78H1211.82V107.901ZM1249.06 174.7V106.84H1250.25V174.7H1249.06ZM1249.66 107.901H1211.82V105.78H1249.66V107.901ZM1286.9 174.7V106.84H1288.08V174.7H1286.9ZM1287.49 107.901H1249.66V105.78H1287.49V107.901ZM1324.73 174.7V106.84H1325.91V174.7H1324.73ZM1325.32 107.901H1287.49V105.78H1325.32V107.901ZM1362.56 174.7V106.84H1363.74V174.7H1362.56ZM1363.15 107.901H1325.32V105.78H1363.15V107.901ZM1400.39 174.7V106.84H1401.58V174.7H1400.39ZM1400.99 107.901H1363.15V105.78H1400.99V107.901ZM1438.82 107.901H1400.99V105.78H1438.82V107.901ZM38.4236 106.84V38.9805H39.6059V106.84H38.4236ZM39.0148 40.0409H1.18227V37.9202H39.0148V40.0409ZM76.2562 106.84V38.9805H77.4384V106.84H76.2562ZM76.8473 40.0409H39.0148V37.9202H76.8473V40.0409ZM114.089 106.84V38.9805H115.271V106.84H114.089ZM114.68 40.0409H76.8473V37.9202H114.68V40.0409ZM151.921 106.84V38.9805H153.103V106.84H151.921ZM152.512 40.0409H114.68V37.9202H152.512V40.0409ZM189.754 106.84V38.9805H190.936V106.84H189.754ZM190.345 40.0409H152.512V37.9202H190.345V40.0409ZM227.586 106.84V38.9805H228.768V106.84H227.586ZM228.177 40.0409H190.345V37.9202H228.177V40.0409ZM265.419 106.84V38.9805H266.601V106.84H265.419ZM266.01 40.0409H228.177V37.9202H266.01V40.0409ZM303.251 106.84V38.9805H304.434V106.84H303.251ZM303.842 40.0409H266.01V37.9202H303.842V40.0409ZM341.084 106.84V38.9805H342.266V106.84H341.084ZM341.675 40.0409H303.842V37.9202H341.675V40.0409ZM378.916 106.84V38.9805H380.099V106.84H378.916ZM379.507 40.0409H341.675V37.9202H379.507V40.0409ZM416.749 106.84V38.9805H417.931V106.84H416.749ZM417.34 40.0409H379.507V37.9202H417.34V40.0409ZM454.581 106.84V38.9805H455.764V106.84H454.581ZM455.172 40.0409H417.34V37.9202H455.172V40.0409ZM492.414 106.84V38.9805H493.596V106.84H492.414ZM493.005 40.0409H455.172V37.9202H493.005V40.0409ZM530.246 106.84V38.9805H531.429V106.84H530.246ZM530.837 40.0409H493.005V37.9202H530.837V40.0409ZM568.079 106.84V38.9805H569.261V106.84H568.079ZM568.67 40.0409H530.837V37.9202H568.67V40.0409ZM605.911 106.84V38.9805H607.094V106.84H605.911ZM606.502 40.0409H568.67V37.9202H606.502V40.0409ZM643.744 106.84V38.9805H644.926V106.84H643.744ZM644.335 40.0409H606.502V37.9202H644.335V40.0409ZM681.576 106.84V38.9805H682.759V106.84H681.576ZM682.167 40.0409H644.335V37.9202H682.167V40.0409ZM719.409 106.84V38.9805H720.591V106.84H719.409ZM720 40.0409H682.167V37.9202H720V40.0409ZM757.241 106.84V38.9805H758.424V106.84H757.241ZM757.833 40.0409H720V37.9202H757.833V40.0409ZM795.074 106.84V38.9805H796.256V106.84H795.074ZM795.665 40.0409H757.833V37.9202H795.665V40.0409ZM832.906 106.84V38.9805H834.089V106.84H832.906ZM833.498 40.0409H795.665V37.9202H833.498V40.0409ZM870.739 106.84V38.9805H871.921V106.84H870.739ZM871.33 40.0409H833.498V37.9202H871.33V40.0409ZM908.571 106.84V38.9805H909.754V106.84H908.571ZM909.163 40.0409H871.33V37.9202H909.163V40.0409ZM946.404 106.84V38.9805H947.586V106.84H946.404ZM946.995 40.0409H909.163V37.9202H946.995V40.0409ZM984.237 106.84V38.9805H985.419V106.84H984.237ZM984.828 40.0409H946.995V37.9202H984.828V40.0409ZM1022.07 106.84V38.9805H1023.25V106.84H1022.07ZM1022.66 40.0409H984.828V37.9202H1022.66V40.0409ZM1059.9 106.84V38.9805H1061.08V106.84H1059.9ZM1060.49 40.0409H1022.66V37.9202H1060.49V40.0409ZM1097.73 106.84V38.9805H1098.92V106.84H1097.73ZM1098.33 40.0409H1060.49V37.9202H1098.33V40.0409ZM1135.57 106.84V38.9805H1136.75V106.84H1135.57ZM1136.16 40.0409H1098.33V37.9202H1136.16V40.0409ZM1173.4 106.84V38.9805H1174.58V106.84H1173.4ZM1173.99 40.0409H1136.16V37.9202H1173.99V40.0409ZM1211.23 106.84V38.9805H1212.41V106.84H1211.23ZM1211.82 40.0409H1173.99V37.9202H1211.82V40.0409ZM1249.06 106.84V38.9805H1250.25V106.84H1249.06ZM1249.66 40.0409H1211.82V37.9202H1249.66V40.0409ZM1286.9 106.84V38.9805H1288.08V106.84H1286.9ZM1287.49 40.0409H1249.66V37.9202H1287.49V40.0409ZM1324.73 106.84V38.9805H1325.91V106.84H1324.73ZM1325.32 40.0409H1287.49V37.9202H1325.32V40.0409ZM1362.56 106.84V38.9805H1363.74V106.84H1362.56ZM1363.15 40.0409H1325.32V37.9202H1363.15V40.0409ZM1400.39 106.84V38.9805H1401.58V106.84H1400.39ZM1400.99 40.0409H1363.15V37.9202H1400.99V40.0409ZM1438.82 40.0409H1400.99V37.9202H1438.82V40.0409ZM38.4236 38.9805V-28.8794H39.6059V38.9805H38.4236ZM76.2562 38.9805V-28.8794H77.4384V38.9805H76.2562ZM114.089 38.9805V-28.8794H115.271V38.9805H114.089ZM151.921 38.9805V-28.8794H153.103V38.9805H151.921ZM189.754 38.9805V-28.8794H190.936V38.9805H189.754ZM227.586 38.9805V-28.8794H228.768V38.9805H227.586ZM265.419 38.9805V-28.8794H266.601V38.9805H265.419ZM303.251 38.9805V-28.8794H304.434V38.9805H303.251ZM341.084 38.9805V-28.8794H342.266V38.9805H341.084ZM378.916 38.9805V-28.8794H380.099V38.9805H378.916ZM416.749 38.9805V-28.8794H417.931V38.9805H416.749ZM454.581 38.9805V-28.8794H455.764V38.9805H454.581ZM492.414 38.9805V-28.8794H493.596V38.9805H492.414ZM530.246 38.9805V-28.8794H531.429V38.9805H530.246ZM568.079 38.9805V-28.8794H569.261V38.9805H568.079ZM605.911 38.9805V-28.8794H607.094V38.9805H605.911ZM643.744 38.9805V-28.8794H644.926V38.9805H643.744ZM681.576 38.9805V-28.8794H682.759V38.9805H681.576ZM719.409 38.9805V-28.8794H720.591V38.9805H719.409ZM757.241 38.9805V-28.8794H758.424V38.9805H757.241ZM795.074 38.9805V-28.8794H796.256V38.9805H795.074ZM832.906 38.9805V-28.8794H834.089V38.9805H832.906ZM870.739 38.9805V-28.8794H871.921V38.9805H870.739ZM908.571 38.9805V-28.8794H909.754V38.9805H908.571ZM946.404 38.9805V-28.8794H947.586V38.9805H946.404ZM984.237 38.9805V-28.8794H985.419V38.9805H984.237ZM1022.07 38.9805V-28.8794H1023.25V38.9805H1022.07ZM1059.9 38.9805V-28.8794H1061.08V38.9805H1059.9ZM1097.73 38.9805V-28.8794H1098.92V38.9805H1097.73ZM1135.57 38.9805V-28.8794H1136.75V38.9805H1135.57ZM1173.4 38.9805V-28.8794H1174.58V38.9805H1173.4ZM1211.23 38.9805V-28.8794H1212.41V38.9805H1211.23ZM1249.06 38.9805V-28.8794H1250.25V38.9805H1249.06ZM1286.9 38.9805V-28.8794H1288.08V38.9805H1286.9ZM1324.73 38.9805V-28.8794H1325.91V38.9805H1324.73ZM1362.56 38.9805V-28.8794H1363.74V38.9805H1362.56ZM1400.39 38.9805V-28.8794H1401.58V38.9805H1400.39ZM1.18227 1056.88V1059H0V1056.88H1.18227ZM1438.82 1056.88H1440V1059H1438.82V1056.88ZM1.18227 -28.8794H0V-31H1.18227V-28.8794ZM1438.82 -28.8794V-31H1440V-28.8794H1438.82ZM1.18227 1054.76H39.0148V1059H1.18227V1054.76ZM2.36453 989.019V1056.88H0V989.019H2.36453ZM39.0148 1054.76H76.8473V1059H39.0148V1054.76ZM76.8473 1054.76H114.68V1059H76.8473V1054.76ZM114.68 1054.76H152.512V1059H114.68V1054.76ZM152.512 1054.76H190.345V1059H152.512V1054.76ZM190.345 1054.76H228.177V1059H190.345V1054.76ZM228.177 1054.76H266.01V1059H228.177V1054.76ZM266.01 1054.76H303.842V1059H266.01V1054.76ZM303.842 1054.76H341.675V1059H303.842V1054.76ZM341.675 1054.76H379.507V1059H341.675V1054.76ZM379.507 1054.76H417.34V1059H379.507V1054.76ZM417.34 1054.76H455.172V1059H417.34V1054.76ZM455.172 1054.76H493.005V1059H455.172V1054.76ZM493.005 1054.76H530.837V1059H493.005V1054.76ZM530.837 1054.76H568.67V1059H530.837V1054.76ZM568.67 1054.76H606.502V1059H568.67V1054.76ZM606.502 1054.76H644.335V1059H606.502V1054.76ZM644.335 1054.76H682.167V1059H644.335V1054.76ZM682.167 1054.76H720V1059H682.167V1054.76ZM720 1054.76H757.833V1059H720V1054.76ZM757.833 1054.76H795.665V1059H757.833V1054.76ZM795.665 1054.76H833.498V1059H795.665V1054.76ZM833.498 1054.76H871.33V1059H833.498V1054.76ZM871.33 1054.76H909.163V1059H871.33V1054.76ZM909.163 1054.76H946.995V1059H909.163V1054.76ZM946.995 1054.76H984.828V1059H946.995V1054.76ZM984.828 1054.76H1022.66V1059H984.828V1054.76ZM1022.66 1054.76H1060.49V1059H1022.66V1054.76ZM1060.49 1054.76H1098.33V1059H1060.49V1054.76ZM1098.33 1054.76H1136.16V1059H1098.33V1054.76ZM1136.16 1054.76H1173.99V1059H1136.16V1054.76ZM1173.99 1054.76H1211.82V1059H1173.99V1054.76ZM1211.82 1054.76H1249.66V1059H1211.82V1054.76ZM1249.66 1054.76H1287.49V1059H1249.66V1054.76ZM1287.49 1054.76H1325.32V1059H1287.49V1054.76ZM1325.32 1054.76H1363.15V1059H1325.32V1054.76ZM1363.15 1054.76H1400.99V1059H1363.15V1054.76ZM1400.99 1054.76H1438.82V1059H1400.99V1054.76ZM1437.64 1056.88V989.019H1440V1056.88H1437.64ZM2.36453 921.16V989.019H0V921.16H2.36453ZM1437.64 989.019V921.16H1440V989.019H1437.64ZM2.36453 853.3V921.16H0V853.3H2.36453ZM1437.64 921.16V853.3H1440V921.16H1437.64ZM2.36453 785.44V853.3H0V785.44H2.36453ZM1437.64 853.3V785.44H1440V853.3H1437.64ZM2.36453 717.58V785.44H0V717.58H2.36453ZM1437.64 785.44V717.58H1440V785.44H1437.64ZM2.36453 649.72V717.58H0V649.72H2.36453ZM1437.64 717.58V649.72H1440V717.58H1437.64ZM2.36453 581.86V649.72H0V581.86H2.36453ZM1437.64 649.72V581.86H1440V649.72H1437.64ZM2.36453 514V581.86H0V514H2.36453ZM1437.64 581.86V514H1440V581.86H1437.64ZM2.36453 446.14V514H0V446.14H2.36453ZM1437.64 514V446.14H1440V514H1437.64ZM2.36453 378.28V446.14H0V378.28H2.36453ZM1437.64 446.14V378.28H1440V446.14H1437.64ZM2.36453 310.42V378.28H0V310.42H2.36453ZM1437.64 378.28V310.42H1440V378.28H1437.64ZM2.36453 242.56V310.42H0V242.56H2.36453ZM1437.64 310.42V242.56H1440V310.42H1437.64ZM2.36453 174.7V242.56H0V174.7H2.36453ZM1437.64 242.56V174.7H1440V242.56H1437.64ZM2.36453 106.84V174.7H0V106.84H2.36453ZM1437.64 174.7V106.84H1440V174.7H1437.64ZM2.36453 38.9805V106.84H0V38.9805H2.36453ZM1437.64 106.84V38.9805H1440V106.84H1437.64ZM39.0148 -26.7588H1.18227V-31H39.0148V-26.7588ZM2.36453 -28.8794V38.9805H0V-28.8794H2.36453ZM76.8473 -26.7588H39.0148V-31H76.8473V-26.7588ZM114.68 -26.7588H76.8473V-31H114.68V-26.7588ZM152.512 -26.7588H114.68V-31H152.512V-26.7588ZM190.345 -26.7588H152.512V-31H190.345V-26.7588ZM228.177 -26.7588H190.345V-31H228.177V-26.7588ZM266.01 -26.7588H228.177V-31H266.01V-26.7588ZM303.842 -26.7588H266.01V-31H303.842V-26.7588ZM341.675 -26.7588H303.842V-31H341.675V-26.7588ZM379.507 -26.7588H341.675V-31H379.507V-26.7588ZM417.34 -26.7588H379.507V-31H417.34V-26.7588ZM455.172 -26.7588H417.34V-31H455.172V-26.7588ZM493.005 -26.7588H455.172V-31H493.005V-26.7588ZM530.837 -26.7588H493.005V-31H530.837V-26.7588ZM568.67 -26.7588H530.837V-31H568.67V-26.7588ZM606.502 -26.7588H568.67V-31H606.502V-26.7588ZM644.335 -26.7588H606.502V-31H644.335V-26.7588ZM682.167 -26.7588H644.335V-31H682.167V-26.7588ZM720 -26.7588H682.167V-31H720V-26.7588ZM757.833 -26.7588H720V-31H757.833V-26.7588ZM795.665 -26.7588H757.833V-31H795.665V-26.7588ZM833.498 -26.7588H795.665V-31H833.498V-26.7588ZM871.33 -26.7588H833.498V-31H871.33V-26.7588ZM909.163 -26.7588H871.33V-31H909.163V-26.7588ZM946.995 -26.7588H909.163V-31H946.995V-26.7588ZM984.828 -26.7588H946.995V-31H984.828V-26.7588ZM1022.66 -26.7588H984.828V-31H1022.66V-26.7588ZM1060.49 -26.7588H1022.66V-31H1060.49V-26.7588ZM1098.33 -26.7588H1060.49V-31H1098.33V-26.7588ZM1136.16 -26.7588H1098.33V-31H1136.16V-26.7588ZM1173.99 -26.7588H1136.16V-31H1173.99V-26.7588ZM1211.82 -26.7588H1173.99V-31H1211.82V-26.7588ZM1249.66 -26.7588H1211.82V-31H1249.66V-26.7588ZM1287.49 -26.7588H1249.66V-31H1287.49V-26.7588ZM1325.32 -26.7588H1287.49V-31H1325.32V-26.7588ZM1363.15 -26.7588H1325.32V-31H1363.15V-26.7588ZM1400.99 -26.7588H1363.15V-31H1400.99V-26.7588ZM1437.64 38.9805V-28.8794H1440V38.9805H1437.64ZM1438.82 -26.7588H1400.99V-31H1438.82V-26.7588Z" fill="url(#paint0_radial_10466_9570)" fill-opacity="0.24"/>
<defs>
<radialGradient id="paint0_radial_10466_9570" cx="0" cy="0" r="1" gradientUnits="userSpaceOnUse" gradientTransform="translate(720 1079.15) rotate(-90) scale(809.017 1071.21)">
<stop stop-color="#C3C3C3"/>
<stop offset="1" stop-color="#422222" stop-opacity="0"/>
</radialGradient>
</defs>
</svg>
