<svg width="16" height="17" viewBox="0 0 16 17" fill="none" xmlns="http://www.w3.org/2000/svg">
<g clip-path="url(#clip0_2649_5883)">
<path d="M7.80058 15.4558C5.99034 15.4558 4.25425 14.7233 2.97422 13.4195C1.69419 12.1157 0.975072 10.3474 0.975072 8.50353C0.975072 6.65968 1.69419 4.89135 2.97422 3.58755C4.25425 2.28375 5.99034 1.55128 7.80058 1.55128C9.61082 1.55128 11.3469 2.28375 12.6269 3.58755C13.907 4.89135 14.6261 6.65968 14.6261 8.50353C14.6261 10.3474 13.907 12.1157 12.6269 13.4195C11.3469 14.7233 9.61082 15.4558 7.80058 15.4558ZM7.80058 16.449C9.86942 16.449 11.8535 15.6118 13.3164 14.1218C14.7793 12.6317 15.6012 10.6108 15.6012 8.50353C15.6012 6.39627 14.7793 4.37532 13.3164 2.88527C11.8535 1.39521 9.86942 0.558105 7.80058 0.558105C5.73174 0.558105 3.74763 1.39521 2.28474 2.88527C0.821845 4.37532 0 6.39627 0 8.50353C0 10.6108 0.821845 12.6317 2.28474 14.1218C3.74763 15.6118 5.73174 16.449 7.80058 16.449Z" fill="#0D204A"/>
<path d="M6.82509 11.9796C6.82509 11.8479 6.87646 11.7216 6.96789 11.6284C7.05932 11.5353 7.18333 11.483 7.31263 11.483H8.2877C8.41701 11.483 8.54101 11.5353 8.63244 11.6284C8.72387 11.7216 8.77524 11.8479 8.77524 11.9796C8.77524 12.1113 8.72387 12.2376 8.63244 12.3307C8.54101 12.4239 8.41701 12.4762 8.2877 12.4762H7.31263C7.18333 12.4762 7.05932 12.4239 6.96789 12.3307C6.87646 12.2376 6.82509 12.1113 6.82509 11.9796ZM4.87495 9.00005C4.87495 8.86834 4.92632 8.74204 5.01775 8.64891C5.10918 8.55578 5.23318 8.50346 5.36249 8.50346H10.2378C10.3672 8.50346 10.4912 8.55578 10.5826 8.64891C10.674 8.74204 10.7254 8.86834 10.7254 9.00005C10.7254 9.13175 10.674 9.25806 10.5826 9.35119C10.4912 9.44432 10.3672 9.49664 10.2378 9.49664H5.36249C5.23318 9.49664 5.10918 9.44432 5.01775 9.35119C4.92632 9.25806 4.87495 9.13175 4.87495 9.00005ZM2.9248 6.02051C2.9248 5.88881 2.97617 5.7625 3.0676 5.66937C3.15903 5.57624 3.28304 5.52393 3.41234 5.52393H12.188C12.3173 5.52393 12.4413 5.57624 12.5327 5.66937C12.6242 5.7625 12.6755 5.88881 12.6755 6.02051C12.6755 6.15222 12.6242 6.27853 12.5327 6.37166C12.4413 6.46478 12.3173 6.5171 12.188 6.5171H3.41234C3.28304 6.5171 3.15903 6.46478 3.0676 6.37166C2.97617 6.27853 2.9248 6.15222 2.9248 6.02051Z" fill="#0D204A"/>
</g>
<defs>
<clipPath id="clip0_2649_5883">
<rect width="15.6012" height="15.8908" fill="white" transform="translate(0 0.557617)"/>
</clipPath>
</defs>
</svg>
