<svg width="24" height="24" viewBox="0 0 24 24" fill="none" xmlns="http://www.w3.org/2000/svg">
<path d="M19.7748 5.24244L19.7742 5.24186C19.2759 4.75342 18.6885 4.36527 18.0437 4.09851L18.0428 4.0981C17.3739 3.82025 16.6565 3.67803 15.9322 3.6797L15.9305 3.67971C14.9122 3.6797 13.9201 3.95847 13.0586 4.48403L13.0585 4.48404C12.8524 4.60978 12.6571 4.74754 12.4725 4.89734L12 5.28056L11.5275 4.89734C11.3429 4.74754 11.1476 4.60978 10.9415 4.48404L10.9414 4.48403C10.0799 3.95847 9.08782 3.6797 8.06953 3.6797C7.33493 3.6797 6.62656 3.82008 5.95724 4.09811L5.95643 4.09844C5.30921 4.3664 4.72666 4.7513 4.22557 5.24208L4.22455 5.24308C3.7276 5.72795 3.33062 6.30563 3.0561 6.94336L19.7748 5.24244ZM19.7748 5.24244C20.2713 5.72807 20.6684 6.30581 20.9439 6.94336L19.7748 5.24244ZM7.1275 16.5911L7.12758 16.5912C8.1891 17.5715 9.24839 18.4028 10.0549 18.9965C10.4576 19.293 10.7958 19.5291 11.0378 19.6939C11.1588 19.7763 11.2555 19.8407 11.324 19.8857C11.3583 19.9082 11.3852 19.9257 11.4045 19.9381C11.4254 19.9516 11.4335 19.9566 11.4322 19.9558L11.444 19.9631L11.444 19.9632L11.9978 20.3185L11.9979 20.3185L11.998 20.3186L11.9988 20.3186L11.9998 20.3185L11.9998 20.3185L11.9999 20.3185L12.5537 19.9632L12.5538 19.9631C12.6304 19.9141 14.74 18.5562 16.8704 16.5909C18.1519 15.4078 19.1665 14.2564 19.8943 13.1713C20.3542 12.4847 20.7072 11.8182 20.9457 11.1901L20.9464 11.1884C21.2343 10.4355 21.3727 9.71295 21.3727 9.03517V9.03305C21.3747 8.30938 21.2295 7.60704 20.9439 6.9434L7.1275 16.5911ZM7.1275 16.5911C5.84588 15.4079 4.8313 14.2566 4.1034 13.1714L7.1275 16.5911ZM2.625 9.03517C2.625 8.31007 2.77051 7.60704 3.05608 6.94342L4.10333 13.1713C3.64439 12.4862 3.29289 11.819 3.0513 11.1884C2.76339 10.4355 2.625 9.71296 2.625 9.03517Z" stroke="#707BA0" stroke-width="1.5"/>
</svg>
