<svg width="22" height="19" viewBox="0 0 22 19" fill="none" xmlns="http://www.w3.org/2000/svg">
<path d="M20.6328 4.14299C20.3187 3.41557 19.8657 2.7564 19.2992 2.20236C18.7323 1.64667 18.064 1.20507 17.3305 0.901579C16.5699 0.585625 15.7541 0.423902 14.9305 0.425798C13.775 0.425798 12.6477 0.742204 11.668 1.33986C11.4336 1.48283 11.2109 1.63986 11 1.81095C10.7891 1.63986 10.5664 1.48283 10.332 1.33986C9.35234 0.742204 8.225 0.425798 7.06953 0.425798C6.2375 0.425798 5.43125 0.585173 4.66953 0.901579C3.93359 1.20627 3.27031 1.64455 2.70078 2.20236C2.13359 2.75577 1.6805 3.4151 1.36719 4.14299C1.04141 4.90002 0.875 5.70392 0.875 6.53127C0.875 7.31174 1.03438 8.12502 1.35078 8.95236C1.61563 9.64377 1.99531 10.361 2.48047 11.0852C3.24922 12.2313 4.30625 13.4266 5.61875 14.6383C7.79375 16.6469 9.94766 18.0344 10.0391 18.0906L10.5945 18.4469C10.8406 18.6039 11.157 18.6039 11.4031 18.4469L11.9586 18.0906C12.05 18.032 14.2016 16.6469 16.3789 14.6383C17.6914 13.4266 18.7484 12.2313 19.5172 11.0852C20.0023 10.361 20.3844 9.64377 20.6469 8.95236C20.9633 8.12502 21.1227 7.31174 21.1227 6.53127C21.125 5.70392 20.9586 4.90002 20.6328 4.14299Z" fill="#FF4141"/>
</svg>
