<svg width="25" height="25" viewBox="0 0 25 25" fill="none" xmlns="http://www.w3.org/2000/svg">
<path d="M8.75 19.4961H8.25C4.25 19.4961 2.25 18.4961 2.25 13.4961V8.49609C2.25 4.49609 4.25 2.49609 8.25 2.49609H16.25C20.25 2.49609 22.25 4.49609 22.25 8.49609V13.4961C22.25 17.4961 20.25 19.4961 16.25 19.4961H15.75C15.44 19.4961 15.14 19.6461 14.95 19.8961L13.45 21.8961C12.79 22.7761 11.71 22.7761 11.05 21.8961L9.55 19.8961C9.39 19.6761 9.02 19.4961 8.75 19.4961Z" stroke="#707BA0" stroke-width="1.5" strokeMiterlimit="10" strokeLinecap="round" strokeLinejoin="round"/>
<path d="M16.2465 11.4961H16.2554" stroke="#707BA0" stroke-width="2" strokeLinecap="round" strokeLinejoin="round"/>
<path d="M12.2455 11.4961H12.2545" stroke="#707BA0" stroke-width="2" strokeLinecap="round" strokeLinejoin="round"/>
<path d="M8.24451 11.4961H8.25349" stroke="#707BA0" stroke-width="2" strokeLinecap="round" strokeLinejoin="round"/>
</svg>
