<svg width="25" height="25" viewBox="0 0 25 25" fill="none" xmlns="http://www.w3.org/2000/svg">
<path d="M17.46 6.69629C19.46 8.08629 20.84 10.2963 21.12 12.8463" stroke="#707BA0" stroke-width="1.5" strokeLinecap="round" strokeLinejoin="round"/>
<path d="M3.99023 12.8966C4.25023 10.3566 5.61023 8.14658 7.59023 6.74658" stroke="#707BA0" stroke-width="1.5" strokeLinecap="round" strokeLinejoin="round"/>
<path d="M8.69043 21.4663C9.85043 22.0563 11.1704 22.3863 12.5604 22.3863C13.9004 22.3863 15.1604 22.0863 16.2904 21.5363" stroke="#707BA0" stroke-width="1.5" strokeLinecap="round" strokeLinejoin="round"/>
<path d="M12.5603 8.2265C14.0956 8.2265 15.3403 6.98186 15.3403 5.4465C15.3403 3.91115 14.0956 2.6665 12.5603 2.6665C11.0249 2.6665 9.78027 3.91115 9.78027 5.4465C9.78027 6.98186 11.0249 8.2265 12.5603 8.2265Z" stroke="#707BA0" stroke-width="1.5" strokeLinecap="round" strokeLinejoin="round"/>
<path d="M5.3298 20.4462C6.86516 20.4462 8.10981 19.2016 8.10981 17.6662C8.10981 16.1309 6.86516 14.8862 5.3298 14.8862C3.79445 14.8862 2.5498 16.1309 2.5498 17.6662C2.5498 19.2016 3.79445 20.4462 5.3298 20.4462Z" stroke="#707BA0" stroke-width="1.5" strokeLinecap="round" strokeLinejoin="round"/>
<path d="M19.6696 20.4462C21.205 20.4462 22.4496 19.2016 22.4496 17.6662C22.4496 16.1309 21.205 14.8862 19.6696 14.8862C18.1343 14.8862 16.8896 16.1309 16.8896 17.6662C16.8896 19.2016 18.1343 20.4462 19.6696 20.4462Z" stroke="#707BA0" stroke-width="1.5" strokeLinecap="round" strokeLinejoin="round"/>
</svg>
