<svg width="357" height="357" viewBox="0 0 357 357" fill="none" xmlns="http://www.w3.org/2000/svg">
    <circle cx="158.156" cy="231.424" r="91.4823" fill="#225AEA"/>
    <rect x="138.871" y="72.9766" width="150.191" height="233.255" rx="75.0953" fill="#225AEA"/>
    <g clip-path="url(#clip0_7807_7718)">
        <ellipse cx="177.209" cy="175.6" rx="175.922" ry="176.245" fill="#EAF4FF"/>
        <path d="M93.5641 24.252C93.5641 24.252 93.4459 24.252 93.3277 24.252C92.9731 24.3682 92.3822 24.7171 92.264 24.7171C92.1458 24.8334 91.2002 25.6475 91.2002 25.6475L91.082 25.7638C91.082 25.7638 91.5548 25.9964 93.0913 24.9497C93.8005 24.4845 93.8005 24.3682 93.5641 24.252Z" fill="#225AEA"/>
        <path d="M91.1997 23.4384C91.0815 23.4384 91.1997 23.3221 91.1997 23.4384C90.8451 23.5547 90.2541 23.7873 90.1359 23.9036C90.0177 24.0199 89.8995 24.1362 90.0177 24.1362C90.0177 24.1362 90.2541 24.1362 90.4905 24.0199C90.6087 23.7873 91.1997 23.4384 91.1997 23.4384Z" fill="#225AEA"/>
        <path d="M95.5739 21.4618C96.0467 21.3455 96.0467 21.3455 96.4012 21.2292C96.4012 21.2292 96.874 21.1129 97.465 20.764C97.465 20.764 98.1742 20.4151 98.2924 20.2988C98.2924 20.2988 98.2924 20.2988 98.1742 20.2988C98.1742 20.2988 95.5739 21.2292 93.0918 22.5084L94.3919 22.0433C94.7465 21.8107 95.1011 21.5781 95.5739 21.4618Z" fill="#225AEA"/>
        <path d="M92.7382 23.0896C92.7382 22.9733 92.7382 22.9733 92.7382 23.0896C92.7382 22.9733 92.7382 22.9733 93.802 22.6244C94.1565 22.5081 94.6293 22.2756 94.8657 22.1593C94.8657 22.1593 94.9839 22.1593 94.9839 22.043C94.8657 22.043 94.8657 22.043 94.7475 22.043C91.9108 22.9733 89.6651 24.3689 89.3105 24.7178C89.5469 24.7178 92.62 23.3222 92.7382 23.2059C92.7382 23.0896 92.7382 23.0896 92.7382 23.0896Z" fill="#225AEA"/>
        <path d="M95.6917 22.7409C95.8099 22.7409 95.8098 22.6246 95.8098 22.6246C95.928 22.5083 96.0462 22.392 96.0462 22.392C96.1644 22.2757 96.4008 22.0431 96.519 21.9268C96.6372 21.8105 96.6372 21.8105 96.6372 21.8105C96.6372 21.8105 96.6372 21.8105 96.519 21.8105C95.928 22.0431 94.9825 22.7409 94.8643 22.8572C94.9825 22.8572 94.9825 22.8572 94.7461 23.2061C94.8643 23.2061 95.6917 22.7409 95.6917 22.7409Z" fill="#225AEA"/>
        <path d="M88.482 27.9746C88.3639 27.9746 88.3638 27.9746 88.2456 27.9746C88.0093 28.0909 87.7729 28.2072 87.7729 28.2072C87.0637 28.5561 86.3545 29.1376 86.2363 29.1376C86.3545 29.1376 87.6547 28.6724 88.1275 28.2072C88.482 28.0909 88.6002 27.9746 88.482 27.9746Z" fill="#225AEA"/>
        <path d="M89.7828 30.8818C89.6646 30.8818 89.6646 30.7655 89.31 30.8818C89.1918 30.8818 89.1918 30.8818 89.0736 30.8818C88.4827 30.9981 87.7735 31.1144 87.1825 31.2306C86.4733 31.3469 83.9912 32.5099 83.6367 32.9751C83.873 33.0914 84.1094 32.9751 84.2276 33.0914C84.5822 33.324 84.464 33.4403 84.3458 33.5566C84.2276 33.6728 82.5729 34.9521 82.1001 35.1847C81.8637 35.301 81.8637 35.301 81.7455 35.301C81.6273 34.8358 82.2183 34.7195 82.2183 34.2543C81.8637 34.2543 80.3272 35.0684 80.209 35.5336V35.6499C80.3272 35.9988 80.4454 36.3476 80.5636 36.6965C80.5636 36.8128 80.6818 36.9291 80.6818 37.1617C80.6818 37.3943 80.5636 37.6269 80.5636 37.9758V38.0921C81.0363 38.5572 85.1732 36.2313 86.3551 35.0684C86.5915 34.8358 87.3007 33.4403 86.8279 33.4403C86.3551 33.4403 85.8824 33.6729 85.4096 33.7891C86.3551 33.0914 87.4189 32.7425 88.4827 32.0447C88.6009 31.9284 89.7828 30.8818 89.7828 30.8818Z" fill="#225AEA"/>
        <path d="M77.8473 30.6495C79.6202 29.8354 81.1567 28.5562 82.9297 27.7421C81.1567 28.905 81.1567 28.905 81.0385 28.905L87.0665 25.5325C87.1847 25.4162 87.4211 25.4162 87.5393 25.1836C87.4211 25.1836 87.4211 25.1836 87.3029 25.1836C86.0027 25.7651 77.3745 30.3006 75.6016 31.8124C76.5471 31.6961 77.1381 30.9984 77.8473 30.6495C77.9655 30.6495 77.8473 30.6495 77.8473 30.6495Z" fill="#225AEA"/>
        <path d="M77.844 43.207C77.6076 43.207 77.6076 43.3233 77.3712 43.4396C76.5438 44.0211 75.9529 44.8352 75.1255 45.4166C73.7072 46.2307 73.2344 46.5796 73.2344 46.6959C73.3526 46.6959 73.4708 46.6959 73.8254 46.5796C74.4163 46.4633 74.4163 46.4633 74.5345 46.5796C74.7709 46.6959 74.6527 47.0448 74.8891 47.0448C75.0073 47.0448 75.3619 47.0448 75.7165 46.9285C78.1986 46.4633 79.1441 45.5329 79.2623 45.4166C79.4987 45.0678 78.9077 43.7885 78.9077 43.7885C78.5532 43.5559 77.9622 43.207 77.844 43.207Z" fill="#225AEA"/>
        <path d="M81.2722 33.0918C81.2722 33.0918 81.154 33.0918 80.7995 33.2081C79.4993 33.557 78.5537 34.371 78.4355 34.4873C78.5537 34.4873 78.6719 34.371 78.7901 34.4873C78.7901 34.6036 78.7901 34.6036 78.6719 34.8362C78.5537 34.9525 78.4355 35.4177 78.6719 35.3014C79.1447 35.1851 80.4449 34.0222 80.5631 33.9059C81.3904 33.3244 81.6268 33.0918 81.2722 33.0918Z" fill="#225AEA"/>
        <path d="M140.016 9.59964C139.189 10.6463 136.825 11.2278 135.643 11.5767C135.643 11.5767 129.379 13.3211 129.024 13.7863C127.251 16.1122 131.624 16.8099 131.743 16.8099C142.498 15.9959 142.616 16.1122 143.444 16.8099C143.444 16.8099 148.526 22.2758 146.871 25.2995C146.162 26.4624 146.162 26.5787 146.281 26.695C146.399 27.2765 147.226 27.3928 147.462 27.9743C147.817 28.7884 147.462 29.7187 147.935 30.5328C149.354 30.1839 150.536 28.7884 152.19 29.4861C155.027 30.7654 153.727 33.0913 153.727 33.0913C152.545 34.4868 150.417 34.3705 149.354 35.9987C148.763 36.8127 148.172 39.2549 148.644 40.5342C148.881 41.2319 157.273 55.1874 161.291 56.5829C159.282 27.5091 157.745 14.2514 155.736 7.85521C157.627 13.4374 159.046 24.2528 161.291 56.5829C171.338 58.4436 171.574 58.211 172.165 57.5133C173.229 56.3503 175.002 47.2793 175.12 47.163C175.356 45.8838 174.647 44.3719 175.475 43.0927C175.829 42.3949 175.947 42.3949 178.43 41.6971C186.349 39.3712 186.349 39.3712 186.585 37.8594C186.821 36.3475 186.94 35.5335 188.358 34.7194C191.786 32.975 195.804 32.7424 199.232 30.998C200.65 30.3002 202.187 29.835 203.487 28.9046C203.487 28.9046 204.196 28.4395 203.369 27.3928C202.187 25.881 200.414 25.0669 199.232 23.4388C198.523 22.5084 198.523 21.2292 198.05 20.1825C197.459 18.9033 197.695 18.5544 198.405 17.8566C199.35 16.9262 198.759 16.4611 196.632 15.2981C190.013 11.4604 190.013 11.3441 189.422 10.53C189.422 10.4137 189.54 10.2974 189.54 10.2974C189.658 10.2974 189.776 10.1811 189.894 10.1811C188.003 8.32039 184.103 9.83223 183.157 6.22707C182.921 6.11078 182.685 5.99448 182.448 5.87819C182.448 5.76189 182.566 5.5293 182.566 5.29671C182.685 5.29671 182.803 5.29671 182.803 5.18042C181.975 5.06412 179.493 4.94783 179.375 4.94783C177.72 4.83153 175.593 5.18042 175.238 5.29671C173.82 5.5293 172.52 4.59894 171.22 4.59894C169.329 4.48264 164.955 4.48264 163.301 4.59894C160.109 4.71524 160.109 4.71524 159.755 5.06412C156.327 5.29671 156.327 5.29671 154.672 5.5293H154.554H154.672C156.682 5.6456 156.682 5.6456 157.273 5.87819C157.154 5.87819 157.154 5.87819 154.909 5.87819C153.963 5.87819 153.609 5.87819 152.545 5.99448C144.508 6.92485 138.716 9.36704 138.716 9.48334C138.834 9.59964 138.834 9.59964 140.016 9.59964Z" fill="#225AEA"/>
        <path d="M109.523 42.9774C109.877 41.9308 109.759 41.4656 108.932 41.5819C108.932 41.5819 106.568 42.1634 106.213 43.21C105.977 43.7915 106.922 45.3034 107.277 45.5359C108.341 46.1174 109.523 42.9774 109.523 42.9774Z" fill="#225AEA"/>
        <path d="M125.951 11.1106C125.478 11.3432 124.887 11.4595 124.414 11.6921C126.069 11.3432 131.388 9.83138 132.215 9.59879C128.669 10.7617 125.833 11.6921 122.878 12.2736C122.169 12.3899 121.932 12.6225 121.696 12.7388C121.696 12.9713 121.46 13.9017 120.869 14.3669C119.332 13.9017 115.195 16.2276 114.959 16.3439C115.313 16.4602 115.786 16.4602 116.141 16.6928C116.141 16.6928 116.141 16.8091 116.141 16.9254C116.614 16.8091 116.85 16.8091 118.623 16.2276C115.55 17.8558 115.195 17.5069 114.959 17.158C112.713 17.158 112.477 18.0883 112.477 18.4372C111.177 19.2513 109.522 19.3676 108.34 20.5305L108.458 20.6468C108.813 20.6468 109.049 20.6468 111.531 20.1817C113.304 19.8328 114.841 18.5535 116.85 19.0187C116.732 19.3676 116.732 19.3676 116.259 19.7165C117.559 19.9491 121.696 17.972 121.341 17.0417C121.223 17.0417 120.987 16.9254 120.869 16.9254C121.223 16.4602 123.942 14.8321 124.533 14.5995C128.197 13.6691 129.497 12.3899 129.615 12.041C129.615 12.041 129.497 12.041 129.379 11.9247C132.806 10.9943 134.343 10.6454 135.407 9.94767C135.17 9.94767 135.17 9.94767 134.579 10.064C134.579 10.064 142.38 7.73806 142.735 7.62177C140.725 7.85436 140.607 7.97065 139.898 7.97065C141.789 7.50547 143.798 7.15659 145.689 6.69141C143.798 6.69141 140.725 7.04029 140.725 7.04029C140.607 7.04029 133.161 8.31954 131.624 8.90102C131.742 9.01731 131.861 9.13361 131.979 9.13361C131.624 9.2499 131.388 9.3662 130.679 9.2499C130.088 9.13361 123.705 10.7617 123.114 11.4595C122.996 11.6921 123.114 11.8084 125.951 11.1106Z" fill="#225AEA"/>
        <path d="M95.9281 23.7869C95.8099 24.0195 95.6917 24.2521 95.5735 24.3684C95.3371 24.601 95.3371 24.601 94.5097 25.2987C94.6279 25.0661 94.7461 24.8335 94.7461 24.601C94.7461 24.4847 94.8643 24.3684 94.8643 24.2521C94.7461 24.2521 94.1552 24.2521 93.446 24.9498C93.5642 24.9498 93.5642 24.9498 93.6824 24.9498C93.6824 24.9498 93.6824 24.9498 93.6824 25.0661C92.855 25.7639 91.9095 25.7639 91.0821 26.2291C91.2003 26.3454 91.3185 26.1128 91.4367 26.2291C91.3185 26.4617 91.3185 26.4617 91.3185 26.4617C91.4367 26.4617 91.4367 26.4617 93.9188 25.7639C93.0914 26.2291 91.0821 27.2757 90.8457 27.8572C90.8457 27.8572 93.6824 26.8106 94.037 26.6943C94.2733 26.578 94.2733 26.578 95.8099 25.1824C95.8099 25.1824 95.8099 25.2987 95.8099 25.415C96.5191 24.7173 96.5191 24.7173 98.4102 23.2054C98.7648 22.8565 98.8829 22.8565 98.8829 22.7402C98.7648 22.7402 98.7648 22.7402 98.6466 22.7402C98.7648 22.8565 96.2827 23.5543 95.9281 23.7869C96.0463 23.6706 95.9281 23.6706 95.9281 23.7869Z" fill="#225AEA"/>
        <path d="M122.996 43.2088C124.178 43.0926 126.66 46.2325 126.66 46.2325C127.251 47.0466 127.842 47.8607 128.433 47.7444C129.969 47.3955 132.333 41.4644 132.451 41.4644C132.451 41.2318 132.57 40.9992 132.57 40.8829L120.987 38.3244C121.341 38.0919 121.578 37.8593 124.414 36.58C125.596 35.9985 126.187 35.766 126.187 35.4171C126.069 34.603 122.05 30.7653 120.041 30.5327C119.214 30.4164 118.268 30.649 117.441 30.3001C116.495 29.8349 116.613 28.4393 115.431 28.3231C114.249 28.2068 111.886 29.1371 110.113 29.8349C108.34 30.5327 108.34 30.5327 107.985 30.5327C107.867 30.3001 107.749 29.9512 107.631 27.3927C106.921 27.1601 104.557 27.509 103.966 27.6253C100.421 28.4393 90.0194 37.0452 92.0288 38.3244C93.9199 39.6037 100.657 38.3244 101.484 37.8593C101.366 37.2778 101.248 36.9289 104.203 36.58C106.685 36.3474 107.04 35.766 107.276 35.3008C107.867 35.6497 109.522 36.9289 109.522 36.9289C110.349 37.8593 110.704 39.0222 111.531 39.9526C112.477 41.1155 114.84 40.9992 114.84 43.2088C114.84 43.2088 114.368 48.0932 107.512 50.0703C105.503 50.6517 103.257 50.5354 101.248 51.5821C100.421 52.0473 100.302 53.4428 100.657 53.6754C101.012 54.0243 102.194 54.1406 105.858 52.9776C108.576 52.0473 108.576 52.0473 113.54 54.1406C113.186 54.6058 113.186 54.6058 111.176 55.3036C112.24 56.2339 120.632 57.9783 122.287 57.048C122.169 56.8154 122.169 56.8154 121.814 56.5828C121.578 56.4665 121.578 56.4665 117.913 53.0939C120.868 53.4428 121.696 53.7917 123.35 54.8384C123.705 55.071 123.941 55.1873 124.06 55.1873C125.005 54.9547 126.542 51.4658 125.833 50.6517C124.178 49.0236 121.223 49.2562 120.277 46.5814C119.214 44.3718 122.878 43.2088 122.996 43.2088Z" fill="#225AEA"/>
        <path d="M85.0566 26.9273C85.1748 27.0436 85.7658 26.6948 86.3568 26.3459C86.475 26.2296 86.5932 26.1133 86.7114 26.1133C86.7114 26.1133 86.7114 26.1133 86.5932 26.1133C86.3568 26.2296 85.0566 26.8111 85.0566 26.9273Z" fill="#225AEA"/>
        <path d="M149.236 33.3241L151.009 32.9752C151.009 32.9752 151.482 32.7426 151.6 32.3938C151.718 32.1612 151.6 32.0449 151.482 31.9286C151.364 31.696 151.009 31.5797 150.773 31.3471C150.655 31.2308 150.655 31.1145 150.655 30.9982C150.655 30.9982 150.655 30.9982 150.655 30.8819C150.655 30.8819 150.418 30.7656 149.827 30.7656C149 30.8819 146.754 32.2775 148.054 32.9752C148.291 33.3241 148.764 33.4404 149.236 33.3241Z" fill="#225AEA"/>
        <path d="M114.487 27.2753C114.369 26.9264 111.887 26.2286 109.995 26.5775C108.341 26.8101 108.932 27.8568 109.286 28.2056C110.586 29.136 114.487 27.3916 114.487 27.2753Z" fill="#225AEA"/>
        <path d="M102.074 19.137C101.601 19.3696 100.773 19.7185 100.537 19.8348C100.655 19.8348 100.655 19.8348 100.774 19.8348C101.601 19.6022 102.31 19.6022 102.31 19.6022C102.192 19.8348 101.837 19.8348 101.837 20.1837C101.955 20.3 103.256 19.8348 103.374 19.7185C103.847 19.4859 105.383 18.0903 105.383 17.8578C105.147 17.7415 105.029 17.9741 104.792 17.9741C104.91 17.6252 105.383 17.6252 105.619 17.3926C105.619 17.3926 105.62 17.3926 105.501 17.3926C104.083 17.8578 102.31 18.6718 102.074 18.7881C102.428 18.9044 102.665 18.6718 103.019 18.6718C102.901 18.7881 102.783 18.9044 102.074 19.137Z" fill="#225AEA"/>
        <path d="M95.3385 26.4623C94.9839 26.6949 94.8657 26.8112 95.4567 27.0438C95.9294 27.2764 96.9932 27.0438 97.9388 26.2297C98.5297 25.7645 99.5935 24.6016 99.1207 24.6016C99.0025 24.6016 99.0025 24.6016 98.8843 24.6016C97.9387 24.9504 95.4566 26.346 95.3385 26.4623Z" fill="#225AEA"/>
        <path d="M110.586 18.2051C110.467 18.2051 110.467 18.2051 110.467 18.2051H110.349C109.64 18.4377 108.931 18.6703 108.222 18.9029C107.394 19.1354 106.567 19.368 105.74 19.6006C105.149 19.8332 104.794 19.9495 104.676 19.9495C104.912 19.9495 107.276 19.6006 108.576 19.2517C109.167 19.0191 109.522 18.9029 110.349 18.3214C110.349 18.3214 110.467 18.3214 110.586 18.2051Z" fill="#225AEA"/>
        <path d="M104.559 19.4841C104.795 19.4841 107.277 18.4375 107.986 18.0886C108.341 17.9723 108.341 17.856 108.341 17.7397C108.341 17.6234 108.104 17.6234 108.104 17.5071C108.104 17.3908 108.104 17.3908 108.104 17.2745C108.104 17.2745 108.104 17.2745 107.986 17.1582C107.868 17.1582 107.75 17.1582 107.632 17.1582C107.513 17.1582 107.395 17.2745 107.277 17.3908C106.686 17.7397 106.332 18.3212 105.741 18.5537C105.031 19.0189 104.795 19.1352 104.559 19.4841Z" fill="#225AEA"/>
        <path d="M110.349 15.8796C112.122 15.0655 112.122 14.9492 112.122 14.9492C112.003 14.9492 112.003 14.9492 111.885 14.9492C111.885 14.9492 110.112 15.5307 109.64 15.7633C109.049 15.9959 109.285 16.2285 109.285 16.2285C109.403 16.2285 109.758 16.1122 110.349 15.8796Z" fill="#225AEA"/>
        <path d="M114.015 15.065C114.724 14.8324 114.96 14.8324 115.197 14.8324C115.197 14.8324 115.197 14.8324 115.197 14.9487C114.96 15.065 114.724 15.1813 114.015 15.4139C112.005 15.9954 111.533 16.228 111.414 16.3443C110.942 16.5769 110.942 17.1583 111.06 17.2746C111.06 17.2746 111.06 17.2746 112.36 16.9258C112.833 16.8095 113.424 16.9258 113.896 16.6932C115.197 16.228 116.26 15.4139 117.442 14.9487C118.151 14.5998 118.979 14.4836 119.806 14.1347L119.924 14.0184C119.924 14.0184 119.924 14.0184 119.333 13.9021C119.452 13.7858 119.57 13.7858 119.688 13.6695C120.752 13.2043 120.752 13.2043 120.752 13.088C120.634 13.088 120.515 13.088 120.397 12.9717C120.515 12.7391 120.988 12.7391 120.87 12.2739C121.225 12.0414 121.579 11.9251 121.697 11.5762C121.579 11.5762 121.579 11.5762 121.461 11.5762C120.279 11.9251 115.788 13.5532 115.315 13.9021C115.551 13.9021 115.788 13.7858 116.024 13.7858C115.669 14.0184 114.724 14.251 114.369 14.3673C112.951 14.7161 112.242 15.4139 112.242 15.4139C112.36 15.5302 113.896 15.065 114.015 15.065Z" fill="#225AEA"/>
        <path d="M99.7123 26.463C99.8305 26.463 112.477 25.1838 115.787 21.9275C116.732 20.9972 114.487 20.8809 114.487 20.8809C113.305 20.8809 107.631 22.7416 106.449 23.2068C105.386 23.6719 104.558 22.6253 104.795 22.3927C104.913 22.2764 105.031 22.2764 105.504 22.1601C107.513 21.5786 106.568 20.9972 106.331 20.9972C105.74 20.9972 105.386 21.2297 104.795 21.346C104.204 21.4623 103.613 21.2297 103.022 21.2297C102.904 21.2297 102.194 21.346 101.84 21.4623C101.485 21.5786 100.54 22.6253 100.54 22.8579C100.776 22.8579 100.776 22.8579 101.367 22.6253C101.958 22.3927 102.667 22.1601 102.904 22.2764C103.258 22.509 102.194 23.7882 102.194 23.7882C101.603 24.3697 100.658 24.6023 100.185 25.1838C98.8849 26.463 99.3577 26.463 99.7123 26.463Z" fill="#225AEA"/>
        <path d="M352.293 179.972C352.057 174.971 351.82 168.458 351.229 163.458C350.993 161.946 350.756 160.667 350.638 159.387C349.456 155.433 349.338 154.852 346.974 141.013C346.974 141.013 347.092 141.129 347.092 141.245C341.301 122.405 341.301 122.405 341.183 121.475C341.183 121.475 341.183 121.475 341.301 121.591C339.292 115.66 338.346 113.683 335.627 107.869L329.481 96.0064C327.827 93.7968 325.817 91.8198 322.862 89.9591C325.581 91.7035 327.708 93.5642 329.481 96.0064C327.117 92.1687 324.044 87.0517 321.562 83.3302C310.688 68.7933 310.57 68.4444 303.833 61.3504L296.623 54.2564C296.387 54.0238 296.032 53.7912 295.796 53.5586C296.15 54.0238 296.269 54.1401 299.223 57.1638C298.632 56.8149 298.278 56.466 297.687 56.1171C298.514 57.629 300.051 58.4431 301.233 59.606C301.115 59.606 300.996 59.7223 300.996 59.8386C296.032 55.7683 291.777 51.0002 286.695 47.0461C289.177 48.558 291.186 50.8839 293.905 52.1631C293.314 51.0002 285.631 44.4876 280.549 41.4639C276.885 39.2543 276.53 38.9055 276.175 38.5566C276.412 38.6729 276.648 38.6729 276.885 38.7892C276.53 38.4403 276.294 38.324 275.23 37.7425C275.112 37.8588 274.993 37.8588 274.993 37.9751C274.639 37.8588 274.048 37.6262 271.684 35.9981C271.92 36.1144 272.157 36.2307 272.393 36.2307C272.039 35.3003 267.547 33.3233 267.193 33.207C267.429 33.6722 267.429 33.6722 268.138 34.6025C266.602 34.021 265.774 32.5092 264.238 31.9277C264.474 32.6255 265.301 32.9744 265.538 33.6722C264.947 34.8351 264.947 34.8351 265.065 35.6492C265.183 36.6958 268.729 42.9758 268.847 42.9758C271.566 47.0461 271.448 48.4417 271.329 48.558C270.857 52.2794 270.857 52.2794 268.729 53.7912C268.02 54.3727 268.02 54.6053 268.374 55.5357C268.374 55.652 274.048 68.5607 279.13 66.2348C280.785 65.4208 279.958 62.746 279.603 61.4667C280.076 61.8156 289.295 70.7704 290.95 73.6777C291.777 75.0733 292.486 76.3525 294.023 76.3525C294.259 75.8873 294.496 72.2822 293.55 70.6541C291.541 66.9326 292.013 66.4674 292.959 65.5371C292.959 64.6067 292.841 64.2578 290.241 62.5134C288.349 61.3504 288.349 61.3504 285.867 57.2801C284.922 55.7683 286.458 53.7912 285.04 52.3957C281.376 48.558 281.376 48.558 281.258 48.4417C281.14 48.3254 281.14 48.0928 281.021 47.9765C281.021 47.8602 281.14 47.7439 281.258 47.7439C282.676 48.2091 287.286 51.2327 287.522 52.1631C287.404 52.1631 287.286 52.1631 287.168 52.1631C290.713 59.9549 290.713 59.9549 294.141 63.0949C297.096 65.7697 301.587 65.4208 304.542 68.0956C304.069 67.9793 303.597 67.7467 303.124 67.5141C303.006 67.5141 302.887 67.6304 302.887 67.7467C303.124 68.0956 303.36 68.4444 303.478 68.677C301.705 68.2119 300.169 67.3978 298.278 67.2815C300.287 69.9563 303.006 71.9333 304.542 74.957C302.651 74.8407 302.533 72.1659 300.405 72.2822C300.405 72.3985 300.287 72.5148 300.169 72.6311C300.169 72.6311 302.533 76.8177 302.769 77.1666C303.124 77.5155 304.66 79.4925 304.542 80.4229C303.36 80.3066 303.36 80.3066 303.124 80.4229C303.006 80.7717 302.887 81.1206 302.769 81.5858C302.769 81.7021 302.887 81.8184 303.006 81.8184C297.569 81.4695 297.569 81.4695 297.569 81.9347C297.332 82.051 297.096 82.2836 296.859 82.3999C295.678 81.7021 294.259 81.3532 292.841 81.0043L295.441 81.4695C294.968 81.1206 293.786 80.3066 291.659 80.4229C290.95 80.4229 290.713 80.4229 288.704 78.2132C287.168 76.5851 285.513 74.1429 285.513 72.0496C285.513 71.2355 284.213 67.5141 283.267 67.3978C283.149 67.3978 280.312 67.3978 280.785 68.677C281.021 69.2585 284.567 75.5385 287.168 78.4458C288.231 79.6088 288.231 79.8414 288.231 79.8414C288.113 79.9577 288.113 79.9577 287.286 80.1903C286.695 80.3066 285.986 80.4229 285.513 80.5392C285.395 80.7717 285.158 81.0043 284.922 81.2369C282.085 81.1206 282.085 81.1206 281.258 81.9347C281.376 82.7488 281.731 84.1443 282.676 86.8191C282.558 87.0517 282.322 87.4006 282.203 87.6332C279.839 87.6332 279.839 87.6332 278.421 88.0983C278.421 88.2146 278.421 88.2146 279.485 90.7731C278.894 91.122 278.066 91.5872 277.476 91.7035C277.476 92.285 277.357 93.099 277.003 93.5642C274.284 93.4479 273.811 93.099 272.63 92.285C272.984 92.8665 273.339 93.4479 273.693 93.9131C273.575 94.1457 273.457 94.4946 273.457 94.8435C272.866 95.0761 272.157 95.3086 271.566 95.5412C270.266 94.7272 270.266 94.7272 268.02 94.6109C267.902 94.8435 267.784 95.1924 267.665 95.4249C268.256 95.8901 268.965 96.4716 269.438 97.0531C269.202 97.1694 268.965 97.402 268.729 97.6346C281.731 101.24 279.721 114.032 279.603 114.148C273.575 113.683 267.665 111.939 261.637 111.357C261.992 111.823 262.347 112.52 262.819 112.986C262.819 113.102 263.528 129.034 265.538 129.616C264.947 134.5 264.947 134.5 264.829 134.965C269.084 134.616 269.911 134.616 271.684 134.965C272.393 137.756 272.393 137.756 272.393 137.873L282.203 134.616C284.922 134.268 285.631 130.895 284.094 128.569C285.631 122.173 285.749 122.173 289.768 120.545C289.768 115.428 289.768 115.428 290.241 115.079C292.132 113.567 293.55 116.009 295.323 116.009C296.978 113.218 298.278 111.357 300.76 113.567C300.878 113.683 314.589 129.267 316.007 133.57C317.071 136.826 316.598 136.942 310.807 137.756C311.988 139.617 315.416 142.641 315.534 142.641C316.007 141.129 315.062 139.617 315.298 138.105C315.534 138.105 315.889 138.222 316.125 138.222C316.834 137.175 317.189 135.896 317.78 134.849C316.953 131.825 316.953 131.825 316.953 130.779C317.189 130.662 317.544 130.662 317.78 130.546C318.135 131.011 318.607 131.709 318.962 132.174C318.726 130.779 318.726 130.779 313.998 125.313C314.116 125.08 314.116 124.731 314.234 124.382C311.988 123.452 310.334 122.638 304.424 110.892C304.66 110.427 305.251 109.962 305.724 109.846L318.962 125.197C318.962 125.313 318.962 125.313 322.981 136.361L327.117 145.781C327.236 145.199 327.236 144.502 327.236 143.92C327.236 141.71 326.408 139.617 325.935 137.408C324.517 130.43 324.517 130.43 325.226 129.848C326.526 130.081 329.127 131.709 329.718 133.686C329.954 133.221 330.309 132.523 330.427 132.058C330.663 132.058 331.136 132.058 331.372 132.058C332.2 125.662 327.59 120.196 328.418 113.8C328.89 113.683 329.6 113.683 330.072 113.916C329.954 114.148 329.836 114.497 329.718 114.73C330.545 115.66 330.9 115.893 331.845 116.474C332.082 117.637 332.082 117.637 331.845 119.382C332.673 120.312 333.145 121.591 333.855 122.522C336.928 120.777 332.318 117.637 333.264 114.963C334.682 114.614 334.918 115.079 335.273 116.126C335.155 116.358 334.918 116.707 334.8 116.94C335.273 117.754 335.273 117.754 335.982 120.428C335.864 120.661 335.627 120.894 335.509 121.126C337.755 126.592 342.837 130.895 342.719 137.408C342.483 137.524 342.128 137.756 341.892 137.873C339.173 136.128 339.292 130.197 334.918 131.36C334.918 131.825 334.564 132.523 334.209 132.988C333.736 132.872 333.027 132.639 332.436 132.523C332.554 132.988 332.909 133.686 333.264 133.919C332.2 134.733 330.9 134.268 329.836 134.733C329.718 135.314 329.718 136.128 329.718 136.71C329.954 136.826 330.309 136.826 330.545 136.942C331.018 140.199 331.845 146.246 335.864 149.735C336.1 149.502 336.337 149.27 336.455 149.153C336.455 148.921 336.455 148.572 336.455 148.223C337.755 149.27 338.228 151.13 339.764 152.061C340.001 151.596 340.119 150.781 340.119 150.316C340.473 150.665 341.064 151.13 341.655 151.247C342.365 163.574 342.483 165.551 341.064 168.924C339.292 168.807 338.937 168.342 338.346 166.598C337.873 166.598 337.164 166.83 336.809 167.179C330.781 166.714 331.372 158.108 325.108 157.992C323.926 160.085 324.872 162.411 324.044 164.504C323.808 164.621 323.453 164.737 323.217 164.853C321.917 163.923 308.088 151.596 307.142 149.967C306.788 149.502 307.261 148.572 307.615 148.107C308.324 146.944 308.324 146.944 307.733 139.617C306.197 138.687 305.961 138.454 305.015 137.989C303.833 138.919 303.833 138.919 298.751 137.756C298.278 138.105 297.805 138.803 297.569 139.268C291.068 136.71 285.749 143.804 279.248 141.594C278.539 141.478 278.421 141.478 278.303 141.478C276.412 141.827 275.821 141.943 273.811 139.617C273.457 139.385 273.457 139.385 273.457 139.385C273.22 139.617 272.866 139.85 272.63 140.082C271.448 141.594 272.275 143.687 271.093 145.083C269.556 146.944 266.838 146.944 265.42 148.921C265.065 149.502 265.183 150.549 265.183 151.247C264.829 159.038 264.829 159.038 262.583 160.085C260.692 161.015 257.382 163.458 257.028 164.155C255.846 166.016 247.099 180.902 247.099 180.902C246.745 184.856 249.463 188.229 249.463 192.183C249.463 195.439 244.735 196.951 246.272 200.788C248.518 206.487 251.591 211.72 254.309 217.186C255.373 219.512 263.765 227.42 265.42 227.187C273.339 226.49 280.903 223.582 289.059 224.396C289.295 224.396 289.65 224.629 289.886 224.862C291.304 226.025 290.359 228.234 291.777 229.397C293.195 230.56 294.968 229.979 296.505 230.444C297.569 233.584 297.569 233.584 296.269 236.491C309.861 238.933 318.489 241.259 324.635 244.167C318.489 241.259 309.743 238.933 296.269 236.491C292.723 244.748 292.723 244.748 293.195 247.19C294.023 250.912 295.205 256.029 290.359 267.309C288.113 272.426 283.858 276.264 280.903 280.916C278.185 285.335 277.83 290.568 275.348 294.988C265.42 312.316 265.183 312.548 263.647 314.176C262.583 315.223 261.992 315.921 260.81 318.363C265.892 319.875 271.802 315.921 273.811 314.642L281.612 309.176L291.541 301.384C293.786 299.058 295.087 296.034 297.45 293.941C300.169 291.499 303.833 290.219 306.551 287.661C313.052 281.614 318.962 269.519 319.671 268.007C322.153 261.96 330.781 252.772 333.264 250.098C337.282 245.795 342.601 234.281 343.901 229.862C342.837 229.513 342.837 229.513 341.064 229.862C340.71 229.281 340.71 229.281 341.537 222.187C341.892 219.512 341.183 216.953 341.183 214.279C341.064 207.417 342.365 200.672 341.774 193.811L339.882 172.18C340.355 172.878 340.355 172.878 340.828 176.018C341.301 175.669 341.655 174.855 341.774 174.273C346.265 190.554 341.537 206.836 342.01 223.233C343.783 222.419 343.783 222.419 344.61 222.536C349.456 212.302 349.456 212.302 349.693 211.022C349.693 211.255 349.574 211.72 349.574 211.953C349.693 211.371 349.811 210.674 349.929 210.208L350.047 209.627L350.52 205.905C350.756 204.161 350.993 202.068 351.466 196.137C351.466 196.486 351.466 196.718 351.466 197.067C352.057 191.136 352.411 184.74 352.293 179.972ZM351.229 198.811C350.875 198.114 350.875 198.114 351.111 191.95C350.993 193.927 350.993 193.927 350.875 194.741C350.402 181.483 350.638 180.204 350.875 178.576C351.702 179.739 351.938 189.508 351.82 195.206C351.584 197.532 351.466 197.881 351.229 198.811Z" fill="#225AEA"/>
        <path d="M347.328 140.781C347.328 141.014 347.446 141.246 347.564 141.479L348.51 145.433C348.51 145.317 348.51 145.317 348.51 145.2C348.864 147.526 349.337 149.852 349.81 152.178C348.392 143.456 347.919 141.712 345.909 134.501C345.555 133.338 345.2 132.292 344.846 131.361C346.973 138.455 346.973 138.804 347.919 142.526C347.564 141.944 347.446 141.363 347.328 140.781Z" fill="#225AEA"/>
        <path d="M344.138 129.617C344.256 129.85 344.256 130.082 344.374 130.315C344.138 129.501 343.783 128.687 343.547 127.757C343.665 127.989 343.783 128.338 343.783 128.571L341.655 122.291V122.407C341.419 121.709 341.301 121.593 341.301 121.477C342.128 123.919 343.192 127.059 344.61 131.478C344.492 130.896 344.256 130.315 344.138 129.617Z" fill="#225AEA"/>
        <path d="M350.874 159.969C350.638 157.411 350.165 154.852 349.574 152.41C349.929 154.387 350.283 156.713 350.638 159.504C350.756 159.504 350.756 159.737 350.874 159.969Z" fill="#225AEA"/>
        <path d="M248.164 76.7004C248.164 76.7004 248.164 76.8167 248.046 76.8167C247.336 78.0959 246.864 80.6544 246.864 80.6544C246.745 81.7011 246.746 82.1663 247.1 82.5151C247.691 83.2129 250.41 82.864 252.301 81.7011C252.773 81.3522 253.246 81.0033 253.719 80.7707C254.31 80.4218 255.137 80.6544 255.61 80.0729C255.847 79.7241 255.728 78.7937 255.256 77.5144C255.019 76.8167 254.665 76.4678 254.428 76.0026C253.955 75.3048 253.837 74.9559 254.192 74.2582C254.31 73.9093 254.546 73.3278 254.428 72.7463C254.192 72.0486 253.719 71.5834 253.246 71.3508C253.01 71.2345 252.773 71.0019 252.537 71.0019C251.946 70.7693 251.237 70.5367 250.646 70.3041C250.173 70.0715 250.055 69.9552 249.937 69.8389L249.819 69.7227C249.7 69.7227 245.564 70.7693 248.164 72.1649C248.282 72.2812 248.4 72.2812 248.755 72.2812C248.637 72.3974 248.518 72.3975 248.4 72.5137C246.745 73.3278 246.273 73.6767 245.918 74.1419C245.682 74.3745 245.327 74.8396 245.445 75.6537C245.564 75.8863 245.682 76.2352 246.391 76.5841C247.1 76.5841 247.691 76.4678 248.164 76.7004Z" fill="#225AEA"/>
        <path d="M79.7373 29.8359C79.3827 30.0685 76.0733 31.813 75.9551 32.0455C76.1915 32.0455 76.3097 32.0455 79.7373 29.8359Z" fill="#225AEA"/>
        <path d="M333.737 151.712C333.737 151.596 332.318 149.619 332.318 149.619C332.082 149.27 331.727 149.27 331.609 149.154C331.136 149.037 330.545 149.037 330.073 148.921C329.245 148.572 329.245 148.572 329.127 148.572C328.772 148.572 328.654 148.921 328.891 149.386C329.363 150.317 332.791 152.061 333.737 151.712Z" fill="#225AEA"/>
        <path d="M300.998 127.989C301.353 128.338 301.944 128.105 302.062 128.803C302.18 129.384 301.944 129.849 302.062 130.431C302.18 130.896 302.535 131.012 302.653 131.012C303.008 131.129 304.899 130.547 304.899 129.035C304.899 128.919 304.899 128.686 304.899 128.454C304.781 127.872 304.544 127.291 304.426 126.593C304.308 125.895 304.426 125.314 304.308 124.616C304.19 123.569 303.717 123.453 303.362 123.453C302.771 123.453 301.235 124.035 300.762 124.965C300.644 125.43 300.526 127.523 300.998 127.989Z" fill="#225AEA"/>
        <path d="M291.658 127.639C291.658 127.639 292.367 126.825 292.367 126.709C292.486 126.36 291.895 126.127 290.949 126.011C289.885 125.895 288.349 126.127 288.94 126.825C289.294 127.174 290.594 127.755 291.185 127.755C291.422 127.872 291.54 127.755 291.658 127.639Z" fill="#225AEA"/>
        <path d="M300.997 119.266C300.879 119.382 300.643 119.499 300.761 119.848C300.761 119.964 300.879 120.197 300.997 120.313C300.997 120.313 302.416 122.057 302.534 122.057C302.888 121.941 302.534 119.382 302.297 117.987C302.297 117.987 301.825 116.01 301.588 115.777C301.588 115.777 301.47 115.894 301.47 116.01V116.126C301.352 116.708 301.588 117.405 301.588 117.987C301.588 118.801 301.234 119.15 300.997 119.266Z" fill="#225AEA"/>
        <path d="M339.765 156.365C339.765 156.365 340.592 156.481 340.71 156.481C340.828 156.365 341.065 154.388 341.065 154.388V154.271C341.065 154.039 341.065 154.039 340.947 154.039C340.71 154.039 340.474 154.155 340.237 154.155C340.119 154.155 339.883 154.039 339.765 154.039C339.528 153.922 339.41 153.69 339.174 153.574C338.937 153.457 338.937 153.574 338.819 153.69C338.583 154.039 338.819 155.434 339.41 156.132C339.41 156.248 339.646 156.248 339.765 156.365Z" fill="#225AEA"/>
        <path d="M61.5339 43.0922C61.6521 43.2085 61.6521 43.2085 61.5339 43.0922C61.6521 43.0922 61.7703 43.0922 61.7703 43.0922C62.834 42.3945 63.6614 41.5804 64.7251 40.7663C66.6163 39.4871 68.6256 38.4404 70.3985 37.1612C70.8713 36.8123 70.8713 36.8123 71.3441 35.8819V35.7656C70.7531 35.8819 70.2803 36.3471 69.6893 36.5797C70.1621 36.2308 70.1621 36.2308 70.2803 35.8819C70.2803 35.8819 70.2803 35.8819 70.1621 35.8819C70.0439 35.8819 70.0439 35.8819 69.9257 35.9982C67.68 36.9286 67.68 36.9286 57.5152 45.0692C56.6879 45.767 55.9787 46.3485 55.2695 47.8603H55.3877C57.8698 46.6974 59.5246 44.7204 61.5339 43.0922Z" fill="#225AEA"/>
        <path d="M75.7171 33.7894C75.9534 33.7894 76.7808 33.3243 77.6082 32.9754C80.6813 31.2309 82.336 30.5332 82.336 30.5332C83.2815 30.1843 84.3453 29.8354 85.2909 29.3702C86 29.0213 88.9549 27.0443 88.9549 26.928C89.5459 26.5791 89.5459 26.4628 89.6641 26.3465C89.3095 26.3465 88.8367 26.5791 88.8367 26.5791C88.0093 27.0443 87.182 27.7421 86.3546 28.2073C87.4184 27.1606 88.7185 26.3465 89.7823 25.1836H89.6641C89.6641 25.1836 86 27.0443 85.8818 27.5095C85.7636 27.8584 85.2909 28.7887 82.5724 29.3702C82.5724 29.3702 82.5724 29.3702 82.5724 29.2539C82.6906 29.1376 82.6906 29.1376 82.8088 29.0213C82.8088 29.0213 82.8088 29.0213 82.927 28.905C83.2815 28.5562 84.5817 28.2073 84.1089 27.7421C83.9907 27.7421 76.6626 31.2309 76.6626 32.2776C76.6626 32.2776 76.6626 32.2776 80.2085 30.4169C79.8539 30.9984 79.1447 31.2309 78.6719 31.5798C78.7901 31.5798 78.7901 31.5798 79.6175 31.1146C79.8539 30.9984 80.3267 30.7658 81.154 30.4169C80.3267 30.9984 77.7264 32.2776 76.1898 32.9754C75.4807 33.4406 75.3625 33.6731 75.7171 33.7894Z" fill="#225AEA"/>
        <path d="M55.1509 51.6982C55.7419 51.8145 56.0965 51.3494 56.5693 51.3494C56.5693 51.3494 56.5692 51.4656 56.6874 51.4656C56.4511 52.0471 55.8601 52.396 55.5055 52.9775C56.0965 52.9775 61.0607 50.7679 63.8973 48.5583C64.8429 47.8605 65.1975 47.5116 65.6703 47.3953C65.6703 47.3953 65.7885 47.3953 65.7885 47.5116C65.5521 47.9768 65.5521 47.9768 65.5521 48.0931C65.7885 48.3257 67.6796 48.6746 67.6796 48.6746C69.4525 48.0931 69.4525 48.0931 71.2254 46.2324C71.2254 46.1161 71.3436 46.1161 71.3436 46.1161C71.1072 46.1161 71.1072 46.1161 69.5707 46.9301C69.8071 46.3487 71.4618 45.0694 72.6438 45.1857C73.1166 45.1857 73.1166 45.1857 73.3529 45.0694C73.3529 45.0694 74.2985 44.2553 74.0621 43.5576C73.1166 43.0924 72.762 42.0457 73.2348 41.4643C73.7075 40.8828 77.4898 36.3473 77.3716 35.9984C77.1352 35.8821 77.017 35.8821 76.7806 35.7658C76.7806 35.7658 76.7806 35.6495 76.6624 35.5332C74.8895 37.045 73.7075 39.0221 71.58 40.185C71.3436 39.3709 72.2892 39.1384 72.5256 38.4406L72.4074 38.3243C71.58 38.6732 70.8709 39.2546 70.0435 39.3709C70.2799 39.0221 70.7527 38.7895 70.8709 38.3243L70.7527 38.208C69.5707 38.5569 68.7433 39.4872 67.6796 39.8361C68.3888 38.9058 69.4525 38.4406 70.2799 37.6265C69.5707 37.7428 60.5879 43.4413 60.7061 44.4879C60.8243 44.4879 60.9425 44.6042 61.0607 44.7205C60.9425 44.9531 60.8243 45.0694 59.7605 45.6509C57.9876 46.6975 57.8694 46.9301 57.8694 47.1627C57.9876 47.1627 58.1058 47.279 58.224 47.1627C59.1695 46.9301 59.9969 46.3487 61.0607 46.1161C61.7698 45.9998 62.479 46.2324 63.1882 46.1161C61.888 47.0464 60.2333 47.6279 59.5241 47.7442C54.7963 49.4886 54.3235 51.4656 55.1509 51.6982Z" fill="#225AEA"/>
        <path d="M96.6382 60.1887C96.7564 59.8398 96.4018 59.8398 96.0472 59.8398C96.0472 59.8398 94.6288 60.0724 94.2743 60.5376C93.8015 61.1191 93.9197 61.9332 94.1561 62.1657C94.6288 62.5146 96.4018 60.6539 96.6382 60.1887Z" fill="#225AEA"/>
        <path d="M94.2742 56.9325C94.2742 56.9325 94.5105 56.8162 94.6287 56.6999C94.7469 56.351 94.5105 55.8858 94.3924 55.7696C94.0378 55.537 93.6832 55.3044 93.4468 55.0718C92.974 54.6066 92.7376 53.9088 92.1466 53.4436C92.0284 53.3274 91.9103 53.3274 91.7921 53.2111C91.2011 52.8622 90.4919 52.9785 89.9009 52.6296C89.5464 52.397 89.5464 51.9318 89.1918 51.6992H89.0736C88.6008 51.9318 86.8279 54.374 86.7097 54.4903C86.4733 54.8392 86.2369 55.1881 86.0005 55.537L84.1094 58.5606C85.2913 58.6769 85.2913 58.6769 85.2913 59.2584C85.4095 59.9562 85.4095 59.9562 85.5277 59.9562C85.6459 59.9562 86.0005 59.7236 86.5915 59.1421C87.537 58.4443 88.9554 57.1651 90.7283 56.9325C91.9103 56.6999 93.0922 57.2814 94.2742 56.9325Z" fill="#225AEA"/>
        <path d="M91.2003 59.0244C91.2003 59.0244 88.6 59.6059 87.7726 60.1873C87.2999 60.5362 87.1817 61.5829 87.5362 61.8155C88.009 62.1644 91.2003 60.3036 91.7913 59.4896C91.9095 59.1407 92.0277 58.9081 91.2003 59.0244Z" fill="#225AEA"/>
        <path d="M84.5826 199.393C83.637 199.742 84.228 201.254 84.819 201.487C85.1735 201.603 87.7738 202.068 87.6556 201.021C87.6556 200.44 85.8827 199.161 84.5826 199.393Z" fill="#225AEA"/>
        <path d="M259.866 76.0039C259.748 76.0039 259.748 76.1202 259.748 76.3528L260.93 76.4691C260.339 76.1202 259.984 76.0039 259.866 76.0039Z" fill="#225AEA"/>
        <path d="M142.143 88.6789C143.325 87.167 143.798 86.2367 143.68 85.7715C143.562 85.7715 143.562 85.7715 143.443 85.7715C142.852 86.0041 141.08 87.3996 139.779 89.0277C138.243 90.8885 137.179 93.2144 135.524 95.0751C134.697 96.1218 133.515 96.8195 132.806 97.8662C132.451 98.3314 132.806 98.4477 132.924 98.4477C133.16 98.564 133.16 98.564 137.77 98.9128C140.489 99.1454 142.38 99.378 144.507 99.9595C144.744 100.076 145.098 100.076 145.335 100.192C146.044 100.192 146.871 99.4943 147.58 100.308C147.935 100.657 147.935 101.355 148.053 101.82C148.053 102.285 148.289 102.402 148.408 102.402C149.117 102.285 150.062 100.89 150.181 99.7269C150.299 97.7499 148.88 94.7262 147.344 93.2144C146.517 92.4003 146.517 92.4003 143.798 92.9818C142.971 93.2144 142.734 92.9818 142.616 92.284C142.261 91.0048 141.907 90.7722 141.434 90.5396C141.198 90.4233 141.198 90.307 141.316 90.0744C141.552 89.3766 141.907 88.9115 142.143 88.6789Z" fill="#225AEA"/>
        <path d="M251.591 64.6079C251.709 65.5383 251 66.4687 251.355 67.399C251.591 67.5153 252.3 67.399 253.601 66.4687C254.073 66.1198 254.546 65.7709 254.782 66.0035C256.083 66.7013 254.546 68.0968 255.019 69.1435C255.964 71.2368 257.028 71.4694 258.447 71.8183C260.574 72.3997 260.929 72.3997 261.283 72.7486C261.401 73.0975 261.165 73.4464 261.283 73.7953C261.874 74.8419 262.938 75.5397 263.411 76.5864C263.647 77.633 262.347 77.0515 261.283 76.5864C260.81 76.3538 260.81 76.3538 259.628 76.2375C260.101 77.633 261.756 78.3308 261.992 79.8426C262.111 80.6567 261.401 81.1219 260.338 81.5871C260.101 81.7033 259.628 81.9359 259.747 82.2848C259.865 82.4011 260.338 82.9826 262.938 82.9826C264.002 82.9826 266.366 82.8663 266.484 83.6804C266.484 84.3781 266.011 84.3781 265.184 84.3781C264.356 84.3781 264.12 84.6107 263.883 84.8433C263.293 85.3085 263.174 86.1226 262.702 86.704C262.111 87.4018 261.283 87.7507 260.574 88.4485C260.574 88.5648 260.574 88.5648 260.574 88.6811C260.929 88.7974 260.929 88.7974 265.893 88.0996C268.375 87.7507 270.975 87.9833 273.575 87.6344H273.694L278.067 86.2389V86.1226C277.121 85.1922 276.058 86.0063 274.994 85.6574C274.521 84.3781 275.703 83.2152 275.23 81.9359C274.285 79.61 273.457 79.7263 272.63 79.7263C270.975 79.8426 269.793 77.5167 269.793 77.5167V77.4004C269.911 77.4004 269.911 77.4004 271.212 77.633C271.803 77.8656 272.63 78.0982 272.63 77.8656C272.512 77.7493 272.394 77.5167 271.921 77.1678C269.911 75.656 267.311 74.8419 265.42 72.9812C264.474 72.0508 263.883 71.0042 262.82 70.3064C260.929 69.1435 259.156 68.9109 258.328 68.7946C259.392 67.8642 260.929 62.9798 257.856 62.8635C257.265 62.8635 256.674 62.8635 256.319 62.9798C254.428 63.2124 254.073 63.2124 254.073 62.7472C254.073 61.8169 255.728 59.9561 254.31 59.8398C254.31 59.8398 250.646 59.9561 250.055 61.2354C250.055 61.3517 250.055 61.5843 250.055 61.7006C250.646 62.5146 251.355 63.445 251.591 64.6079Z" fill="#225AEA"/>
        <path d="M8.58332 111.939C9.0561 110.892 9.29249 109.729 9.76527 108.566C10.0017 107.869 10.3562 107.287 10.5926 106.589C10.5926 106.473 10.5926 106.357 10.7108 106.357C10.7108 106.357 10.9472 105.775 10.5926 105.775C10.5926 105.775 10.4744 105.775 10.4744 105.892C9.52888 106.706 8.34693 111.823 8.58332 112.055V111.939Z" fill="#225AEA"/>
        <path d="M227.597 40.5346C227.597 40.4183 227.597 40.4183 227.597 40.3021C227.361 39.9532 226.77 39.2554 226.061 39.0228C225.943 39.0228 225.824 38.9065 225.706 38.9065C224.643 38.6739 223.461 38.9065 222.515 38.4413C221.806 38.0924 221.215 37.3947 220.387 37.511C219.324 37.7436 218.378 38.2087 217.433 38.4413C216.487 38.6739 215.423 38.5576 214.478 38.9065C213.887 39.1391 214.36 39.8369 213.769 40.1858C213.296 40.5346 212.705 39.9532 212.232 40.1858C212.114 40.1858 211.996 40.3021 211.996 40.3021C211.759 41.1161 212.587 42.1628 211.641 42.9768C211.286 42.8605 209.159 40.9998 208.686 40.3021C207.859 38.7902 204.313 37.7436 203.249 38.5576C203.486 39.3717 204.549 39.1391 204.904 39.7206C204.668 40.8835 203.249 40.6509 202.658 41.465C203.013 41.6976 204.077 41.5813 204.786 41.465C205.849 41.2324 209.395 42.5117 207.386 44.0235C208.213 45.0702 209.277 44.1398 210.223 44.4887C211.168 44.7213 211.168 45.0702 211.168 46.0005C211.405 46.2331 211.641 46.2331 213.532 46.1168C214.832 46.0005 215.305 46.0005 215.66 46.0005C216.605 46.1168 217.433 46.4657 218.378 46.582C218.496 46.582 218.615 46.582 218.733 46.582C219.087 46.582 219.56 46.582 222.16 46.0005C224.524 45.419 228.07 42.8605 227.952 42.1628C227.834 41.6976 227.361 41.3487 227.243 40.8835C227.243 40.5346 227.243 40.5346 227.597 40.5346Z" fill="#225AEA"/>
        <path d="M87.774 195.323C88.8378 196.602 95.2203 197.068 95.3385 196.37C95.3385 196.021 87.183 186.601 87.0648 186.601C86.2375 186.02 83.6372 184.275 78.9094 185.206C76.3091 186.02 74.418 187.88 74.418 187.88C74.7726 188.229 76.7819 187.88 78.4366 186.95C80.8005 185.554 82.4552 186.368 82.5734 186.717C82.4552 186.95 82.1007 187.299 81.3915 186.834C81.3915 186.834 81.2733 186.834 81.2733 186.95C81.3915 188.113 83.2826 188.578 84.5827 188.811C86.9466 189.392 87.0648 189.857 87.5376 191.369C87.774 192.067 87.8922 192.532 88.365 193.114C88.7196 193.579 88.956 193.811 88.956 194.044C89.0742 194.858 88.1286 194.858 87.774 195.323Z" fill="#225AEA"/>
        <path d="M98.057 202.998C98.7662 203.347 98.1752 204.626 99.1208 204.626C100.775 204.742 100.539 202.649 101.957 202.417C102.076 202.417 102.312 202.417 102.785 202.533C105.267 202.998 109.64 203.114 109.64 203.114C109.877 203.114 109.995 202.998 109.995 202.882C109.995 202.184 109.404 201.602 109.64 200.788C110.231 198.463 98.2934 197.416 97.466 197.532C97.2296 197.532 97.2296 197.648 97.1114 197.648C97.1114 197.881 97.1114 197.881 97.2296 197.997C99.0026 199.625 98.4116 201.486 98.2934 201.602C98.057 201.835 97.1114 201.602 95.8113 201.486C93.4474 201.137 93.211 201.137 92.9746 201.254C92.9746 201.254 92.9746 201.37 93.0928 201.37C94.7475 202.184 96.5205 202.184 98.057 202.998Z" fill="#225AEA"/>
        <path d="M122.169 93.6807C121.105 94.0296 123.469 95.1925 123.942 95.4251C127.015 96.8207 128.079 95.3088 128.079 95.3088C128.433 94.3785 123.233 93.4481 122.169 93.6807Z" fill="#225AEA"/>
        <path d="M315.417 283.009C311.99 287.312 311.99 287.312 309.744 288.126C307.971 288.707 307.38 289.521 304.662 293.475C303.362 295.452 302.771 295.801 301.47 296.848C297.334 299.988 291.778 306.966 291.66 307.547C293.197 307.547 293.197 307.547 298.752 302.198C303.362 297.895 307.38 293.01 311.872 288.475C311.872 288.591 311.872 288.591 311.517 289.289C311.635 289.172 311.635 289.172 312.108 288.591C313.172 287.312 316.363 283.125 316.836 281.613H316.718C316.245 281.962 316.245 281.962 315.417 283.009Z" fill="#225AEA"/>
        <path d="M200.886 251.494C200.65 250.215 202.305 248.587 200.768 247.773C199.586 247.191 198.522 248.005 197.34 247.773C193.676 246.959 191.312 243.819 187.767 242.772C182.566 241.144 177.129 240.33 171.928 238.934C168.855 237.771 168.619 234.282 166.728 232.305C163.537 230.212 161.055 226.84 157.745 224.979C153.372 222.537 147.935 223.351 143.562 220.792C140.134 218.699 137.77 215.21 134.106 213.466C133.515 213.233 132.806 213 132.215 212.884C114.249 210.209 100.184 208.116 98.5294 222.071C93.2106 218.35 79.5 224.281 80.8001 215.559C81.5093 210.326 79.2635 206.488 79.2635 206.372C75.1267 204.278 70.8717 206.488 66.7349 206.139C68.1532 201.603 68.1532 201.603 67.0895 199.51C68.8624 195.324 68.8624 195.324 69.5716 191.602C68.7442 190.904 61.7707 185.322 60.3523 200.906C57.9884 200.789 56.4519 204.046 53.6152 202.534C47.1145 198.929 44.987 194.277 44.2778 191.835C43.3323 188.811 45.9325 186.485 45.9325 183.578C45.9325 181.717 43.4504 180.903 44.0414 178.81C44.8688 176.135 49.9512 171.018 51.1331 170.204C53.2606 168.576 61.4161 170.436 61.5343 170.436C61.7707 170.204 62.0071 169.971 62.2435 169.855C61.6525 169.157 60.7069 168.925 59.9978 168.343C59.9978 168.11 60.116 167.762 60.2341 167.413C61.8889 166.482 74.8903 165.319 74.8903 165.436C80.4455 168.343 77.0179 176.019 82.4548 179.158C88.7192 172.646 78.6726 166.831 79.7363 160.202C80.9183 153.341 87.8918 151.829 91.674 147.41C91.5558 147.41 91.5558 147.41 91.5558 147.41C91.4377 147.177 91.2013 146.945 90.9649 146.828C90.9649 146.596 91.0831 146.247 91.0831 146.014C91.3195 145.898 91.674 145.898 91.9104 145.782C91.9104 145.433 92.0286 145.084 92.0286 144.851C91.7922 144.735 91.4376 144.619 91.2013 144.503L92.5014 131.943C92.6196 133.803 92.6196 139.386 92.6196 139.386C93.2106 139.037 93.2106 139.037 93.8016 130.78C94.2743 131.71 95.1017 132.291 95.3381 133.338C96.52 131.361 96.0473 128.919 97.8202 127.175C97.8202 127.175 105.385 123.104 105.857 123.22C106.567 116.708 106.567 116.708 110.231 113.335C110.822 113.335 110.822 113.335 121.577 107.288C121.459 107.521 121.341 107.753 121.223 107.986C121.814 108.218 122.523 108.335 123.114 108.335C123.114 108.567 123.114 108.916 123.114 109.265C116.613 113.917 116.613 113.917 116.613 115.08C120.75 115.196 133.751 107.753 131.388 102.055C129.615 103.218 129.496 105.427 128.433 106.939C127.014 106.59 125.951 106.241 125.005 106.009C125.951 105.776 126.66 104.846 126.66 104.846C126.542 104.846 126.542 104.846 126.305 104.846C124.65 105.078 123.705 104.73 123.35 104.613C122.523 104.264 122.405 103.683 122.405 103.101C122.405 102.869 122.405 102.869 122.405 102.753C122.287 102.869 121.814 104.148 122.287 105.078C120.632 104.381 120.395 103.567 119.804 101.59C118.268 101.008 118.15 100.892 117.559 100.194C119.804 99.6125 121.459 99.1474 121.932 96.9377C120.75 95.7748 120.75 95.7748 104.675 105.776C115.786 94.3792 115.786 94.3792 127.133 91.0067C129.733 92.7511 141.434 87.0526 143.207 83.9127C142.616 82.5171 142.616 82.5171 143.443 80.5401C143.325 80.3075 143.089 79.9586 142.971 79.726C142.025 79.4935 141.08 79.3772 140.134 79.1446C139.307 79.1446 139.307 79.1446 139.307 79.1446C138.716 79.1446 137.061 79.3772 133.988 81.3542C133.87 81.1216 133.751 80.7727 133.633 80.5401C134.579 79.2609 135.052 79.0283 138.479 77.749C131.742 78.3305 125.241 78.912 118.032 79.6098C124.65 78.912 130.324 78.4468 138.479 77.749C138.716 77.6327 138.952 77.5164 139.07 77.4001C139.188 77.0513 136.588 74.7253 133.161 75.5394C132.451 75.772 132.451 75.772 131.979 75.6557C131.742 74.9579 132.333 74.2602 131.86 73.6787C131.269 72.8646 129.969 73.0972 129.378 72.1669C129.142 71.818 129.26 71.4691 129.851 70.7713C130.56 69.7247 130.56 69.7247 128.905 66.9336C124.769 59.7233 124.769 59.7233 122.759 63.4447C122.405 64.0262 123.232 64.6077 122.759 65.1891C122.168 65.8869 121.105 65.1891 120.514 66.0032C119.213 67.7476 119.213 67.7476 118.859 67.8639C116.613 68.5617 115.077 66.701 113.186 66.3521C112.831 65.7706 113.658 61.8166 114.84 60.8862C113.658 60.5373 112.476 61.0025 111.413 60.6536C111.176 60.5373 110.94 60.421 110.585 59.8396C110.467 59.607 110.231 59.1418 107.394 58.2114C106.803 57.9788 106.567 57.9788 106.212 58.0951C103.612 58.7929 100.893 58.2114 98.4112 59.2581C98.8839 61.584 95.9291 63.6773 97.9384 66.1195C97.5838 67.2825 96.0473 67.6313 95.9291 69.0269C95.8109 70.5387 97.4656 71.4691 97.4656 72.9809C97.4656 73.0972 97.5838 79.0283 94.0379 79.8423C93.2106 80.0749 91.5558 80.5401 91.9104 81.8194C91.7922 82.052 91.674 82.1682 90.9649 82.6334C90.0193 86.1223 92.3832 90.5415 88.3646 93.2163C87.0644 91.3556 84.8187 90.7741 83.0458 89.4948C83.9914 86.7038 83.6368 85.7734 83.0458 84.4941C83.2822 84.2616 83.755 83.9127 83.9914 83.6801C83.9914 83.5638 83.9914 83.2149 83.9914 83.0986C83.6368 83.0986 83.2822 82.9823 82.9276 82.9823C81.2729 81.3542 79.2635 82.866 77.4906 82.4008C75.7177 81.9357 74.7721 80.0749 72.9992 79.4935C72.6446 79.3772 72.29 79.2609 71.9355 79.2609C70.2807 79.0283 69.217 80.1912 67.7986 80.5401C67.3259 80.1912 67.3259 80.1912 66.7349 76.5861C66.4985 75.3068 66.4985 75.3068 63.5436 75.0742C62.8344 71.2365 72.29 64.3751 76.4269 61.3514C75.9541 60.1884 74.6539 60.6536 73.8266 60.0721C81.7457 58.6766 81.7457 58.6766 86.1189 54.0248C83.0458 54.49 82.4548 54.6063 79.9727 53.327C82.9276 52.2804 86.7098 54.1411 88.8374 50.7685C88.601 50.6522 88.2464 50.5359 88.01 50.4196C88.01 50.4196 89.4283 48.6752 90.9649 49.6056C96.0473 47.7449 96.0473 47.7449 97.4656 46.5819C97.702 46.3493 98.0566 46.0004 98.293 45.6515C98.8839 44.7212 97.9384 43.7908 98.4112 42.8605C98.8839 42.0464 99.9477 42.0464 100.539 41.4649C100.893 40.9997 100.893 40.5345 101.13 40.0694C101.13 40.0694 96.7564 35.7664 95.3381 41.8138C92.7378 43.3256 90.8467 49.373 87.5372 46.5819C87.7736 44.7212 91.674 43.4419 89.9011 41.5812C87.8918 42.3953 87.0644 44.3723 85.5279 45.6515C85.1733 44.6049 87.3008 41.9301 87.3008 41.9301C87.1826 41.9301 87.1826 41.9301 85.4097 41.8138C88.601 36.8131 88.601 36.8131 88.601 36.2316C88.4828 36.1153 88.2464 35.999 88.1282 35.8827C89.9011 33.0916 89.9011 33.0916 98.4112 28.2072C97.8202 28.091 97.8202 28.091 96.8746 28.3235C90.1375 29.8354 81.0365 42.3953 80.9183 42.5116C81.0365 42.6279 81.0365 42.8605 81.1547 42.9767C81.8638 42.9767 82.573 42.8604 83.2822 42.7442C83.2822 42.8604 83.4004 43.093 83.4004 43.2093C81.8638 43.9071 81.6275 44.0234 80.9183 44.7212C80.9183 45.0701 80.9183 45.0701 80.9183 45.0701C81.0365 45.0701 81.2729 45.1864 81.3911 45.1864C79.9727 47.6286 76.7815 48.4426 75.5995 51.1174C74.5358 49.9545 74.5358 49.9545 76.5451 47.8611C75.3631 47.5123 75.3631 47.5123 71.4627 50.5359C71.2263 50.6522 69.9261 51.4663 65.1983 51.2337C64.8438 50.7685 64.962 50.1871 64.6074 49.7219C60.7069 50.6522 59.6432 52.8618 57.3975 57.2811C56.9247 56.2344 57.9884 55.304 57.8702 54.2574C55.7427 54.6063 54.088 56.2344 51.8423 55.8855C52.7879 54.9552 54.3244 54.6063 54.679 53.0944C54.5608 52.9781 54.4426 52.9781 54.3244 52.8618C53.8516 53.0944 53.7334 53.2107 52.3151 52.9781C52.1969 52.7455 51.8423 52.513 51.7241 52.2804C50.6603 52.513 50.0694 53.327 49.242 53.9085C49.3602 53.6759 49.5966 53.2107 49.833 52.9781C49.242 53.327 49.242 53.327 48.2964 54.2574C48.7692 53.327 48.7692 53.327 50.1876 51.4663C47.7055 53.6759 47.7055 53.6759 43.0959 57.5137C44.5142 56.1181 46.0507 54.9552 47.5873 53.5596C47.5873 53.5596 44.2778 56.0018 40.2592 59.9559C40.3774 59.7233 40.6138 59.3744 40.8502 59.1418C38.3681 61.9329 34.9404 65.6543 32.4583 68.4454C21.5844 82.4008 21.348 82.7497 16.502 90.6578V90.5415C16.6202 90.4252 16.6202 90.3089 16.7384 90.1926C12.9561 98.6822 12.9561 98.6822 12.6015 100.775C12.3651 101.357 12.1288 102.287 11.8924 102.869C12.0106 103.101 12.247 103.45 12.3651 103.683C11.3014 106.939 11.3014 106.939 10.2376 112.405C10.0012 113.684 10.2376 114.964 10.7104 116.126C10.5922 116.126 10.2376 116.01 9.88305 116.01C9.64666 116.01 9.64666 116.01 9.52846 115.894C9.41027 115.778 9.41027 115.778 9.29207 115.312C9.29207 115.08 9.05568 114.498 8.81929 114.382C8.81929 114.382 8.46471 116.243 8.81929 117.755C9.17388 119.034 10.1194 118.801 10.1194 118.801C10.3558 118.685 10.5922 118.452 10.7104 118.103C10.8286 117.755 10.8286 117.522 10.8286 117.289C10.8286 117.057 10.8286 116.824 10.8286 116.708C10.8286 116.708 10.8286 116.708 10.8286 116.592C11.4196 118.103 11.7742 119.383 11.7742 120.662C11.3014 120.429 10.7104 120.08 10.2376 119.848C4.80066 126.477 2.90954 159.97 6.57359 166.25C7.04637 166.366 7.04637 166.366 14.9654 182.298C14.3745 182.298 13.6653 182.298 13.0743 182.298C14.0199 184.275 20.9934 193.114 21.1116 193.23C21.7026 192.3 22.4117 191.369 19.2205 186.95C17.8021 184.973 16.1474 182.647 13.3107 171.483C16.8566 174.042 17.2111 175.67 17.6839 177.763C18.0385 179.275 18.3931 180.903 19.1023 181.95C20.5206 184.159 22.2935 186.253 23.8301 188.346C25.8394 191.137 29.1488 192.765 30.8036 195.789C32.1037 198.231 31.5127 201.603 34.2312 203.464C34.5858 203.697 35.1768 203.929 35.6496 204.046C36.4769 204.395 37.4225 204.86 38.2499 205.092C41.0865 205.79 43.9232 206.255 46.7599 206.953C49.5966 207.651 52.6697 206.023 55.5063 207.651C62.0071 211.256 62.0071 211.256 64.2528 211.489C64.6074 211.489 65.0801 211.605 65.4347 211.605C75.5995 213 79.8545 225.444 91.0831 225.095C96.0473 216.954 99.1203 226.723 100.184 231.259C100.539 232.654 100.539 232.654 97.702 238.702C97.702 238.818 94.9835 249.633 96.1655 251.727C96.4018 252.076 96.6382 252.541 96.7564 252.773C100.42 258.123 115.431 272.776 115.549 272.892C119.213 276.032 124.178 276.73 128.078 279.405C131.033 281.498 133.279 285.569 134.342 290.918C134.342 291.151 140.134 316.62 150.181 330.459C162.946 348.019 175.238 346.158 175.356 346.042C163.537 339.995 163.537 339.995 164.6 335.11C162.946 333.366 162.946 333.366 159.873 324.993C160.345 324.876 160.345 324.876 162.591 324.876C162.591 324.644 162.591 324.644 159.873 320.922C162 319.062 162 319.062 161.764 317.666C161.882 317.55 162.118 317.434 162.236 317.317C165.901 318.48 167.201 315.457 166.137 314.061L165.073 312.549C173.465 312.317 177.011 292.43 177.011 292.197C178.193 289.639 181.384 288.127 182.684 287.662C185.639 286.499 185.639 283.01 187.767 281.149C188.712 280.335 189.54 280.335 190.249 280.335C191.431 280.452 191.549 280.452 191.785 279.405C192.14 276.963 191.903 274.404 192.022 271.846C192.14 270.45 191.194 269.055 192.14 267.659C193.204 266.031 193.676 265.45 192.849 264.403C192.731 264.17 192.494 263.938 192.494 263.705C199.468 261.147 201.95 253.704 201.95 253.704C201.95 253.587 201.95 253.471 201.95 253.471C201.714 252.89 201.004 252.308 200.886 251.494ZM25.2484 95.7748C27.7305 94.9607 30.3308 94.263 33.0493 93.4489C30.449 94.263 27.7305 94.9607 25.2484 95.7748ZM104.675 237.888C107.867 237.539 111.058 237.074 114.486 236.725C111.294 237.074 108.103 237.422 104.675 237.888ZM175.593 281.498C175.474 280.335 175.002 276.265 174.411 269.287C174.765 273.358 175.238 277.428 175.593 281.731C175.711 281.731 175.711 281.615 175.593 281.498ZM172.283 243.353C172.283 243.586 172.283 243.819 172.283 244.051C172.283 243.819 172.283 243.586 172.283 243.353Z" fill="#225AEA"/>
        <path d="M113.894 203.93C112.949 204.511 114.131 205.791 115.313 206.023C116.14 206.14 118.859 205.791 118.977 205.558C119.095 205.442 118.859 205.093 116.849 204.511C114.604 203.697 114.249 203.814 113.894 203.93Z" fill="#225AEA"/>
        <circle cx="46.3969" cy="118.571" r="7.73285" fill="white" fill-opacity="0.5"/>
        <circle cx="46.3973" cy="118.571" r="5.79964" fill="white" fill-opacity="0.7"/>
        <circle cx="46.3959" cy="118.57" r="3.22202" fill="#225AEA"/>
        <circle cx="170.768" cy="27.0649" r="7.73285" fill="white" fill-opacity="0.5"/>
        <circle cx="170.768" cy="27.0653" r="5.79964" fill="white" fill-opacity="0.7"/>
        <circle cx="170.767" cy="27.0638" r="3.22202" fill="#225AEA"/>
        <circle cx="128.881" cy="231.985" r="7.73285" fill="white" fill-opacity="0.5"/>
        <circle cx="128.882" cy="231.985" r="5.79964" fill="white" fill-opacity="0.7"/>
        <circle cx="128.88" cy="231.984" r="3.22202" fill="#225AEA"/>
        <circle cx="157.878" cy="289.981" r="5.15523" fill="white" fill-opacity="0.5"/>
        <circle cx="157.876" cy="289.98" r="3.86643" fill="white" fill-opacity="0.7"/>
        <circle cx="157.878" cy="289.982" r="2.14801" fill="#225AEA"/>
        <circle cx="275.161" cy="188.811" r="7.73285" fill="white" fill-opacity="0.5"/>
        <circle cx="275.161" cy="188.811" r="5.79964" fill="white" fill-opacity="0.7"/>
        <circle cx="275.16" cy="188.81" r="3.22202" fill="#225AEA"/>
        <circle cx="331.225" cy="216.52" r="7.73285" fill="white" fill-opacity="0.5"/>
        <circle cx="331.225" cy="216.52" r="5.79964" fill="white" fill-opacity="0.7"/>
        <circle cx="331.224" cy="216.519" r="3.22202" fill="#225AEA"/>
        <circle cx="307.38" cy="97.95" r="5.79964" fill="white" fill-opacity="0.5"/>
        <circle cx="307.381" cy="97.9513" r="4.34973" fill="white" fill-opacity="0.7"/>
        <circle cx="307.379" cy="97.9497" r="2.41652" fill="#225AEA"/>
        <circle cx="301.581" cy="277.095" r="5.15523" fill="white" fill-opacity="0.5"/>
        <circle cx="301.579" cy="277.093" r="3.86643" fill="white" fill-opacity="0.7"/>
        <circle cx="301.582" cy="277.093" r="2.14801" fill="#225AEA"/>
        <circle cx="48.331" cy="72.8173" r="5.15523" fill="white" fill-opacity="0.5"/>
        <circle cx="48.3293" cy="72.8156" r="3.86643" fill="white" fill-opacity="0.7"/>
        <circle cx="48.3316" cy="72.816" r="2.14801" fill="#225AEA"/>
    </g>
    <defs>
        <clipPath id="clip0_7807_7718">
            <rect width="357" height="357" fill="white"/>
        </clipPath>
    </defs>
</svg>
