<svg width="173" height="173" viewBox="0 0 173 173" fill="none" xmlns="http://www.w3.org/2000/svg">
<g clip-path="url(#clip0_9787_5315)">
<ellipse cx="85.8739" cy="85.0946" rx="85.2509" ry="85.4071" fill="#EAF4FF"/>
<path d="M45.3414 11.7539C45.3414 11.7539 45.2841 11.7539 45.2269 11.7539C45.0551 11.8103 44.7687 11.9793 44.7114 11.9793C44.6541 12.0357 44.1959 12.4301 44.1959 12.4301L44.1387 12.4865C44.1387 12.4865 44.3678 12.5992 45.1123 12.092C45.456 11.8666 45.456 11.8103 45.3414 11.7539Z" fill="#225AEA"/>
<path d="M44.1961 11.361C44.1388 11.361 44.1961 11.3046 44.1961 11.361C44.0243 11.4173 43.7379 11.53 43.6806 11.5864C43.6233 11.6427 43.5661 11.6991 43.6233 11.6991C43.6233 11.6991 43.7379 11.6991 43.8524 11.6427C43.9097 11.53 44.1961 11.361 44.1961 11.361Z" fill="#225AEA"/>
<path d="M46.316 10.4034C46.5451 10.347 46.5451 10.347 46.7169 10.2907C46.7169 10.2907 46.946 10.2343 47.2324 10.0653C47.2324 10.0653 47.5761 9.8962 47.6333 9.83984C47.6333 9.83984 47.6333 9.83984 47.5761 9.83984C47.5761 9.83984 46.316 10.2907 45.1133 10.9106L45.7433 10.6851C45.9151 10.5724 46.0869 10.4597 46.316 10.4034Z" fill="#225AEA"/>
<path d="M44.9422 11.1908C44.9422 11.1344 44.9422 11.1344 44.9422 11.1908C44.9422 11.1344 44.9422 11.1344 45.4577 10.9654C45.6295 10.909 45.8586 10.7963 45.9731 10.7399C45.9731 10.7399 46.0304 10.7399 46.0304 10.6836C45.9731 10.6836 45.9731 10.6836 45.9158 10.6836C44.5413 11.1344 43.4531 11.8107 43.2812 11.9797C43.3958 11.9797 44.8849 11.3035 44.9422 11.2471C44.9422 11.1908 44.9422 11.1908 44.9422 11.1908Z" fill="#225AEA"/>
<path d="M46.3723 11.0211C46.4295 11.0211 46.4295 10.9648 46.4295 10.9648C46.4868 10.9084 46.5441 10.8521 46.5441 10.8521C46.6014 10.7957 46.7159 10.683 46.7732 10.6267C46.8304 10.5703 46.8304 10.5703 46.8304 10.5703C46.8304 10.5703 46.8304 10.5703 46.7732 10.5703C46.4868 10.683 46.0286 11.0211 45.9713 11.0775C46.0286 11.0775 46.0286 11.0775 45.9141 11.2466C45.9713 11.2466 46.3723 11.0211 46.3723 11.0211Z" fill="#225AEA"/>
<path d="M42.8792 13.5586C42.822 13.5586 42.822 13.5586 42.7647 13.5586C42.6501 13.6149 42.5356 13.6713 42.5356 13.6713C42.1919 13.8404 41.8483 14.1221 41.791 14.1221C41.8483 14.1221 42.4783 13.8967 42.7074 13.6713C42.8792 13.6149 42.9365 13.5586 42.8792 13.5586Z" fill="#225AEA"/>
<path d="M43.5083 14.9665C43.4511 14.9665 43.4511 14.9101 43.2792 14.9665C43.222 14.9665 43.222 14.9665 43.1647 14.9665C42.8783 15.0228 42.5347 15.0792 42.2483 15.1355C41.9047 15.1919 40.7019 15.7554 40.5301 15.9808C40.6446 16.0372 40.7592 15.9808 40.8165 16.0372C40.9883 16.1499 40.931 16.2062 40.8737 16.2626C40.8165 16.3189 40.0146 16.9388 39.7855 17.0515C39.671 17.1079 39.671 17.1079 39.6137 17.1079C39.5564 16.8825 39.8428 16.8261 39.8428 16.6007C39.671 16.6007 38.9264 16.9952 38.8691 17.2206V17.2769C38.9264 17.446 38.9837 17.6151 39.041 17.7841C39.041 17.8405 39.0982 17.8968 39.0982 18.0095C39.0982 18.1222 39.041 18.235 39.041 18.404V18.4604C39.2701 18.6858 41.2747 17.5587 41.8474 16.9952C41.9619 16.8825 42.3056 16.2062 42.0765 16.2062C41.8474 16.2062 41.6183 16.3189 41.3892 16.3753C41.8474 16.0372 42.3629 15.8681 42.8783 15.53C42.9356 15.4736 43.5083 14.9665 43.5083 14.9665Z" fill="#225AEA"/>
<path d="M37.7249 14.8517C38.584 14.4573 39.3286 13.8374 40.1877 13.4429C39.3286 14.0064 39.3286 14.0064 39.2713 14.0064L42.1923 12.3722C42.2496 12.3158 42.3641 12.3158 42.4214 12.2031C42.3641 12.2031 42.3641 12.2031 42.3069 12.2031C41.6768 12.4849 37.4958 14.6827 36.6367 15.4153C37.0949 15.3589 37.3813 15.0208 37.7249 14.8517C37.7822 14.8517 37.7249 14.8517 37.7249 14.8517Z" fill="#225AEA"/>
<path d="M37.7239 20.9375C37.6094 20.9375 37.6094 20.9939 37.4948 21.0502C37.0939 21.332 36.8075 21.7264 36.4066 22.0082C35.7193 22.4027 35.4902 22.5718 35.4902 22.6281C35.5475 22.6281 35.6048 22.6281 35.7766 22.5717C36.063 22.5154 36.063 22.5154 36.1202 22.5717C36.2348 22.6281 36.1775 22.7972 36.2921 22.7972C36.3493 22.7972 36.5212 22.7972 36.693 22.7408C37.8957 22.5154 38.3539 22.0646 38.4112 22.0082C38.5258 21.8392 38.2394 21.2193 38.2394 21.2193C38.0676 21.1066 37.7812 20.9375 37.7239 20.9375Z" fill="#225AEA"/>
<path d="M39.3843 16.0391C39.3843 16.0391 39.3271 16.0391 39.1553 16.0954C38.5252 16.2645 38.067 16.659 38.0098 16.7153C38.067 16.7153 38.1243 16.659 38.1816 16.7153C38.1816 16.7717 38.1816 16.7717 38.1243 16.8844C38.067 16.9407 38.0098 17.1661 38.1243 17.1098C38.3534 17.0534 38.9834 16.4899 39.0407 16.4335C39.4416 16.1518 39.5562 16.0391 39.3843 16.0391Z" fill="#225AEA"/>
<path d="M67.8518 4.65307C67.4508 5.16028 66.3053 5.44206 65.7325 5.61112C65.7325 5.61112 62.6969 6.45646 62.525 6.68189C61.6659 7.80901 63.7851 8.14714 63.8424 8.14714C69.0546 7.75265 69.1118 7.80901 69.5128 8.14714C69.5128 8.14714 71.9757 10.7959 71.1738 12.2611C70.8301 12.8247 70.8301 12.881 70.8874 12.9374C70.9447 13.2192 71.3456 13.2755 71.4602 13.5573C71.632 13.9518 71.4602 14.4027 71.6893 14.7971C72.3766 14.6281 72.9494 13.9518 73.7513 14.2899C75.1259 14.9099 74.4958 16.037 74.4958 16.037C73.9231 16.7132 72.8921 16.6569 72.3766 17.4459C72.0902 17.8404 71.8039 19.0238 72.033 19.6438C72.1475 19.9819 76.2141 26.7446 78.1616 27.4209C77.1878 13.3319 76.4433 6.90731 75.4696 3.80773C76.386 6.51282 77.0733 11.7539 78.1616 27.4209C83.0301 28.3226 83.1446 28.2099 83.431 27.8717C83.9465 27.3082 84.8056 22.9124 84.8629 22.856C84.9775 22.2361 84.6338 21.5035 85.0347 20.8836C85.2066 20.5455 85.2639 20.5455 86.4667 20.2073C90.3042 19.0802 90.3042 19.0802 90.4187 18.3476C90.5333 17.6149 90.5906 17.2205 91.2779 16.826C92.9389 15.9806 94.8863 15.8679 96.5473 15.0226C97.2347 14.6844 97.9793 14.459 98.6093 14.0082C98.6093 14.0082 98.953 13.7827 98.552 13.2755C97.9793 12.5429 97.1201 12.1484 96.5473 11.3594C96.2037 10.9086 96.2037 10.2887 95.9746 9.78147C95.6882 9.16155 95.8027 8.99248 96.1464 8.65435C96.6046 8.2035 96.3182 7.97807 95.2873 7.41452C92.0798 5.55477 92.0798 5.49841 91.7934 5.10392C91.7934 5.04756 91.8507 4.99121 91.8507 4.99121C91.9079 4.99121 91.9652 4.93485 92.0225 4.93485C91.1061 4.03316 89.2159 4.76578 88.7577 3.01875C88.6432 2.96239 88.5286 2.90604 88.4141 2.84968C88.4141 2.79333 88.4713 2.68061 88.4713 2.5679C88.5286 2.5679 88.5859 2.5679 88.5859 2.51155C88.185 2.45519 86.9822 2.39883 86.9249 2.39883C86.123 2.34248 85.092 2.51155 84.9202 2.5679C84.2329 2.68061 83.6028 2.22977 82.9728 2.22977C82.0564 2.17341 79.9371 2.17341 79.1353 2.22977C77.5888 2.28612 77.5888 2.28612 77.417 2.45519C75.7559 2.5679 75.7559 2.5679 74.9541 2.68061H74.8968H74.9541C75.9278 2.73697 75.9278 2.73697 76.2141 2.84968C76.1569 2.84968 76.1569 2.84968 75.0686 2.84968C74.6104 2.84968 74.4386 2.84968 73.9231 2.90604C70.0283 3.35689 67.2217 4.54036 67.2217 4.59672C67.279 4.65307 67.279 4.65307 67.8518 4.65307Z" fill="#225AEA"/>
<path d="M53.075 20.8292C53.2468 20.322 53.1895 20.0966 52.7886 20.153C52.7886 20.153 51.6431 20.4348 51.4713 20.9419C51.3567 21.2237 51.8149 21.9563 51.9867 22.069C52.5022 22.3508 53.075 20.8292 53.075 20.8292Z" fill="#225AEA"/>
<path d="M61.0358 5.38362C60.8067 5.49632 60.5203 5.55268 60.2912 5.66538C61.0931 5.49632 63.6704 4.76373 64.0713 4.65102C62.3531 5.21456 60.9785 5.66538 59.5467 5.94715C59.203 6.00351 59.0885 6.11621 58.9739 6.17257C58.9739 6.28527 58.8594 6.7361 58.573 6.96151C57.8284 6.7361 55.8239 7.86317 55.7093 7.91952C55.8811 7.97587 56.1102 7.97587 56.282 8.08858C56.282 8.08858 56.282 8.14494 56.282 8.20129C56.5111 8.14494 56.6257 8.14494 57.4848 7.86317C55.9957 8.65212 55.8239 8.48306 55.7093 8.314C54.6211 8.314 54.5065 8.76482 54.5065 8.93388C53.8765 9.32836 53.0747 9.38471 52.502 9.94824L52.5592 10.0046C52.7311 10.0046 52.8456 10.0046 54.0484 9.77918C54.9075 9.61012 55.652 8.99024 56.6257 9.21565C56.5684 9.38471 56.5684 9.38471 56.3393 9.55377C56.9693 9.66648 58.9739 8.70847 58.8021 8.25764C58.7448 8.25764 58.6303 8.20129 58.573 8.20129C58.7448 7.97587 60.0621 7.18693 60.3485 7.07422C62.124 6.62339 62.754 6.00351 62.8113 5.83444C62.8113 5.83444 62.754 5.83444 62.6967 5.77809C64.3577 5.32726 65.1022 5.1582 65.6177 4.82008C65.5032 4.82008 65.5032 4.82008 65.2168 4.87644C65.2168 4.87644 68.9969 3.74937 69.1687 3.69301C68.195 3.80572 68.1378 3.86208 67.7941 3.86208C68.7105 3.63666 69.6842 3.4676 70.6005 3.24219C69.6842 3.24219 68.195 3.41125 68.195 3.41125C68.1378 3.41125 64.5295 4.03114 63.7849 4.3129C63.8422 4.36926 63.8995 4.42561 63.9568 4.42561C63.7849 4.48196 63.6704 4.53832 63.3267 4.48196C63.0404 4.42561 59.9476 5.21456 59.6612 5.55268C59.6039 5.66538 59.6612 5.72174 61.0358 5.38362Z" fill="#225AEA"/>
<path d="M46.4862 11.5267C46.4289 11.6394 46.3717 11.7521 46.3144 11.8085C46.1998 11.9212 46.1998 11.9212 45.7989 12.2593C45.8562 12.1466 45.9135 12.0339 45.9135 11.9212C45.9135 11.8648 45.9708 11.8085 45.9708 11.7521C45.9135 11.7521 45.6271 11.7521 45.2835 12.0902C45.3407 12.0902 45.3407 12.0902 45.398 12.0902C45.398 12.0902 45.398 12.0902 45.398 12.1466C44.9971 12.4847 44.5389 12.4847 44.138 12.7101C44.1953 12.7665 44.2525 12.6538 44.3098 12.7101C44.2525 12.8228 44.2525 12.8228 44.2525 12.8228C44.3098 12.8228 44.3098 12.8228 45.5126 12.4847C45.1116 12.7101 44.138 13.2173 44.0234 13.4991C44.0234 13.4991 45.398 12.9919 45.5698 12.9355C45.6844 12.8792 45.6844 12.8792 46.4289 12.203C46.4289 12.203 46.4289 12.2593 46.4289 12.3157C46.7726 11.9775 46.7726 11.9775 47.689 11.2449C47.8608 11.0759 47.9181 11.0759 47.9181 11.0195C47.8608 11.0195 47.8608 11.0195 47.8035 11.0195C47.8608 11.0759 46.658 11.414 46.4862 11.5267C46.5435 11.4704 46.4862 11.4704 46.4862 11.5267Z" fill="#225AEA"/>
<path d="M59.6041 20.9403C60.1769 20.8839 61.3796 22.4054 61.3796 22.4054C61.666 22.7999 61.9524 23.1944 62.2387 23.138C62.9833 22.969 64.1288 20.095 64.1861 20.095C64.1861 19.9822 64.2433 19.8695 64.2433 19.8132L58.6305 18.5734C58.8023 18.4607 58.9168 18.348 60.2914 17.7281C60.8642 17.4463 61.1505 17.3336 61.1505 17.1646C61.0933 16.7701 59.1459 14.9104 58.1723 14.7977C57.7714 14.7414 57.3132 14.8541 56.9122 14.685C56.4541 14.4596 56.5113 13.7834 55.9386 13.727C55.3658 13.6707 54.2204 14.1215 53.3613 14.4596C52.5021 14.7977 52.5021 14.7977 52.3303 14.7977C52.2731 14.685 52.2158 14.516 52.1585 13.2762C51.8149 13.1635 50.6694 13.3325 50.383 13.3889C48.6648 13.7834 43.6247 17.9535 44.5983 18.5734C45.5147 19.1933 48.7793 18.5734 49.1803 18.348C49.123 18.0662 49.0657 17.8972 50.4976 17.7281C51.7003 17.6154 51.8721 17.3336 51.9867 17.1082C52.2731 17.2773 53.0749 17.8972 53.0749 17.8972C53.4758 18.348 53.6476 18.9115 54.0485 19.3624C54.5067 19.9259 55.6522 19.8695 55.6522 20.9403C55.6522 20.9403 55.4231 23.3071 52.1012 24.2651C51.1276 24.5469 50.0394 24.4905 49.0657 24.9977C48.6648 25.2231 48.6075 25.8994 48.7793 26.0121C48.9512 26.1811 49.5239 26.2375 51.2994 25.6739C52.6167 25.2231 52.6167 25.2231 55.0222 26.2375C54.8504 26.4629 54.8504 26.4629 53.8767 26.801C54.3922 27.2518 58.4586 28.0971 59.2605 27.6463C59.2032 27.5336 59.2032 27.5336 59.0314 27.4209C58.9168 27.3645 58.9168 27.3645 57.1413 25.7303C58.5732 25.8994 58.9741 26.0684 59.776 26.5756C59.9478 26.6883 60.0623 26.7447 60.1196 26.7447C60.5778 26.632 61.3223 24.9413 60.9787 24.5469C60.1769 23.7579 58.745 23.8706 58.2868 22.5745C57.7714 21.5038 59.5469 20.9403 59.6041 20.9403Z" fill="#225AEA"/>
<path d="M41.2188 13.0507C41.276 13.1071 41.5624 12.938 41.8488 12.769C41.906 12.7126 41.9633 12.6562 42.0206 12.6562C42.0206 12.6562 42.0206 12.6562 41.9633 12.6562C41.8488 12.7126 41.2188 12.9944 41.2188 13.0507Z" fill="#225AEA"/>
<path d="M72.3194 16.1499L73.1785 15.9809C73.1785 15.9809 73.4076 15.8682 73.4649 15.6991C73.5222 15.5864 73.4649 15.53 73.4076 15.4737C73.3504 15.361 73.1785 15.3046 73.064 15.1919C73.0067 15.1356 73.0067 15.0792 73.0067 15.0229C73.0067 15.0229 73.0067 15.0229 73.0067 14.9665C73.0067 14.9665 72.8922 14.9102 72.6058 14.9102C72.2049 14.9665 71.1167 15.6428 71.7467 15.9809C71.8612 16.1499 72.0903 16.2063 72.3194 16.1499Z" fill="#225AEA"/>
<path d="M55.4813 13.2201C55.424 13.0511 54.2212 12.713 53.3048 12.882C52.503 12.9947 52.7894 13.5019 52.9612 13.671C53.5912 14.1218 55.4813 13.2765 55.4813 13.2201Z" fill="#225AEA"/>
<path d="M49.4653 9.27499C49.2362 9.3877 48.8353 9.55676 48.7207 9.61311C48.778 9.61311 48.778 9.61311 48.8353 9.61311C49.2362 9.5004 49.5798 9.5004 49.5798 9.5004C49.5225 9.61311 49.3507 9.61311 49.3507 9.78217C49.408 9.83852 50.038 9.61311 50.0953 9.55676C50.3244 9.44405 51.0689 8.76781 51.0689 8.6551C50.9544 8.59875 50.8971 8.71145 50.7826 8.71145C50.8398 8.54239 51.0689 8.54239 51.1835 8.42969C51.1835 8.42969 51.1835 8.42969 51.1262 8.42969C50.4389 8.6551 49.5798 9.04957 49.4653 9.10593C49.6371 9.16228 49.7516 9.04958 49.9235 9.04958C49.8662 9.10593 49.8089 9.16228 49.4653 9.27499Z" fill="#225AEA"/>
<path d="M46.2018 12.8235C46.03 12.9362 45.9727 12.9926 46.2591 13.1053C46.4882 13.218 47.0036 13.1053 47.4618 12.7108C47.7482 12.4854 48.2636 11.9219 48.0346 11.9219C47.9773 11.9219 47.9773 11.9219 47.92 11.9219C47.4618 12.0909 46.2591 12.7672 46.2018 12.8235Z" fill="#225AEA"/>
<path d="M53.5903 8.82422C53.533 8.82422 53.533 8.82422 53.533 8.82422H53.4757C53.1321 8.93693 52.7884 9.04963 52.4448 9.16234C52.0439 9.27505 51.6429 9.38775 51.242 9.50046C50.9557 9.61317 50.7838 9.66952 50.7266 9.66952C50.8411 9.66952 51.9866 9.50046 52.6166 9.3314C52.903 9.21869 53.0748 9.16234 53.4757 8.88057C53.4757 8.88057 53.533 8.88057 53.5903 8.82422Z" fill="#225AEA"/>
<path d="M50.6699 9.44347C50.7845 9.44347 51.9872 8.93629 52.3309 8.76723C52.5027 8.71088 52.5027 8.65453 52.5027 8.59817C52.5027 8.54182 52.3882 8.54182 52.3882 8.48547C52.3882 8.42911 52.3882 8.42911 52.3882 8.37276C52.3882 8.37276 52.3882 8.37276 52.3309 8.31641C52.2736 8.31641 52.2163 8.31641 52.1591 8.31641C52.1018 8.31641 52.0445 8.37276 51.9872 8.42911C51.7009 8.59817 51.529 8.87994 51.2427 8.99265C50.899 9.21806 50.7845 9.27441 50.6699 9.44347Z" fill="#225AEA"/>
<path d="M53.4756 7.69692C54.3347 7.30245 54.3347 7.24609 54.3347 7.24609C54.2774 7.24609 54.2774 7.24609 54.2201 7.24609C54.2201 7.24609 53.361 7.52786 53.1319 7.64057C52.8456 7.75328 52.9601 7.86598 52.9601 7.86598C53.0174 7.86598 53.1892 7.80963 53.4756 7.69692Z" fill="#225AEA"/>
<path d="M55.2508 7.29998C55.5944 7.18727 55.709 7.18727 55.8235 7.18727C55.8235 7.18727 55.8235 7.18727 55.8235 7.24362C55.709 7.29998 55.5944 7.35633 55.2508 7.46904C54.2771 7.75081 54.048 7.86351 53.9908 7.91987C53.7617 8.03257 53.7617 8.31434 53.8189 8.37069C53.8189 8.37069 53.8189 8.37069 54.4489 8.20163C54.678 8.14528 54.9644 8.20163 55.1935 8.08893C55.8235 7.86351 56.339 7.46904 56.9117 7.24362C57.2554 7.07456 57.6563 7.01821 58.0572 6.84915L58.1145 6.7928C58.1145 6.7928 58.1145 6.7928 57.8281 6.73644C57.8854 6.68009 57.9426 6.68009 57.9999 6.62374C58.5154 6.39832 58.5154 6.39832 58.5154 6.34197C58.4581 6.34197 58.4008 6.34197 58.3436 6.28562C58.4008 6.17291 58.6299 6.17291 58.5727 5.9475C58.7445 5.83479 58.9163 5.77844 58.9736 5.60938C58.9163 5.60938 58.9163 5.60938 58.859 5.60938C58.2863 5.77844 56.1099 6.56738 55.8808 6.73644C55.9953 6.73644 56.1099 6.68009 56.2244 6.68009C56.0526 6.7928 55.5944 6.9055 55.4226 6.96186C54.7353 7.13092 54.3917 7.46904 54.3917 7.46904C54.4489 7.52539 55.1935 7.29998 55.2508 7.29998Z" fill="#225AEA"/>
<path d="M48.3209 12.8261C48.3782 12.8261 54.5065 12.2062 56.1102 10.6283C56.5684 10.1774 55.4801 10.1211 55.4801 10.1211C54.9074 10.1211 52.1583 11.0227 51.5855 11.2482C51.0701 11.4736 50.6691 10.9664 50.7837 10.8537C50.841 10.7973 50.8982 10.7973 51.1273 10.741C52.101 10.4592 51.6428 10.1774 51.5282 10.1774C51.2419 10.1774 51.0701 10.2902 50.7837 10.3465C50.4973 10.4029 50.2109 10.2902 49.9246 10.2902C49.8673 10.2902 49.5237 10.3465 49.3518 10.4029C49.18 10.4592 48.7218 10.9664 48.7218 11.0791C48.8364 11.0791 48.8364 11.0791 49.1227 10.9664C49.4091 10.8537 49.7528 10.741 49.8673 10.7973C50.0391 10.91 49.5237 11.5299 49.5237 11.5299C49.2373 11.8117 48.7791 11.9244 48.55 12.2062C47.92 12.8261 48.1491 12.8261 48.3209 12.8261Z" fill="#225AEA"/>
<path d="M170.719 87.2138C170.605 84.7905 170.49 81.6346 170.204 79.2113C170.089 78.4786 169.975 77.8587 169.917 77.2388C169.345 75.3227 169.287 75.0409 168.142 68.3345C168.142 68.3345 168.199 68.3909 168.199 68.4473C165.393 59.3176 165.393 59.3176 165.335 58.8667C165.335 58.8667 165.335 58.8667 165.393 58.9231C164.419 56.0489 163.961 55.0909 162.643 52.2731L159.665 46.5248C158.863 45.454 157.889 44.496 156.457 43.5943C157.775 44.4396 158.806 45.3413 159.665 46.5248C158.519 44.665 157.03 42.1854 155.827 40.382C150.558 33.3375 150.501 33.1684 147.236 29.7307L143.742 26.293C143.627 26.1803 143.456 26.0676 143.341 25.9549C143.513 26.1803 143.57 26.2366 145.002 27.7019C144.716 27.5328 144.544 27.3638 144.258 27.1947C144.658 27.9273 145.403 28.3218 145.976 28.8854C145.919 28.8854 145.861 28.9417 145.861 28.9981C143.456 27.0256 141.394 24.715 138.931 22.7989C140.134 23.5316 141.107 24.6587 142.425 25.2786C142.138 24.715 138.415 21.5591 135.952 20.0938C134.177 19.0231 134.005 18.854 133.833 18.6849C133.948 18.7413 134.062 18.7413 134.177 18.7977C134.005 18.6286 133.89 18.5722 133.375 18.2905C133.318 18.3468 133.26 18.3468 133.26 18.4032C133.089 18.3468 132.802 18.2341 131.657 17.4451C131.771 17.5015 131.886 17.5578 132 17.5578C131.829 17.107 129.652 16.1489 129.48 16.0926C129.595 16.318 129.595 16.318 129.938 16.7688C129.194 16.4871 128.793 15.7544 128.048 15.4727C128.163 15.8108 128.564 15.9799 128.678 16.318C128.392 16.8816 128.392 16.8816 128.449 17.276C128.506 17.7833 130.225 20.8265 130.282 20.8265C131.599 22.7989 131.542 23.4752 131.485 23.5316C131.256 25.3349 131.256 25.3349 130.225 26.0676C129.881 26.3494 129.881 26.4621 130.053 26.9129C130.053 26.9693 132.802 33.2248 135.265 32.0977C136.067 31.7032 135.666 30.407 135.494 29.7871C135.723 29.9561 140.191 34.2955 140.993 35.7044C141.394 36.3807 141.737 37.0006 142.482 37.0006C142.597 36.7752 142.711 35.0282 142.253 34.2392C141.279 32.4358 141.508 32.2104 141.966 31.7595C141.966 31.3087 141.909 31.1396 140.649 30.2943C139.733 29.7307 139.733 29.7307 138.53 27.7583C138.072 27.0256 138.816 26.0676 138.129 25.3913C136.353 23.5316 136.353 23.5316 136.296 23.4752C136.239 23.4188 136.239 23.3061 136.182 23.2498C136.182 23.1934 136.239 23.1371 136.296 23.1371C136.983 23.3625 139.217 24.8277 139.332 25.2786C139.274 25.2786 139.217 25.2786 139.16 25.2786C140.878 29.0544 140.878 29.0544 142.539 30.5761C143.971 31.8722 146.148 31.7032 147.58 32.9994C147.35 32.943 147.121 32.8303 146.892 32.7176C146.835 32.7176 146.778 32.7739 146.778 32.8303C146.892 32.9994 147.007 33.1684 147.064 33.2811C146.205 33.0557 145.46 32.6612 144.544 32.6049C145.518 33.9011 146.835 34.8591 147.58 36.3244C146.663 36.268 146.606 34.9718 145.575 35.0282C145.575 35.0845 145.518 35.1409 145.46 35.1972C145.46 35.1972 146.606 37.2261 146.72 37.3951C146.892 37.5642 147.637 38.5222 147.58 38.9731C147.007 38.9167 147.007 38.9167 146.892 38.9731C146.835 39.1422 146.778 39.3112 146.72 39.5366C146.72 39.593 146.778 39.6494 146.835 39.6494C144.2 39.4803 144.2 39.4803 144.2 39.7057C144.086 39.7621 143.971 39.8748 143.857 39.9311C143.284 39.593 142.597 39.4239 141.909 39.2549L143.169 39.4803C142.94 39.3112 142.367 38.9167 141.336 38.9731C140.993 38.9731 140.878 38.9731 139.905 37.9023C139.16 37.1133 138.358 35.9299 138.358 34.9155C138.358 34.521 137.728 32.7176 137.27 32.6612C137.213 32.6612 135.838 32.6612 136.067 33.2811C136.182 33.5629 137.9 36.6061 139.16 38.015C139.675 38.5786 139.675 38.6913 139.675 38.6913C139.618 38.7477 139.618 38.7477 139.217 38.8604C138.931 38.9167 138.587 38.9731 138.358 39.0294C138.301 39.1422 138.186 39.2549 138.072 39.3676C136.697 39.3112 136.697 39.3112 136.296 39.7057C136.353 40.1002 136.525 40.7765 136.983 42.0727C136.926 42.1854 136.812 42.3545 136.754 42.4672C135.609 42.4672 135.609 42.4672 134.921 42.6926C134.921 42.7489 134.921 42.7489 135.437 43.9888C135.151 44.1578 134.75 44.3833 134.463 44.4396C134.463 44.7214 134.406 45.1159 134.234 45.3413C132.917 45.285 132.688 45.1159 132.115 44.7214C132.287 45.0032 132.459 45.285 132.63 45.5104C132.573 45.6231 132.516 45.7922 132.516 45.9612C132.229 46.0739 131.886 46.1867 131.599 46.2994C130.969 45.9049 130.969 45.9049 129.881 45.8485C129.824 45.9612 129.767 46.1303 129.709 46.243C129.996 46.4684 130.339 46.7502 130.568 47.032C130.454 47.0884 130.339 47.2011 130.225 47.3138C136.525 49.0608 135.551 55.26 135.494 55.3163C132.573 55.0909 129.709 54.2456 126.788 53.9638C126.96 54.1892 127.132 54.5273 127.361 54.7528C127.361 54.8091 127.705 62.5299 128.678 62.8117C128.392 65.1786 128.392 65.1786 128.335 65.404C130.397 65.235 130.798 65.235 131.657 65.404C132 66.7566 132 66.7566 132 66.8129L136.754 65.235C138.072 65.0659 138.415 63.4316 137.671 62.3045C138.415 59.2049 138.473 59.2049 140.42 58.4159C140.42 55.9362 140.42 55.9362 140.649 55.7672C141.566 55.0345 142.253 56.218 143.112 56.218C143.914 54.8655 144.544 53.9638 145.747 55.0345C145.804 55.0909 152.448 62.6426 153.135 64.7278C153.651 66.3057 153.422 66.3621 150.615 66.7566C151.188 67.6583 152.849 69.1235 152.906 69.1235C153.135 68.3909 152.677 67.6583 152.792 66.9256C152.906 66.9256 153.078 66.982 153.193 66.982C153.536 66.4748 153.708 65.8549 153.995 65.3477C153.594 63.8824 153.594 63.8824 153.594 63.3752C153.708 63.3189 153.88 63.3189 153.995 63.2625C154.166 63.4879 154.395 63.8261 154.567 64.0515C154.453 63.3752 154.453 63.3752 152.162 60.7265C152.219 60.6138 152.219 60.4447 152.276 60.2756C151.188 59.8248 150.386 59.4303 147.522 53.7384C147.637 53.5129 147.923 53.2875 148.152 53.2311L154.567 60.6701C154.567 60.7265 154.567 60.7265 156.515 66.0803L158.519 70.6451C158.577 70.3634 158.577 70.0252 158.577 69.7434C158.577 68.6727 158.176 67.6583 157.947 66.5875C157.259 63.2062 157.259 63.2062 157.603 62.9244C158.233 63.0371 159.493 63.8261 159.779 64.7841C159.894 64.5587 160.066 64.2206 160.123 63.9951C160.238 63.9951 160.467 63.9951 160.581 63.9951C160.982 60.8956 158.749 58.2468 159.149 55.1473C159.379 55.0909 159.722 55.0909 159.951 55.2036C159.894 55.3163 159.837 55.4854 159.779 55.5981C160.18 56.0489 160.352 56.1617 160.81 56.4434C160.925 57.007 160.925 57.007 160.81 57.8523C161.211 58.3032 161.441 58.9231 161.784 59.374C163.273 58.5286 161.04 57.007 161.498 55.7108C162.185 55.5417 162.3 55.7672 162.471 56.2744C162.414 56.3871 162.3 56.5561 162.242 56.6689C162.471 57.0634 162.471 57.0634 162.815 58.3595C162.758 58.4723 162.643 58.585 162.586 58.6977C163.674 61.3464 166.137 63.4316 166.08 66.5875C165.965 66.6439 165.794 66.7566 165.679 66.8129C164.362 65.9676 164.419 63.0934 162.3 63.657C162.3 63.8824 162.128 64.2206 161.956 64.446C161.727 64.3896 161.383 64.2769 161.097 64.2206C161.154 64.446 161.326 64.7841 161.498 64.8968C160.982 65.2913 160.352 65.0659 159.837 65.2913C159.779 65.5731 159.779 65.9676 159.779 66.2494C159.894 66.3057 160.066 66.3057 160.18 66.3621C160.41 67.9401 160.81 70.8706 162.758 72.5612C162.872 72.4485 162.987 72.3358 163.044 72.2795C163.044 72.1668 163.044 71.9977 163.044 71.8286C163.674 72.3358 163.903 73.2375 164.648 73.6884C164.763 73.4629 164.82 73.0684 164.82 72.843C164.992 73.0121 165.278 73.2375 165.564 73.2939C165.908 79.2676 165.965 80.2257 165.278 81.86C164.419 81.8036 164.247 81.5782 163.961 80.7329C163.732 80.7329 163.388 80.8456 163.216 81.0146C160.295 80.7892 160.581 76.6189 157.546 76.5625C156.973 77.5769 157.431 78.704 157.03 79.7185C156.916 79.7748 156.744 79.8312 156.629 79.8875C155.999 79.4367 149.298 73.4629 148.84 72.674C148.668 72.4485 148.897 71.9977 149.069 71.7723C149.412 71.2087 149.412 71.2087 149.126 67.6583C148.381 67.2074 148.267 67.0947 147.809 66.8693C147.236 67.3201 147.236 67.3201 144.773 66.7566C144.544 66.9256 144.315 67.2638 144.2 67.4892C141.05 66.2494 138.473 69.6871 135.322 68.6163C134.979 68.56 134.921 68.56 134.864 68.56C133.948 68.729 133.661 68.7854 132.688 67.6583C132.516 67.5456 132.516 67.5456 132.516 67.5456C132.401 67.6583 132.229 67.771 132.115 67.8837C131.542 68.6163 131.943 69.6307 131.37 70.307C130.626 71.2087 129.308 71.2087 128.621 72.1668C128.449 72.4485 128.506 72.9557 128.506 73.2939C128.335 77.0697 128.335 77.0697 127.246 77.5769C126.33 78.0278 124.726 79.2112 124.554 79.5494C123.982 80.4511 119.743 87.6646 119.743 87.6646C119.571 89.5807 120.889 91.2151 120.889 93.1312C120.889 94.7091 118.598 95.4418 119.342 97.3015C120.43 100.063 121.92 102.599 123.237 105.248C123.753 106.375 127.819 110.207 128.621 110.094C132.459 109.756 136.124 108.347 140.076 108.742C140.191 108.742 140.363 108.854 140.477 108.967C141.165 109.531 140.706 110.602 141.394 111.165C142.081 111.729 142.94 111.447 143.685 111.672C144.2 113.194 144.2 113.194 143.57 114.603C150.157 115.786 154.338 116.913 157.317 118.322C154.338 116.913 150.1 115.786 143.57 114.603C141.852 118.604 141.852 118.604 142.081 119.788C142.482 121.591 143.055 124.071 140.706 129.537C139.618 132.017 137.556 133.877 136.124 136.131C134.807 138.272 134.635 140.808 133.432 142.95C128.621 151.347 128.506 151.46 127.762 152.249C127.246 152.756 126.96 153.094 126.387 154.277C128.85 155.01 131.714 153.094 132.688 152.474L136.468 149.825L141.279 146.049C142.367 144.922 142.997 143.457 144.143 142.443C145.46 141.259 147.236 140.639 148.553 139.399C151.703 136.469 154.567 130.608 154.911 129.875C156.114 126.945 160.295 122.493 161.498 121.196C163.445 119.111 166.023 113.532 166.653 111.39C166.137 111.221 166.137 111.221 165.278 111.39C165.106 111.109 165.106 111.109 165.507 107.671C165.679 106.375 165.335 105.135 165.335 103.839C165.278 100.514 165.908 97.2451 165.622 93.9202L164.705 83.438C164.934 83.7761 164.934 83.7761 165.163 85.2977C165.393 85.1286 165.564 84.7341 165.622 84.4523C167.798 92.3422 165.507 100.232 165.736 108.178C166.595 107.784 166.595 107.784 166.996 107.84C169.345 102.881 169.345 102.881 169.459 102.261C169.459 102.374 169.402 102.599 169.402 102.712C169.459 102.43 169.517 102.092 169.574 101.866L169.631 101.585L169.86 99.7812C169.975 98.9358 170.089 97.9214 170.318 95.0473C170.318 95.2163 170.318 95.329 170.318 95.4981C170.605 92.624 170.777 89.5244 170.719 87.2138ZM170.204 96.3435C170.032 96.0053 170.032 96.0053 170.147 93.0185C170.089 93.9765 170.089 93.9765 170.032 94.371C169.803 87.9464 169.917 87.3265 170.032 86.5375C170.433 87.1011 170.547 91.835 170.49 94.5964C170.376 95.7235 170.318 95.8926 170.204 96.3435Z" fill="#225AEA"/>
<path d="M168.314 68.2209C168.314 68.3336 168.371 68.4463 168.429 68.559L168.887 70.475C168.887 70.4187 168.887 70.4187 168.887 70.3623C169.059 71.4894 169.288 72.6164 169.517 73.7435C168.83 69.517 168.6 68.6717 167.627 65.1778C167.455 64.6143 167.283 64.1071 167.111 63.6562C168.142 67.0938 168.142 67.2629 168.6 69.0662C168.429 68.7844 168.371 68.5026 168.314 68.2209Z" fill="#225AEA"/>
<path d="M166.767 62.8119C166.824 62.9246 166.824 63.0373 166.882 63.15C166.767 62.7556 166.595 62.3611 166.481 61.9103C166.538 62.023 166.595 62.192 166.595 62.3047L165.564 59.2617V59.318C165.45 58.9799 165.393 58.9235 165.393 58.8672C165.794 60.0506 166.309 61.5721 166.996 63.7136C166.939 63.4318 166.824 63.15 166.767 62.8119Z" fill="#225AEA"/>
<path d="M170.032 77.5224C169.918 76.2826 169.689 75.0428 169.402 73.8594C169.574 74.8174 169.746 75.9444 169.918 77.2969C169.975 77.2969 169.975 77.4096 170.032 77.5224Z" fill="#225AEA"/>
<path d="M120.26 37.1703C120.26 37.1703 120.26 37.2266 120.203 37.2266C119.859 37.8465 119.63 39.0863 119.63 39.0863C119.573 39.5935 119.573 39.8189 119.745 39.9879C120.031 40.3261 121.349 40.157 122.265 39.5935C122.494 39.4244 122.723 39.2553 122.952 39.1426C123.239 38.9736 123.639 39.0863 123.869 38.8045C123.983 38.6355 123.926 38.1846 123.697 37.5647C123.582 37.2266 123.41 37.0576 123.296 36.8321C123.067 36.494 123.009 36.325 123.181 35.9868C123.239 35.8178 123.353 35.536 123.296 35.2543C123.181 34.9161 122.952 34.6907 122.723 34.578C122.609 34.5217 122.494 34.4089 122.379 34.4089C122.093 34.2962 121.749 34.1835 121.463 34.0708C121.234 33.9581 121.177 33.9018 121.119 33.8454L121.062 33.7891C121.005 33.7891 119 34.2962 120.26 34.9725C120.318 35.0288 120.375 35.0288 120.547 35.0288C120.489 35.0852 120.432 35.0852 120.375 35.1415C119.573 35.536 119.344 35.7051 119.172 35.9305C119.058 36.0432 118.886 36.2686 118.943 36.6631C119 36.7758 119.058 36.9449 119.401 37.1139C119.745 37.1139 120.031 37.0576 120.26 37.1703Z" fill="#225AEA"/>
<path d="M38.6414 14.4609C38.4695 14.5736 36.8659 15.4189 36.8086 15.5317C36.9231 15.5317 36.9804 15.5317 38.6414 14.4609Z" fill="#225AEA"/>
<path d="M161.728 73.5215C161.728 73.4652 161.041 72.5072 161.041 72.5072C160.926 72.3381 160.754 72.3381 160.697 72.2818C160.468 72.2254 160.182 72.2254 159.953 72.1691C159.552 72 159.552 72 159.494 72C159.323 72 159.265 72.1691 159.38 72.3945C159.609 72.8453 161.27 73.6906 161.728 73.5215Z" fill="#225AEA"/>
<path d="M145.863 62.022C146.035 62.1911 146.321 62.0784 146.379 62.4165C146.436 62.6982 146.321 62.9237 146.379 63.2054C146.436 63.4308 146.608 63.4872 146.665 63.4872C146.837 63.5435 147.753 63.2618 147.753 62.5292C147.753 62.4728 147.753 62.3601 147.753 62.2474C147.696 61.9657 147.581 61.6839 147.524 61.3458C147.467 61.0076 147.524 60.7259 147.467 60.3878C147.409 59.8806 147.18 59.8242 147.009 59.8242C146.722 59.8242 145.978 60.106 145.748 60.5568C145.691 60.7822 145.634 61.7966 145.863 62.022Z" fill="#225AEA"/>
<path d="M141.336 61.8536C141.336 61.8536 141.68 61.4591 141.68 61.4027C141.737 61.2337 141.45 61.121 140.992 61.0646C140.477 61.0083 139.732 61.121 140.019 61.4591C140.19 61.6281 140.82 61.9099 141.107 61.9099C141.221 61.9663 141.279 61.9099 141.336 61.8536Z" fill="#225AEA"/>
<path d="M145.863 57.7961C145.805 57.8524 145.691 57.9088 145.748 58.0778C145.748 58.1342 145.805 58.2469 145.863 58.3033C145.863 58.3033 146.55 59.1486 146.607 59.1486C146.779 59.0922 146.607 57.8524 146.493 57.1762C146.493 57.1762 146.264 56.2182 146.149 56.1055C146.149 56.1055 146.092 56.1618 146.092 56.2182V56.2745C146.034 56.5563 146.149 56.8944 146.149 57.1762C146.149 57.5707 145.977 57.7397 145.863 57.7961Z" fill="#225AEA"/>
<path d="M164.649 75.7743C164.649 75.7743 165.049 75.8306 165.107 75.8306C165.164 75.7743 165.279 74.8163 165.279 74.8163V74.7599C165.279 74.6472 165.279 74.6472 165.221 74.6472C165.107 74.6472 164.992 74.7036 164.878 74.7036C164.82 74.7036 164.706 74.6472 164.649 74.6472C164.534 74.5908 164.477 74.4781 164.362 74.4218C164.248 74.3654 164.248 74.4218 164.19 74.4781C164.076 74.6472 164.19 75.3234 164.477 75.6616C164.477 75.7179 164.591 75.7179 164.649 75.7743Z" fill="#225AEA"/>
<path d="M29.8207 20.8823C29.878 20.9387 29.878 20.9387 29.8207 20.8823C29.878 20.8823 29.9352 20.8823 29.9352 20.8823C30.4507 20.5442 30.8516 20.1497 31.3671 19.7552C32.2835 19.1353 33.2571 18.6282 34.1162 18.0083C34.3453 17.8392 34.3453 17.8392 34.5744 17.3884V17.332C34.2881 17.3884 34.059 17.6138 33.7726 17.7265C34.0017 17.5574 34.0017 17.5574 34.059 17.3884C34.059 17.3884 34.059 17.3884 34.0017 17.3884C33.9444 17.3884 33.9444 17.3884 33.8871 17.4447C32.7989 17.8956 32.7989 17.8956 27.8734 21.8403C27.4724 22.1784 27.1288 22.4602 26.7852 23.1928H26.8424C28.0452 22.6293 28.847 21.6712 29.8207 20.8823Z" fill="#225AEA"/>
<path d="M36.6934 16.3733C36.808 16.3733 37.2089 16.1479 37.6098 15.9788C39.0989 15.1335 39.9008 14.7954 39.9008 14.7954C40.359 14.6263 40.8744 14.4573 41.3326 14.2318C41.6763 14.0628 43.1081 13.1048 43.1081 13.0484C43.3945 12.8794 43.3945 12.823 43.4518 12.7667C43.2799 12.7667 43.0508 12.8794 43.0508 12.8794C42.6499 13.1048 42.249 13.4429 41.8481 13.6683C42.3636 13.1611 42.9936 12.7667 43.509 12.2031H43.4518C43.4518 12.2031 41.6763 13.1048 41.619 13.3302C41.5617 13.4993 41.3326 13.9501 40.0153 14.2318C40.0153 14.2318 40.0153 14.2318 40.0153 14.1755C40.0726 14.1191 40.0726 14.1191 40.1299 14.0628C40.1299 14.0628 40.1299 14.0628 40.1871 14.0064C40.359 13.8374 40.989 13.6683 40.7599 13.4429C40.7026 13.4429 37.1516 15.1335 37.1516 15.6407C37.1516 15.6407 37.1516 15.6407 38.8698 14.739C38.698 15.0208 38.3544 15.1335 38.1253 15.3026C38.1826 15.3026 38.1826 15.3026 38.5835 15.0771C38.698 15.0208 38.9271 14.9081 39.328 14.739C38.9271 15.0208 37.6671 15.6407 36.9225 15.9788C36.5789 16.2042 36.5216 16.3169 36.6934 16.3733Z" fill="#225AEA"/>
<path d="M26.7266 25.0519C27.013 25.1082 27.1848 24.8828 27.4139 24.8828C27.4139 24.8828 27.4139 24.9392 27.4712 24.9392C27.3566 25.2209 27.0702 25.39 26.8984 25.6718C27.1848 25.6718 29.5903 24.601 30.9649 23.5303C31.4231 23.1922 31.5949 23.0231 31.824 22.9668C31.824 22.9668 31.8813 22.9668 31.8813 23.0232C31.7667 23.2486 31.7667 23.2486 31.7667 23.3049C31.8813 23.4176 32.7976 23.5867 32.7976 23.5867C33.6568 23.3049 33.6568 23.3049 34.5159 22.4033C34.5159 22.3469 34.5731 22.3469 34.5731 22.3469C34.4586 22.3469 34.4586 22.3469 33.714 22.7414C33.8286 22.4596 34.6304 21.8397 35.2032 21.8961C35.4323 21.8961 35.4323 21.8961 35.5468 21.8397C35.5468 21.8397 36.005 21.4453 35.8904 21.1071C35.4323 20.8817 35.2604 20.3745 35.4895 20.0928C35.7186 19.811 37.5514 17.6132 37.4941 17.4442C37.3796 17.3878 37.3223 17.3878 37.2077 17.3315C37.2077 17.3315 37.2078 17.2751 37.1505 17.2188C36.2914 17.9513 35.7186 18.9094 34.6877 19.4729C34.5731 19.0784 35.0313 18.9657 35.1459 18.6276L35.0886 18.5712C34.6877 18.7403 34.344 19.0221 33.9431 19.0784C34.0577 18.9094 34.2868 18.7966 34.344 18.5712L34.2868 18.5149C33.714 18.6839 33.3131 19.1348 32.7976 19.3038C33.1413 18.853 33.6568 18.6276 34.0577 18.2331C33.714 18.2895 29.3612 21.0508 29.4185 21.558C29.4758 21.558 29.533 21.6143 29.5903 21.6707C29.533 21.7834 29.4758 21.8397 28.9603 22.1215C28.1012 22.6287 28.0439 22.7414 28.0439 22.8541C28.1012 22.8541 28.1585 22.9104 28.2157 22.8541C28.6739 22.7414 29.0748 22.4596 29.5903 22.3469C29.9339 22.2906 30.2776 22.4033 30.6212 22.3469C29.9912 22.7977 29.1894 23.0795 28.8457 23.1359C26.5548 23.9812 26.3257 24.9392 26.7266 25.0519Z" fill="#225AEA"/>
<path d="M46.8303 29.1691C46.8876 29 46.7158 29 46.544 29C46.544 29 45.8567 29.1127 45.6848 29.3381C45.4558 29.6199 45.513 30.0144 45.6276 30.1271C45.8567 30.2961 46.7158 29.3945 46.8303 29.1691Z" fill="#225AEA"/>
<path d="M45.6853 27.5906C45.6853 27.5906 45.7999 27.5342 45.8572 27.4779C45.9144 27.3088 45.7999 27.0834 45.7426 27.0271C45.5708 26.9144 45.399 26.8016 45.2844 26.6889C45.0553 26.4635 44.9408 26.1254 44.6544 25.9C44.5971 25.8436 44.5399 25.8436 44.4826 25.7873C44.1962 25.6182 43.8526 25.6746 43.5662 25.5055C43.3944 25.3928 43.3944 25.1674 43.2226 25.0547H43.1653C42.9362 25.1674 42.0771 26.3508 42.0198 26.4072C41.9052 26.5762 41.7907 26.7453 41.6762 26.9144L40.7598 28.3795C41.3325 28.4359 41.3325 28.4359 41.3325 28.7177C41.3898 29.0558 41.3898 29.0558 41.4471 29.0558C41.5043 29.0558 41.6762 28.9431 41.9625 28.6613C42.4207 28.3232 43.108 27.7033 43.9671 27.5906C44.5399 27.4779 45.1126 27.7597 45.6853 27.5906Z" fill="#225AEA"/>
<path d="M44.1957 28.6045C44.1957 28.6045 42.9357 28.8863 42.5348 29.168C42.3057 29.3371 42.2484 29.8443 42.4202 29.957C42.6493 30.126 44.1957 29.2244 44.4821 28.8299C44.5394 28.6609 44.5966 28.5481 44.1957 28.6045Z" fill="#225AEA"/>
<path d="M40.9887 96.6268C40.5305 96.7959 40.8169 97.5285 41.1032 97.6412C41.2751 97.6975 42.5351 97.923 42.4778 97.4158C42.4778 97.134 41.6187 96.5141 40.9887 96.6268Z" fill="#225AEA"/>
<path d="M125.93 36.832C125.873 36.832 125.873 36.8884 125.873 37.0011L126.446 37.0574C126.159 36.8884 125.988 36.832 125.93 36.832Z" fill="#225AEA"/>
<path d="M68.8823 42.9752C69.455 42.2426 69.6841 41.7918 69.6268 41.5664C69.5695 41.5664 69.5695 41.5664 69.5123 41.5664C69.2259 41.6791 68.3668 42.3554 67.7368 43.1443C66.9922 44.046 66.4767 45.173 65.6749 46.0747C65.274 46.5819 64.7012 46.92 64.3576 47.4272C64.1858 47.6526 64.3576 47.7089 64.4149 47.7089C64.5294 47.7653 64.5294 47.7653 66.7631 47.9343C68.0804 48.047 68.9968 48.1598 70.0277 48.4415C70.1423 48.4979 70.3141 48.4979 70.4286 48.5542C70.7723 48.5542 71.1732 48.2161 71.5169 48.6106C71.6887 48.7796 71.6887 49.1178 71.746 49.3432C71.746 49.5686 71.8605 49.6249 71.9178 49.6249C72.2614 49.5686 72.7196 48.8923 72.7769 48.3288C72.8342 47.3708 72.1469 45.9056 71.4023 45.173C71.0014 44.7785 71.0014 44.7785 69.6841 45.0603C69.2832 45.173 69.1686 45.0603 69.1113 44.7222C68.9395 44.1023 68.7677 43.9896 68.5386 43.8769C68.4241 43.8205 68.4241 43.7642 68.4813 43.6515C68.5959 43.3134 68.7677 43.0879 68.8823 42.9752Z" fill="#225AEA"/>
<path d="M121.92 31.3105C121.978 31.7613 121.634 32.2121 121.806 32.663C121.92 32.7193 122.264 32.663 122.894 32.2121C123.123 32.0431 123.352 31.874 123.467 31.9867C124.097 32.3249 123.352 33.0011 123.581 33.5083C124.039 34.5226 124.555 34.6353 125.242 34.8044C126.273 35.0862 126.445 35.0862 126.617 35.2552C126.674 35.4243 126.56 35.5933 126.617 35.7624C126.903 36.2696 127.419 36.6077 127.648 37.1149C127.762 37.6221 127.132 37.3403 126.617 37.1149C126.388 37.0022 126.388 37.0022 125.815 36.9458C126.044 37.6221 126.846 37.9602 126.96 38.6928C127.018 39.0873 126.674 39.3127 126.159 39.5381C126.044 39.5944 125.815 39.7072 125.872 39.8762C125.93 39.9326 126.159 40.2143 127.419 40.2143C127.934 40.2143 129.08 40.158 129.137 40.5525C129.137 40.8906 128.908 40.8906 128.507 40.8906C128.106 40.8906 127.991 41.0033 127.877 41.116C127.59 41.3414 127.533 41.7359 127.304 42.0176C127.018 42.3558 126.617 42.5248 126.273 42.8629C126.273 42.9193 126.273 42.9193 126.273 42.9756C126.445 43.032 126.445 43.032 128.85 42.6939C130.053 42.5248 131.313 42.6375 132.573 42.4685H132.631L134.75 41.7922V41.7359C134.292 41.285 133.776 41.6795 133.261 41.5105C133.031 40.8906 133.604 40.327 133.375 39.7071C132.917 38.5801 132.516 38.6364 132.115 38.6364C131.313 38.6928 130.741 37.5657 130.741 37.5657V37.5094C130.798 37.5094 130.798 37.5094 131.428 37.6221C131.714 37.7348 132.115 37.8475 132.115 37.7348C132.058 37.6784 132.001 37.5657 131.771 37.3967C130.798 36.6641 129.538 36.2696 128.621 35.3679C128.163 34.9171 127.877 34.4099 127.361 34.0718C126.445 33.5083 125.586 33.3956 125.185 33.3392C125.7 32.8884 126.445 30.5215 124.956 30.4652C124.669 30.4652 124.383 30.4652 124.211 30.5215C123.295 30.6342 123.123 30.6342 123.123 30.4088C123.123 29.958 123.925 29.0564 123.238 29C123.238 29 121.462 29.0564 121.176 29.6762C121.176 29.7326 121.176 29.8453 121.176 29.9017C121.462 30.2961 121.806 30.747 121.92 31.3105Z" fill="#225AEA"/>
<path d="M4.1613 54.2446C4.3904 53.7374 4.50495 53.1738 4.73404 52.6103C4.84859 52.2722 5.02041 51.9904 5.13496 51.6523C5.13496 51.5959 5.13496 51.5396 5.19224 51.5396C5.19224 51.5396 5.30678 51.2578 5.13496 51.2578C5.13496 51.2578 5.07769 51.2578 5.07769 51.3142C4.6195 51.7086 4.04676 54.1882 4.1613 54.3009V54.2446Z" fill="#225AEA"/>
<path d="M110.292 19.6433C110.292 19.587 110.292 19.587 110.292 19.5306C110.177 19.3616 109.891 19.0234 109.547 18.9107C109.49 18.9107 109.433 18.8544 109.375 18.8544C108.86 18.7417 108.287 18.8544 107.829 18.629C107.485 18.4599 107.199 18.1218 106.798 18.1781C106.283 18.2908 105.824 18.5163 105.366 18.629C104.908 18.7417 104.393 18.6853 103.934 18.8544C103.648 18.9671 103.877 19.3052 103.591 19.4743C103.362 19.6433 103.075 19.3616 102.846 19.4743C102.789 19.4743 102.732 19.5306 102.732 19.5306C102.617 19.9251 103.018 20.4323 102.56 20.8267C102.388 20.7704 101.357 19.8687 101.128 19.5306C100.727 18.798 99.0089 18.2908 98.4934 18.6853C98.6079 19.0798 99.1234 18.9671 99.2952 19.2489C99.1807 19.8124 98.4934 19.6997 98.207 20.0942C98.3789 20.2069 98.8943 20.1505 99.238 20.0942C99.7534 19.9814 101.472 20.6013 100.498 21.3339C100.899 21.8411 101.414 21.3903 101.873 21.5593C102.331 21.672 102.331 21.8411 102.331 22.2919C102.445 22.4046 102.56 22.4046 103.476 22.3483C104.106 22.2919 104.335 22.2919 104.507 22.2919C104.965 22.3483 105.366 22.5173 105.824 22.5737C105.882 22.5737 105.939 22.5737 105.996 22.5737C106.168 22.5737 106.397 22.5737 107.657 22.2919C108.803 22.0102 110.521 20.7704 110.464 20.4323C110.406 20.2069 110.177 20.0378 110.12 19.8124C110.12 19.6433 110.12 19.6433 110.292 19.6433Z" fill="#225AEA"/>
<path d="M42.5345 94.6537C43.0499 95.2736 46.1427 95.499 46.2 95.1609C46.2 94.9918 42.2481 90.4272 42.1908 90.4272C41.7899 90.1454 40.5299 89.3001 38.2389 89.751C36.9789 90.1454 36.0625 91.0471 36.0625 91.0471C36.2343 91.2162 37.208 91.0471 38.0098 90.5963C39.1553 89.92 39.9571 90.3145 40.0144 90.4836C39.9571 90.5963 39.7853 90.7653 39.4417 90.5399C39.4417 90.5399 39.3844 90.5399 39.3844 90.5963C39.4417 91.1598 40.3581 91.3852 40.9881 91.4979C42.1335 91.7797 42.1908 92.0051 42.4199 92.7377C42.5345 93.0758 42.5917 93.3012 42.8208 93.583C42.9927 93.8084 43.1072 93.9211 43.1072 94.0338C43.1645 94.4283 42.7063 94.4283 42.5345 94.6537Z" fill="#225AEA"/>
<path d="M47.5194 98.3716C47.8631 98.5406 47.5767 99.1605 48.0349 99.1605C48.8367 99.2169 48.7222 98.2025 49.4095 98.0898C49.4667 98.0898 49.5813 98.0898 49.8104 98.1462C51.0131 98.3716 53.1323 98.4279 53.1323 98.4279C53.2468 98.4279 53.3041 98.3716 53.3041 98.3152C53.3041 97.9771 53.0177 97.6953 53.1323 97.3009C53.4186 96.1738 47.634 95.6666 47.2331 95.723C47.1185 95.723 47.1185 95.7793 47.0612 95.7793C47.0612 95.892 47.0612 95.892 47.1185 95.9484C47.9776 96.7373 47.6912 97.639 47.634 97.6953C47.5194 97.808 47.0612 97.6953 46.4312 97.639C45.2857 97.4699 45.1712 97.4699 45.0566 97.5263C45.0566 97.5263 45.0566 97.5826 45.1139 97.5826C45.9158 97.9771 46.7749 97.9771 47.5194 98.3716Z" fill="#225AEA"/>
<path d="M59.2042 45.3964C58.6887 45.5655 59.8342 46.129 60.0633 46.2417C61.5524 46.918 62.0679 46.1854 62.0679 46.1854C62.2397 45.7345 59.7197 45.2837 59.2042 45.3964Z" fill="#225AEA"/>
<path d="M152.85 137.145C151.189 139.23 151.189 139.23 150.101 139.625C149.242 139.906 148.955 140.301 147.638 142.217C147.008 143.175 146.722 143.344 146.092 143.851C144.087 145.373 141.395 148.754 141.338 149.036C142.082 149.036 142.082 149.036 144.774 146.443C147.008 144.358 148.955 141.991 151.132 139.794C151.132 139.85 151.132 139.85 150.96 140.188C151.017 140.132 151.017 140.132 151.246 139.85C151.762 139.23 153.308 137.201 153.537 136.469H153.48C153.251 136.638 153.251 136.638 152.85 137.145Z" fill="#225AEA"/>
<path d="M97.3491 121.873C97.2345 121.253 98.0364 120.464 97.2918 120.07C96.719 119.788 96.2036 120.183 95.6308 120.07C93.8552 119.675 92.7097 118.154 90.9914 117.647C88.4712 116.858 85.8365 116.463 83.3163 115.787C81.8271 115.223 81.7126 113.533 80.7962 112.575C79.2497 111.56 78.0469 109.926 76.4431 109.024C74.3239 107.841 71.6892 108.235 69.5699 106.995C67.9089 105.981 66.7634 104.29 64.9878 103.445C64.7014 103.332 64.3578 103.219 64.0714 103.163C55.3653 101.867 48.5494 100.853 47.7476 107.615C45.1701 105.812 38.526 108.686 39.1561 104.459C39.4997 101.923 38.4115 100.064 38.4115 100.007C36.4068 98.9928 34.3448 100.064 32.3401 99.8945C33.0275 97.6966 33.0275 97.6966 32.512 96.6822C33.3711 94.6534 33.3711 94.6534 33.7148 92.85C33.3139 92.5118 29.9345 89.8067 29.2472 97.3584C28.1017 97.3021 27.3571 98.8801 25.9824 98.1474C22.8322 96.4004 21.8013 94.1461 21.4576 92.9627C20.9994 91.4974 22.2595 90.3703 22.2595 88.9614C22.2595 88.0597 21.0567 87.6652 21.343 86.6508C21.744 85.3546 24.2069 82.875 24.7796 82.4805C25.8106 81.6915 29.7627 82.5932 29.82 82.5932C29.9345 82.4805 30.0491 82.3678 30.1636 82.3114C29.8773 81.9733 29.419 81.8605 29.0754 81.5788C29.0754 81.4661 29.1327 81.297 29.1899 81.1279C29.9918 80.6771 36.2922 80.1135 36.2922 80.1699C38.9842 81.5788 37.3232 85.2983 39.9579 86.8199C42.9936 83.6639 38.1251 80.8461 38.6406 77.6339C39.2133 74.3088 42.5927 73.5762 44.4255 71.4347C44.3682 71.4347 44.3682 71.4347 44.3682 71.4347C44.311 71.322 44.1964 71.2093 44.0819 71.1529C44.0819 71.0402 44.1391 70.8711 44.1391 70.7584C44.2537 70.7021 44.4255 70.7021 44.5401 70.6457C44.5401 70.4766 44.5973 70.3076 44.5973 70.1949C44.4828 70.1385 44.311 70.0822 44.1964 70.0258L44.8265 63.9394C44.8837 64.841 44.8837 67.5461 44.8837 67.5461C45.1701 67.3771 45.1701 67.3771 45.4565 63.3758C45.6856 63.8266 46.0865 64.1084 46.2011 64.6156C46.7738 63.6576 46.5447 62.4741 47.4039 61.6288C47.4039 61.6288 51.0696 59.6563 51.2987 59.7127C51.6424 56.5567 51.6424 56.5567 53.4179 54.9224C53.7043 54.9224 53.7043 54.9224 58.9165 51.9919C58.8592 52.1046 58.8019 52.2173 58.7447 52.33C59.031 52.4427 59.3747 52.4991 59.6611 52.4991C59.6611 52.6118 59.6611 52.7809 59.6611 52.9499C56.5109 55.2042 56.5109 55.2042 56.5109 55.7677C58.5156 55.8241 64.816 52.2173 63.6704 49.4559C62.8113 50.0194 62.754 51.0902 62.2385 51.8228C61.5512 51.6538 61.0357 51.4847 60.5775 51.372C61.0357 51.2593 61.3794 50.8084 61.3794 50.8084C61.3221 50.8084 61.3221 50.8084 61.2076 50.8084C60.4057 50.9211 59.9475 50.7521 59.7756 50.6957C59.3747 50.5266 59.3174 50.2449 59.3174 49.9631C59.3174 49.8504 59.3174 49.8504 59.3174 49.794C59.2602 49.8504 59.031 50.4703 59.2602 50.9211C58.4583 50.583 58.3437 50.1885 58.0573 49.2304C57.3127 48.9487 57.2555 48.8923 56.9691 48.5542C58.0573 48.2724 58.8592 48.047 59.0883 46.9762C58.5156 46.4126 58.5156 46.4126 50.7259 51.2593C56.1099 45.7364 56.1099 45.7364 61.6085 44.1021C62.8686 44.9474 68.539 42.1859 69.3981 40.6643C69.1117 39.9881 69.1117 39.9881 69.5127 39.03C69.4554 38.9173 69.3408 38.7482 69.2836 38.6355C68.8253 38.5228 68.3671 38.4665 67.9089 38.3537C67.508 38.3537 67.508 38.3537 67.508 38.3537C67.2216 38.3537 66.4197 38.4665 64.9305 39.4245C64.8733 39.3118 64.816 39.1427 64.7587 39.03C65.2169 38.4101 65.446 38.2974 67.107 37.6775C63.8423 37.9593 60.6921 38.241 57.1982 38.5792C60.4057 38.241 63.155 38.0156 67.107 37.6775C67.2216 37.6211 67.3362 37.5648 67.3934 37.5084C67.4507 37.3393 66.1906 36.2122 64.5296 36.6067C64.1859 36.7194 64.1859 36.7194 63.9568 36.6631C63.8423 36.3249 64.1287 35.9868 63.8996 35.705C63.6132 35.3105 62.9831 35.4232 62.6967 34.9724C62.5822 34.8033 62.6395 34.6343 62.9259 34.2961C63.2695 33.7889 63.2695 33.7889 62.4676 32.4364C60.463 28.9423 60.463 28.9423 59.4893 30.7457C59.3174 31.0275 59.7184 31.3092 59.4893 31.591C59.2029 31.9292 58.6874 31.591 58.401 31.9855C57.771 32.8309 57.771 32.8309 57.5991 32.8872C56.5109 33.2254 55.7663 32.3237 54.8499 32.1546C54.678 31.8728 55.079 29.9567 55.6517 29.5059C55.079 29.3368 54.5062 29.5622 53.9907 29.3931C53.8762 29.3368 53.7616 29.2804 53.5898 28.9987C53.5325 28.8859 53.4179 28.6605 52.0433 28.2097C51.7569 28.097 51.6424 28.097 51.4705 28.1533C50.2104 28.4914 48.8931 28.2097 47.6903 28.7169C47.9194 29.844 46.4875 30.8584 47.4612 32.0419C47.2893 32.6054 46.5447 32.7745 46.4875 33.4508C46.4302 34.1834 47.2321 34.6342 47.2321 35.3669C47.2321 35.4232 47.2893 38.2974 45.571 38.6919C45.1701 38.8046 44.3682 39.03 44.5401 39.6499C44.4828 39.7626 44.4255 39.819 44.0819 40.0444C43.6236 41.7351 44.7692 43.8766 42.8218 45.1728C42.1917 44.2711 41.1035 43.9893 40.2443 43.3694C40.7025 42.0169 40.5307 41.566 40.2443 40.9461C40.3589 40.8334 40.588 40.6643 40.7025 40.5516C40.7025 40.4953 40.7025 40.3262 40.7025 40.2698C40.5307 40.2698 40.3589 40.2135 40.187 40.2135C39.3852 39.4245 38.4115 40.1571 37.5523 39.9317C36.6932 39.7063 36.235 38.8046 35.3758 38.5228C35.204 38.4665 35.0321 38.4101 34.8603 38.4101C34.0584 38.2974 33.543 38.8609 32.8556 39.03C32.6265 38.8609 32.6265 38.8609 32.3401 37.1139C32.2256 36.494 32.2256 36.494 30.7937 36.3813C30.45 34.5215 35.0321 31.1965 37.0368 29.7313C36.8077 29.1677 36.1777 29.3931 35.7767 29.1114C39.6143 28.4351 39.6143 28.4351 41.7335 26.1809C40.2443 26.4063 39.9579 26.4626 38.7551 25.8427C40.187 25.3355 42.0199 26.2372 43.0509 24.6029C42.9363 24.5465 42.7645 24.4902 42.6499 24.4338C42.6499 24.4338 43.3373 23.5885 44.0819 24.0393C46.5447 23.1376 46.5447 23.1376 47.2321 22.5741C47.3466 22.4614 47.5184 22.2923 47.633 22.1232C47.9194 21.6724 47.4612 21.2215 47.6903 20.7707C47.9194 20.3762 48.4349 20.3762 48.7213 20.0944C48.8931 19.869 48.8931 19.6436 49.0076 19.4181C49.0076 19.4181 46.8884 17.333 46.2011 20.2635C44.941 20.9961 44.0246 23.9266 42.4208 22.5741C42.5354 21.6724 44.4255 21.0525 43.5664 20.1508C42.5927 20.5453 42.1917 21.5033 41.4471 22.1232C41.2753 21.616 42.3063 20.3198 42.3063 20.3198C42.249 20.3198 42.249 20.3198 41.3899 20.2635C42.9363 17.8402 42.9363 17.8402 42.9363 17.5584C42.879 17.502 42.7645 17.4457 42.7072 17.3893C43.5664 16.0368 43.5664 16.0368 47.6903 13.6698C47.4039 13.6135 47.4039 13.6135 46.9457 13.7262C43.6809 14.4588 39.2706 20.5453 39.2133 20.6016C39.2706 20.658 39.2706 20.7707 39.3279 20.827C39.6716 20.827 40.0152 20.7707 40.3589 20.7143C40.3589 20.7707 40.4161 20.8834 40.4161 20.9398C39.6716 21.2779 39.557 21.3342 39.2133 21.6724C39.2133 21.8414 39.2133 21.8414 39.2133 21.8414C39.2706 21.8414 39.3852 21.8978 39.4424 21.8978C38.7551 23.0813 37.2087 23.4758 36.6359 24.772C36.1204 24.2084 36.1204 24.2084 37.0941 23.194C36.5213 23.0249 36.5213 23.0249 34.6312 24.4902C34.5167 24.5465 33.8866 24.941 31.5956 24.8283C31.4237 24.6029 31.481 24.3211 31.3092 24.0957C29.419 24.5465 28.9035 25.6173 27.8153 27.7588C27.5862 27.2516 28.1017 26.8008 28.0444 26.2936C27.0134 26.4626 26.2116 27.2516 25.1233 27.0825C25.5815 26.6317 26.3261 26.4626 26.4979 25.73C26.4407 25.6737 26.3834 25.6737 26.3261 25.6173C26.097 25.73 26.0397 25.7864 25.3524 25.6736C25.2951 25.5609 25.1233 25.4482 25.066 25.3355C24.5505 25.4482 24.2641 25.8427 23.8632 26.1245C23.9205 26.0118 24.035 25.7864 24.1496 25.6736C23.8632 25.8427 23.8632 25.8427 23.405 26.2936C23.6341 25.8427 23.6341 25.8427 24.3214 24.941C23.1186 26.0118 23.1186 26.0118 20.8848 27.8715C21.5721 27.1953 22.3167 26.6317 23.0613 25.9554C23.0613 25.9554 21.4576 27.1389 19.5102 29.055C19.5675 28.9423 19.682 28.7732 19.7966 28.6605C18.5938 30.0131 16.9327 31.8165 15.7299 33.169C10.4605 39.9317 10.3459 40.1008 7.99759 43.933V43.8766C8.05487 43.8203 8.05487 43.7639 8.11214 43.7076C6.27929 47.8215 6.27929 47.8215 6.10746 48.836C5.99291 49.1177 5.87836 49.5686 5.7638 49.8504C5.82108 49.9631 5.93563 50.1321 5.99291 50.2449C5.47742 51.8228 5.47742 51.8228 4.96193 54.4715C4.84738 55.0915 4.96193 55.7114 5.19104 56.2749C5.13376 56.2749 4.96193 56.2186 4.7901 56.2186C4.67555 56.2186 4.67555 56.2186 4.61827 56.1622C4.561 56.1059 4.561 56.1059 4.50372 55.8804C4.50372 55.7677 4.38917 55.486 4.27461 55.4296C4.27461 55.4296 4.10278 56.3313 4.27461 57.0639C4.44644 57.6838 4.90465 57.5711 4.90465 57.5711C5.01921 57.5148 5.13376 57.4021 5.19104 57.233C5.24831 57.0639 5.24831 56.9512 5.24831 56.8385C5.24831 56.7258 5.24831 56.6131 5.24831 56.5567C5.24831 56.5567 5.24831 56.5567 5.24831 56.5004C5.5347 57.233 5.70653 57.8529 5.70653 58.4728C5.47742 58.3601 5.19104 58.191 4.96193 58.0783C2.32721 61.2906 1.41078 77.5211 3.18636 80.5644C3.41546 80.6207 3.41546 80.6207 7.253 88.3415C6.96661 88.3415 6.62295 88.3415 6.33657 88.3415C6.79478 89.2995 10.1741 93.5826 10.2314 93.6389C10.5178 93.1881 10.8614 92.7373 9.31495 90.5957C8.62763 89.6377 7.82576 88.5106 6.45112 83.1004C8.16942 84.3402 8.34125 85.1292 8.57036 86.1436C8.74219 86.8762 8.91402 87.6652 9.25768 88.1724C9.945 89.2432 10.8041 90.2576 11.5487 91.272C12.5224 92.6245 14.1262 93.4135 14.9281 94.8788C15.5581 96.0622 15.2717 97.6966 16.5891 98.5983C16.7609 98.711 17.0473 98.8237 17.2764 98.8801C17.6773 99.0491 18.1355 99.2745 18.5365 99.3873C19.9111 99.7254 21.2858 99.9508 22.6604 100.289C24.035 100.627 25.5242 99.8381 26.8989 100.627C30.0491 102.374 30.0491 102.374 31.1373 102.487C31.3092 102.487 31.5383 102.543 31.7101 102.543C36.6359 103.219 38.6978 109.25 44.1391 109.08C46.5447 105.136 48.0339 109.869 48.5494 112.067C48.7213 112.744 48.7213 112.744 47.3466 115.674C47.3466 115.73 46.0293 120.972 46.602 121.986C46.7166 122.155 46.8311 122.38 46.8884 122.493C48.664 125.086 55.9381 132.186 55.9954 132.243C57.771 133.764 60.1766 134.103 62.0667 135.399C63.4986 136.413 64.5869 138.386 65.1024 140.978C65.1024 141.091 67.9089 153.433 72.7774 160.139C78.9633 168.649 84.9201 167.747 84.9773 167.691C79.2497 164.76 79.2497 164.76 79.7652 162.393C78.9633 161.548 78.9633 161.548 77.4741 157.49C77.7032 157.434 77.7032 157.434 78.7915 157.434C78.7915 157.321 78.7915 157.321 77.4741 155.518C78.5051 154.616 78.5051 154.616 78.3905 153.94C78.4478 153.883 78.5624 153.827 78.6196 153.771C80.3952 154.334 81.0253 152.869 80.5098 152.193L79.9943 151.46C84.0609 151.347 85.7792 141.711 85.7792 141.598C86.352 140.358 87.8985 139.625 88.5285 139.4C89.9604 138.836 89.9604 137.146 90.9914 136.244C91.4496 135.85 91.8505 135.85 92.1942 135.85C92.767 135.906 92.8242 135.906 92.9388 135.399C93.1106 134.215 92.9961 132.975 93.0533 131.736C93.1106 131.059 92.6524 130.383 93.1106 129.707C93.6261 128.918 93.8552 128.636 93.4543 128.129C93.397 128.016 93.2824 127.903 93.2824 127.791C96.6618 126.551 97.8646 122.944 97.8646 122.944C97.8646 122.888 97.8646 122.831 97.8646 122.831C97.75 122.55 97.4064 122.268 97.3491 121.873ZM12.2361 46.4126C13.4389 46.0182 14.699 45.68 16.0163 45.2855C14.7562 45.68 13.4389 46.0182 12.2361 46.4126ZM50.7259 115.28C52.2724 115.111 53.8189 114.885 55.4799 114.716C53.9334 114.885 52.387 115.054 50.7259 115.28ZM85.0919 136.413C85.0346 135.85 84.8055 133.877 84.5191 130.496C84.691 132.468 84.9201 134.441 85.0919 136.526C85.1492 136.526 85.1492 136.469 85.0919 136.413ZM83.4882 117.928C83.4882 118.041 83.4882 118.154 83.4882 118.266C83.4882 118.154 83.4882 118.041 83.4882 117.928Z" fill="#225AEA"/>
<path d="M55.1938 98.825C54.7357 99.1068 55.3084 99.7267 55.8811 99.8394C56.282 99.8957 57.5994 99.7267 57.6566 99.614C57.7139 99.5576 57.5994 99.3885 56.6257 99.1068C55.5375 98.7123 55.3657 98.7687 55.1938 98.825Z" fill="#225AEA"/>
<circle cx="22.4835" cy="57.4581" r="3.74712" fill="white" fill-opacity="0.5"/>
<circle cx="22.4842" cy="57.4588" r="2.81034" fill="white" fill-opacity="0.7"/>
<circle cx="22.4832" cy="57.4558" r="1.5613" fill="#225AEA"/>
<circle cx="82.753" cy="13.1143" r="3.74712" fill="white" fill-opacity="0.5"/>
<circle cx="82.7537" cy="13.115" r="2.81034" fill="white" fill-opacity="0.7"/>
<circle cx="82.7527" cy="13.1121" r="1.5613" fill="#225AEA"/>
<circle cx="62.4542" cy="112.419" r="3.74712" fill="white" fill-opacity="0.5"/>
<circle cx="62.4549" cy="112.42" r="2.81034" fill="white" fill-opacity="0.7"/>
<circle cx="62.4539" cy="112.417" r="1.5613" fill="#225AEA"/>
<circle cx="76.5059" cy="140.522" r="2.49808" fill="white" fill-opacity="0.5"/>
<circle cx="76.5044" cy="140.522" r="1.87356" fill="white" fill-opacity="0.7"/>
<circle cx="76.5057" cy="140.521" r="1.04087" fill="#225AEA"/>
<circle cx="133.341" cy="91.4971" r="3.74712" fill="white" fill-opacity="0.5"/>
<circle cx="133.342" cy="91.4978" r="2.81034" fill="white" fill-opacity="0.7"/>
<circle cx="133.341" cy="91.4949" r="1.5613" fill="#225AEA"/>
<circle cx="160.509" cy="104.923" r="3.74712" fill="white" fill-opacity="0.5"/>
<circle cx="160.51" cy="104.924" r="2.81034" fill="white" fill-opacity="0.7"/>
<circle cx="160.509" cy="104.921" r="1.5613" fill="#225AEA"/>
<circle cx="148.955" cy="47.4666" r="2.81034" fill="white" fill-opacity="0.5"/>
<circle cx="148.955" cy="47.4671" r="2.10776" fill="white" fill-opacity="0.7"/>
<circle cx="148.954" cy="47.4678" r="1.17098" fill="#225AEA"/>
<circle cx="146.145" cy="134.279" r="2.49808" fill="white" fill-opacity="0.5"/>
<circle cx="146.143" cy="134.28" r="1.87356" fill="white" fill-opacity="0.7"/>
<circle cx="146.144" cy="134.279" r="1.04087" fill="#225AEA"/>
<circle cx="23.42" cy="35.2871" r="2.49808" fill="white" fill-opacity="0.5"/>
<circle cx="23.4185" cy="35.2876" r="1.87356" fill="white" fill-opacity="0.7"/>
<circle cx="23.4198" cy="35.287" r="1.04087" fill="#225AEA"/>
</g>
<defs>
<clipPath id="clip0_9787_5315">
<rect width="173" height="173" fill="white"/>
</clipPath>
</defs>
</svg>
