<svg width="271" height="170" viewBox="0 0 271 170" fill="none" xmlns="http://www.w3.org/2000/svg">
<g clip-path="url(#clip0_9787_5309)">
<g filter="url(#filter0_f_9787_5309)">
<path d="M17.5058 74.0686C17.5058 74.0686 2.84083 85.1645 0.207031 86.3133V130.824H271.114V9.13672L220.078 41.6895L170.201 26.2603L119.635 80.2375L70.0675 49.1365L17.5058 74.0686Z" fill="url(#paint0_linear_9787_5309)"/>
</g>
<g filter="url(#filter1_f_9787_5309)">
<path d="M0.207031 86.3133C2.84083 85.1645 20.8491 71.8417 20.8491 71.8417L70.0675 49.3934L119.635 80.4944L169.385 26.3992L220.022 41.6035L271.114 9.13672" stroke="#4096FF" stroke-width="1.50359"/>
</g>
<g filter="url(#filter2_d_9787_5309)">
<path d="M0.207031 86.3133C2.84083 85.1645 20.8491 71.8417 20.8491 71.8417L70.0675 49.3934L119.635 80.4944L169.385 26.3992L220.022 41.6035L271.114 9.13672" stroke="#4096FF" stroke-width="1.50359"/>
</g>
<path d="M119.637 79.7734V101.051" stroke="#D0DDF3" stroke-width="1.07665" stroke-dasharray="4.31 4.31"/>
<g filter="url(#filter3_d_9787_5309)">
<path d="M119.737 83.1535C121.815 83.1535 123.5 81.8678 123.5 80.2818C123.5 78.6959 121.815 77.4102 119.737 77.4102C117.659 77.4102 115.975 78.6959 115.975 80.2818C115.975 81.8678 117.659 83.1535 119.737 83.1535Z" fill="white"/>
<path d="M122.339 80.2829C122.339 81.363 121.188 82.2573 119.738 82.2573C118.288 82.2573 117.137 81.363 117.137 80.2829C117.137 79.2029 118.288 78.3086 119.738 78.3086C121.188 78.3086 122.339 79.2029 122.339 80.2829Z" stroke="#1677FF" stroke-width="3.75898"/>
</g>
<path d="M69.7363 49.4375V101.051" stroke="#D0DDF3" stroke-width="1.07665" stroke-dasharray="4.31 4.31"/>
<g filter="url(#filter4_d_9787_5309)">
<path d="M69.8388 52.3098C71.9168 52.3098 73.6014 51.0241 73.6014 49.4381C73.6014 47.8521 71.9168 46.5664 69.8388 46.5664C67.7607 46.5664 66.0762 47.8521 66.0762 49.4381C66.0762 51.0241 67.7607 52.3098 69.8388 52.3098Z" fill="white"/>
<path d="M72.4408 49.4393C72.4408 50.5193 71.2895 51.4136 69.8395 51.4136C68.3894 51.4136 67.2383 50.5193 67.2383 49.4393C67.2383 48.3592 68.3894 47.4648 69.8395 47.4648C71.2895 47.4648 72.4408 48.3592 72.4408 49.4393Z" stroke="#1677FF" stroke-width="3.75898"/>
</g>
<path d="M169.537 27.582V101.051" stroke="#D0DDF3" stroke-width="1.07665" stroke-dasharray="4.31 4.31"/>
<g filter="url(#filter5_d_9787_5309)">
<path d="M169.507 29.2043C171.585 29.2043 173.269 27.9186 173.269 26.3326C173.269 24.7466 171.585 23.4609 169.507 23.4609C167.429 23.4609 165.744 24.7466 165.744 26.3326C165.744 27.9186 167.429 29.2043 169.507 29.2043Z" fill="white"/>
<path d="M172.108 26.3337C172.108 27.4137 170.957 28.308 169.507 28.308C168.057 28.308 166.906 27.4137 166.906 26.3337C166.906 25.2536 168.057 24.3594 169.507 24.3594C170.957 24.3594 172.108 25.2536 172.108 26.3337Z" stroke="#1677FF" stroke-width="3.75898"/>
</g>
<path opacity="0.5" d="M174.917 26.3311C174.917 28.609 172.497 30.4592 169.505 30.4592C166.514 30.4592 164.094 28.609 164.094 26.3311C164.094 24.0534 166.514 22.2031 169.505 22.2031C172.497 22.2031 174.917 24.0534 174.917 26.3311Z" stroke="#1677FF" stroke-width="0.751795"/>
<path opacity="0.1" d="M176.797 26.3334C176.797 29.4042 173.535 31.8973 169.504 31.8973C165.473 31.8973 162.211 29.4042 162.211 26.3334C162.211 23.2626 165.473 20.7695 169.504 20.7695C173.535 20.7695 176.797 23.2626 176.797 26.3334Z" stroke="#1677FF" stroke-width="0.751795"/>
<path d="M21.166 71.9805V101.054" stroke="#D0DDF3" stroke-width="1.07665" stroke-dasharray="4.31 4.31"/>
<g filter="url(#filter6_d_9787_5309)">
<path d="M20.8349 74.8488C22.9129 74.8488 24.5975 73.5631 24.5975 71.9771C24.5975 70.3912 22.9129 69.1055 20.8349 69.1055C18.7568 69.1055 17.0723 70.3912 17.0723 71.9771C17.0723 73.5631 18.7568 74.8488 20.8349 74.8488Z" fill="white"/>
<path d="M23.4366 71.9782C23.4366 73.0583 22.2856 73.9526 20.8355 73.9526C19.3855 73.9526 18.2344 73.0583 18.2344 71.9782C18.2344 70.8982 19.3855 70.0039 20.8355 70.0039C22.2856 70.0039 23.4366 70.8982 23.4366 71.9782Z" stroke="#1677FF" stroke-width="3.75898"/>
</g>
<g filter="url(#filter7_d_9787_5309)">
<path d="M219.936 44.298C222.014 44.298 223.699 43.0124 223.699 41.4264C223.699 39.8404 222.014 38.5547 219.936 38.5547C217.858 38.5547 216.174 39.8404 216.174 41.4264C216.174 43.0124 217.858 44.298 219.936 44.298Z" fill="white"/>
<path d="M222.538 41.4274C222.538 42.5074 221.387 43.4017 219.937 43.4017C218.487 43.4017 217.336 42.5074 217.336 41.4274C217.336 40.3474 218.487 39.4531 219.937 39.4531C221.387 39.4531 222.538 40.3474 222.538 41.4274Z" stroke="#1677FF" stroke-width="3.75898"/>
</g>
</g>
<path d="M210.632 108.242V107.475L213.513 104.322C213.851 103.952 214.129 103.631 214.348 103.359C214.567 103.083 214.729 102.825 214.834 102.583C214.942 102.339 214.996 102.083 214.996 101.816C214.996 101.509 214.922 101.244 214.774 101.019C214.629 100.795 214.43 100.621 214.177 100.499C213.925 100.377 213.64 100.316 213.325 100.316C212.99 100.316 212.697 100.386 212.447 100.525C212.2 100.661 212.008 100.853 211.872 101.1C211.738 101.347 211.672 101.637 211.672 101.969H210.666C210.666 101.458 210.784 101.009 211.02 100.623C211.256 100.237 211.577 99.9354 211.983 99.7195C212.392 99.5036 212.851 99.3956 213.359 99.3956C213.871 99.3956 214.324 99.5036 214.719 99.7195C215.113 99.9354 215.423 100.227 215.648 100.593C215.872 100.96 215.984 101.367 215.984 101.816C215.984 102.137 215.926 102.451 215.809 102.758C215.696 103.062 215.497 103.401 215.213 103.776C214.932 104.148 214.541 104.603 214.041 105.14L212.081 107.237V107.305H216.138V108.242H210.632ZM220.744 108.362C220.102 108.362 219.555 108.187 219.104 107.837C218.652 107.485 218.307 106.975 218.068 106.308C217.829 105.637 217.71 104.827 217.71 103.879C217.71 102.935 217.829 102.13 218.068 101.462C218.309 100.792 218.656 100.281 219.108 99.9283C219.562 99.5732 220.108 99.3956 220.744 99.3956C221.381 99.3956 221.925 99.5732 222.376 99.9283C222.831 100.281 223.177 100.792 223.416 101.462C223.657 102.13 223.778 102.935 223.778 103.879C223.778 104.827 223.659 105.637 223.42 106.308C223.182 106.975 222.836 107.485 222.385 107.837C221.933 108.187 221.386 108.362 220.744 108.362ZM220.744 107.424C221.381 107.424 221.875 107.117 222.227 106.504C222.579 105.89 222.756 105.015 222.756 103.879C222.756 103.123 222.675 102.479 222.513 101.948C222.354 101.417 222.123 101.012 221.822 100.734C221.524 100.455 221.165 100.316 220.744 100.316C220.113 100.316 219.621 100.627 219.265 101.249C218.91 101.869 218.733 102.745 218.733 103.879C218.733 104.634 218.812 105.276 218.971 105.805C219.131 106.333 219.359 106.735 219.657 107.011C219.959 107.286 220.321 107.424 220.744 107.424ZM225.398 108.242V107.475L228.278 104.322C228.616 103.952 228.895 103.631 229.113 103.359C229.332 103.083 229.494 102.825 229.599 102.583C229.707 102.339 229.761 102.083 229.761 101.816C229.761 101.509 229.687 101.244 229.54 101.019C229.395 100.795 229.196 100.621 228.943 100.499C228.69 100.377 228.406 100.316 228.091 100.316C227.756 100.316 227.463 100.386 227.213 100.525C226.966 100.661 226.774 100.853 226.638 101.1C226.504 101.347 226.437 101.637 226.437 101.969H225.432C225.432 101.458 225.55 101.009 225.785 100.623C226.021 100.237 226.342 99.9354 226.748 99.7195C227.157 99.5036 227.616 99.3956 228.125 99.3956C228.636 99.3956 229.089 99.5036 229.484 99.7195C229.879 99.9354 230.189 100.227 230.413 100.593C230.638 100.96 230.75 101.367 230.75 101.816C230.75 102.137 230.692 102.451 230.575 102.758C230.461 103.062 230.263 103.401 229.979 103.776C229.697 104.148 229.307 104.603 228.807 105.14L226.846 107.237V107.305H230.903V108.242H225.398ZM232.271 106.452V105.583L236.106 99.5149H236.737V100.862H236.311L233.413 105.447V105.515H238.578V106.452H232.271ZM236.379 108.242V106.188V105.783V99.5149H237.385V108.242H236.379Z" fill="#BBC7DD"/>
<path d="M156.567 108.242V107.475L159.448 104.322C159.786 103.952 160.065 103.631 160.283 103.359C160.502 103.083 160.664 102.825 160.769 102.583C160.877 102.339 160.931 102.083 160.931 101.816C160.931 101.509 160.857 101.244 160.71 101.019C160.565 100.795 160.366 100.621 160.113 100.499C159.86 100.377 159.576 100.316 159.261 100.316C158.925 100.316 158.633 100.386 158.383 100.525C158.136 100.661 157.944 100.853 157.808 101.1C157.674 101.347 157.607 101.637 157.607 101.969H156.602C156.602 101.458 156.719 101.009 156.955 100.623C157.191 100.237 157.512 99.9354 157.918 99.7195C158.327 99.5036 158.786 99.3956 159.295 99.3956C159.806 99.3956 160.259 99.5036 160.654 99.7195C161.049 99.9354 161.359 100.227 161.583 100.593C161.808 100.96 161.92 101.367 161.92 101.816C161.92 102.137 161.862 102.451 161.745 102.758C161.631 103.062 161.433 103.401 161.148 103.776C160.867 104.148 160.477 104.603 159.977 105.14L158.016 107.237V107.305H162.073V108.242H156.567ZM166.68 108.362C166.038 108.362 165.491 108.187 165.039 107.837C164.587 107.485 164.242 106.975 164.004 106.308C163.765 105.637 163.646 104.827 163.646 103.879C163.646 102.935 163.765 102.13 164.004 101.462C164.245 100.792 164.592 100.281 165.043 99.9283C165.498 99.5732 166.043 99.3956 166.68 99.3956C167.316 99.3956 167.86 99.5732 168.312 99.9283C168.766 100.281 169.113 100.792 169.352 101.462C169.593 102.13 169.714 102.935 169.714 103.879C169.714 104.827 169.594 105.637 169.356 106.308C169.117 106.975 168.772 107.485 168.32 107.837C167.869 108.187 167.322 108.362 166.68 108.362ZM166.68 107.424C167.316 107.424 167.81 107.117 168.163 106.504C168.515 105.89 168.691 105.015 168.691 103.879C168.691 103.123 168.61 102.479 168.448 101.948C168.289 101.417 168.059 101.012 167.758 100.734C167.46 100.455 167.1 100.316 166.68 100.316C166.049 100.316 165.556 100.627 165.201 101.249C164.846 101.869 164.668 102.745 164.668 103.879C164.668 104.634 164.748 105.276 164.907 105.805C165.066 106.333 165.295 106.735 165.593 107.011C165.894 107.286 166.256 107.424 166.68 107.424ZM171.333 108.242V107.475L174.214 104.322C174.552 103.952 174.83 103.631 175.049 103.359C175.268 103.083 175.43 102.825 175.535 102.583C175.643 102.339 175.697 102.083 175.697 101.816C175.697 101.509 175.623 101.244 175.475 101.019C175.33 100.795 175.131 100.621 174.879 100.499C174.626 100.377 174.342 100.316 174.026 100.316C173.691 100.316 173.398 100.386 173.148 100.525C172.901 100.661 172.71 100.853 172.573 101.1C172.44 101.347 172.373 101.637 172.373 101.969H171.367C171.367 101.458 171.485 101.009 171.721 100.623C171.957 100.237 172.278 99.9354 172.684 99.7195C173.093 99.5036 173.552 99.3956 174.06 99.3956C174.572 99.3956 175.025 99.5036 175.42 99.7195C175.815 99.9354 176.124 100.227 176.349 100.593C176.573 100.96 176.685 101.367 176.685 101.816C176.685 102.137 176.627 102.451 176.511 102.758C176.397 103.062 176.198 103.401 175.914 103.776C175.633 104.148 175.242 104.603 174.742 105.14L172.782 107.237V107.305H176.839V108.242H171.333ZM181.548 108.362C180.985 108.362 180.484 108.265 180.043 108.072C179.606 107.879 179.258 107.61 178.999 107.266C178.744 106.92 178.604 106.518 178.582 106.06H179.656C179.678 106.342 179.775 106.585 179.945 106.789C180.116 106.991 180.339 107.147 180.614 107.258C180.89 107.369 181.195 107.424 181.531 107.424C181.906 107.424 182.238 107.359 182.528 107.228C182.817 107.097 183.045 106.915 183.21 106.683C183.374 106.45 183.457 106.18 183.457 105.873C183.457 105.552 183.377 105.269 183.218 105.025C183.059 104.778 182.826 104.585 182.519 104.445C182.212 104.306 181.837 104.237 181.394 104.237H180.695V103.299H181.394C181.741 103.299 182.045 103.237 182.306 103.112C182.57 102.987 182.776 102.81 182.924 102.583C183.075 102.356 183.15 102.089 183.15 101.782C183.15 101.487 183.085 101.229 182.954 101.011C182.823 100.792 182.638 100.621 182.4 100.499C182.164 100.377 181.886 100.316 181.565 100.316C181.263 100.316 180.979 100.371 180.712 100.482C180.448 100.59 180.232 100.748 180.065 100.955C179.897 101.16 179.806 101.407 179.792 101.697H178.769C178.786 101.239 178.924 100.839 179.183 100.495C179.441 100.148 179.779 99.8786 180.197 99.6854C180.617 99.4922 181.079 99.3956 181.582 99.3956C182.121 99.3956 182.585 99.505 182.971 99.7237C183.357 99.9396 183.654 100.225 183.862 100.58C184.069 100.935 184.173 101.319 184.173 101.731C184.173 102.222 184.043 102.641 183.785 102.988C183.529 103.335 183.181 103.575 182.741 103.708V103.776C183.292 103.867 183.722 104.102 184.032 104.479C184.342 104.854 184.496 105.319 184.496 105.873C184.496 106.347 184.367 106.773 184.109 107.151C183.853 107.526 183.504 107.822 183.06 108.038C182.617 108.254 182.113 108.362 181.548 108.362Z" fill="#BBC7DD"/>
<path d="M105.755 108.242V107.475L108.636 104.322C108.974 103.952 109.252 103.631 109.471 103.359C109.69 103.083 109.852 102.825 109.957 102.583C110.065 102.339 110.119 102.083 110.119 101.816C110.119 101.509 110.045 101.244 109.897 101.019C109.752 100.795 109.553 100.621 109.3 100.499C109.048 100.377 108.763 100.316 108.448 100.316C108.113 100.316 107.82 100.386 107.57 100.525C107.323 100.661 107.131 100.853 106.995 101.1C106.862 101.347 106.795 101.637 106.795 101.969H105.789C105.789 101.458 105.907 101.009 106.143 100.623C106.379 100.237 106.7 99.9354 107.106 99.7195C107.515 99.5036 107.974 99.3956 108.482 99.3956C108.994 99.3956 109.447 99.5036 109.842 99.7195C110.237 99.9354 110.546 100.227 110.771 100.593C110.995 100.96 111.107 101.367 111.107 101.816C111.107 102.137 111.049 102.451 110.933 102.758C110.819 103.062 110.62 103.401 110.336 103.776C110.055 104.148 109.664 104.603 109.164 105.14L107.204 107.237V107.305H111.261V108.242H105.755ZM115.867 108.362C115.225 108.362 114.678 108.187 114.227 107.837C113.775 107.485 113.43 106.975 113.191 106.308C112.952 105.637 112.833 104.827 112.833 103.879C112.833 102.935 112.952 102.13 113.191 101.462C113.433 100.792 113.779 100.281 114.231 99.9283C114.685 99.5732 115.231 99.3956 115.867 99.3956C116.504 99.3956 117.048 99.5732 117.499 99.9283C117.954 100.281 118.3 100.792 118.539 101.462C118.781 102.13 118.901 102.935 118.901 103.879C118.901 104.827 118.782 105.637 118.543 106.308C118.305 106.975 117.96 107.485 117.508 107.837C117.056 108.187 116.509 108.362 115.867 108.362ZM115.867 107.424C116.504 107.424 116.998 107.117 117.35 106.504C117.702 105.89 117.879 105.015 117.879 103.879C117.879 103.123 117.798 102.479 117.636 101.948C117.477 101.417 117.246 101.012 116.945 100.734C116.647 100.455 116.288 100.316 115.867 100.316C115.237 100.316 114.744 100.627 114.388 101.249C114.033 101.869 113.856 102.745 113.856 103.879C113.856 104.634 113.935 105.276 114.094 105.805C114.254 106.333 114.482 106.735 114.781 107.011C115.082 107.286 115.444 107.424 115.867 107.424ZM120.521 108.242V107.475L123.401 104.322C123.739 103.952 124.018 103.631 124.237 103.359C124.455 103.083 124.617 102.825 124.722 102.583C124.83 102.339 124.884 102.083 124.884 101.816C124.884 101.509 124.81 101.244 124.663 101.019C124.518 100.795 124.319 100.621 124.066 100.499C123.813 100.377 123.529 100.316 123.214 100.316C122.879 100.316 122.586 100.386 122.336 100.525C122.089 100.661 121.897 100.853 121.761 101.1C121.627 101.347 121.56 101.637 121.56 101.969H120.555C120.555 101.458 120.673 101.009 120.908 100.623C121.144 100.237 121.465 99.9354 121.871 99.7195C122.281 99.5036 122.739 99.3956 123.248 99.3956C123.759 99.3956 124.212 99.5036 124.607 99.7195C125.002 99.9354 125.312 100.227 125.536 100.593C125.761 100.96 125.873 101.367 125.873 101.816C125.873 102.137 125.815 102.451 125.698 102.758C125.585 103.062 125.386 103.401 125.102 103.776C124.82 104.148 124.43 104.603 123.93 105.14L121.969 107.237V107.305H126.026V108.242H120.521ZM127.786 108.242V107.475L130.667 104.322C131.005 103.952 131.283 103.631 131.502 103.359C131.721 103.083 131.883 102.825 131.988 102.583C132.096 102.339 132.15 102.083 132.15 101.816C132.15 101.509 132.076 101.244 131.928 101.019C131.783 100.795 131.585 100.621 131.332 100.499C131.079 100.377 130.795 100.316 130.479 100.316C130.144 100.316 129.852 100.386 129.602 100.525C129.354 100.661 129.163 100.853 129.026 101.1C128.893 101.347 128.826 101.637 128.826 101.969H127.82C127.82 101.458 127.938 101.009 128.174 100.623C128.41 100.237 128.731 99.9354 129.137 99.7195C129.546 99.5036 130.005 99.3956 130.513 99.3956C131.025 99.3956 131.478 99.5036 131.873 99.7195C132.268 99.9354 132.577 100.227 132.802 100.593C133.026 100.96 133.138 101.367 133.138 101.816C133.138 102.137 133.08 102.451 132.964 102.758C132.85 103.062 132.651 103.401 132.367 103.776C132.086 104.148 131.695 104.603 131.195 105.14L129.235 107.237V107.305H133.292V108.242H127.786Z" fill="#BBC7DD"/>
<path d="M6.63778 108.242V107.475L9.51847 104.322C9.85653 103.952 10.1349 103.631 10.3537 103.359C10.5724 103.083 10.7344 102.825 10.8395 102.583C10.9474 102.339 11.0014 102.083 11.0014 101.816C11.0014 101.509 10.9276 101.244 10.7798 101.019C10.6349 100.795 10.4361 100.621 10.1832 100.499C9.9304 100.377 9.64631 100.316 9.33097 100.316C8.99574 100.316 8.70312 100.386 8.45312 100.525C8.20597 100.661 8.0142 100.853 7.87784 101.1C7.74432 101.347 7.67756 101.637 7.67756 101.969H6.67188C6.67188 101.458 6.78977 101.009 7.02557 100.623C7.26136 100.237 7.58239 99.9354 7.98864 99.7195C8.39773 99.5036 8.85653 99.3956 9.36506 99.3956C9.87642 99.3956 10.3295 99.5036 10.7244 99.7195C11.1193 99.9354 11.429 100.227 11.6534 100.593C11.8778 100.96 11.9901 101.367 11.9901 101.816C11.9901 102.137 11.9318 102.451 11.8153 102.758C11.7017 103.062 11.5028 103.401 11.2188 103.776C10.9375 104.148 10.5469 104.603 10.0469 105.14L8.08665 107.237V107.305H12.1435V108.242H6.63778ZM16.75 108.362C16.108 108.362 15.5611 108.187 15.1094 107.837C14.6577 107.485 14.3125 106.975 14.0739 106.308C13.8352 105.637 13.7159 104.827 13.7159 103.879C13.7159 102.935 13.8352 102.13 14.0739 101.462C14.3153 100.792 14.6619 100.281 15.1136 99.9283C15.5682 99.5732 16.1136 99.3956 16.75 99.3956C17.3864 99.3956 17.9304 99.5732 18.3821 99.9283C18.8366 100.281 19.1832 100.792 19.4219 101.462C19.6634 102.13 19.7841 102.935 19.7841 103.879C19.7841 104.827 19.6648 105.637 19.4261 106.308C19.1875 106.975 18.8423 107.485 18.3906 107.837C17.9389 108.187 17.392 108.362 16.75 108.362ZM16.75 107.424C17.3864 107.424 17.8807 107.117 18.233 106.504C18.5852 105.89 18.7614 105.015 18.7614 103.879C18.7614 103.123 18.6804 102.479 18.5185 101.948C18.3594 101.417 18.1293 101.012 17.8281 100.734C17.5298 100.455 17.1705 100.316 16.75 100.316C16.1193 100.316 15.6264 100.627 15.2713 101.249C14.9162 101.869 14.7386 102.745 14.7386 103.879C14.7386 104.634 14.8182 105.276 14.9773 105.805C15.1364 106.333 15.3651 106.735 15.6634 107.011C15.9645 107.286 16.3267 107.424 16.75 107.424ZM21.4034 108.242V107.475L24.2841 104.322C24.6222 103.952 24.9006 103.631 25.1193 103.359C25.3381 103.083 25.5 102.825 25.6051 102.583C25.7131 102.339 25.767 102.083 25.767 101.816C25.767 101.509 25.6932 101.244 25.5455 101.019C25.4006 100.795 25.2017 100.621 24.9489 100.499C24.696 100.377 24.4119 100.316 24.0966 100.316C23.7614 100.316 23.4688 100.386 23.2188 100.525C22.9716 100.661 22.7798 100.853 22.6435 101.1C22.5099 101.347 22.4432 101.637 22.4432 101.969H21.4375C21.4375 101.458 21.5554 101.009 21.7912 100.623C22.027 100.237 22.348 99.9354 22.7543 99.7195C23.1634 99.5036 23.6222 99.3956 24.1307 99.3956C24.642 99.3956 25.0952 99.5036 25.4901 99.7195C25.8849 99.9354 26.1946 100.227 26.419 100.593C26.6435 100.96 26.7557 101.367 26.7557 101.816C26.7557 102.137 26.6974 102.451 26.581 102.758C26.4673 103.062 26.2685 103.401 25.9844 103.776C25.7031 104.148 25.3125 104.603 24.8125 105.14L22.8523 107.237V107.305H26.9091V108.242H21.4034ZM31.5156 108.362C30.8736 108.362 30.3267 108.187 29.875 107.837C29.4233 107.485 29.0781 106.975 28.8395 106.308C28.6009 105.637 28.4815 104.827 28.4815 103.879C28.4815 102.935 28.6009 102.13 28.8395 101.462C29.081 100.792 29.4276 100.281 29.8793 99.9283C30.3338 99.5732 30.8793 99.3956 31.5156 99.3956C32.152 99.3956 32.696 99.5732 33.1477 99.9283C33.6023 100.281 33.9489 100.792 34.1875 101.462C34.429 102.13 34.5497 102.935 34.5497 103.879C34.5497 104.827 34.4304 105.637 34.1918 106.308C33.9531 106.975 33.608 107.485 33.1562 107.837C32.7045 108.187 32.1577 108.362 31.5156 108.362ZM31.5156 107.424C32.152 107.424 32.6463 107.117 32.9986 106.504C33.3509 105.89 33.527 105.015 33.527 103.879C33.527 103.123 33.446 102.479 33.2841 101.948C33.125 101.417 32.8949 101.012 32.5938 100.734C32.2955 100.455 31.9361 100.316 31.5156 100.316C30.8849 100.316 30.392 100.627 30.0369 101.249C29.6818 101.869 29.5043 102.745 29.5043 103.879C29.5043 104.634 29.5838 105.276 29.7429 105.805C29.902 106.333 30.1307 106.735 30.429 107.011C30.7301 107.286 31.0923 107.424 31.5156 107.424Z" fill="#BBC7DD"/>
<path d="M57.5987 108.242V107.475L60.4794 104.322C60.8175 103.952 61.0959 103.631 61.3146 103.359C61.5334 103.083 61.6953 102.825 61.8004 102.583C61.9084 102.339 61.9624 102.083 61.9624 101.816C61.9624 101.509 61.8885 101.244 61.7408 101.019C61.5959 100.795 61.397 100.621 61.1442 100.499C60.8913 100.377 60.6072 100.316 60.2919 100.316C59.9567 100.316 59.6641 100.386 59.4141 100.525C59.1669 100.661 58.9751 100.853 58.8388 101.1C58.7053 101.347 58.6385 101.637 58.6385 101.969H57.6328C57.6328 101.458 57.7507 101.009 57.9865 100.623C58.2223 100.237 58.5433 99.9354 58.9496 99.7195C59.3587 99.5036 59.8175 99.3956 60.326 99.3956C60.8374 99.3956 61.2905 99.5036 61.6854 99.7195C62.0803 99.9354 62.3899 100.227 62.6143 100.593C62.8388 100.96 62.951 101.367 62.951 101.816C62.951 102.137 62.8928 102.451 62.7763 102.758C62.6626 103.062 62.4638 103.401 62.1797 103.776C61.8984 104.148 61.5078 104.603 61.0078 105.14L59.0476 107.237V107.305H63.1044V108.242H57.5987ZM67.7109 108.362C67.0689 108.362 66.522 108.187 66.0703 107.837C65.6186 107.485 65.2734 106.975 65.0348 106.308C64.7962 105.637 64.6768 104.827 64.6768 103.879C64.6768 102.935 64.7962 102.13 65.0348 101.462C65.2763 100.792 65.6229 100.281 66.0746 99.9283C66.5291 99.5732 67.0746 99.3956 67.7109 99.3956C68.3473 99.3956 68.8913 99.5732 69.343 99.9283C69.7976 100.281 70.1442 100.792 70.3828 101.462C70.6243 102.13 70.745 102.935 70.745 103.879C70.745 104.827 70.6257 105.637 70.3871 106.308C70.1484 106.975 69.8033 107.485 69.3516 107.837C68.8999 108.187 68.353 108.362 67.7109 108.362ZM67.7109 107.424C68.3473 107.424 68.8416 107.117 69.1939 106.504C69.5462 105.89 69.7223 105.015 69.7223 103.879C69.7223 103.123 69.6413 102.479 69.4794 101.948C69.3203 101.417 69.0902 101.012 68.7891 100.734C68.4908 100.455 68.1314 100.316 67.7109 100.316C67.0803 100.316 66.5874 100.627 66.2322 101.249C65.8771 101.869 65.6996 102.745 65.6996 103.879C65.6996 104.634 65.7791 105.276 65.9382 105.805C66.0973 106.333 66.326 106.735 66.6243 107.011C66.9254 107.286 67.2876 107.424 67.7109 107.424ZM72.3643 108.242V107.475L75.245 104.322C75.5831 103.952 75.8615 103.631 76.0803 103.359C76.299 103.083 76.4609 102.825 76.5661 102.583C76.674 102.339 76.728 102.083 76.728 101.816C76.728 101.509 76.6541 101.244 76.5064 101.019C76.3615 100.795 76.1626 100.621 75.9098 100.499C75.657 100.377 75.3729 100.316 75.0575 100.316C74.7223 100.316 74.4297 100.386 74.1797 100.525C73.9325 100.661 73.7408 100.853 73.6044 101.1C73.4709 101.347 73.4041 101.637 73.4041 101.969H72.3984C72.3984 101.458 72.5163 101.009 72.7521 100.623C72.9879 100.237 73.3089 99.9354 73.7152 99.7195C74.1243 99.5036 74.5831 99.3956 75.0916 99.3956C75.603 99.3956 76.0561 99.5036 76.451 99.7195C76.8459 99.9354 77.1555 100.227 77.38 100.593C77.6044 100.96 77.7166 101.367 77.7166 101.816C77.7166 102.137 77.6584 102.451 77.5419 102.758C77.4283 103.062 77.2294 103.401 76.9453 103.776C76.6641 104.148 76.2734 104.603 75.7734 105.14L73.8132 107.237V107.305H77.87V108.242H72.3643ZM82.6982 99.5149V108.242H81.6413V100.623H81.5902L79.4595 102.038V100.964L81.6413 99.5149H82.6982Z" fill="#BBC7DD"/>
<defs>
<filter id="filter0_f_9787_5309" x="-3.79297" y="5.13672" width="278.906" height="129.688" filterUnits="userSpaceOnUse" color-interpolation-filters="sRGB">
<feFlood flood-opacity="0" result="BackgroundImageFix"/>
<feBlend mode="normal" in="SourceGraphic" in2="BackgroundImageFix" result="shape"/>
<feGaussianBlur stdDeviation="2" result="effect1_foregroundBlur_9787_5309"/>
</filter>
<filter id="filter1_f_9787_5309" x="-18.1369" y="-9.53919" width="307.698" height="114.586" filterUnits="userSpaceOnUse" color-interpolation-filters="sRGB">
<feFlood flood-opacity="0" result="BackgroundImageFix"/>
<feBlend mode="normal" in="SourceGraphic" in2="BackgroundImageFix" result="shape"/>
<feGaussianBlur stdDeviation="9.02155" result="effect1_foregroundBlur_9787_5309"/>
</filter>
<filter id="filter2_d_9787_5309" x="-18.1369" y="-3.52483" width="307.698" height="114.586" filterUnits="userSpaceOnUse" color-interpolation-filters="sRGB">
<feFlood flood-opacity="0" result="BackgroundImageFix"/>
<feColorMatrix in="SourceAlpha" type="matrix" values="0 0 0 0 0 0 0 0 0 0 0 0 0 0 0 0 0 0 127 0" result="hardAlpha"/>
<feOffset dy="6.01436"/>
<feGaussianBlur stdDeviation="9.02155"/>
<feComposite in2="hardAlpha" operator="out"/>
<feColorMatrix type="matrix" values="0 0 0 0 0.0862745 0 0 0 0 0.466667 0 0 0 0 1 0 0 0 0.3 0"/>
<feBlend mode="normal" in2="BackgroundImageFix" result="effect1_dropShadow_9787_5309"/>
<feBlend mode="normal" in="SourceGraphic" in2="effect1_dropShadow_9787_5309" result="shape"/>
</filter>
<filter id="filter3_d_9787_5309" x="109.243" y="70.4153" width="20.9897" height="19.7358" filterUnits="userSpaceOnUse" color-interpolation-filters="sRGB">
<feFlood flood-opacity="0" result="BackgroundImageFix"/>
<feColorMatrix in="SourceAlpha" type="matrix" values="0 0 0 0 0 0 0 0 0 0 0 0 0 0 0 0 0 0 127 0" result="hardAlpha"/>
<feOffset/>
<feGaussianBlur stdDeviation="3.00718"/>
<feComposite in2="hardAlpha" operator="out"/>
<feColorMatrix type="matrix" values="0 0 0 0 0.0862745 0 0 0 0 0.466667 0 0 0 0 1 0 0 0 0.4 0"/>
<feBlend mode="normal" in2="BackgroundImageFix" result="effect1_dropShadow_9787_5309"/>
<feBlend mode="normal" in="SourceGraphic" in2="effect1_dropShadow_9787_5309" result="shape"/>
</filter>
<filter id="filter4_d_9787_5309" x="59.345" y="39.5716" width="20.9897" height="19.7358" filterUnits="userSpaceOnUse" color-interpolation-filters="sRGB">
<feFlood flood-opacity="0" result="BackgroundImageFix"/>
<feColorMatrix in="SourceAlpha" type="matrix" values="0 0 0 0 0 0 0 0 0 0 0 0 0 0 0 0 0 0 127 0" result="hardAlpha"/>
<feOffset/>
<feGaussianBlur stdDeviation="3.00718"/>
<feComposite in2="hardAlpha" operator="out"/>
<feColorMatrix type="matrix" values="0 0 0 0 0.0862745 0 0 0 0 0.466667 0 0 0 0 1 0 0 0 0.4 0"/>
<feBlend mode="normal" in2="BackgroundImageFix" result="effect1_dropShadow_9787_5309"/>
<feBlend mode="normal" in="SourceGraphic" in2="effect1_dropShadow_9787_5309" result="shape"/>
</filter>
<filter id="filter5_d_9787_5309" x="159.013" y="16.4661" width="20.9897" height="19.7358" filterUnits="userSpaceOnUse" color-interpolation-filters="sRGB">
<feFlood flood-opacity="0" result="BackgroundImageFix"/>
<feColorMatrix in="SourceAlpha" type="matrix" values="0 0 0 0 0 0 0 0 0 0 0 0 0 0 0 0 0 0 127 0" result="hardAlpha"/>
<feOffset/>
<feGaussianBlur stdDeviation="3.00718"/>
<feComposite in2="hardAlpha" operator="out"/>
<feColorMatrix type="matrix" values="0 0 0 0 0.0862745 0 0 0 0 0.466667 0 0 0 0 1 0 0 0 0.4 0"/>
<feBlend mode="normal" in2="BackgroundImageFix" result="effect1_dropShadow_9787_5309"/>
<feBlend mode="normal" in="SourceGraphic" in2="effect1_dropShadow_9787_5309" result="shape"/>
</filter>
<filter id="filter6_d_9787_5309" x="10.3411" y="62.1106" width="20.9897" height="19.7358" filterUnits="userSpaceOnUse" color-interpolation-filters="sRGB">
<feFlood flood-opacity="0" result="BackgroundImageFix"/>
<feColorMatrix in="SourceAlpha" type="matrix" values="0 0 0 0 0 0 0 0 0 0 0 0 0 0 0 0 0 0 127 0" result="hardAlpha"/>
<feOffset/>
<feGaussianBlur stdDeviation="3.00718"/>
<feComposite in2="hardAlpha" operator="out"/>
<feColorMatrix type="matrix" values="0 0 0 0 0.0862745 0 0 0 0 0.466667 0 0 0 0 1 0 0 0 0.4 0"/>
<feBlend mode="normal" in2="BackgroundImageFix" result="effect1_dropShadow_9787_5309"/>
<feBlend mode="normal" in="SourceGraphic" in2="effect1_dropShadow_9787_5309" result="shape"/>
</filter>
<filter id="filter7_d_9787_5309" x="209.443" y="31.5599" width="20.9897" height="19.7358" filterUnits="userSpaceOnUse" color-interpolation-filters="sRGB">
<feFlood flood-opacity="0" result="BackgroundImageFix"/>
<feColorMatrix in="SourceAlpha" type="matrix" values="0 0 0 0 0 0 0 0 0 0 0 0 0 0 0 0 0 0 127 0" result="hardAlpha"/>
<feOffset/>
<feGaussianBlur stdDeviation="3.00718"/>
<feComposite in2="hardAlpha" operator="out"/>
<feColorMatrix type="matrix" values="0 0 0 0 0.0862745 0 0 0 0 0.466667 0 0 0 0 1 0 0 0 0.4 0"/>
<feBlend mode="normal" in2="BackgroundImageFix" result="effect1_dropShadow_9787_5309"/>
<feBlend mode="normal" in="SourceGraphic" in2="effect1_dropShadow_9787_5309" result="shape"/>
</filter>
<linearGradient id="paint0_linear_9787_5309" x1="135.661" y1="27.4437" x2="135.661" y2="130.824" gradientUnits="userSpaceOnUse">
<stop stop-color="#4096FF" stop-opacity="0.2"/>
<stop offset="1" stop-color="#4096FF" stop-opacity="0"/>
</linearGradient>
<clipPath id="clip0_9787_5309">
<rect width="271" height="170" fill="white"/>
</clipPath>
</defs>
</svg>
