<?xml version="1.0" standalone="no"?>
<!DOCTYPE svg PUBLIC "-//W3C//DTD SVG 20010904//EN"
 "http://www.w3.org/TR/2001/REC-SVG-20010904/DTD/svg10.dtd">
<svg version="1.0" xmlns="http://www.w3.org/2000/svg"
 width="553.000000pt" height="554.000000pt" viewBox="0 0 553.000000 554.000000"
 preserveAspectRatio="xMidYMid meet">
<metadata>
Created by potrace 1.16, written by Peter Selinger 2001-2019
</metadata>
<g transform="translate(0.000000,554.000000) scale(0.100000,-0.100000)"
fill="#000000" stroke="none">
<path d="M2624 5520 c-999 -79 -1886 -680 -2324 -1575 -143 -294 -222 -555
-272 -900 -20 -139 -17 -571 5 -715 92 -595 330 -1088 728 -1504 324 -340 775
-609 1219 -730 257 -70 461 -96 740 -96 294 0 514 30 777 106 741 214 1377
738 1731 1427 142 276 237 571 282 877 29 195 29 616 0 814 -137 931 -755
1727 -1623 2090 -226 95 -512 170 -747 195 -142 16 -391 21 -516 11z m476 -55
c429 -46 815 -178 1166 -401 232 -146 526 -419 692 -641 266 -356 440 -771
508 -1213 24 -161 30 -523 10 -693 -73 -630 -331 -1174 -771 -1626 -242 -248
-467 -413 -770 -562 -787 -387 -1667 -384 -2437 7 -733 373 -1266 1098 -1403
1909 -39 235 -47 560 -20 785 106 858 600 1614 1344 2059 504 302 1111 437
1681 376z"/>
</g>
</svg>
