<?xml version="1.0" standalone="no"?>
<!DOCTYPE svg PUBLIC "-//W3C//DTD SVG 20010904//EN"
 "http://www.w3.org/TR/2001/REC-SVG-20010904/DTD/svg10.dtd">
<svg version="1.0" xmlns="http://www.w3.org/2000/svg"
 width="529.000000pt" height="529.000000pt" viewBox="0 0 529.000000 529.000000"
 preserveAspectRatio="xMidYMid meet">
<metadata>
Created by potrace 1.16, written by Peter Selinger 2001-2019
</metadata>
<g transform="translate(0.000000,529.000000) scale(0.100000,-0.100000)"
fill="#000000" stroke="none">
<path d="M1453 5269 c-291 -22 -579 -131 -814 -309 -700 -529 -833 -1529 -294
-2215 35 -44 589 -605 1232 -1246 887 -886 1187 -1179 1248 -1221 164 -114
343 -195 538 -244 91 -24 127 -27 328 -31 201 -5 238 -3 337 16 615 118 1098
590 1237 1211 27 116 32 460 10 593 -43 262 -163 523 -336 732 -31 39 -576
588 -1211 1221 -927 925 -1171 1162 -1243 1213 -109 77 -297 170 -425 211
-177 58 -409 84 -607 69z m292 -49 c280 -32 551 -142 768 -314 45 -35 604
-588 1242 -1228 870 -871 1175 -1184 1219 -1245 117 -167 210 -387 253 -598
27 -137 25 -444 -5 -582 -128 -593 -568 -1039 -1162 -1180 -157 -37 -409 -43
-579 -14 -232 39 -468 140 -656 278 -66 49 -397 373 -1251 1227 -1247 1248
-1229 1229 -1343 1446 -224 430 -227 951 -7 1384 286 563 900 896 1521 826z"/>
</g>
</svg>
