<svg width="205" height="205" viewBox="0 0 205 205" fill="none" xmlns="http://www.w3.org/2000/svg">
<path d="M146.794 77.6255V66.9981C146.794 66.1125 146.098 65.4166 145.213 65.4166H131.106C130.221 65.4166 129.525 66.1125 129.525 66.9981V77.6255C129.525 78.5111 130.221 79.2069 131.106 79.2069H145.213C146.098 79.2069 146.794 78.5111 146.794 77.6255Z" fill="#0083FF"/>
<path d="M123.136 65.4799C115.039 65.986 109.504 70.161 107.448 77.1194C107.131 78.1632 107.89 79.2069 108.966 79.2069H123.199C124.085 79.2069 124.78 78.5111 124.78 77.6255V67.0614C124.78 66.1757 124.021 65.4166 123.136 65.4799Z" fill="#0083FF"/>
<path d="M153.183 65.4483C161.28 65.9543 166.815 70.1294 168.871 77.0878C169.188 78.1315 168.429 79.1753 167.353 79.1753H153.12C152.234 79.1753 151.539 78.4794 151.539 77.5938V67.0297C151.539 66.1441 152.298 65.385 153.183 65.4483Z" fill="#0083FF"/>
<path d="M169.789 108.748C169.789 108.717 169.757 108.685 169.725 108.654C169.599 108.464 169.441 108.274 169.283 108.116C169.251 108.084 169.219 108.021 169.188 107.989C166.626 105.143 162.862 103.372 158.718 103.372C154.733 103.372 151.096 105.016 148.502 107.673C146.004 110.235 144.485 113.746 144.485 117.605C144.485 120.261 145.244 122.792 146.541 124.943C147.237 126.113 148.123 127.188 149.135 128.074C149.198 128.105 149.23 128.137 149.261 128.169C149.419 128.327 149.578 128.453 149.767 128.612C149.767 128.612 149.767 128.612 149.799 128.612C149.831 128.643 149.862 128.675 149.894 128.675C152.266 130.667 155.334 131.838 158.718 131.838C163.906 131.838 168.429 129.054 170.896 124.943C171.623 123.709 172.192 122.349 172.54 120.926C172.825 119.85 172.951 118.743 172.951 117.605C172.951 114.252 171.781 111.152 169.789 108.748ZM164.032 119.914H161.091V122.982C161.091 124.278 160.015 125.354 158.718 125.354C157.422 125.354 156.346 124.278 156.346 122.982V119.914H153.405C152.108 119.914 151.033 118.838 151.033 117.541C151.033 116.245 152.108 115.169 153.405 115.169H156.346V112.354C156.346 111.057 157.422 109.982 158.718 109.982C160.015 109.982 161.091 111.057 161.091 112.354V115.169H164.032C165.329 115.169 166.404 116.245 166.404 117.541C166.404 118.838 165.361 119.914 164.032 119.914Z" fill="#0083FF"/>
<path d="M169.789 85.5327V99.3863C169.789 100.557 168.555 101.316 167.511 100.778C164.854 99.3863 161.818 98.6272 158.718 98.6272C153.626 98.6272 148.66 100.715 145.118 104.352C141.639 107.894 139.741 112.607 139.741 117.605C139.741 120.167 140.753 123.456 142.018 126.208C142.524 127.315 141.765 128.675 140.532 128.675H124.907C114.754 128.675 106.53 120.451 106.53 110.298V85.5327C106.53 84.6471 107.226 83.9513 108.112 83.9513H168.207C169.093 83.9513 169.789 84.6471 169.789 85.5327Z" fill="#0083FF"/>
<g filter="url(#filter0_d_1_18)">
<circle cx="102.5" cy="68.5" r="27.5" fill="white"/>
</g>
<path d="M109.863 81.4375H94.1375C89.8875 81.4375 89.6625 79.1 89.475 77.2125L88.975 70.95C88.8625 69.7375 89.2125 68.525 89.9875 67.55C90.9125 66.425 92.225 65.8125 93.6375 65.8125H110.362C111.75 65.8125 113.062 66.425 113.95 67.4875L114.162 67.775C114.837 68.7 115.137 69.825 115.025 70.9625L114.525 77.2C114.337 79.1 114.113 81.4375 109.863 81.4375ZM93.6375 67.6875C92.8 67.6875 92 68.0625 91.475 68.7125L91.3875 68.8C90.9875 69.3125 90.775 70.0375 90.85 70.7875L91.35 77.05C91.525 78.875 91.6 79.5625 94.1375 79.5625H109.863C112.413 79.5625 112.475 78.875 112.65 77.0375L113.15 70.775C113.225 70.0375 113.012 69.3 112.525 68.725L112.4 68.575C111.837 67.9875 111.125 67.6875 110.35 67.6875H93.6375Z" fill="#007EF5"/>
<path d="M112.625 68.275C112.113 68.275 111.688 67.85 111.688 67.3375V65.1C111.688 61.375 111.038 60.725 107.312 60.725H104.125C102.712 60.725 102.225 60.225 101.688 59.5125L100.075 57.375C99.525 56.65 99.4 56.475 98.275 56.475H96.6875C92.9625 56.475 92.3125 57.125 92.3125 60.85V67.2875C92.3125 67.8 91.8875 68.225 91.375 68.225C90.8625 68.225 90.4375 67.8 90.4375 67.2875V60.85C90.4375 56.0625 91.9 54.6 96.6875 54.6H98.2875C100.212 54.6 100.813 55.225 101.588 56.25L103.187 58.375C103.525 58.825 103.55 58.85 104.138 58.85H107.325C112.113 58.85 113.575 60.3125 113.575 65.1V67.3375C113.563 67.85 113.137 68.275 112.625 68.275Z" fill="#007EF5"/>
<path d="M105.212 75.1875H98.7875C98.275 75.1875 97.85 74.7625 97.85 74.25C97.85 73.7375 98.275 73.3125 98.7875 73.3125H105.212C105.725 73.3125 106.15 73.7375 106.15 74.25C106.15 74.7625 105.737 75.1875 105.212 75.1875Z" fill="#007EF5"/>
<defs>
<filter id="filter0_d_1_18" x="0" y="0" width="205" height="205" filterUnits="userSpaceOnUse" color-interpolation-filters="sRGB">
<feFlood flood-opacity="0" result="BackgroundImageFix"/>
<feColorMatrix in="SourceAlpha" type="matrix" values="0 0 0 0 0 0 0 0 0 0 0 0 0 0 0 0 0 0 127 0" result="hardAlpha"/>
<feOffset dy="34"/>
<feGaussianBlur stdDeviation="37.5"/>
<feComposite in2="hardAlpha" operator="out"/>
<feColorMatrix type="matrix" values="0 0 0 0 0 0 0 0 0 0 0 0 0 0 0 0 0 0 0.1 0"/>
<feBlend mode="normal" in2="BackgroundImageFix" result="effect1_dropShadow_1_18"/>
<feBlend mode="normal" in="SourceGraphic" in2="effect1_dropShadow_1_18" result="shape"/>
</filter>
</defs>
</svg>
